<svg xmlns="http://www.w3.org/2000/svg" xmlns:xlink="http://www.w3.org/1999/xlink" viewBox="0 0 1169.91 1761.72"><defs><style>.cls-1{fill:none;}.cls-2{fill:#f2f2f2;}.cls-3{fill:#3c280a;}.cls-4{fill:#fff;}.cls-5{fill:#967444;}.cls-6{fill:#be9664;}.cls-7{opacity:0.1;}.cls-8{clip-path:url(#clip-path);}.cls-9{fill:#101010;}</style><clipPath id="clip-path"><path class="cls-1" d="M540.46,925.38c-161.79-14.71-319.79-20-480-27.67a524.61,524.61,0,0,0,1007.72,199.75,519.91,519.91,0,0,0,39.18-157.38c-90.93-1.42-181.89-3.79-273-7.7C736.45,928.88,638.46,934.71,540.46,925.38Z"/></clipPath></defs><g id="Layer_2" data-name="Layer 2"><g id="Layer_1-2" data-name="Layer 1"><path class="cls-2" d="M1044,287.66c0-.24,0-.47,0-.69l65.31-22.45-100.22-35.34,14,21.11-13.64-.07c-.32-2.21-.64-4.41-1-6.58-1.24-8.57-2.51-17.43-4.38-26.2-12.18-57-40.9-100.4-85.35-128.89-15.06-9.66-31-18-46.5-26.07-6.11-3.19-12.42-6.48-18.55-9.79-2.8-1.51-5.63-3-8.38-4.43-11.8-6.16-23-12-32-20.48-3.64-3.43-7-7.25-10.62-11.29-2.27-2.56-4.61-5.19-7.07-7.78a16,16,0,0,0-7.15-4.1l-.45-.13L777.46,0,774,10.87c-.06.16-.13.32-.2.48-.67,1.57-2.41,5.63-.93,9.84L751.21,60.94q-25.05,45.91-50.11,91.82c-4.29-12.37-10.59-24.71-20.56-35.56-3.72-4-7.67-6.66-11.77-7.77-16.5-4.44-38.42-9.12-61.74-5.93-29.38,4-46,19.88-52.39,49.93-3.42,16.16,2.68,29.79,9.22,42.37,8.54,16.43,9.21,32.26,2,48.39-1,2.24-2,4.48-3.2,7.13l-2.59,5.76-11.61,6.05c-.84.43-1.67.91-2.52,1.39a23.72,23.72,0,0,1-2.91,1.51,221,221,0,0,1-60.45-.75c-2.41-.37-4.82-.76-7.23-1.15-11-1.76-22.36-3.59-33.89-4.16-18.16-.91-33.76,4.9-45.23,16.81-.4.13-.8.27-1.17.41-2.3.87-4.62,1.68-7.08,2.54a140,140,0,0,0-17.23,6.9,21.32,21.32,0,0,0-11.63,17.43,23.33,23.33,0,0,0,4.52,15.75l-12.43,2.06,24.88,14.67c1.13.67,2.22,1.38,3.27,2.07a39.88,39.88,0,0,0,8.83,4.69l1,.36c7.53,2.59,15.32,5.26,23.6,6.77a116.07,116.07,0,0,0,14,1.68l9.46,3.69c2.52,1,5,1.89,7.35,2.77,4.79,1.78,9.32,3.46,13.45,5.42,11.79,5.56,24.59,6.65,38.08,3.25,1.66,28.38,9.45,56,23.66,84.07.72,1.43,1.47,2.84,2.23,4.25a71.81,71.81,0,0,1,3.92,8c2.1,5.43,2.49,7.88,1.51,9.37a74.4,74.4,0,0,0-9,19.18l-.17.63a93.5,93.5,0,0,0-2.42,16.14l-5.14,17.17c-5.39,6.95-10.12,16.71-14.06,29.08a7.62,7.62,0,0,1-2,2.9c-15.9,14.47-29.07,26.21-41.46,36.94l-.43.38c-6.16,5.34-12,10.39-18.29,14.17-12.92,7.75-28.3,13.54-47,17.69-2.95.66-5.9,1.29-8.84,1.93-19.74,4.28-40.15,8.71-59.55,17.39l-1,.44c-9.06,4.06-17.61,7.88-27,9.12-30.72,4-59.29,18.66-87.37,44.71-2.61,2.43-5.2,4.89-7.8,7.36-9.72,9.24-18.9,18-29.2,24.8-13,8.61-25.95,10.36-37.5,5.07-12.4-5.68-21.93-19-23.71-33.1C102,684.45,116,659.21,134.69,651c5.1-2.25,14.55-4.87,20.55,2.95a24.81,24.81,0,0,1,2.19,4.54c.53,1.28,1.12,2.72,1.84,4.23l13.17,27.78,6.57-30c2.09-9.53.63-18.33-4.34-26.14-6.91-10.87-18-17.22-32.06-18.35-25-2-50.79,8.85-69.26,26.9l-13.82,4.26-1.87.72-.36.2c-6.26,3.13-18.5,13-23.36,43.08l-.8,2.4-3.94-3.94,1.16,12.31-4.24,12.75c-.76,2.31-1.74,5.37-2.49,8.63a80,80,0,0,0-2.14,19.25l-.21.41.36,3a60.71,60.71,0,0,0,1.5,9.82l0,.15h0v.06q.61,2.52,1.45,5l-5-2.35,7.11,7.62a59,59,0,0,0,6.84,11.38l1,1.29c3.37,4.38,5.28,7,5.21,9.6a3.22,3.22,0,0,1,0,.43l-.07.61v.61a38.12,38.12,0,0,0,1.79,10.7c.08.28.18.59.29.94l0,.1c1.5,4.36,15.05,38.71,69.32,38.71a151.42,151.42,0,0,0,21-1.56l1-.11.39-.1c4.84-.83,10.08-1.89,16.43-3.33,3.33-.76,6.62-1.67,9.8-2.72,32-10.17,45.32-27.43,57.44-53.81,2.54-5.53,5.14-10.55,7.69-15-.07,1.51-.11,3.06-.13,4.64-.47,43.7,13,63.63,16.92,68.56a87.79,87.79,0,0,0,10.56,14.41c7.42,8.19,12.23,16.35,14.71,24.92-8,13.12-13.32,28.29-16.78,47.54-1.8,10-5.64,17.78-12.09,24.41-5.84,6-9.84,13-13.71,19.8-.57,1-1.15,2-1.72,3-3,5.15-3,11.16-2.94,14.38.06,11.31,4.83,20.58,9.72,29.1q3.36,5.88,6.78,11.73C255,1058.71,272.69,1089.22,279,1125c1.57,9,8.67,14.79,18.1,14.82a6.72,6.72,0,0,1,2.65.4,6,6,0,0,1-.73,3.64c-6.09,12.11-3.69,22.64-.92,30.46,2.69,7.6,8,12.24,15.77,13.79a121,121,0,0,0,23.75,2.39,115.74,115.74,0,0,0,26.79-3.14c3.31-.79,9.49-2.26,12-8.38s-.79-11.39-3-14.89-4.63-6.79-7-9.93c-4-5.42-7.83-10.54-9.85-16.19a27.31,27.31,0,0,0-11.42-13.46c-4.74-2.88-6.74-6.41-6.92-12.17a57.08,57.08,0,0,0-12.9-34.3c-11.08-14-20.35-30.24-30.06-52.78-6.57-15.26-4.91-30.34,5.08-46.11,6.61-10.43,13.83-20.86,20.81-30.94,4.59-6.63,9.34-13.49,13.91-20.35l3.55-5.28q2.43-3.58,4.82-7.19l.4-.65c1.21-2.15,2.46-4.45,3.74-6.87l.52.34c-1,3-2,6-2.9,9-.36,1.18-.73,2.35-1.1,3.52-4,12.44-9.65,26.49-21.94,36.38-14.28,11.5-16.56,36.79-4.69,52l.43.56c6.68,8.59,13.59,17.47,20.16,26.3l5.91,7.91c15.58,20.83,31.69,42.38,44.3,65.33l.8,1.41c.4.7,1,1.72,1.24,2.29a15.91,15.91,0,0,0,4.49,11.27c4.56,4.53,10.67,4.5,13,4.5,1.2,0,2.41,0,3.61,0,.31,0,.76,0,1.22,0a21.69,21.69,0,0,1,.88,2.76c-1.39,1.62-5.16,6.68-4.35,12.93a28.8,28.8,0,0,0,26.42,25.27c13.2.83,26.24.54,38.84.27a28.35,28.35,0,0,0,10.25-2.58c1-.42,2-.82,3-1.13l14.5-4.74-9.61-11.86c-1.34-1.65-2.59-3.21-3.78-4.7-2.55-3.18-4.95-6.18-7.46-9.1-1-1.15-2-2.22-2.91-3.25-3.47-3.8-5.63-6.28-6.27-9.36-1-4.65-3.77-9.19-8.56-13.89-10.83-10.62-21.13-21.23-28.11-34.29-2.77-5.18-6.89-8.81-10.52-12a37.69,37.69,0,0,1-5.56-5.55c-10.35-14.58-20.7-30.16-30.76-46.3-3.91-6.26-1.72-20.28,4.19-26.78,7.25-8,15.6-17.36,22.8-27.48a265,265,0,0,0,14-22.76c1.36-2.39,2.72-4.78,4.1-7.15,4.27-7.32,9-14.26,14.08-21.61,7.84-11.42,16-23.24,22.05-36.6,4.73-10.35,10.09-22.09,10.63-35.75,0-.8,0-1.57,0-2.32,1.4.36,2.8.74,4.18,1.14l1.6.49,1.3.07a89,89,0,0,0,13.47-.27l3.69-.36c10.74-1,21.85-2.05,32.67-7.57,15.4-7.87,29.28-15,43.1-23.25,19.84-11.78,37-26.91,53.58-41.54l5.73-5c.56-.49,1.26-1,2-1.61l29.92-23.32.19,0,3.72.38,1-.66c16.29.4,51.08-2.59,60.43-7.94,9.71-5.55,19.27-11.53,28.52-17.32q5.8-3.64,11.65-7.26l8.1-5-.41-.84,1.11,0,1-.15a157.7,157.7,0,0,0,15.58-3.31c-2.21,19.06-5.15,37.18-12.88,54.16-3.54,7.79-3.1,15.45.91,21.63a35.11,35.11,0,0,0-4.14,1.7,23.92,23.92,0,0,0-4.71,3.2l-.68.56c-4.66,1.8-16.66,6.93-16.69,22.14a42.1,42.1,0,0,1-.46,5.07c-.24,1.9-.51,4-.6,6.31A86.45,86.45,0,0,0,769,837.93c2.1,5.31,5.83,9,10.5,10.46a15.84,15.84,0,0,0,13.7-2.44c6.5-4.41,12.9-9.05,19.09-13.53q3.36-2.45,6.75-4.88c.84-.61,1.59-1.21,2.24-1.73.41-.34.82-.67,1.26-1s1.35-.91,2.17-1.42a28.31,28.31,0,0,0,8.32-7c6.08-8.21,10.05-18,12.12-29.83.5-2.87,1.67-9.59,4.14-12.8,8.45-11,8-21.7,6.53-30.68C852,720.38,853,700.47,859,682.18c2.43-7.47,5-15.39,7.27-23.52a240.61,240.61,0,0,1,1.43,47.61c-.36,5.28.67,9.74,3.05,13.35a28.53,28.53,0,0,0-12.24,15.15,25.77,25.77,0,0,0,1,20.58c5.55,10.61,11.43,21.18,17.13,31.41l4.79,8.63a24.84,24.84,0,0,0,3.16,4.32c.29.34.61.71.93,1.11l7.6,9.57,8.32-8.95c.36-.39.71-.73,1-1a20.5,20.5,0,0,0,3.77-4.61c4.32-7.58,8.4-14.94,13.28-23.78a24.13,24.13,0,0,0,1.49-3.34,1.34,1.34,0,0,0,.07-.18c14.17-14,13.21-31.28,11.21-43.14a38.55,38.55,0,0,1-.28-11.87c1.13-7.68.43-15.29-2.2-24-6.88-22.67-11.86-40.09-16.15-56.47-1.52-5.82-2.74-11.43-1.06-16.19a18.08,18.08,0,0,0,.25-10.09c-1.36-6.42-2.71-12.35-4.12-18.11-2.13-8.67-8.09-14.69-16-16.1-15-2.7-27,0-36.57,8.29-7.45,6.45-14.87,10.51-22.67,12.4-5.67,1.38-11.32,2.8-17,4.21-11,2.77-22.43,5.63-33.64,8.07l-1,.21,2.51-1,.48-.13c1.93-.51,5.93-1.56,8.66-5.38,8.84-12.36,21-22.59,37.23-31.28,10.49-5.63,21.33-11.15,31.82-16.49,14-7.16,28.59-14.56,42.68-22.42,35.33-19.69,62-47.15,79.15-81.6,12.18-24.41,20-51.76,25.32-88.68a53,53,0,0,0,.51-8.13l.82,0c.82,0,1.61,0,2.35,0l1.58,0c4.44,0,10.88-.64,15.43-5.57,4.15-4.48,4.69-10.2,4.51-15a24.51,24.51,0,0,0,5.72-13.59l.86-7.35a32,32,0,0,0,1.44-7.87l.25-3.88A31.1,31.1,0,0,0,1044,287.66ZM789.69,564.88l-70.2-144.94A168.21,168.21,0,0,0,728,379.12c1.07,0,2.12.05,3.12.12,15.8,1.1,31.52-1.69,48.06-8.53a48.55,48.55,0,0,1,14.89-3.16l3.91-.26c9.58-.64,19.36-1.29,29.18-3.12l5.47,1.65c25.89,7.86,51.33,5.64,75.61-6.59,13.88-7,29.85-11.18,48.82-12.8,3.59-.31,7.2-.57,10.7-.82l5-.38.75-.05c-.5,15-1.69,30.84-4.64,46.23-8.2,42.73-28,75.65-60.56,100.63-18.48,14.18-38.72,24.87-60.16,36.2l-4.86,2.57C825,540.48,806.11,550.48,789.69,564.88ZM768,598.34a170.81,170.81,0,0,0-1.93-21.24l4.47,9.35a18.06,18.06,0,0,0-.46,2.89,35.86,35.86,0,0,0,0,4.71l.06,1.23.41,12.33-2.84.38C768,604.82,768.11,601.6,768,598.34ZM716.47,205.65c-3-5.51-5.46-10.31-7.66-14.86l81-148.89a104.36,104.36,0,0,0,10.44,8.61c11.37,8,24.18,16.26,39.17,25.23,7.86,4.7,15.92,9.23,23.72,13.61,11.73,6.59,23.85,13.4,35.15,20.75,41.12,26.75,65.52,66,72.52,116.75,1.05,7.65,1.78,15.45,2.56,23.7,0,.3,0,.6.08.9-3.59,0-7.08,0-10.58,0h0q-74.55.76-149.1,1.56l-112.2,1.17q-.39,0-.72,0c0-.25,0-.53-.07-.84a6.69,6.69,0,0,1,.35-2.81l.29-.58c1.71-3.5,3.47-7.1,2.7-11.72a12.67,12.67,0,0,0,3.76-9.09l0,0,.65-.31c4.92-2.31,8.13-5.67,9.54-10C719,215.93,719.51,211.29,716.47,205.65ZM946.11,281l1.91,6.84c-7.73,4.59-16.65,6-29.37,4.71-22.22-2.25-44-3.85-65.9,1.28a141.62,141.62,0,0,0-15.1,4.71l-3.94,1.38a46.51,46.51,0,0,0-7.58-3.12c-18.15-5.62-36.23-5-53.73-4.41l-1.66.05a143.64,143.64,0,0,0-24.31,2.86l-.65-.44q-9.56-6.51-18.35-11.49Zm4.29,0,7.79-.09-1.23.87-3.53,2.48Zm-226.09,218-.78-.85-5.93-4.38-.36-.84-1.34-1.4a39.22,39.22,0,0,1-8.35-12.1v-.71l-.54-1a160.37,160.37,0,0,1-2.31-18.32c-.2-2.26-.4-4.58-.63-6.89l1.12-2c9.87,20.48,19.86,41.24,29.89,62.11l-.05-.09a47.55,47.55,0,0,0-3.15-5,69.12,69.12,0,0,0-5.28-6.05C725.87,500.59,725.1,499.78,724.31,498.91Z"/><path class="cls-3" d="M374.71,316.16c6,4.42,13.13,4.94,20.2,5.4,3.39.22,6.81.07,10.21.09l.08,1.9-23.75,3.95c4,2.37,6.89,4.74,10.18,5.86,7.59,2.61,15.26,5.31,23.13,6.74,24.68,4.5,48.48-.28,71.75-8.32,15.39-5.33,30.59-11.22,47.08-12.28,13.17-.85,25.91-3.79,39.29,2.4,13.77,6.37,29.37,4.78,44.35,3.31,2.14-.21,4.07-2.57,6.1-3.94l-.81-1.41-2.95-.79c3.94-1.5,7.79-2.91,11.59-4.44,3.44-1.38,3.33-4.48,2.45-7.07-.34-1-3.07-1.5-4.76-1.62-3.49-.26-7-.11-10.53-.13l.06-1.42c2.76-.16,5.52-.38,8.28-.48,9.21-.36,18.43-.58,27.63-1.05,4.62-.23,6.72-2.91,6.38-7.53s-2.29-5.85-7-5.8c-11.68.1-23.35-.08-35-.14-.11-.59-.21-1.18-.31-1.76a100.8,100.8,0,0,1,10.51-.95c8.06.09,16.12.45,24.18.82,4.39.21,6.75-1.68,7.33-6.06.87-6.48-1.1-9.1-7.9-9.54s-13.81-.52-20.71-.92-13.82-.78-20.68-1.55c-6.66-.75-13.26-2-19.71-3,6.31-1.73,12.77-3.2,19-5.31a43,43,0,0,0,10.88-5.51c3.53-2.51,4.35-6.25,2.61-9.69-9.07,1.45-17.63,2.76-26.17,4.23a17.88,17.88,0,0,0-5.07,1.81c-13.11,6.79-26.17,13.67-39.27,20.46-2.89,1.5-5.8,3.61-8.88,4a230.46,230.46,0,0,1-63.44-.77c-13.3-2.07-26.63-4.54-40-5.21-14.56-.72-28,3.39-38.29,14.85-.86,1-2.54,1.2-3.87,1.71-7.79,2.95-15.91,5.27-23.3,9C367.77,299.91,367.7,311,374.71,316.16Z"/><path class="cls-3" d="M618.07,266.45l32.35.17-21.29-18.73c0,7.91-5.47,12.77-11.52,17.28C617.76,265.6,617.91,266,618.07,266.45Z"/><path class="cls-3" d="M1003,300.31h-.37c-2,0-3.34.4-4.2,1.26s-1.31,2.31-1.27,4.35.19,4.23,1.43,5.36c.84.77,2.17,1.09,4.07,1,4-.28,8.08-.19,12-.1,1.72,0,3.52.08,5.25.09,8.89.05,12-2.8,12.57-11.66-2.74,0-5.49,0-8.24,0C1017.28,300.53,1010.08,300.52,1003,300.31Z"/><path class="cls-3" d="M1005.38,315.05h-.44c-2.21,0-3.57.36-4.4,1.19s-1.16,2.14-1.1,4.07c.17,5.19,1.36,6.51,6.06,6.69,2.47.1,5,.08,7.45.06,1.28,0,2.56,0,3.84,0,7.91,0,12.55-4,13.45-11.81h-7.12C1017,315.21,1011.25,315.2,1005.38,315.05Z"/><path class="cls-3" d="M1022.16,329.55c-1.91.14-3.72.28-5.53.33h-.26a72.09,72.09,0,0,1-8.18-.07c-.39,0-.76-.05-1.11-.05a4.66,4.66,0,0,0-3.22.89,4.37,4.37,0,0,0-1.21,3.24c-.16,3.69,1.61,5.69,5.42,6.12a38.14,38.14,0,0,0,5.13.11l1.73,0c4,0,6.42-.7,7.8-2.2s2-4.11,1.68-8.5Z"/><path class="cls-3" d="M982.3,336.14l.09-16.5-9.18,2.22S969.82,333.71,982.3,336.14Z"/><path class="cls-3" d="M997.39,328.94c-.9-3.54-1.77-7.08-2.54-10.64-.3-1.38.07-3-.51-4.21a17.76,17.76,0,0,1-.48-14.8,4.5,4.5,0,0,0,0-1.44l-4.89,0a86.45,86.45,0,0,1-.13,9.58,48.51,48.51,0,0,1-2,7.5c-.83,2.88-2.42,5.76-2.43,8.64-.11,23.41-.76,46.75-5.19,69.85-8.37,43.6-29,79.71-64.48,107-20.09,15.42-42.43,27-64.68,38.76-18.93,10-37.95,19.87-54.09,34.23-3.22,2.87-6.15,6.09-9.28,9.38l-78.48-162a10.33,10.33,0,0,1,.37-1.33,159.17,159.17,0,0,0,9.06-42.85c.17-2.56.57-5.1.9-7.89,4.77,0,9.05-.18,13.3.11,15.11,1.05,29.36-2,43.32-7.75a59.26,59.26,0,0,1,18.18-3.94c16.11-1.11,32.16-1.76,47.59-7.48,9.61-3.57,18.42-7.86,24.47-16.57,1.94-2.78,2.16-5.16-.68-7.19-4-2.82-8.07-5.44-12.13-8.16,6.45,1.34,12.53,3.61,17.69,8.33,2.74,2.5,2.84,4.72,1.06,7.73-4.4,7.4-11,12.17-18.64,15.57-5.63,2.51-11.52,4.41-17,6.48q34.88,10.58,67.84-5.93c16.54-8.33,34.3-12.32,52.66-13.88,5.45-.47,10.91-.83,15.84-1.21L966,313c2.94,3.16,5.23,6,9.82,5s8.53-5.17,8.85-9.52c.29-4.09.1-8.21.12-12.25l-6-2.6.24-.62,13.25.07c-.16-1.43-.3-2.62-.5-4.43,5.48,7,12,9.16,19.14,6.77,2.78-.94,4.36-2.07,2.24-5.3-3.07-4.66-5.67-9.64-8.77-14.29-.86-1.29-3-2.93-4.12-2.65-6.93,1.76-14.23,3.06-20.44,6.34-8.54,4.49-16.21,10.63-24.28,16-11.59,7.72-24.33,8.81-37.86,7.44-20.82-2.11-41.75-3.79-62.45,1-6.89,1.62-13.52,4.34-20.6,6.67,9.67,14.51,7.66,22.35-7.11,29.55a92.9,92.9,0,0,1-18.41,7c-21.43,5.24-43.15,4.13-64.82,1.81a49.46,49.46,0,0,1-24.05-8.95,16.49,16.49,0,0,1,2.77,0c26.7,6.11,53.63,6,80.5,1.88a102.66,102.66,0,0,0,27.23-8.08c10.23-4.72,10.06-17.49.43-23.44a35.65,35.65,0,0,0-8.05-3.66c-17-5.26-34.5-4.48-51.94-3.89a122.77,122.77,0,0,0-46.47,10.33c-2.34,1.05-4.76,1.93-8.47,3.42,7-7.72,14.7-11.15,23.72-13.16-31.79-21.66-56.29-29.66-73.73-24.52-.57,2.49-1.18,4.82-1.62,7.18-.3,1.54-1,3.43-.42,4.63,3.25,6.66-.87,16.92-10.77,16.45-4.84-.22-9.73.4-15,.66.61,6.81-2.83,10.16-8.51,12a6.08,6.08,0,0,0-3.25,3.14,9.79,9.79,0,0,1-8.65,6.38c-17.34,1.78-34.79,2.07-51.09-4.78-9.21-3.87-17.72-2.21-27.25-1.23l-1.7.17a34.34,34.34,0,0,1,3.31,1.69c10.7,6.27,16.64,17.95,19.38,29.54.68,2.85,1.13,5.56,2,8.29a46,46,0,0,0,3.26,7.73c11.48,21.62,36.9,27,59.5,23.9-14.24,2.35-29.54,1.93-42.68-4.63a46.51,46.51,0,0,1-23-26c-1-2.71-1.68-5.69-2.42-8.44-4-15.38-14.62-29.69-31.7-29.85a15.18,15.18,0,0,0-1.65.07h-.15l0-.41c-5.69,1-11.36,2.2-16.92,3.74-16.61,4.61-33,9.87-49.67,14.45-5.18,1.42-10.74,1.5-17,2.31,7.79,3,14.83,5.33,21.47,8.47,10.56,5,21.23,5.27,32.23,2.25,3.72-1,7.44-2.05,11-3,.38.59.55.73.54.87-.17,32.6,8.23,63.07,22.87,92,2.22,4.41,4.82,8.67,6.58,13.26,2.37,6.15,4.49,12.85.47,18.93a63.72,63.72,0,0,0-7.74,16.47c-2.69,11.17-3.59,24.57.61,35.35a33.82,33.82,0,0,0,2.75,5.31q1.7,2.83,3.38,5.71c9.93,16.65,14.93,32.33,7.83,51.27,4.54-19-1.72-32.9-13.22-47.69-2-2.65-4.18-5.26-6.09-8a39.6,39.6,0,0,1-3.48-6.4c-.06.19-.09.3-.09.3-5.32,6.21-9.91,15.95-13.52,27.25a18,18,0,0,1-4.91,7.49c-13.75,12.51-27.6,24.93-41.65,37.11-6.43,5.57-13,11.26-20.2,15.61-15.5,9.3-32.58,15-50.14,18.94-22.49,5-45.18,9.18-66.37,18.65-10,4.47-19.63,8.9-30.95,10.39-32,4.2-58.25,20.34-81.59,42-12.4,11.51-24.37,23.94-38.35,33.21C132.1,767.91,98,736.9,94.13,706.28c-3.14-24.9,13.3-54.74,36.32-64.92,13.1-5.79,25.57-3.67,33.11,6.14,2.25,2.94,3.34,6.76,5.19,10.68,1.5-6.82.55-12.77-2.95-18.27-5.58-8.79-14-12.71-24-13.51-34.56-2.78-71.36,23-81.44,56.78a76.7,76.7,0,0,0-2.58,32.15c-7.11-19.75-5.81-39,4.87-58.21l0,0-.31.13-.07,0c-2.84,1.35-19.38,11.28-19.81,60.29h0a95.13,95.13,0,0,0,4.46,21.08c2.07,6.22,5.16,12.11,8.17,19,0,0-15.8-8.71-18.93-39.76-.84,2.53-1.62,5.07-2.21,7.66a66.61,66.61,0,0,0-1.77,19.29v0h0a49.44,49.44,0,0,0,1.3,8.56c-.15-.75-.29-1.49-.42-2.23-.25-1.46-.46-2.89-.64-4.28.18,1.39.39,2.82.64,4.28.13.74.27,1.48.42,2.23a47.21,47.21,0,0,0,8.51,17.74c4.2,5.5,8.52,10.52,8.35,17.5,0,.45,0,.9-.09,1.37a27.68,27.68,0,0,0,1.36,7.75c0,.18.12.39.19.61,2.58,7.51,18.69,38.84,79.52,30.09l.12,0h0c5.43-.91,10.85-2,16.26-3.28,3.05-.69,6-1.52,8.88-2.47,29.59-9.37,40.44-24.9,51.14-48.2,14.15-30.81,30.06-46.5,30.06-46.5l-6-2.15c10.35-13.07,28.11-14.76,28.11-14.76s-24.11,11.55-24.6,57.51c-.49,45.24,14.59,61.88,15.05,62.38h0a75.85,75.85,0,0,0,9.71,13.41c7.77,8.59,14,18.32,17.18,29.66.53,1.88.73,4.56-.21,6-8.93,14-13.59,29.51-16.49,45.65-2.06,11.45-6.55,21.29-14.9,29.88-5.72,5.88-9.7,13.55-13.88,20.76-1.45,2.49-1.54,6-1.52,9,0,8.87,4,16.46,8.33,23.94,20.75,36.2,43.34,71.59,50.72,113.77.73,4.13,3.62,6.11,7.8,6.12,13.65.05,15.24,11.36,11.26,19.26s-3.08,14.68-.4,22.24c1.43,4.05,3.81,6.17,7.93,7a106.46,106.46,0,0,0,46.05-.68c5.95-1.41,5.89-2.14,2.55-7.47-5.88-9.4-13.93-17.38-17.8-28.16a17.14,17.14,0,0,0-7-8c-8-4.85-11.69-11.83-12-20.82-.33-10.63-4.1-19.85-10.64-28.1-13.3-16.77-23-35.56-31.47-55.14-8.54-19.83-5.18-38.48,5.85-55.89s23.35-34.26,34.86-51.5c2.76-4.14,5.59-8.26,8.34-12.43,19.89-35.42,37.67-84.59,22.21-121.07a66.17,66.17,0,0,0-15.23-21.78A66.62,66.62,0,0,1,361,792.67c13.34,32.74,3.88,72.67-9,105.55l.31.14,2.24,1.49c5.73,3.79,6,4.75,3.7,11.37-1.45,4.19-2.72,8.45-4.07,12.67-5,15.88-11.81,30.47-25.36,41.38-10.14,8.17-11.05,27.06-3,37.42,7,9,13.95,17.92,20.73,27,18,24.14,36.44,48,51,74.45,1.41,2.56,3.32,5.38,3.32,8.08,0,5.3,2.94,6,7,6,1.31,0,2.63,0,3.95,0,4,.11,8.36.31,10,4.77,1.81,5,4.35,10.18-.17,15.31-1.09,1.25-2.14,3.29-1.95,4.8,1.11,8.51,7.69,15.57,16.67,16.14,12.61.79,25.3.53,37.95.25,3.17-.07,6.3-1.91,10.22-3.19-4.22-5.2-7.54-9.48-11.06-13.59-4.54-5.29-9.93-9.79-11.49-17.3-.65-3.12-3.22-6.17-5.63-8.54-11.39-11.16-22.33-22.45-30-36.83-3.41-6.39-11.07-10.36-15.38-16.43-10.84-15.28-21.2-30.93-31.11-46.82C373,1006,376.39,986.91,385,977.4c7.72-8.5,15.37-17.17,22-26.5s11.87-19.32,17.58-29.11c11.33-19.44,26.2-36.61,35.65-57.29,4.69-10.27,9.23-20.32,9.69-31.8a14.56,14.56,0,0,0-.43-4.6,186.4,186.4,0,0,0-42-8,189.11,189.11,0,0,0-37.07.82,192.65,192.65,0,0,1,37.13-5.53,186.47,186.47,0,0,1,60,6.5l.44.14a78.92,78.92,0,0,0,11.89-.23c11.19-1.12,22.46-1.65,32.62-6.83,14.34-7.32,28.68-14.71,42.52-22.93,21.2-12.58,39.3-29.26,57.74-45.45,1.08-.94,2.23-1.79,3.36-2.67a151,151,0,0,1-57.51,3.39,168.14,168.14,0,0,1-31.48-7.55,160.77,160.77,0,0,0,34.66,4.36,143.89,143.89,0,0,0,41.68-5.46,134.13,134.13,0,0,0,31.23-13.29c-19.79-8-37.39-22.23-34.46-45a50.45,50.45,0,0,1,3-11.44c-4,16.05,0,30.17,14.34,39.24,10.48,6.56,22.94,9.68,35.3,11l.74-.49c14.14,1.1,51.14-2.4,58.14-6.4,13.52-7.73,26.6-16.23,39.87-24.41-.09-.18-.37-3.35-.71-7.22,3.66-.15,7.27-.22,10.8-.22,1.16,0,2.32,0,3.48.06a143,143,0,0,0,20.51-4.84c2.72-.87,5.56-1.39,8.33-2.06a6.1,6.1,0,0,1,.37,1.41c-2.6,24.21-5,48.48-15.26,71-3.06,6.72-1.32,12.21,5,16,1.26.77,2.65,1.34,3.85,2.19,3.45,2.43,3.53,4.95-.33,6.55-2.88,1.19-6.39.75-9.56,1.37a27.62,27.62,0,0,0-7.08,2.27c-2.08,1-3.68,3.14-5.81,4-5.93,2.27-10.4,5.32-10.42,12.54,0,3.92-.92,7.83-1.07,11.76a76.57,76.57,0,0,0,4.94,31.42c1.65,4.18,4.68,5.82,8.53,3.2,8.67-5.89,17.09-12.13,25.6-18.25,1.17-.84,2.25-1.8,3.4-2.65,2.8-2.07,6.32-3.58,8.29-6.25,5.56-7.49,8.59-16.07,10.21-25.37,1.06-6,2.58-12.72,6.15-17.39,5.53-7.22,5.94-14.1,4.52-22.54-3.74-22.14-3.53-44.24,3.53-65.89,2.8-8.6,5.56-17.23,7.94-25.94.89-3.24,2-7.48.67-10l0-.18c-2.79-6.15-6.6-11.8-11.95-15.51-5.77-4-13.13-4.22-19.67-2.38-7,2.15-13.16,6.91-20.14,10-15.22,7.12-31.38,5.85-47.34,2.57-11.21-2.06-22.55-4.2-33.87-5.07a68.64,68.64,0,0,0-11.29,0c-2.11.19-4.23.57-6.35,1a28.13,28.13,0,0,1-5.92,2.43c.52-.56,1-1.1,1.55-1.63l-.62.11.83-.33c.75-.77,1.49-1.53,2.2-2.29,3.09-3.41,7.2-7.62,6.5-12.52-1.17-6.1-8.93-11.07-13.78-14.92a25,25,0,0,1,15.8,8c5,6,3.51,13.2-2.1,18.06-.32.28-.65.54-1,.8.82-.26,1.65-.5,2.5-.71a59.18,59.18,0,0,1,11.68-1.68c13.65-.6,27.16,1.16,40.6,3,9,1.19,18.45,1.68,27.35-.25,7.1-1.38,13.91-4.93,20.27-8.36,7.63-4.12,15.34-6.48,24.11-5,11,1.78,17.92,10.26,21.65,20.19l.77-3.39c11.78-2.57,11.78-2.57,14.79,8.31.09.31.23.62.29.94A245.75,245.75,0,0,1,878.16,707c-.29,4.24.55,7.3,4.32,9.57,1.6,1,4,3.07,3.78,4.08-.5,2-2.38,3.94-4.09,5.44-1.16,1-3,1.17-4.54,1.81-8.1,3.44-12.91,14.94-8.89,22.6,7,13.41,14.48,26.59,21.81,39.83a34,34,0,0,0,3.12,4c1.45-1.55,2.68-2.48,3.38-3.7,4.47-7.85,8.84-15.75,13.21-23.65.94-1.72,1.31-4,2.65-5.22,10.34-9.7,11.14-21.63,9-34.62a49.38,49.38,0,0,1-.31-15.15c1-6.75.1-12.93-1.86-19.38-5.72-18.86-11.27-37.8-16.26-56.87-1.88-7.19-3.48-14.77-.8-22.35a8.63,8.63,0,0,0-.11-4.39q-1.9-8.94-4.06-17.81c-1-4.11-3.38-7.5-7.62-8.26-10-1.79-19.66-1.18-27.84,5.9-8,6.88-16.74,12.16-27.07,14.67-16.94,4.11-33.81,8.61-50.84,12.33-9.54,2.08-19.35,2.92-28.8,4.28.47-7.65,1.44-14.55,1.23-21.4-.88-28.4-8-54.56-28.12-75.94-2.43-2.58-3.77-6.15-5.93-9-1.93-2.58-4.29-4.83-6.94-7.75l-.38-.28a81.06,81.06,0,0,1,0,32.25c-.21,1.13-.69,2.79-1,3.91s-.84,2.8-1.24,3.82l-.69,1.88c.16-.7.54-2.25.69-2.92s.43-2.32.55-2.93c2.29-14.55-.37-29.46-6.11-43-4.23-4.38-9-10.48-11.29-17.55h0c-2.28-10-2.56-20.47-3.76-30.73a1.89,1.89,0,0,1,.34-.91l12.11-21.64a25.83,25.83,0,0,1,1.36,2.23q37.14,77.14,74.15,154.37c.68,1.42-.55,3.7-.68,5.59a46.26,46.26,0,0,0,.12,4.85c1.47-.58,3.55-.72,4.32-1.8,10.69-15,24.87-25.88,40.8-34.43,24.64-13.21,50-25.21,74.35-38.82,32.53-18.13,58.09-43.47,74.87-77.12,13.47-27,20.05-55.85,24.33-85.5,1.33-9.18-1-17.76-1.08-26.63C998.27,330.06,997.54,329.54,997.39,328.94ZM64.28,791.05c17.23,8.06,35.3,9.42,54.85,6.72C103.47,807.55,76.45,804.09,64.28,791.05ZM536,413.7a35.35,35.35,0,0,1-9-8.72c-5.49-7.77-7.69-18.36-4.07-27.31.56,10,3.77,19.34,10.1,26.91,5,6.06,11.11,10.37,17.63,14.93A37.71,37.71,0,0,1,536,413.7Zm7.61-21.49a39.23,39.23,0,0,1-9.65-9.67c-5.82-8.55-8-20-4.13-29.77.22,11.22,3.78,21.89,10.91,30.41,5.27,6.36,11.72,11,18.6,15.8A42.15,42.15,0,0,1,543.64,392.21Zm74.84,72.43c-4.41,9.51-5.35,20.48-4.5,31a96.84,96.84,0,0,0,1.38,10.45,44.53,44.53,0,0,1-4-10c-3.17-11.47-2.72-24.19,2.83-35,1.19-2.29,2.69-4.69,3.91-6.94,5-9.14,9.38-18.66,11.42-28.95,1.26,9.59-1.89,20.12-5.7,28.86-.69,1.45-1.59,3.48-2.37,4.86C620.52,460.69,619.3,462.85,618.48,464.64Zm77.73,81.08c14.34,8.91,22.57,24.37,24.57,40.87a69.36,69.36,0,0,1,.55,8.64c-.6-2-1.26-4.19-1.91-6.15a88.17,88.17,0,0,0-7.56-17.23c-10-17.45-26.38-26.24-46.18-27.75-4.75-.47-10-.18-14.75-.36-6.73-.32-13.61-1.47-19.55-4.87-5.17-2.9-9.59-8.47-9-14.64.9,4.78,4.54,8.52,8.8,10.55a30.77,30.77,0,0,0,9.61,2.59,64.91,64.91,0,0,0,9.14.32c5.36-.26,10.76-1,16.18-.7C676.63,537.34,687.24,540.06,696.21,545.72Zm-41.32-117a84.38,84.38,0,0,0,10.57,16.16c3.55,4.44,7.5,8.44,11.37,12.58,8.54,9.83,11.59,23.36,9.86,36a32.36,32.36,0,0,1-1.05,4.88,88.48,88.48,0,0,0-3.35-19,49.87,49.87,0,0,0-11.09-20.07c-1-1.11-2.41-2.63-3.31-3.78C661.84,448.08,655.85,438.29,654.89,428.67Zm2.55-34.05c7.46-3,15.65-5.6,23.09-9.56,13.23-7.05,21.52-18,23.09-33.42.81-8,3.34-15.37,9.8-21.82a12.68,12.68,0,0,1-.73,2.53c-3.8,6.22-5,13-5.35,20.24C705.85,381.53,680.54,397.43,657.44,394.62Z"/><path class="cls-3" d="M1077.36,264.39l-42.2-14.88,6.26,9.44v1.94l-40.86-.22c-.2-1-.49-2.27-.69-3.56-2-12.5-3.4-25.12-6-37.48C982.9,168.4,957.78,126,913.1,97.39c-20.58-13.2-42.82-23.81-64.38-35.46-14.74-8-30.2-14.85-42.56-26.5-6.43-6.07-12-13-18.09-19.48-1-1-2.7-1.22-4.07-1.8-.4,1.27-1.53,3.18-1.08,3.69,2.7,3,.8,5.42-.59,8Q743.8,96.44,705.27,167.05c-2.53,4.63-5.18,9.2-7.73,13.72-4.11-21-10.14-40.58-24.73-56.47-1.84-2-4.26-4-6.77-4.73-18.86-5.07-38-8.35-57.59-5.67-22.9,3.13-37.74,14.32-43.54,41.71-2.71,12.81,2.5,24.26,8.27,35.34,9.77,18.81,11,38,2.3,57.5-1.48,3.35-3,6.68-5.09,11.35,6.27-3.58,11.15-6.61,16.26-9.18,3.91-2,8-4.16,12.22-4.9,9.89-1.72,10-1.39,12.62-11.07a11.24,11.24,0,0,1,.65-1.46c.43,3.65.81,6.85,1.24,10.53a42.34,42.34,0,0,1,6.08-2c4.52-.75,5-3.19,4.36-7.32-.68-4.39-.11-9-.09-13.46,3.93,26.82,35.62,52.09,63.63,52.16,4,0,8,0,13.06.07l284-3.07c.15,1.68.28,3.18.43,4.82,4.76-1.25,9.2-2.36,13.61-3.6a10.53,10.53,0,0,0,2.24-1.4l4.3,0c3.08,5.34,5.05,9.73,7.91,13.42,3.47,4.48,7.71,8.38,3.56,15,4.25,0,7.86.17,11.45,0a6.91,6.91,0,0,0,4-1.32c2.45-2.15,2.06-14.16-.75-16.1a66,66,0,0,0-25.93-11l36.22-.39-6.12,9.37Zm-456.74-82.7a30.42,30.42,0,0,0-4.37,1,9.78,9.78,0,0,0-5.54,3.89l-.25.39c-.1.21-.32.64-.43.84-2.27,5.79-.78,12.78-.09,19-4-5.63-6.44-14.77-3-21.18a10.78,10.78,0,0,1,9.44-5.42,4.28,4.28,0,0,1,.62,0,19.16,19.16,0,0,1,3.63.44c.78.19,1.55.44,2.3.7C622.16,181.49,621.39,181.59,620.62,181.69Zm33.73-16a14.32,14.32,0,0,1-2.58,3.22c-.3.26-.58.52-.89.76a22.94,22.94,0,0,0,2.06-8.34c.09-8.69-6.3-15.6-11.48-22.12C651.19,143.12,660.17,155.33,654.35,165.7Zm28.34,25.13a6.28,6.28,0,0,1-2.93,3.51l0,0c-2.1,1-5.55,1-11-3.22,0,0,10.2-8,14-.32h0Zm9,55.09c3-6.14,3.22-6-2.13-11.52,1.88-.86,3.36-1.55,4.86-2.22,2.29-1,3.9-2.05,2.35-5.17-1.49-3-.58-5.37,3.21-6.06a17.59,17.59,0,0,0,4.11-1.65c3.87-1.82,5.49-4.38,3.18-8.65-3.28-6.07-6.46-12.21-9.39-18.46a7.66,7.66,0,0,1-.6-2.11L787.05,24.94c6.38,5.78,12.29,12.1,19.22,17,12.48,8.79,25.41,17,38.51,24.81,19.61,11.74,40.07,22.12,59.2,34.56,44.9,29.22,69.92,71.32,77.2,124.13,1.61,11.68,2.47,23.46,3.82,36.63-8.08-.05-15.07-.18-22.06-.11q-130.65,1.35-261.3,2.73c-8.47.09-10.81-2-11.38-10.67A16.83,16.83,0,0,1,691.65,245.92Z"/><path class="cls-4" d="M688.44,426.57c0,35.28-25,67.11-59.6,71.56-39.5,5.09-75.89-26.64-75.89-71.56s36.39-76.65,75.89-71.56C663.41,359.47,688.44,391.29,688.44,426.57Z"/><path class="cls-3" d="M569.85,451.33V440h7.41V417.81h-7.54v-9.36h4.57a15.92,15.92,0,0,0,2.26-.13,2.8,2.8,0,0,0,1.45-.61,2.87,2.87,0,0,0,.81-1.38,10.64,10.64,0,0,0,.33-2.39l.2-3.57h8.76V440h7v11.31Z"/><path class="cls-3" d="M611,452.21c-2.11,0-3.91-.06-5.41-.17a9.68,9.68,0,0,1-3.81-1,5.62,5.62,0,0,1-2.42-2.45A15.11,15.11,0,0,1,598,444a60,60,0,0,1-.6-7.37c-.09-3-.14-6.58-.14-10.84s0-7.81.14-10.77a60,60,0,0,1,.6-7.37,15,15,0,0,1,1.35-4.58,5.7,5.7,0,0,1,2.42-2.46,9.85,9.85,0,0,1,3.81-1c1.5-.11,3.3-.16,5.41-.16s3.93.05,5.46.16a9.66,9.66,0,0,1,3.8,1,6,6,0,0,1,2.43,2.46,14.67,14.67,0,0,1,1.38,4.58,60,60,0,0,1,.6,7.37q.14,4.44.14,10.77c0,4.26,0,7.88-.14,10.84a60,60,0,0,1-.6,7.37,14.76,14.76,0,0,1-1.38,4.58,5.92,5.92,0,0,1-2.43,2.45,9.49,9.49,0,0,1-3.8,1C614.91,452.15,613.09,452.21,611,452.21Zm0-11.38a4.74,4.74,0,0,0,1.79-.27c.42-.18.75-.75,1-1.71a25.72,25.72,0,0,0,.43-4.55q.11-3.09.1-8.75t-.06-8.95a29.52,29.52,0,0,0-.37-4.65c-.21-1-.53-1.57-1-1.75a5.26,5.26,0,0,0-1.89-.27,5,5,0,0,0-1.85.27c-.42.18-.74.76-.94,1.75a28.34,28.34,0,0,0-.37,4.65c0,2.11-.07,5.09-.07,8.95s0,6.69.1,8.75a29.57,29.57,0,0,0,.41,4.55c.2,1,.51,1.53.94,1.71A4.72,4.72,0,0,0,611,440.83Z"/><path class="cls-3" d="M659.05,451.33V420.77h-.4l-7.74,30.56h-4.65l-7.81-30.56h-.4v30.56h-9.63v-51h15l4.71,22.15h.47l5.25-22.15h14.88l.07,51Z"/><polygon class="cls-2" points="385.25 1525.89 163.24 1636.93 388.31 1028.93 706.07 1111.37 481.11 1719.07 385.25 1525.89"/><path class="cls-2" d="M483.37,1761.72,377.63,1548.63,132.48,1671.25,377.75,1008.7l350.7,91Zm-90.5-258.57,86,173.27,204.85-553.36-284.81-73.89L194,1602.62Z"/><polygon class="cls-2" points="463.84 1111.37 781.6 1028.93 1006.67 1636.93 784.66 1525.89 688.8 1719.07 463.84 1111.37"/><path class="cls-2" d="M686.54,1761.72l-245.08-662,350.7-91,245.27,662.55L792.28,1548.63ZM486.22,1123.06l204.85,553.36,86-173.27,198.87,99.47L771,1049.17Z"/><polygon class="cls-2" points="1152.98 1230.76 946.71 1306.85 1017.42 1230.76 1152.98 1230.76"/><path class="cls-2" d="M1010,1213.83l-15.65,16.82-15.73,16.93L886,1347.28l270.27-99.7,13.63-5v-28.73Zm-2.64,52.58,17.4-18.72h33.35Z"/><polygon class="cls-2" points="16.93 1230.76 223.21 1306.85 152.5 1230.76 16.93 1230.76"/><path class="cls-2" d="M191.26,1247.58l-15.73-16.93-15.65-16.82H0v28.72l13.63,5,270.27,99.7Zm-46.14.11,17.4,18.72-50.77-18.72Z"/><path class="cls-2" d="M1135.77,893.31A550.94,550.94,0,0,1,77.46,1107.73,547.47,547.47,0,0,1,34.14,893.31q0-11.52.47-23H1135.3Q1135.76,881.78,1135.77,893.31Z"/><path class="cls-2" d="M1152.24,870.33h-33.9q.5,11.46.49,23A534,534,0,0,1,93.05,1101.13a530.6,530.6,0,0,1-42-207.82q0-11.53.49-23H17.67q-.47,11.46-.46,23a567.87,567.87,0,0,0,1090.84,221,564.41,564.41,0,0,0,44.65-221Q1152.7,881.79,1152.24,870.33Z"/><rect class="cls-2" x="404.87" y="482.55" width="360.17" height="1136.05" transform="translate(1635.53 465.62) rotate(90)"/><path class="cls-2" d="M0,853.55v389l13.63,5H1156.28l13.63-5v-389Zm1136.05,360.17H33.86V887.41H1136.05Z"/><polygon class="cls-3" points="385.25 1525.89 163.24 1636.93 388.31 1028.93 706.07 1111.37 481.11 1719.07 385.25 1525.89"/><polygon class="cls-4" points="403.73 1058.46 673.41 1128.43 477.8 1656.82 396.37 1492.7 208.13 1586.85 403.73 1058.46"/><polygon class="cls-5" points="663.61 1133.54 476.81 1638.14 399.7 1482.74 313.13 1526.05 250.32 1557.45 221.59 1571.83 408.36 1067.32 429.72 1072.86 476.41 1084.97 663.61 1133.54"/><polygon class="cls-6" points="478.99 1077.99 476.41 1084.97 313.13 1526.05 250.32 1557.45 429.72 1072.86 432.31 1065.88 478.99 1077.99"/><polygon class="cls-3" points="463.84 1111.37 781.6 1028.93 1006.67 1636.93 784.66 1525.89 688.8 1719.07 463.84 1111.37"/><polygon class="cls-4" points="766.18 1058.46 496.5 1128.43 692.11 1656.82 773.55 1492.7 961.79 1586.85 766.18 1058.46"/><polygon class="cls-5" points="948.32 1571.83 919.59 1557.46 856.8 1526.05 770.21 1482.74 693.1 1638.14 506.31 1133.54 693.51 1084.97 740.18 1072.86 761.55 1067.32 948.32 1571.83"/><polygon class="cls-6" points="919.59 1557.46 856.8 1526.05 693.51 1084.97 690.93 1077.99 737.6 1065.88 740.18 1072.86 919.59 1557.46"/><polygon class="cls-3" points="1152.98 1230.76 946.71 1306.85 1017.42 1230.76 1152.98 1230.76"/><polygon class="cls-3" points="16.93 1230.76 223.21 1306.85 152.5 1230.76 16.93 1230.76"/><path class="cls-3" d="M1135.77,893.31A550.94,550.94,0,0,1,77.46,1107.73,547.47,547.47,0,0,1,34.14,893.31q0-11.52.47-23H1135.3Q1135.76,881.78,1135.77,893.31Z"/><path class="cls-4" d="M942.13,893.3a356.49,356.49,0,0,1-21.75,123C870.24,1153,739,1250.48,585,1250.48S299.67,1153,249.53,1016.33a356.49,356.49,0,0,1-21.75-123q0-11.58.72-23H941.41Q942.13,881.73,942.13,893.3Z"/><path class="cls-4" d="M540.46,925.38c-161.79-14.71-319.79-20-480-27.67a524.61,524.61,0,0,0,1007.72,199.75,519.91,519.91,0,0,0,39.18-157.38c-90.93-1.42-181.89-3.79-273-7.7C736.45,928.88,638.46,934.71,540.46,925.38Z"/><path class="cls-1" d="M101.7,1097.46A524.65,524.65,0,0,0,1095,1016.33H75A520.18,520.18,0,0,0,101.7,1097.46Z"/><path class="cls-1" d="M1109.44,893.31a524.71,524.71,0,0,1-14.48,123H75a524.71,524.71,0,0,1-14.48-123q0-11.53.49-23H1109Q1109.45,881.78,1109.44,893.31Z"/><path class="cls-6" d="M1006.41,1186.36A516.19,516.19,0,0,1,784.74,1366.2a512.82,512.82,0,0,1-562.7-110,515.48,515.48,0,0,1-58.53-69.86H149.86a527.48,527.48,0,0,0,230.94,190.2,524.07,524.07,0,0,0,575-112.39,526.48,526.48,0,0,0,64.22-77.81Z"/><g class="cls-7"><g class="cls-8"><rect class="cls-6" x="96.32" y="248.85" width="4" height="1264.34"/><rect class="cls-6" x="123.89" y="248.85" width="4" height="1264.34"/><rect class="cls-6" x="151.47" y="248.85" width="4" height="1264.34"/><rect class="cls-6" x="179.04" y="248.85" width="4" height="1264.34"/><rect class="cls-6" x="206.61" y="248.85" width="4" height="1264.34"/><rect class="cls-6" x="234.19" y="248.85" width="4" height="1264.34"/><rect class="cls-6" x="261.76" y="248.85" width="4" height="1264.34"/><rect class="cls-6" x="289.33" y="248.85" width="4" height="1264.34"/><rect class="cls-6" x="316.9" y="248.85" width="4" height="1264.34"/><rect class="cls-6" x="344.48" y="248.85" width="4" height="1264.34"/><rect class="cls-6" x="372.05" y="248.85" width="4" height="1264.34"/><rect class="cls-6" x="399.62" y="248.85" width="4" height="1264.34"/><rect class="cls-6" x="427.2" y="248.85" width="4" height="1264.34"/><rect class="cls-6" x="454.77" y="248.85" width="4" height="1264.34"/><rect class="cls-6" x="482.34" y="248.85" width="4" height="1264.34"/><rect class="cls-6" x="509.91" y="248.85" width="4" height="1264.34"/><rect class="cls-6" x="537.49" y="248.85" width="4" height="1264.34"/><rect class="cls-6" x="565.06" y="248.85" width="4" height="1264.34"/><rect class="cls-6" x="592.63" y="248.85" width="4" height="1264.34"/><rect class="cls-6" x="620.2" y="248.85" width="4" height="1264.34"/><rect class="cls-6" x="647.78" y="248.85" width="4" height="1264.34"/><rect class="cls-6" x="675.35" y="248.85" width="4" height="1264.34"/><rect class="cls-6" x="702.92" y="248.85" width="4" height="1264.34"/><rect class="cls-6" x="730.49" y="248.85" width="4" height="1264.34"/><rect class="cls-6" x="758.07" y="248.85" width="4" height="1264.34"/><rect class="cls-6" x="785.64" y="248.85" width="4" height="1264.34"/><rect class="cls-6" x="813.21" y="248.85" width="4" height="1264.34"/><rect class="cls-6" x="840.79" y="248.85" width="4" height="1264.34"/><rect class="cls-6" x="868.36" y="248.85" width="4" height="1264.34"/><rect class="cls-6" x="895.93" y="248.85" width="4" height="1264.34"/><rect class="cls-6" x="923.5" y="248.85" width="4" height="1264.34"/><rect class="cls-6" x="951.08" y="248.85" width="4" height="1264.34"/><rect class="cls-6" x="978.65" y="248.85" width="4" height="1264.34"/><rect class="cls-6" x="1006.22" y="248.85" width="4" height="1264.34"/><rect class="cls-6" x="1033.8" y="248.85" width="4" height="1264.34"/><rect class="cls-6" x="1061.37" y="248.85" width="4" height="1264.34"/><rect class="cls-6" x="1088.94" y="248.85" width="4" height="1264.34"/></g></g><path class="cls-3" d="M1097.69,870.33h-12.11q.53,11.45.52,23a501.15,501.15,0,1,1-1002.29,0q0-11.52.52-23H72.22q-.51,11.45-.51,23a513.25,513.25,0,1,0,1026.49,0Q1098.2,881.78,1097.69,870.33Z"/><rect class="cls-4" x="427.17" y="504.92" width="315.57" height="1059.93" transform="translate(1619.84 449.93) rotate(90)"/><rect class="cls-9" x="523.91" y="1249.17" width="122.1" height="122.1"/><circle class="cls-5" cx="584.96" cy="1310.22" r="47.94"/><circle class="cls-4" cx="584.96" cy="1310.22" r="28.04"/><rect class="cls-3" x="404.87" y="482.55" width="360.17" height="1136.05" transform="translate(1635.53 465.62) rotate(90)"/><rect class="cls-4" x="426.58" y="505.23" width="316.76" height="1090.68" transform="translate(1635.53 465.62) rotate(90)"/><path class="cls-5" d="M220.08,1078q1,11.84,1,22.35a241.48,241.48,0,0,1-2.14,34.35q-2.15,14.63-9,24.16T190.33,1173q-12.66,4.6-33.36,4.61-24.66,0-37.64-4.44a33.22,33.22,0,0,1-19.23-15.94,54.94,54.94,0,0,1-5.58-12.49,109.14,109.14,0,0,1-3.78-19.4q-1.48-12.15-2.14-30.9t-.66-47.66q0-28.92.66-47t2.14-29.59a91.9,91.9,0,0,1,3.78-18.07A68.42,68.42,0,0,1,100.1,940a34.31,34.31,0,0,1,19.07-15.45q12.48-4.26,36.16-4.27,21,0,33.85,4T208.9,937q6.91,8.88,9.21,22.85a211.56,211.56,0,0,1,2.3,33.69q0,4.61-.17,10.19t-.49,11.84H171.43c0-6.58-.05-12.05-.16-16.44s-.28-8-.5-10.85a59.8,59.8,0,0,0-.82-6.74l-.82-4.1q-1.32-6.24-13.8-6.25-6.26,0-9,1.48a7.57,7.57,0,0,0-3.78,4.77,29,29,0,0,0-1.48,6.08q-.5,3.45-1,10.52t-.66,19.55q-.16,12.5-.16,32.54,0,20.71.16,33.2t.66,19.73c.33,4.82.66,8.44,1,10.84a28.88,28.88,0,0,0,1.48,6.25,6.92,6.92,0,0,0,3.94,4.6q3,1.32,10.52,1.32,9.85,0,11.83-5.59a35.59,35.59,0,0,0,2-6.9,76.89,76.89,0,0,0,1-8.06c.22-3,.38-6.35.49-10.19s.17-8.27.17-13.31Z"/><path class="cls-5" d="M240.46,1173.36V924.53H350.57v52.6h-58.5v43.71h57.52v50.3H292.07v47h58.18v55.22Z"/><path class="cls-5" d="M478.77,1173.36l-58.84-133.45h-2v133.45H371V924.53h50.62L456.42,1011h2V924.53h47.33v248.83Z"/><path class="cls-5" d="M559.63,1173.36V977.13H520.51v-52.6H650.35v52.6H611.23v196.23Z"/><path class="cls-5" d="M729.24,1173.36,725,1115.84H700L696,1173.36H644.1l26.63-248.83h86.78l25,248.83ZM714.12,976.47H710.5l-8.22,89.08h20.38Z"/><path class="cls-5" d="M874.2,924.53h51.27v172.25q-.33,15.45-1.31,25.63a156.68,156.68,0,0,1-2.46,17.1,58.63,58.63,0,0,1-3.46,11.34,73.51,73.51,0,0,1-4.6,8.71,33.16,33.16,0,0,1-7.72,8.71,36,36,0,0,1-11,5.59,71.67,71.67,0,0,1-15.45,3q-8.88.82-20.71.83-24,0-36.49-3.78t-18.73-14.3q-2.64-4.27-4.94-8.71a50.16,50.16,0,0,1-3.94-11.34,113.89,113.89,0,0,1-2.46-17.1q-.83-10.19-.83-25.63V924.53h52.92v172.25q0,8.87.5,13.8a17.85,17.85,0,0,0,2.13,7.56,7,7,0,0,0,4.61,3.29,37.64,37.64,0,0,0,7.89.66,35.25,35.25,0,0,0,7.72-.66,7,7,0,0,0,4.44-3.29,17.85,17.85,0,0,0,2.13-7.56q.49-4.93.5-13.8Z"/><path class="cls-5" d="M1027,1173.36c-.66-2-1.26-4.1-1.81-6.41s-1.15-5.8-1.8-10.51-1.54-11.23-2.63-19.56-2.42-19.73-3.95-34.19c-.66-5.69-1.31-10.3-2-13.8a35.38,35.38,0,0,0-2.3-8.06,6.75,6.75,0,0,0-3.29-3.61,10.94,10.94,0,0,0-4.27-.82h-7.89v97H945.52V924.53h75.28q16.76,0,27.61,3.78a37.05,37.05,0,0,1,17.25,11.84q6.42,8.05,8.88,20.71a163.87,163.87,0,0,1,2.46,30.73,273,273,0,0,1-1.31,30.4q-1.32,11-4.11,17.26a24.26,24.26,0,0,1-6.74,9.37,69.88,69.88,0,0,1-9.2,6.08v2c1.31,1.1,2.68,2.3,4.11,3.62a16.58,16.58,0,0,1,3.78,6.57q2.63,5.92,5.42,17.92a335.6,335.6,0,0,1,5.42,33.69q2,15.12,3,24.32t1.81,14.8q.83,5.58,1.32,8.54a29,29,0,0,0,1.48,5.59v1.64Zm-15.45-143.31q7.23,0,10.19-6.08t3-23.5q0-14.81-3.45-19.73t-11-4.93H997.13v54.24Z"/></g></g></svg>