<svg id="eo8D9HsOzxY1" xmlns="http://www.w3.org/2000/svg" xmlns:xlink="http://www.w3.org/1999/xlink" viewBox="0 0 1300 1300" shape-rendering="geometricPrecision" text-rendering="geometricPrecision"><defs><radialGradient id="eo8D9HsOzxY55-fill" cx="0" cy="0" r="233.87" spreadMethod="pad" gradientUnits="userSpaceOnUse" gradientTransform="matrix(1 0 0 -1 993.92 395.09)"><stop id="eo8D9HsOzxY55-fill-0" offset="0%" stop-color="#fff"/><stop id="eo8D9HsOzxY55-fill-1" offset="67%" stop-color="#ededed"/><stop id="eo8D9HsOzxY55-fill-2" offset="100%" stop-color="#e2e2e2"/></radialGradient><radialGradient id="eo8D9HsOzxY56-fill" cx="0" cy="0" r="203.33" spreadMethod="pad" gradientUnits="userSpaceOnUse" gradientTransform="matrix(1 0 0 -1 1014.15 424.08)"><stop id="eo8D9HsOzxY56-fill-0" offset="0%" stop-color="#fff"/><stop id="eo8D9HsOzxY56-fill-1" offset="67%" stop-color="#ededed"/><stop id="eo8D9HsOzxY56-fill-2" offset="100%" stop-color="#e2e2e2"/></radialGradient><radialGradient id="eo8D9HsOzxY57-fill" cx="0" cy="0" r="150.98" spreadMethod="pad" gradientUnits="userSpaceOnUse" gradientTransform="matrix(1 0.08 0.08 -1 991.7588 369.5956)"><stop id="eo8D9HsOzxY57-fill-0" offset="0%" stop-color="#fff"/><stop id="eo8D9HsOzxY57-fill-1" offset="67%" stop-color="#ededed"/><stop id="eo8D9HsOzxY57-fill-2" offset="100%" stop-color="#e2e2e2"/></radialGradient><radialGradient id="eo8D9HsOzxY58-fill" cx="0" cy="0" r="96.49" spreadMethod="pad" gradientUnits="userSpaceOnUse" gradientTransform="matrix(1 0 0 -1 951.64 333.22)"><stop id="eo8D9HsOzxY58-fill-0" offset="0%" stop-color="#fff"/><stop id="eo8D9HsOzxY58-fill-1" offset="67%" stop-color="#ededed"/><stop id="eo8D9HsOzxY58-fill-2" offset="100%" stop-color="#e2e2e2"/></radialGradient></defs><g transform="translate(0-.19425)"><g transform="translate(0 72)"><g id="eo8D9HsOzxY4" transform="matrix(.999521-.030949 0.030949 0.999521-3.097177 36.201062)"><path d="M1167.83,180.69c-.26-2.06-.58-5.2-1.06-8.31-1.109953-7.903661-3.353002-15.606143-6.66-22.87-4.23-9.08-11.63-14.59-20.51-18.43-8.073652-3.443785-16.725564-5.330241-25.5-5.56l-2-.09c4.77-.63,9.53-1,14.18-1.91c10-2,19.3-5.68,26.87-12.77c5.77-5.42,8.86-12.5,10.74-20c1.66-6.58,2.52-13.35,3.74-20c.11-.63.2-1.26.3-1.86.78,5,1.27,10.06,2.42,15c1.234638,5.136282,2.811492,10.184219,4.72,15.11c3.82,9.94,11.49,16.07,21,20.26c8.146136,3.432434,16.838584,5.386287,25.67,5.77.746285.121242,1.510717.062967,2.23-.17-6.1,1-12.25,1.74-18.28,3.06-6.983778,1.586531-13.566751,4.592097-19.34,8.83-8.12,5.82-12,14.37-14.41,23.59-1.85,7.01-2.94,14.19-4.11,20.35Z" opacity="0.7" fill="#967444"/><path d="M1241.49,179.94c1.65,15.13,5.48,23.44,23.84,25.64-1.52.21-3,.37-4.54.65-4.73.89-9.1,2.59-12.65,6-3,2.9-4.35,6.72-5.31,10.64-.65,2.63-1,5.34-1.59,8.2-.7-15.28-7.67-24.67-23.8-25.74.56-.07,1.12-.18,1.68-.22c4.876047-.363515,9.570259-2.005282,13.61-4.76c3.94-2.71,5.74-6.79,6.91-11.18.79-3,1.23-6.09,1.85-9.23Z" opacity="0.5" fill="#967444"/><path d="M1085.48,70.94c-18.6,2-22.4,10-24.38,25-.83-15.34-8.22-24.21-24.08-25c1.62496-.107574,3.237608-.355159,4.82-.74c3.405487-.994681,6.72877-2.251778,9.94-3.76c3.77-1.93,5.83-5.5,7-9.46c1-3.53,1.73-7.15,2.5-10.43.42,2.19.83,4.73,1.39,7.24c2.26,10,7.85,15.16,20.38,16.81Z" opacity="0.5" fill="#967444"/><path d="M1093.18,199.2c-.72-10.61-5.63-17.11-16.76-17.83c4.57-.76,9-1.74,12.21-5.22s3.74-8.1,4.56-12.55c1.35,10.68,4.22,15.91,16.64,17.78-11.01.8-16,7.14-16.65,17.82Z" fill="#967444"/><path d="M1284.68,124.76c-.62-8.78-4.77-14.13-14-14.92c9.28-.7,13.27-6.13,13.9-14.76c1.66,10.36,4.75,13.6,14.14,14.78-9.1.75-13.5,5.93-14.04,14.9Z" fill="#967444"/><path d="M1132.66,5.23c.5,8.77,4.77,14,13.84,14.73-3.75.43-7.14,1.45-9.8,3.95s-3.24,6.24-4.16,9.89c-1.06-8.24-5.23-13.26-13.94-13.73c3.72-.79,7.43-1.52,10.12-4.4s3.09-6.73,3.94-10.44Z" fill="#967444"/></g><g id="eo8D9HsOzxY18"><rect width="26.28" height="83.42" rx="0" ry="0" transform="matrix(-.970758 0.240059-.240059-.970758 440.471724 253.489517)" fill="#3c280a"/><path d="M420.79,172.43c-.022508-.091437-.079946-.170415-.16-.22-.084511-.044452-.185489-.044452-.27,0l-25.52,6.3c-.091962.020923-.171102.079103-.218505.160637s-.05881.179093-.031495.269363l20,81c.024358.090565.081346.168923.16.22.055638.039099.121997.060054.19.06h.06l8-2l17.51-4.34c.104955-.018023.192489-.090334.23-.19.028504-.074017.028504-.155983,0-.23Zm-.6.51L440,253.23l-24.82,6.14-19.86-80.28Z" fill="#3c280a"/><path d="M343.48,403.81c0,0,56.39-29.28,66.69-42.29s46.63-42.29,64-58.56s33.61-21.69,42.83-23.31s24.4-3.25,25.48,1.08-6,4.88-10.3,5.42-14.1,4.88-14.1,4.88s8.14,2.17,14.64,3.8s15.18,6.51,19,10.3s2.17,6-1.09,6.51-9.76-1.09-9.76-1.09l-8.13-4.88h-13.59c0,0,14.09,4.88,16.8,7.05s12.48,10.84,13,14.1-5.42,4.88-8.14,2.17c-2.47-2.47-9.89-9-11.19-10.14c0,0,0,0,0,0c1.31,1.61,10.18,12.56,10.68,16.07.54,3.8-2.71,6-6,3.8s-7.59-8.14-9.76-10.31-14.64-1.62-14.64-1.62-17.35,13.55-23.86,15.72-25.48,6-25.48,6-64.52,86.21-72.11,93.8-32.45,31.98-38.45,36.32-15.19,10.84-19,11.37-16.26-11.38-23.31-14.64-14.1-13-15.72-14.09s30.9-69.4,30.9-69.4Z" fill="#fff" stroke="#3c280a" stroke-width="3" stroke-miterlimit="13"/><path d="M474.69,307.3c0,0,15.18-6,21.14-10.3s17.35-15.18,19.52-9.22-4.35,17.35-12.47,22.22-18.43,28.19-38.49,28.19" fill="#fff" stroke="#3c280a" stroke-width="3" stroke-miterlimit="13"/><polygon points="192.79,761.85 126.06,761.85 125.29,681.95 125.15,666.63 192.79,761.85" fill="#fff"/><polygon points="192.79,761.85 126.06,761.85 125.29,681.95 125.15,666.63 192.79,761.85" fill="none" stroke="#3c280a" stroke-width="3" stroke-miterlimit="10"/><path d="M296.6,761.85h-119.12c-16.62-25.38-36-55-52.19-79.9-18-27.62-32-49.44-34.17-53.29-6.55-11.79-15.72-44.51-11.79-66.77c1.218604-6.936816,2.821066-13.800693,4.8-20.56c1.543128-5.483866,3.440447-10.861829,5.68-16.1s19.63,30.12,44.5,32.73s136.16-18.32,136.16-18.32.43,5.76.81,14.15c.78,17.23,1.41,45.53-2.12,57.85-5.23,18.33-5.23,41.89-5.23,41.89s18.54,58.65,32.67,108.32Z" fill="#fff"/><path d="M296.6,761.85h-119.12c-16.62-25.38-36-55-52.19-79.9-18-27.62-32-49.44-34.17-53.29-6.55-11.79-15.72-44.51-11.79-66.77c1.218604-6.936816,2.821066-13.800693,4.8-20.56c1.543128-5.483866,3.440447-10.861829,5.68-16.1s19.63,30.12,44.5,32.73s136.16-18.32,136.16-18.32.43,5.76.81,14.15c.78,17.23,1.41,45.53-2.12,57.85-5.23,18.33-5.23,41.89-5.23,41.89s18.54,58.65,32.67,108.32Z" fill="none" stroke="#3c280a" stroke-width="3" stroke-miterlimit="10"/><path d="M254.76,627.35c-3.06-8.15-6.09-16.27-9.69-24.17s-7.49-15.69-13.88-21.65c12.94,8.28,20.83,31.21,23.57,45.82Z" fill="#3c280a"/><path d="M237.74,607.71c-5.887404-9.116915-14.634898-16.02135-24.87-19.63c2.794517.205815,5.538656.853877,8.13,1.92c7.69,3.14,14.27,9.73,16.79,17.71Z" fill="#3c280a"/><path d="M378.8,263.73c0,0,12.76,33.39,10.8,51.06s-24.55,59.89-34.36,75.6-56,110-65.79,135.5-22.58,35.35-49.09,41.24-88.36,19.64-119.79,11.78-37.31-41.24-41.24-53-5.89-30.44,1-42.22s10.78-19.69,16.67-35.37s46.15-142.32,74.63-176.73s87.37-65.79,113.89-79.53s40.26-17.68,49.1-11.79s44.18,83.46,44.18,83.46Z" fill="#e6d296"/><path d="M224,444.74c-18.268676,16.537081-39.315511,29.71632-62.17,38.93" fill="none" stroke="#1a2e35" stroke-linecap="round" stroke-linejoin="round"/><path d="M272.76,383.52c0,0-12.26,24.88-38.46,51.4" fill="none" stroke="#1a2e35" stroke-linecap="round" stroke-linejoin="round"/><path d="M153.61,508.25c-4.48.76-9.26,1.42-14.38,1.93" fill="none" stroke="#1a2e35" stroke-linecap="round" stroke-linejoin="round"/><path d="M212.87,479.74c0,0-10.06,16.77-46.81,25.91" fill="none" stroke="#1a2e35" stroke-linecap="round" stroke-linejoin="round"/><path d="M378.8,263.73c0,0,12.76,33.39,10.8,51.06s-24.55,59.89-34.36,75.6-56,110-65.79,135.5-22.58,35.35-49.09,41.24-88.36,19.64-119.79,11.78-37.31-41.24-41.24-53-5.89-30.44,1-42.22s10.78-19.69,16.67-35.37s46.15-142.32,74.63-176.73s87.37-65.79,113.89-79.53s40.26-17.68,49.1-11.79s44.18,83.46,44.18,83.46Z" fill="none" stroke="#3c280a" stroke-width="3" stroke-miterlimit="10"/><path d="M533.17,174.54c0,0-8.53,48.84-21.55,54.58s-13.28,7.44-13.68,10-1.13,29.24-7.3,30-21.51-.78-21.51-.78-28.86,24-39.05,17.23-26.29-31-26.29-31l-35.08,19.59c0,0-18.59,41.21-20.06,34.05s-25-121.6-25-121.6s46.95-29,53.08-34.93s28-57,46.86-67s46.17-7.46,61.28,1s37,45.6,37,45.6s1.81-17,9.77-7.12s9.22,24,9.22,24s6.79-10.19,11,1.72-11.18,21.61-11.18,21.61s9.42.61,7.78,5.54-15.29-2.49-15.29-2.49Z" fill="#fff" stroke="#3c280a" stroke-width="3" stroke-miterlimit="10"/><path d="M502.74,223c0,0,0-11.19-10.54-12.51" fill="#fff"/><path d="M502.74,223c-1.51-3.29-2.84-6.35-5.33-8.87-1.580075-1.42334-3.330006-2.64594-5.21-3.64c6.93-1.82,12.86,6.14,10.54,12.51Z" fill="#3c280a"/><path d="M483.13,227.31c-2.31,3.08-2.59,6.77-.64,8.24s5.42.15,7.73-2.94s2.6-6.77.64-8.24-5.41-.15-7.73,2.94Z" fill="#3c280a"/><path d="M540.48,173l-5-.33l4.24-2.69c.14-.09,14.2-9.18,10.51-19.68-1-2.85-2.23-4.51-3.46-4.67-1.67-.21-3.83,2.15-4.61,3.32l-2.58,3.84-.41-4.61c0-.13-1.32-13.68-8.87-23.06-1.41-1.76-2.7-2.67-3.46-2.45-1.67.49-3.05,5.38-3.4,8.71l-.53,4.94-2.51-4.28c-.22-.37-21.77-36.87-36.36-45-14.42-8-41.35-10.7-59.71-1-12.48,6.62-26.79,32.69-36.27,49.94-4.71,8.58-8.11,14.78-10.22,16.84-.581833.549031-1.192712,1.066441-1.83,1.55.67,7.3,2.77,16.65,8.93,20.39c8.93,5.43,15.06,7.32,18.74,5.78c2-.84,3.35-2.79,4.1-6c2-8.6,10.45-19.71,18-23.76c3.26-1.74,6.18-2.16,8.68-1.24c8.75,3.23,5.52,19.34,4.69,22.88.56,2.36,2,5.83,3.42,6.05.93.15,5.29-4.28,9.78-11.31l.82-1.29l1.34.73c9.3,5,25.62,12.45,29.8,10.86c3.42-1.3,3.45-5.63,3.23-12.58-.08-2.54-.17-5.17,0-7.82.37-5.72,1.71-9.14,4.33-11.09c2.79-2.08,7-2.38,13.17-1c11.56,2.68,27.16,25.09,29.27,28.18c4.47,2.35,10.18,4.31,12.09,3.55.202315-.059465.360535-.217685.42-.42.184039-.386655.153736-.841197-.08-1.2-.95-1.27-4.74-1.97-6.26-2.08Z" fill="#967444"/><path d="M437.28,184.58c0,0,8.37-36.76-8.78-37.72s-21.85,23.39-23.44,33.52s12.68,18.43,12.68,18.43" fill="#fff"/><path d="M437.28,184.58c1.27-10.35,4.94-39.72-12.44-36-11.57,2.58-15.5,17.63-17.9,27.82-.34,1.64-.71,3.33-.94,5-.151458,2.724316.596968,5.422867,2.13,7.68c2.546323,3.837922,5.809304,7.14844,9.61,9.75-6.1-3.37-12.47-8.33-13.72-15.66-.151781-1.244753-.118081-2.505136.1-3.74c1.8-12.4,5.83-30.7,20.17-33.72c21-3.3,16.48,26.49,13,38.89Z" fill="#3c280a"/><path d="M461.17,258.41c0,0-12.06-11.41-8.56-28.17" fill="#fff"/><path d="M461.17,258.41c-8.79-5.82-12.93-18.44-8.56-28.17.075922,2.528663.279515,5.051877.61,7.56c1,7.42,4.09,14.18,7.95,20.61Z" fill="#3c280a"/><path d="M430.08,285.54c-5.588499-5.853777-10.373771-12.424699-14.23-19.54-6-11.32-13.23-31.49-13.23-31.49L389.8,261.05l14-6.46c0,0,14.41,23.9,26.28,30.95Z" fill="#3c280a"/><path d="M306.86,270.82c0,0,15,20.95,17.71,36s27.43,73.18,27.43,73.18l-85.61,22.46-53.76-64.56" fill="#e6d296"/><path d="M306.86,270.82c5.952989,7.9424,11.029194,16.505562,15.14,25.54c2.13,4.51,3.15,9.42,4.37,14.22s3.06,9.34,4.73,14c6.94,18.46,14.58,36.69,22.27,54.86L354,381l-1.62.43c-26.8,7.11-58.78,15.44-85.65,22.29l-.79.2-.51-.62-26.52-32.58q-13.21-16.32-26.26-32.79q6.93,7.89,13.78,15.85c9.23,10.56,31.54,36.85,41,47.89l-1.3-.42c19-5.14,45.08-12,64.15-17l21.41-5.57-1,2c-3.84-9.12-7.51-18.29-11.15-27.5-5.33-13.86-10.77-27.7-14.78-42-2.53-14.68-9.79-27.81-17.87-40.2Z" fill="#3c280a"/><path d="M352,380l34.28,73.77l164.47,24.48c0,0,33.51-12,40.85-17.31s34.89-16.81,36.11-19.67s7.83,12.48-4.48,18.35c-7.210334,3.387757-13.884718,7.814885-19.81,13.14s28.47,13.2,31.4,13.44s29,18.17,28.79,21.11-10,2.12-10,2.12-12.56,8.81-17.45,8.41l-11.74-1c0,0-2.53,6.69-12.31,5.88l-23.49-2c-5.87-.48-33.51-11.64-33.51-11.64s-116.68,5.1-145.39,6.67-69.47-5.76-73.22-8-70.09-105.31-70.09-105.31Z" fill="#fff" stroke="#3c280a" stroke-width="3" stroke-miterlimit="10"/><polygon points="652.67,510.61 637.33,497.94 637.58,498.07 613.87,489.38 638.11,496.48 638.22,496.51 638.36,496.61 654.5,508.23 652.67,510.61 652.67,510.61" fill="#3c280a"/><path d="M644.58,515.5c.06,0-20.23-9.4-19.55-9.15L601,500.6l24.44,4.19l20.35,7.95-1.18,2.76Z" fill="#3c280a"/><polygon points="623.96,518.29 597.49,508.71 624.83,515.42 623.96,518.29 623.96,518.29" fill="#3c280a"/></g><g transform="translate(8.87553 0)"><path d="M1259.68,743.82c-11.54-4.74-22.77-2.75-34.73-5.84-15.94-4.09-28.42-15.11-43.73-22.78-14.92-7.48-26.75-17.94-41.65-24.73-18.23-8.35-38.52-21.41-58.58-24.41-23.22-3.49-55.45-16-77.53-9.54-13.73,4-27,9.24-40.85,13-23.09,6.31-47.56,5.34-70.29,12.21-17.45,5.28-33.82,15.28-52.22,17-20.91,1.92-41.88-9.86-61.73-15.23-20.74-5.61-41.17-11.76-63-11.28s-42.74,8.74-64.46,9c-4,.06-7.88.23-11.79.45-3.91-.22-7.83-.39-11.79-.45-21.72-.29-42.62-8.55-64.46-9s-42.27,5.67-63,11.28C480,688.87,459,700.65,438.12,698.73c-18.4-1.7-34.77-11.7-52.22-17-22.73-6.87-47.2-5.9-70.29-12.21-13.81-3.78-27.12-9-40.85-13-22.08-6.5-54.31,6.05-77.53,9.54-20.06,3-40.35,16.06-58.58,24.41-14.9,6.79-26.73,17.25-41.65,24.73-15.31,7.67-27.79,18.69-43.73,22.8-12,3.09-23.24,1.1-34.78,5.84-.35.15,0,118.27,0,118.27h.05c34.36-4.33,69.17-3.8,103.48-9.57c37.3-6.29,77.2-6.33,115.05-6.87c48.58-.7,97.62-2.51,146.06-2.25c51.48.27,103.05,2.53,154.42,2.33c22.21-.07,44.52.31,66.88.72c11.55.21,23.11.42,34.68.56c11.57-.14,23.13-.35,34.68-.56c22.36-.41,44.67-.79,66.88-.72c51.37.2,102.94-2.06,154.42-2.33c48.44-.26,97.48,1.55,146.06,2.25c37.85.54,77.75.58,115,6.87c34.31,5.77,69.12,5.24,103.48,9.57v0c0,0,.37-118.11.05-118.29Z" fill="#967444"/><path d="M1234.77,751.21c-11.24-1.67-19.15-2.22-29.69-6.19-12.63-4.77-25.5-6.24-37.9-12.31s-24.88-12.25-37.68-17.43c-9.08-3.67-18.57-5-27.6-9-7.47-3.32-15.19-7.49-23.12-9.68-15.13-4.16-29.18-3.75-44.25-2.07-16.31,1.83-31,1.64-46.88,6.69-5.34,1.74-10.82,5.64-16.07,7-6.4,1.61-12.45.45-18.86,3.13-23.08,9.63-49.77,9.61-75.05,4-12-2.68-24.16-7.5-36.45-9.12s-25.06-.78-37.39-2c-24.29-2.42-46.53-4-70.92-3.21-18.92.58-37.06-4.36-55.68-7-12.614496-1.930113-25.421658-2.266082-38.12-1-12.698342-1.266082-25.505504-.930113-38.12,1-18.62,2.68-36.76,7.62-55.68,7-24.39-.75-46.63.79-70.92,3.21-12.33,1.23-25.1.39-37.39,2s-24.43,6.44-36.45,9.12c-25.28,5.62-52,5.64-75.05-4-6.41-2.68-12.46-1.52-18.86-3.13-5.25-1.33-10.73-5.23-16.07-7-15.83-5.05-30.57-4.86-46.88-6.69-15.07-1.68-29.12-2.09-44.25,2.07-7.93,2.19-15.65,6.36-23.12,9.68-9,4-18.52,5.33-27.6,9-12.8,5.18-25.28,11.36-37.68,17.43s-25.27,7.54-37.9,12.29c-10.54,4-18.45,4.52-29.69,6.19-6,.88-18.92,3.24-25,8.19v183.48h1241.28v-183.46c-6.04-4.95-18.98-7.31-24.96-8.19Z" fill="#3c280a"/><rect width="1259.307174" height="345.95" rx="0" ry="0" transform="translate(9.470906 874.56)" fill="#fff"/><g transform="translate(0 80)"><path d="M1129.68,1089.79c-.67-2-1.3-4.22-1.86-6.56s-1.19-5.94-1.86-10.82-1.58-11.55-2.71-20.12-2.47-20.31-4-35.26c-.66667-5.87333-1.33333-10.60667-2-14.2-.45701-2.84786-1.25265-5.63092-2.37-8.29-.62515-1.61779-1.83501-2.94185-3.39-3.71-1.3824-.57029-2.86462-.85926-4.36-.85h-8.13v99.77h-53.12v-256h77.45c11.51333,0,20.98,1.29667,28.4,3.89c6.96463,2.26948,13.12965,6.49405,17.76,12.17c4.36,5.54,7.40333,12.64333,9.13,21.31c1.84146,10.4531,2.68858,21.05713,2.53,31.67.13035,10.44696-.32035,20.89309-1.35,31.29-.91333,7.56-2.32333,13.48-4.23,17.76-1.51012,3.7187-3.88999,7.02104-6.94,9.63-2.98552,2.3298-6.14848,4.42284-9.46,6.26v2c1.35,1.09,2.76,2.37,4.22,3.72c1.8066,1.91877,3.13882,4.2339,3.89,6.76c2.39685,5.97125,4.26404,12.14167,5.58,18.44c2.46043,11.43746,4.33951,22.99228,5.63,34.62c1.33333,10.38,2.33333,18.71333,3,25s1.28667,11.36333,1.86,15.23c.57333,3.83333,1.02333,6.74333,1.35,8.73.32836,1.96045.84063,3.88561,1.53,5.75v1.69l-56.55.12Zm-15.9-147.44c4.96,0,8.45667-2.08667,10.49-6.26s3.03333-12.23667,3-24.19c0-10.15333-1.18333-16.91667-3.55-20.29s-6.14333-5.06333-11.33-5.07h-13.52v55.81h14.91ZM972.42,833.79h52.76v177.21c-.22,10.6-.67,19.39333-1.35,26.38-.51074,5.90695-1.35879,11.77987-2.54,17.59-.78999,3.99896-1.97928,7.90854-3.55,11.67-1.37755,3.1005-2.95763,6.10699-4.73,9-2.10995,3.45209-4.81909,6.49987-8,9-3.41606,2.5652-7.25365,4.51445-11.34,5.76-5.17117,1.57746-10.49965,2.58346-15.89,3-6.09333.56-13.19333.84333-21.3.85-16.47333,0-28.99-1.29667-37.55-3.89-8.0912-2.22317-15.00339-7.50054-19.28-14.72-1.81333-2.90667-3.50667-5.90667-5.08-9-1.79406-3.71652-3.13694-7.63437-4-11.67-1.29054-5.79062-2.13964-11.67084-2.54-17.59-.56-6.98667-.84-15.78-.84-26.38v-177.25h54.45v177.25c0,6.08667.16667,10.82.5,14.2.13575,2.72184.88436,5.3779,2.19,7.77c1.0313,1.7435,2.74759,2.97357,4.73,3.39c2.67496.51278,5.39717.73739,8.12.67c2.66334.07241,5.32645-.15232,7.94-.67c1.92622-.4502,3.58035-1.67723,4.57-3.39c1.30247-2.39281,2.04768-5.04889,2.18-7.77.34-3.39333.50667-8.12667.5-14.2l.05-177.21Zm-217.51,256v-256h113.34v54.11h-60.25v45h59.19v51.7h-59.19v48.4h59.87v56.79h-112.96Zm-109.22,0v-201.93h-40.24v-54.11h133.6v54.11h-40.26v201.93h-53.1Zm-88.51,0l-4.37-59.2h-25.81l-4.07,59.2h-53.45l27.44-256h89.3l25.69,256h-54.73ZM541.52,887.18h-3.72l-8.45,91.62h21l-8.83-91.62ZM406,1089.79v-153.58h-2l-39,153.55h-23.37L302.39,936.21h-2.05v153.55h-48.34v-256h75.08L350.76,945h2.37l26.38-111.27h74.75l.34,256-48.6.06Zm-223.68,0l-4.37-59.2h-25.73l-4.05,59.2h-53.45l27.4-256h89.3l25.7,256h-54.8ZM166.77,887.18h-3.72l-8.46,91.62h21l-8.82-91.62Z" fill="#967444"/></g></g><g id="eo8D9HsOzxY154" transform="translate(.000001 0.000001)"><rect width="17.41" height="134.93" rx="0" ry="0" transform="matrix(-.57857-.815633 0.815633-.57857 618.280914 480.752439)" fill="#e6d296"/><path d="M680.29,444.78l-3.6-5.08-.2-.28-.21-.28-9.66-13.62-.21-.3-.21-.29-3.59-5.07c-.109178-.155112-.322046-.195025-.48-.09l-96.46,64.66c-6.369132,4.302603-9.461012,12.0612-7.796905,19.565131s7.745992,13.228111,15.336905,14.434869c.97275.15111,1.955585.227998,2.94.23c4.024942.024551,7.948784-1.259999,11.18-3.66l92.89-69.68c.08718-.057653.145-.150348.158436-.253999s-.018838-.208025-.088436-.286001Zm-107,73c-7.341824-1.136007-13.231465-6.665872-14.827377-13.921625s1.429817-14.746564,7.617377-18.858375l96.16-64.47l3.4,4.79.2.29.21.29l9.65,13.62.21.3.21.28l3.4,4.79-92.62,69.5c-3.880958,2.921725-8.78227,4.141639-13.58,3.38Z" fill="#3c280a"/><path d="M561.12,510.6v0c2.867279,4.041537,7.245732,6.753273,12.141443,7.51964s9.893391-.477643,13.858557-3.44964L680,445l-17.68-24.92-96.45,64.65c-4.113375,2.758462-6.937854,7.061748-7.832264,11.93299s.217118,9.897219,3.082264,13.93701Z" fill="#3c280a"/><path d="M728.55,402.48L725.4,398l-.27-.36-.24-.35-.45-.63-.26-.36-.25-.35-5.45-7.69c-.113464-.162541-.336979-.202773-.5-.09l-8.32,5.91-.35.24-.36.26-12.84,9.11-.33.23-.33.24-29.25,20.77-.56.41-57.7,40.94c-.078153.052378-.131108.134798-.146268.22765s.008833.187835.066268.26235L617.93,481c.056363.073897.138471.123876.23.14h.07c.069848.001186.137616-.023782.19-.07l57.7-40.93.28-.21.29-.21l26.46-18.76.27-.19.31-.22l5.22-3.71.36-.26.35-.24L728.47,403c.070899-.060804.122942-.140604.15-.23.017174-.102167-.00811-.206917-.07-.29Zm-18.89,13l-.35.25-.31.27-5.7,4.05-.3.21-.28.2-26.39,18.73-.28.19-.3.21-57.4,40.73-9.66-13.62l57.41-40.73.28-.21.29-.19L695.55,405l.33-.23.32-.23l12.75-9l.36-.25.35-.25l8.45-6l5,7l.24.35.26.36.45.63.25.35.25.36l3.25,4.58Z" fill="#3c280a"/><path d="M695.59,400.64c0-16.40838,13.30162-29.71,29.71-29.71s29.71,13.30162,29.71,29.71-13.30162,29.71-29.71,29.71c-7.879582,0-15.436437-3.130152-21.008142-8.701858s-8.701858-13.12856-8.701858-21.008142Z" fill="#3c280a"/><path d="M739.37,374.08c-.111334-.069848-.228425-.130066-.35-.18-.112471-.06783-.229405-.127967-.35-.18-9.238251-4.598896-20.191734-4.126763-29,1.25l-.35.22c-.12671.069446-.247161.149747-.36.24-8.557247,5.528594-13.723924,15.022173-13.72,25.21-.002684,1.186821.070801,2.372591.22,3.55c0,.13,0,.26,0,.39l.06.41c.838406,5.718542,3.31084,11.073167,7.12,15.42.07.08.15.18.24.27.074518.091571.154674.178406.24.26c1.712073,1.881422,3.66179,3.531958,5.8,4.91l.36.24c.113063.075838.229878.145927.35.21c8.803073,5.391257,19.762502,5.867425,29,1.26.122697-.051531.239945-.11518.35-.19.123073-.042399.240587-.099477.35-.17c9.869688-5.183335,16.051294-15.412009,16.051294-26.56s-6.181606-21.376665-16.051294-26.56Zm0,52.31c-.111129.073041-.228209.136598-.35.19-.111334.069848-.228425.130066-.35.18-9.212663,4.737556-20.24437,4.246835-29-1.29l-.35-.23L709,425c-1.909464-1.28756-3.661419-2.794509-5.22-4.49l-.24-.25-.24-.28c-3.813217-4.350073-6.249434-9.734112-7-15.47-.01033-.139809-.01033-.280191,0-.42-.009764-.129817-.009764-.260183,0-.39-.112285-1.02284-.169035-2.051016-.17-3.08.005158-9.783918,4.878749-18.923777,13-24.38l.36-.23.35-.23c8.759307-5.527656,19.787746-6.014428,29-1.28.123392.045908.240884.106333.35.18.121791.053402.238871.116959.35.19c9.423933,5.139175,15.287692,15.015866,15.287692,25.75s-5.863759,20.610825-15.287692,25.75Z" fill="#3c280a"/><rect width="29.71" height="93.96" rx="0" ry="0" transform="matrix(-1 0 0-1 739.02 396.32)" fill="#3c280a"/><path d="M739,302h-29.69c-.095478,0-.187045.037928-.254558.105442s-.105442.15908-.105442.254558v94c0,.095478.037928.187045.105442.254558s.15908.105442.254558.105442h29.69c.194907-.005416.350075-.165018.35-.36v-94c.000075-.194982-.155093-.354584-.35-.36Zm-.35,94h-29v-93.28h29Z" fill="#3c280a"/><rect width="33.91" height="446.68" rx="0" ry="0" transform="matrix(-.293873-.955844 0.955844-.293873 481.720928 278.614772)" fill="#3c280a"/><path d="M909,147.25l-10-32.41c-.027531-.092345-.092952-.16867-.18-.21-.08728-.031293-.18272-.031293-.27,0l-61.34,18.86-1.57.48-.33.1-.34.11-1.58.48L812,141.23l-1.57.49-.34.1-.34.1-1.57.48L793,147.07l-1.57.48-.34.11-.34.09-1.56.49-112.56,34.61-.34.09-.33.11-24.45,7.52-.32.09v0l-.34.11-93.46,28.73-1.56.48-.35.11-.34.11-1.56.48-46.79,14.38-1.57.48-.34.1-.33.11-1.57.48-31.29,9.62v0c-.175426.057444-.276084.241253-.23.42v0l.1.32l9.86,32.09c.034569.088315.098011.162331.18.21.052473.013548.107527.013548.16,0h.11l.3-.09.33-.1.34-.1l30.33-9.33l1.57-.48.34-.11.34-.1l1.56-.48l46.8-14.38l1.56-.48.34-.11.34-.1l1.57-.49l92.78-28.52.34-.11.34-.09l24.44-7.52.34-.1.34-.11l113.23-34.8l1.56-.48.34-.1.34-.11l1.57-.48l15.16-4.66l1.57-.48.34-.11.33-.1l1.57-.48l21.49-6.61l1.57-.48.33-.11.34-.1l1.58-.48l61.34-18.86c.142617-.077735.213013-.243373.17-.4Zm-61.78,18.62l-1.58.48-.33.11-.34.1-1.56.49-21.5,6.6-1.57.49-.33.1-.34.11-1.57.48-15.1,4.66-1.57.48-.34.1-.34.11-1.56.48L686,215.47l-.34.1-.34.1-24.43,7.52-.34.1-.35.11-92.79,28.52-1.57.48-.34.1-.33.11-1.57.48-46.79,14.38-1.57.49-.34.1-.33.1-1.58.48L482.6,278l-.33.1-.29.09-4.49-14.6v-.08l-5.24-17.06l31-9.52l1.56-.48.34-.1.35-.11l1.56-.48l46.79-14.39l1.56-.48.34-.09v0l.34-.11l1.56-.48L651,191.46l.34-.11.34-.1l24.44-7.51.34-.11.34-.1l112.58-34.61l1.56-.48.34-.11.35-.09l1.56-.5l15.16-4.65l1.57-.48.34-.11.34-.1l1.57-.49l21.48-6.61l1.58-.48.33-.09.34-.11l1.56-.48l61-18.76l9.76,31.74Z" fill="#3c280a"/><rect width="63.69" height="446.68" rx="0" ry="0" transform="matrix(-.293873-.955844 0.955844-.293873 519.310939 282.643706)" fill="#967444"/><path d="M927.91,90.4c-.025256-.09321-.087903-.171843-.173113-.217289s-.18541-.053664-.276887-.022711l-94.54,29.06-1.57.49-.34.1-.34.11-1.56.48-21.5,6.6-1.57.48-.34.1-.34.11-1.57.48-15.15,4.67-1.57.48-.34.11-.35.09-1.56.48-112.28,34.53-.34.1-.34.1-24.43,7.52-.34.1-.34.11L553,205.27l-1.58.48-.34.11-.33.09-1.57.49-48.69,15c-.191125.057945-.301773.257111-.25.45l4.28,13.89.1.34.1.34l9.77,31.73.09.34.11.34L519,282.73c.047485.14799.184583.248797.34.25h.1l48.71-15l1.55-.48.34-.1v0l.34-.11l1.56-.48l92.5-28.44.34-.1.34-.11l24.43-7.51.35-.1.34-.11l113.51-34.89l1.56-.48.34-.11.35-.1l1.56-.48l15.16-4.66l1.57-.48.34-.11.34-.1l1.57-.48L848,182l1.57-.48.34-.11.34-.1l1.56-.49l94.56-29.06c.092345-.027531.16867-.092952.21-.18.031293-.08728.031293-.18272,0-.27ZM805.44,194.31l-.34.1-1.56.48L690,229.79l-.33.09-.35.11-24.43,7.52-.34.09-.34.11-92.52,28.44-1.56.48-.35.1-.34.11-1.56.48-48.36,14.87-4.16-13.56-.11-.34-.1-.33-9.75-31.74-.11-.34-.11-.34L501.06,222l48.36-14.87l1.56-.48.34-.11.34-.09l1.57-.49l93.71-28.81.35-.1.34-.11l24.43-7.51.34-.11.33-.09L785,134.69l1.56-.48.34-.11.34-.11l1.57-.48L804,128.86l1.57-.49.34-.1.33-.11l1.57-.48l21.49-6.61l1.57-.48.33-.09.34-.11l1.58-.48l94.2-29l18.51,60.21-94.21,29-1.57.49-.33.09-.34.11-1.58.48-21.48,6.61-1.57.48-.34.1-.34.11-1.57.48-15.16,4.66-1.56.48-.34.11Z" fill="#3c280a"/><path d="M948.19,150.79L929.48,89.93c-.152507-.510098-.502106-.938336-.971358-1.189855s-1.019421-.305557-1.528642-.150145l-94.54,29.07-1.58.49-.33.1-.34.1-1.56.49-21.5,6.6-1.57.48-.33.1v0l-.34.11-1.57.48-15.15,4.66-1.57.49-.34.1-.35.1-1.56.48L672.09,167l-.34.1-.34.11L647,174.68l-.34.09-.35.11-93.77,28.82-1.57.49-.34.1-.34.1-1.56.48-48.7,15c-.5112.157751-.934566.519602-1.17,1-.25805.464121-.312353,1.014391-.15,1.52L503,236.23l.1.34.11.34l9.75,31.73.11.34.1.34l4.27,13.89c.258696.83791,1.033065,1.409564,1.91,1.41h.35l48.94-15l1.55-.48.35-.11.34-.11l1.57-.48L664.89,240l.34-.1.34-.11L690,232.25l.35-.11.34-.09l113.54-34.92l1.56-.48.35-.1.34-.11L808,196l15.16-4.66l1.57-.48.34-.1v0l.33-.11l1.57-.48l21.48-6.61l1.58-.48.33-.1.34-.11l1.58-.48l94.55-29.07c.50863-.158013.928771-.520203,1.16-1c.268637-.462717.340672-1.013779.2-1.53Zm-98.94,28.34l-.34.1-1.58.48-21.48,6.61-1.57.49-.68.2-1.57.49-15.16,4.65-1.56.49-.35.1-.34.11-1.56.48L689.6,228.21l-.34.1-.35.11-24.43,7.51-.34.1-.34.11-92.55,28.45-1.56.48-.35.1-.34.11-1.56.48-46.79,14.38-3.69-12-.1-.34v0l-.1-.33L507,235.74l-.11-.34-.1-.34-3.69-12l46.8-14.38l1.56-.49.34-.1.34-.1l1.57-.48l93.69-28.8.34-.11.33-.1L672.5,171l.35-.11.34-.1l112.33-34.54l1.56-.48.34-.09.34-.11l1.57-.48l15.16-4.67l1.57-.48.34-.11.33-.1l1.57-.48l21.49-6.6l1.57-.48.33-.11v0l.33-.1l1.57-.48L926.25,93l17.55,57.06-92.65,28.48-1.57.48Z" fill="#3c280a"/><polygon points="677.78,283.8 703.3,277.49 661.56,131.38 636.04,137.69 677.78,283.8" fill="#3c280a"/><path d="M702.34,272.85l-.1-.35-.09-.34L696,250.5l-.44-1.57-.2-.68-.45-1.57-4.18-14.63-.45-1.59-.1-.34-.1-.33-.44-1.58-3.45-12.07-.1-.33-.1-.34-9.12-31.94-.1-.35-.1-.33-3.44-12.06-.46-1.57-.09-.35-.1-.34-.45-1.58-4.18-14.66-.46-1.58-.09-.33v0l-.1-.34-.45-1.57-4.91-17.19c-.061556-.177617-.246511-.280847-.43-.24L636,137.35c-.094689.01511-.176451.074573-.22.16-.03401.086787-.03401.183213,0,.27l5.41,18.93.44,1.57.1.34.1.34.45,1.58l4.09,14.34.46,1.58.09.33.1.35.46,1.58l3.44,12.05.1.34.09.35l9.12,31.94.1.33.1.34l3.45,12.07.45,1.57.1.34.09.34.45,1.58L669,254.28l.46,1.59.08.33.1.34.46,1.58l6.13,21.44.1.34.09.35l1,3.65c.047485.14799.184583.248797.34.25h.09l25.51-6.3c.098106-.025923.181259-.091.23-.18.031293-.08728.031293-.18272,0-.27ZM678,283.38l-.95-3.32-.1-.34-.1-.35-6.12-21.45-.45-1.58-.1-.34-.1-.34-.44-1.57-4.1-14.33-.45-1.58-.1-.33-.09-.34-.45-1.58L661,223.87l-.1-.34-.09-.34-9.13-31.94-.1-.34-.1-.34-3.44-12.06-.44-1.58-.1-.34-.1-.34-.45-1.57-4.1-14.35-.45-1.59-.1-.34-.1-.34-.45-1.57L636.49,138l24.82-6.15l4.83,16.88.45,1.56.08.35.1.34.46,1.58l4.18,14.65.45,1.57.1.34.1.35.44,1.58l3.5,12l.08.34.11.35l9.12,31.93.1.34.1.34l3.44,12.07.45,1.57.09.34.1.34.45,1.58l4.18,14.63.45,1.57.1.34.1.34.45,1.58l6.18,21.65.1.34.09.34l1.21,4.2Z" fill="#3c280a"/><polygon points="546.03,189.31 575.12,283.96 1003.7,157.96 971.37,52.81 546.03,189.31" fill="#e6d296"/><path d="M1004,157.87L971.71,52.71c-.023723-.096741-.089873-.17759-.18-.22-.085273-.041252-.184727-.041252-.27,0l-.33.11-1.56.5-13.53,4.33-1.56.51-.34.11-.34.1-1.56.51L826.66,98.87l-1.56.5-.34.11-.34.11-1.56.5L801.45,107l-1.57.51-.33.11-.34.1-1.56.51-15.1,4.77-1.56.51-.34.11-.34.11-1.56.5L667.26,150l-.34.11-.33.1-24.36,7.82-.33.1-.35.12L545.92,189c-.186761.061939-.289194.262351-.23.45l4.6,15l.49,1.56.09.34.11.35.48,1.56l3.68,12l.11.32v0l.1.34l9.77,31.74.09.34.11.34l3.68,12l.48,1.56.11.34.1.34.48,1.57l4.61,15c.04096.153941.180705.260805.34.26h.1l94.4-27.75.34-.1v0l.34-.1l24.52-7.21.35-.1.34-.1l114.3-33.6l1.57-.46.34-.1.35-.11l1.57-.46l15.22-4.47l1.58-.47.34-.09.33-.1l1.58-.47l21.57-6.34l1.57-.47.34-.09.34-.1l1.57-.46L984.43,164l1.57-.46.34-.1.34-.1l1.57-.47l13.63-4l1.59-.46.32-.1c.09675-.017214.178936-.080721.22-.17.045175-.085316.041363-.18826-.01-.27Zm-16,4.32l-1.57.47-.34.1-.33.1-1.58.46-126.3,37.14-1.57.46-.34.1-.34.1-1.57.47-21.57,6.33-1.58.47-.33.1-.35.1-1.57.47-15.21,4.46-1.58.47-.35.1-.34.1-1.57.46-114.29,33.6-.34.1-.35.1-24.52,7.21-.34.11-.33.1-94.08,27.65-4.5-14.65-.48-1.56-.11-.34-.1-.34-.48-1.56-3.69-12-.1-.35-.11-.33L556,220.67l-.11-.35-.1-.34-3.69-12-.48-1.56-.1-.35-.11-.34-.48-1.56-4.5-14.65L641.75,159l.35-.11.33-.11l24.34-7.81.35-.11.33-.11L779,114.93l1.56-.5.34-.11.33-.1l1.57-.51l15.1-4.85l1.56-.5.34-.11.33-.11l1.57-.5l21.41-6.87l1.56-.5.34-.11.34-.11l1.56-.49L952.24,59.31l1.57-.5.34-.11.33-.11l1.57-.49l13.53-4.35l1.56-.5l32.11,104.48-1.58.45Z" fill="#3c280a"/><path d="M1005.61,157.39L973.28,52.23c-.161593-.511527-.521905-.936695-1-1.18-.35628-.196801-.767518-.270613-1.17-.21-.114851.010162-.228608.030237-.34.06v0l-.32.1-1.56.5-13.53,4.35-1.56.5-.68.22-1.56.5L826.18,97.31l-1.56.5-.34.11-.34.11-1.56.5L801,105.4l-1.57.5-.33.11-.34.11-1.56.51-15.1,4.83-1.56.51-.34.1-.34.11-1.56.51-111.49,35.77-.33.11-.34.11-24.36,7.81-.32.11-.35.11-95.69,30.71c-1.036255.334868-1.614128,1.43727-1.3,2.48l4.61,15l.48,1.57.1.33.11.35.48,1.57l3.68,12l.11.32.1.35l9.76,31.74.1.34.11.34l3.68,12l.48,1.56.11.34.11.34.48,1.57l4.6,15c.254015.838351,1.024033,1.413838,1.9,1.42h.34l94.62-27.81.34-.1.34-.1l24.52-7.21.35-.11.33-.1l114.35-33.6l1.56-.47.34-.1.35-.1l1.57-.46l15.22-4.47l1.58-.47.34-.1.33-.1l1.58-.46l21.57-6.34l1.57-.46.34-.1.34-.1l1.57-.47l126.34-37.13l1.57-.47.34-.1.34-.1l1.57-.46l13.64-4L1004,160l.3-.09v0l.34-.13c.357158-.185814.649922-.475093.84-.83.253489-.480738.300422-1.043936.13-1.56Zm-20,3.8l-.34.11-1.57.46-126.3,37.13-1.57.47-.34.1-.34.09-1.57.47L832,206.36l-1.58.47-.33.1-.35.1-1.57.45L813,212l-1.56.46-.35.1-.34.11-1.57.46-114.31,33.55-.34.1-.35.1-24.51,7.21-.34.09-.35.1-92.53,27.21-4-13.1-.49-1.56-.1-.34-.11-.34-.48-1.56-3.68-12-.11-.34-.1-.33-9.76-31.73-.1-.35-.11-.34-3.68-12-.48-1.57-.11-.34-.09-.34-.49-1.57-4-13.09l93.69-30.07.35-.11.33-.1l24.35-7.82.34-.11.34-.11L779.44,116.5L781,116l.34-.11.33-.11l1.57-.51l15.1-4.84l1.56-.51.34-.11.34-.09l1.56-.51l21.41-6.88l1.56-.49.34-.11.34-.11l1.56-.5L952.73,60.88l1.56-.51.34-.11.33-.09l1.57-.51l13.53-4.34l31.13,101.3-13.63,4-1.57.46Z" fill="#3c280a"/><rect width="142.28" height="200.18" rx="0" ry="0" transform="matrix(-.293873-.955844 0.955844-.293873 817.066861 232.209462)" fill="#967444"/><path d="M1008.77,173.28l-4.16-13.54-.58-1.87L971.71,52.71l-.58-1.87L967,37.29c-.053473-.189752-.249622-.3012-.44-.25L951,41.81l-1.57.48-.34.11-.34.09-1.57.49-125.85,38.7-1.87.58L794.16,90l-1.87.57-17.1,5.26c-.091597.027704-.168394.090736-.213427.175172s-.054594.183328-.026573.274828l4.88,15.86.48,1.57.1.33.11.35L781,116l4.9,16l.48,1.56.11.35.11.34.48,1.56l3.68,12l.11.34.1.35l9.76,31.74.1.34.11.34l3.68,12l.48,1.56.11.34.1.34.48,1.56l4.91,16l.48,1.56.11.34.1.34.48,1.56l4.88,15.88c.033865.088736.097487.162962.18.21.052473.013548.107527.013548.16,0h.11l17.1-5.26l1.87-.57L861.48,219v0l1.85-.58l125.91-38.69l1.56-.48.34-.1.34-.11l1.56-.48l15.49-4.76c.088315-.034569.162331-.098011.21-.18.082698-.094825.094816-.232159.03-.34ZM861.61,218.15l-.34.1-.34.1-24.63,7.58-.32.1-.35.11-1.57.48-16.73,5.14-4.77-15.53-.48-1.57-.11-.33-.1-.34-.48-1.57-4.91-16-.48-1.56-.11-.34-.1-.34-.48-1.56-3.69-12-.1-.34-.11-.34-9.75-31.73-.11-.35-.11-.34-3.68-12-.48-1.58-.1-.32-.11-.35-.48-1.56-4.92-16-.48-1.56-.1-.34v0l-.1-.34-.48-1.56-4.78-15.52l16.74-5.15l1.57-.48.34-.11.32-.1l24.63-7.56.35-.11.34-.11l1.56-.47L947.44,43.6l1.56-.48.34-.11.34-.09l1.57-.5l15.15-4.65L970.45,51l.48,1.58.1.33.11.34l32.11,104.48.11.33.11.34.53,1.6l4,13.18-15.16,4.66-1.56.48-.34.1-.34.11-1.6.47-125.82,38.67Z" fill="#3c280a"/><path d="M1010.35,172.8l-4.74-15.41L973.28,52.23L968.54,36.8c-.326381-1.049375-1.438306-1.63883-2.49-1.32l-15.49,4.77-1.57.48-.34.1-.34.1-1.57.48L819.08,80.66l-25.4,7.81-19,5.84c-.516141.15315-.944267.515969-1.18,1-.248508.47102-.298897,1.021701-.14,1.53l4.88,15.89.48,1.56.11.34.1.34.48,1.57l4.9,15.94.48,1.56.11.35.11.34.48,1.56l3.68,12l.11.33.1.35l9.76,31.74.1.34.11.34l3.68,12l.48,1.56.11.34.1.34.48,1.56l4.9,16l.48,1.56.11.34.1.34.49,1.57l4.88,15.89c.161593.511527.521905.936695,1,1.18.280794.147767.592716.226605.91.23h.35l19-5.84v0L862,220.47l127.7-39.25l1.56-.48.34-.1.34-.11l1.56-.48l15.49-4.76c1.053397-.32211,1.648026-1.435363,1.33-2.49Zm-19.89,4l-.34.1-1.56.48L862.69,216.1l-1.56.48-.35.11-.33.1-1.57.48-21.48,6.61-1.58.48-.34.1-.33.1-1.58.49-15.16,4.66-4.28-13.94-.48-1.57-.11-.34-.09-.34L813,212l-5-16-.48-1.56-.1-.34-.11-.34-.48-1.57-3.68-12-.11-.34-.1-.34-9.76-31.75-.1-.33-.11-.34-3.68-12-.48-1.58-.11-.34-.1-.33-.48-1.57-4.92-16-.48-1.56-.1-.35-.11-.34-.48-1.56-4.28-13.93L793,92.86l1.57-.48.34-.09.32-.11l1.58-.48l21.49-6.61l1.56-.48.35-.11.34-.1l1.56-.48l125.8-38.69l1.57-.5.34-.09.34-.11l1.57-.48l13.58-4.18l3.58,11.63.48,1.58.1.34.11.33.48,1.57l31.13,101.3.48,1.56.11.34.1.34.49,1.57l3.58,11.64-13.59,4.17-1.56.48Z" fill="#3c280a"/><rect width="142.28" height="26.47" rx="0" ry="0" transform="matrix(-.293873-.955844 0.955844-.293873 836.045101 226.372054)" fill="#fff"/><path d="M861.71,218.48l-.1-.33-.48-1.57L857,203.17l-.48-1.57-.11-.34-.1-.34-.48-1.56-5.08-16.53-.48-1.56-.11-.34-.1-.33-.48-1.58-3.69-12-.1-.34-.11-.35-9.75-31.73-.11-.34-.1-.34L832,122l-.49-1.57-.1-.34-.1-.34-.49-1.56-5.07-16.53-.48-1.57-.1-.34-.11-.34-.48-1.56L820.5,84.4l-.5-1.57-.11-.34c-.027433-.091374-.090978-.16759-.175929-.211009s-.183944-.050279-.274071-.018991L794.16,90c-.093.020154-.170923.083235-.21.17-.03558.083015-.03558.176985,0,.26v0l.11.34.48,1.56l4.21,13.74.48,1.56.11.34.1.34.48,1.56l5,16.21.48,1.56.11.35.11.33.48,1.57l3.68,12l.11.34.1.35l9.76,31.74.1.34.11.34l3.68,12l.48,1.57.11.34.1.34.48,1.56l5,16.21.48,1.56.11.34.11.33.48,1.57l4.22,13.73.48,1.58.11.33v0c.023165.086034.081149.158515.16.2.055752.014395.114248.014395.17,0h.1l25.31-7.78v0c.137258-.082495.205867-.243927.17-.4ZM831,208.73l-.11-.34-.48-1.56-5-16.22-.48-1.56-.11-.34-.1-.34-.48-1.56-3.69-12-.1-.34-.11-.34-9.75-31.74-.11-.35-.1-.33-3.69-12-.48-1.57-.1-.33-.11-.35-.48-1.56-5-16.2-.49-1.58-.1-.34-.11-.33-.48-1.57-4.22-13.72-.48-1.57L819.33,83v0l.48,1.56L823.94,98l.48,1.56.11.34.1.34.48,1.57l5.08,16.51.48,1.57.11.33.1.34.48,1.58l3.69,12l.1.34.11.33L845,166.56l.11.35.1.34l3.69,12l.48,1.57.11.34.09.34.49,1.56l5.07,16.51.48,1.57.11.34v0l.1.32.48,1.58l4.13,13.42.48,1.56-24.63,7.58-.48-1.57-4.22-13.73-.48-1.56Z" fill="#3c280a"/><path d="M863.28,218l-.1-.33-.49-1.57-4.12-13.4-.48-1.56-.1-.34-.11-.34-.48-1.57-5.07-16.54-.5-1.57-.09-.33-.11-.34-.48-1.57-3.68-12-.11-.34v0l-.1-.34-9.77-31.73-.09-.34-.11-.34-3.68-12-.48-1.57-.11-.34-.1-.35-.48-1.56-5.09-16.54-.48-1.56-.11-.35-.1-.34-.48-1.56-4.12-13.39-.48-1.56-.11-.35c-.027594-.11715-.074937-.228746-.14-.33-.184186-.360862-.473625-.657275-.83-.85-.436202-.229747-.941892-.290288-1.42-.17h-.1l-25.3,7.78c-.511527.161593-.936695.521905-1.18,1-.184954.356786-.258134.761017-.21,1.16.00883.119104.032342.236661.07.35l.11.34.48,1.56l4.22,13.77.48,1.56.1.34.11.33.48,1.57l5,16.18.48,1.56.11.35.11.34.48,1.56l3.68,12l.11.34.1.35l9.76,31.74.1.34.11.34l3.68,12l.48,1.56.11.34.1.34.48,1.56l5,16.18.48,1.58.11.34.1.33.48,1.57l4.22,13.75.49,1.57.1.34c.03819.110178.085002.217176.14.32.184186.360862.473625.657275.83.85.290035.152976.612129.235212.94.24h.34v0L862,220.5h.07c.474864-.162914.871091-.498458,1.11-.94.185551-.363698.255343-.775473.2-1.18-.021609-.129465-.055084-.256668-.1-.38Zm-30.58-9.4l-.1-.34-.11-.34-.48-1.56-5-16.23-.48-1.56-.11-.34-.1-.34-.48-1.57-3.69-12-.1-.34-.11-.35-9.75-31.74-.11-.34-.1-.34-3.69-12-.48-1.57-.1-.34-.11-.34-.48-1.56-5-16.23-.48-1.57-.11-.34-.1-.34-.43-1.52-4.21-13.7l21.49-6.61l4.13,13.44.48,1.56.11.34.1.34.48,1.56l5.08,16.51.48,1.56.09.35.11.32.48,1.58l3.68,12l.11.34.1.33l9.77,31.75.09.34.11.34l3.68,12l.48,1.57.11.34.1.34.48,1.56l5.08,16.5.48,1.57.1.33.11.34.48,1.57l4.13,13.44-21.48,6.61-4.22-13.71Z" fill="#3c280a"/><rect width="173.71" height="31.43" rx="0" ry="0" transform="matrix(-.293873-.955844 0.955844-.293873 995.62916 193.759256)" fill="#fff"/><path d="M1026,184.41l-51-166c-.025151-.090657-.086742-.166841-.170119-.210424s-.181087-.050671-.269881-.019576l-30,9.23c-.084274.036322-.156927.095136-.21.17-.034659.090116-.034659.189884,0,.28l4,13.11.48,1.56.11.34.1.35.48,1.55l3.64,11.84.48,1.56.11.34.1.34.48,1.56l31,100.93.49,1.56.09.34.11.34.48,1.56l3.64,11.83.48,1.57.1.34.11.34.48,1.56l4,13.11c.037719.15608.17949.264493.34.26.036127.008897.073873.008897.11,0l30-9.24c.091663-.022888.168528-.085111.21-.17.063039-.098587.074228-.221662.03-.33Zm-30.14,8.9L992,180.53l-.48-1.56-.1-.34-.11-.34-.48-1.57-3.64-11.82-.48-1.56-.1-.34-.11-.34-.48-1.57L955,60.17l-.48-1.58-.11-.34-.09-.33-.48-1.57-3.64-11.82-.52-1.53-.11-.35-.1-.34-.47-1.58L945.06,28l29.37-9l50.83,165.37Z" fill="#3c280a"/><path d="M1027.61,183.93l-51-166c-.32211-1.053397-1.435363-1.648026-2.49-1.33L944,25.81c-.511527.161593-.936695.521905-1.18,1-.243079.465439-.293365,1.007804-.14,1.51l4,13.11.48,1.57.11.33.11.35.47,1.57l3.65,11.84.48,1.57.11.34.09.33.49,1.57l31,100.88.48,1.56.11.34.1.34.48,1.57l3.65,11.84L989,179l.1.34.11.34.48,1.56l4,13.11c.257596.834393,1.026762,1.405195,1.9,1.41h.41l30.28-9.31c.511527-.161593.936695-.521905,1.18-1c.249118-.466871.303056-1.013441.15-1.52Zm-34.56-5.44l-.1-.34-.11-.34-.48-1.57-3.63-11.8-.48-1.57-.11-.33v0l-.1-.34-.48-1.56-31-101-.48-1.56-.11-.35-.1-.34-.48-1.56-3.63-11.8-.48-1.57-.11-.33-.1-.34-.48-1.56L947.11,29l26.23-8l49.87,162.22L997,191.27l-3.45-11.22Z" fill="#3c280a"/><path d="M471.78,246.19l12.2,37.1c.660818,2.008832.09758,4.218588-1.444192,5.666009s-3.782649,1.87018-5.745808,1.083991l-53.61-21.45c-2.184207-.878084-3.555796-3.061452-3.398751-5.410309s1.80709-4.330197,4.088751-4.909691Z" fill="#3c280a"/><path d="M484.31,283.18l-1.49-4.53-.12-.34-.1-.33-10.37-31.55-.11-.35c-.061678-.176852-.248659-.276866-.43-.23v0l-30.88,7.78-17,4.29c-2.429876.620795-4.185508,2.733017-4.351577,5.235436s1.295045,4.828117,3.621577,5.764564l53.61,21.44c.693611.276455,1.433326.418969,2.18.42c1.85277-.012873,3.587889-.910159,4.669299-2.414643s1.378952-3.435088.800701-5.195357Zm-7.38,6.53l-53.62-21.45c-2.041893-.819713-3.323968-2.860759-3.175944-5.05606s1.692492-4.045759,3.825944-4.58394l47.58-12v0L477,263.19l.09.25l5,15.08.11.33l1.49,4.55c.619538,1.875776.095479,3.940608-1.343603,5.293903s-3.532189,1.749613-5.366397,1.016097Z" fill="#3c280a"/><rect width="78.85" height="43.42" rx="0" ry="0" transform="matrix(-.96155 0.274631-.274631-.96155 736.59985 307.904485)" fill="#3c280a"/><path d="M735.93,304.15l-.42-1.43-.1-.35-.1-.36L725,266c-.023279-.092699-.083456-.171845-.166556-.219061s-.181895-.058394-.273444-.030939l-22.44,6.41-.34.09-.35.11-24.58,7-.33.1-.34.09-27.45,7.84c-.089932.026275-.165575.08751-.21.17-.030484.087419-.030484.182581,0,.27l11.93,41.76c.044699.149973.183521.252048.34.25h.09L709,316.11l.36-.1.35-.1l27-7.72c.098142-.020862.180117-.087933.22-.18v-.07c.010091-.062931.010091-.127069,0-.19Zm-26.27,11l-.35.1-.36.11L661,329.06L649.31,288l27.09-7.74.34-.1.34-.09l24.57-7l.35-.1.34-.09l22.1-6.31L734.57,302l.1.36.1.35l1.4,4.88Z" fill="#3c280a"/><path d="M743.82,348.7c0-16.40838,13.30162-29.71,29.71-29.71s29.71,13.30162,29.71,29.71-13.30162,29.71-29.71,29.71c-7.879582,0-15.436437-3.130152-21.008142-8.701858s-8.701858-13.12856-8.701858-21.008142Z" fill="#3c280a"/><path d="M773.53,318.64c-4.570664-.011274-9.081846,1.036087-13.18,3.06-.110514.045263-.217481.098747-.32.16-.113925.048701-.224208.105513-.33.17-6.349375,3.305332-11.312958,8.765273-14,15.4-.086118.174523-.159639.354983-.22.54-.08.19-.15.38-.22.57-4.434777,12.339751-.362196,26.130438,10.064691,34.081333s24.803669,8.228545,35.529769.686165s15.328107-21.165541,11.373078-33.667319-15.555074-20.999301-28.667538-21.000179Zm0,59.42c-16.204327-.016526-29.337954-13.14568-29.36-29.35-.005914-3.034268.463094-6.050768,1.39-8.94.06-.2.13-.41.21-.61s.13-.4.2-.6c2.534496-6.812643,7.49498-12.449719,13.93-15.83.097737-.069158.201487-.1294.31-.18l.32-.16c4.042402-1.993622,8.49277-3.02063,13-3c16.001149.295344,28.818174,13.351126,28.818174,29.355s-12.817025,29.059656-28.818174,29.355Z" fill="#3c280a"/><rect width="18.28" height="91.42" rx="0" ry="0" transform="matrix(-.965291 0.261178-.261178-.965291 770.058035 358.977374)" fill="#3c280a"/><path d="M760.53,322.39l-.09-.35-.09-.34-13.82-51.08c-.023279-.092699-.083456-.171845-.166556-.219061s-.181895-.058394-.273444-.030939l-17.65,4.77c-.183078.061777-.29065.251104-.25.44L735.35,302l.09.36.09.35.4,1.43l1,3.79l1.72,6.35.7,2.58l5.86,21.67.16.62.17.61l6.51,24.05c.034261.163908.182763.278467.35.27.025882.009151.054118.009151.08,0l17.65-4.77c.092403-.020395.172127-.078376.22-.16.034659-.090116.034659-.189884,0-.28Zm-7.86,40.91L746,338.56l-.15-.57-.15-.56-6.3-23.28-.35-1.3-.35-1.29-2.4-8.84-.09-.35-.1-.36L729,275.73l17-4.59L759.7,322l.1.34.1.36l9.73,36Z" fill="#3c280a"/><path d="M695.59,400.64c0-16.40838,13.30162-29.71,29.71-29.71s29.71,13.30162,29.71,29.71-13.30162,29.71-29.71,29.71c-7.879582,0-15.436437-3.130152-21.008142-8.701858s-8.701858-13.12856-8.701858-21.008142Z" fill="#3c280a"/><path d="M739.37,374.08c-.111334-.069848-.228425-.130066-.35-.18-.112471-.06783-.229405-.127967-.35-.18-9.238251-4.598896-20.191734-4.126763-29,1.25l-.35.22c-.12671.069446-.247161.149747-.36.24-8.557247,5.528594-13.723924,15.022173-13.72,25.21-.002684,1.186821.070801,2.372591.22,3.55c0,.13,0,.26,0,.39l.06.41c.838406,5.718542,3.31084,11.073167,7.12,15.42.07.08.15.18.24.27.074518.091571.154674.178406.24.26c1.712073,1.881422,3.66179,3.531958,5.8,4.91l.36.24c.113063.075838.229878.145927.35.21c8.803073,5.391257,19.762502,5.867425,29,1.26.122697-.051531.239945-.11518.35-.19.123073-.042399.240587-.099477.35-.17c9.869688-5.183335,16.051294-15.412009,16.051294-26.56s-6.181606-21.376665-16.051294-26.56Zm0,52.31c-.111129.073041-.228209.136598-.35.19-.111334.069848-.228425.130066-.35.18-9.212663,4.737556-20.24437,4.246835-29-1.29l-.35-.23L709,425c-1.909464-1.28756-3.661419-2.794509-5.22-4.49l-.24-.25-.24-.28c-3.813217-4.350073-6.249434-9.734112-7-15.47-.01033-.139809-.01033-.280191,0-.42-.009764-.129817-.009764-.260183,0-.39-.112285-1.02284-.169035-2.051016-.17-3.08.005158-9.783918,4.878749-18.923777,13-24.38l.36-.23.35-.23c8.759307-5.527656,19.787746-6.014428,29-1.28.123392.045908.240884.106333.35.18.121791.053402.238871.116959.35.19c9.423933,5.139175,15.287692,15.015866,15.287692,25.75s-5.863759,20.610825-15.287692,25.75Z" fill="#3c280a"/></g><g transform="translate(0 0.000001)"><polygon points="658.93,545.19 673.2,493.98 700.32,501.44 688.12,545.19 658.93,545.19" fill="#3c280a"/><path d="M700.63,501.27c-.053478-.080836-.130175-.143588-.22-.18l-6.79-1.86h-1.36l-1.3-.36h-1.32l1.3.36l8.93,2.45-12,43.15-.1.36-.1.35-60.17,216h.73l60.25-216.23l12.2-43.75c.022959-.099459.00494-.203972-.05-.29Zm0,0c-.053478-.080836-.130175-.143588-.22-.18l-6.79-1.86-1.31-.36-1.27-.35-5-1.39-.36-.1-.35-.1-12-3.3c-.192578-.044821-.386364.069689-.44.26L658.58,545.1c0,0,0,0,0,.07l-60.3,216.34h.72l60.18-216l.1-.35.11-.36l14-50.42l11.85,3.27.35.08.36.1l2.36.66l1.28.35l1.3.36l8.93,2.45-12,43.15-.1.36-.1.35-60.17,216h.73l60.25-216.23l12.2-43.75c.030571-.083971.030571-.176029,0-.26Z" fill="#3c280a"/><polygon points="700.31,501.44 688.12,545.19 688.02,545.54 627.84,761.51 598.64,761.51 658.84,545.52 658.93,545.19 673.2,493.97 685.29,497.3 685.64,497.4 686,497.5 689.68,498.52 689.7,498.52 690.95,498.87 690.96,498.87 692.26,499.23 700.31,501.44" fill="#e6d296"/><polygon points="761.54,545.19 749.35,501.44 776.46,493.98 790.74,545.19 761.54,545.19" fill="#3c280a"/><path d="M762,545.54l-.1-.35h-.37l.09.35h-.09c-.156351.008633-.295984-.09715-.33-.25l60.25,216.22h.73Zm29.07-.42v0L776.8,493.89c-.021241-.092271-.078959-.171999-.159983-.22099s-.17844-.063065-.270017-.03901l-17.58,4.84-.36.1-1.08.3-1.31.36-6.79,1.86c-.088736.033865-.162962.097487-.21.18-.03558.083015-.03558.176985,0,.26l12.19,43.75v0L821.48,761.5h.73L762,545.54l-.1-.35-.1-.36-12-43.15l26.43-7.27l14.06,50.42.1.36.1.35l60.17,216h.75Z" fill="#3c280a"/><polygon points="790.83,545.52 851.01,761.51 821.82,761.51 761.63,545.54 761.54,545.19 749.35,501.44 757.4,499.23 758.79,498.84 776.47,493.97 790.74,545.19 790.83,545.52" fill="#e6d296"/><path d="M688.36,498.52l1.28.35h1.36l1.3.36h16.9v-.71Zm70.07-48h-72.79c-.092826,0-.18185.036875-.247487.102513s-.102513.154661-.102513.247487v48c-.000075.194982.155093.354584.35.36h72.79c.095478,0,.187045-.037928.254558-.105442s.105442-.15908.105442-.254558v-48c-.010753-.189378-.170404-.335725-.36-.33Zm-.35,48h-72.08v-47.27h72.08Z" fill="#3c280a"/><rect width="72.79" height="47.98" rx="0" ry="0" transform="matrix(-1 0 0-1 758.44 498.87)" fill="#3c280a"/><path d="M740.24,467.08h-31.43c-.194982-.000075-.354584.155093-.36.35v76.1c0,.095478.037928.187045.105442.254558s.15908.105442.254558.105442h31.43c.094585.000039.185158-.038206.251091-.106023s.101611-.159431.098909-.253977v-76.1c0-.1933-.1567-.35-.35-.35Zm-.36,76.1h-30.72v-75.39h30.72Z" fill="#3c280a"/><rect width="31.43" height="76.1" rx="0" ry="0" transform="matrix(-1 0 0-1 740.24 543.53)" fill="#3c280a"/><path d="M740.24,467.08h-31.43c-.194982-.000075-.354584.155093-.36.35v311c0,.095478.037928.187045.105442.254558s.15908.105442.254558.105442h31.43c.094585.000039.185158-.038206.251091-.106023s.101611-.159431.098909-.253977v-311c0-.1933-.1567-.35-.35-.35Zm-.36,311h-30.72v-310.29h30.72Z" fill="#3c280a"/><rect width="29.71" height="20.077045" rx="0" ry="0" transform="matrix(-.998818 0 0-.974651 738.987442 450.345329)" fill="#e6d296"/><path d="M739,397.32h-29.69c-.094546-.002702-.186161.032976-.253977.098909s-.106062.156506-.106023.251091v54.4c.005416.194907.165018.350075.36.35h29.69c.191088-.005238.344762-.158912.35-.35v-54.4c0-.092826-.036875-.18185-.102513-.247487s-.154661-.102513-.247487-.102513Zm-.35,54.39h-29v-53.71h29Z" fill="#3c280a"/><path d="M740.24,467.08h-31.43c-.194982-.000075-.354584.155093-.36.35v311c0,.095478.037928.187045.105442.254558s.15908.105442.254558.105442h.35v-311h30.72v311h.36c.094585.000039.185158-.038206.251091-.106023s.101611-.159431.098909-.253977v-311c0-.092826-.036875-.18185-.102513-.247487s-.154661-.102513-.247487-.102513Z" fill="#3c280a"/><path d="M700.63,501.27c-.053478-.080836-.130175-.143588-.22-.18l-6.79-1.86-1.31-.36-1.27-.35-5-1.39-.36-.1-.35-.1-12-3.3c-.192578-.044821-.386364.069689-.44.26L658.58,545.1c0,0,0,0,0,.07-.00086.083632.027426.164954.08.23.041884.066718.111758.110849.19.12.029043.010716.060957.010716.09,0h29.19c.161792.008548.305858-.101621.34-.26l12.2-43.75c.013331-.082222-.000723-.166546-.04-.24Zm-15.34-3.59l.35.08.36.1l2.36.66l1.28.35l1.3.36l8.93,2.45-12,43.15h-28.47l14-50.42Z" fill="#3c280a"/><rect width="31.43" height="311.38" rx="0" ry="0" transform="matrix(1 0 0 0.999871 708.81 467.450084)" fill="#e6d296"/><path d="M791.08,545.12v0L776.8,493.89c-.021241-.092271-.078959-.171999-.159983-.22099s-.17844-.063065-.270017-.03901l-17.58,4.84-.36.1-1.08.3-1.31.36-6.79,1.86c-.088736.033865-.162962.097487-.21.18-.03558.083015-.03558.176985,0,.26l12.19,43.75v0c.034016.15285.173649.258633.33.25h29.2c.029043.010716.060957.010716.09,0c.077311-.011715.146201-.055225.19-.12.066829-.081444.082286-.193506.04-.29Zm-14.87-50.71l14.06,50.42h-28.46l-12-43.15Z" fill="#3c280a"/></g></g></g>
<script><![CDATA[
!function(t,e){"object"==typeof exports&&"undefined"!=typeof module?module.exports=e():"function"==typeof define&&define.amd?define(e):((t="undefined"!=typeof globalThis?globalThis:t||self).__SVGATOR_PLAYER__=t.__SVGATOR_PLAYER__||{},t.__SVGATOR_PLAYER__["91c80d77"]=e())}(this,(function(){"use strict";function t(t,e){var n=Object.keys(t);if(Object.getOwnPropertySymbols){var r=Object.getOwnPropertySymbols(t);e&&(r=r.filter((function(e){return Object.getOwnPropertyDescriptor(t,e).enumerable}))),n.push.apply(n,r)}return n}function e(e){for(var n=1;n<arguments.length;n++){var r=null!=arguments[n]?arguments[n]:{};n%2?t(Object(r),!0).forEach((function(t){u(e,t,r[t])})):Object.getOwnPropertyDescriptors?Object.defineProperties(e,Object.getOwnPropertyDescriptors(r)):t(Object(r)).forEach((function(t){Object.defineProperty(e,t,Object.getOwnPropertyDescriptor(r,t))}))}return e}function n(t){return(n="function"==typeof Symbol&&"symbol"==typeof Symbol.iterator?function(t){return typeof t}:function(t){return t&&"function"==typeof Symbol&&t.constructor===Symbol&&t!==Symbol.prototype?"symbol":typeof t})(t)}function r(t,e){if(!(t instanceof e))throw new TypeError("Cannot call a class as a function")}function i(t,e){for(var n=0;n<e.length;n++){var r=e[n];r.enumerable=r.enumerable||!1,r.configurable=!0,"value"in r&&(r.writable=!0),Object.defineProperty(t,r.key,r)}}function o(t,e,n){return e&&i(t.prototype,e),n&&i(t,n),t}function u(t,e,n){return e in t?Object.defineProperty(t,e,{value:n,enumerable:!0,configurable:!0,writable:!0}):t[e]=n,t}function a(t){return(a=Object.setPrototypeOf?Object.getPrototypeOf:function(t){return t.__proto__||Object.getPrototypeOf(t)})(t)}function s(t,e){return(s=Object.setPrototypeOf||function(t,e){return t.__proto__=e,t})(t,e)}function l(){if("undefined"==typeof Reflect||!Reflect.construct)return!1;if(Reflect.construct.sham)return!1;if("function"==typeof Proxy)return!0;try{return Boolean.prototype.valueOf.call(Reflect.construct(Boolean,[],(function(){}))),!0}catch(t){return!1}}function f(t,e,n){return(f=l()?Reflect.construct:function(t,e,n){var r=[null];r.push.apply(r,e);var i=new(Function.bind.apply(t,r));return n&&s(i,n.prototype),i}).apply(null,arguments)}function c(t,e){if(e&&("object"==typeof e||"function"==typeof e))return e;if(void 0!==e)throw new TypeError("Derived constructors may only return object or undefined");return function(t){if(void 0===t)throw new ReferenceError("this hasn't been initialised - super() hasn't been called");return t}(t)}function h(t,e,n){return(h="undefined"!=typeof Reflect&&Reflect.get?Reflect.get:function(t,e,n){var r=function(t,e){for(;!Object.prototype.hasOwnProperty.call(t,e)&&null!==(t=a(t)););return t}(t,e);if(r){var i=Object.getOwnPropertyDescriptor(r,e);return i.get?i.get.call(n):i.value}})(t,e,n||t)}function v(t){return function(t){if(Array.isArray(t))return y(t)}(t)||function(t){if("undefined"!=typeof Symbol&&null!=t[Symbol.iterator]||null!=t["@@iterator"])return Array.from(t)}(t)||function(t,e){if(!t)return;if("string"==typeof t)return y(t,e);var n=Object.prototype.toString.call(t).slice(8,-1);"Object"===n&&t.constructor&&(n=t.constructor.name);if("Map"===n||"Set"===n)return Array.from(t);if("Arguments"===n||/^(?:Ui|I)nt(?:8|16|32)(?:Clamped)?Array$/.test(n))return y(t,e)}(t)||function(){throw new TypeError("Invalid attempt to spread non-iterable instance.\nIn order to be iterable, non-array objects must have a [Symbol.iterator]() method.")}()}function y(t,e){(null==e||e>t.length)&&(e=t.length);for(var n=0,r=new Array(e);n<e;n++)r[n]=t[n];return r}Number.isInteger||(Number.isInteger=function(t){return"number"==typeof t&&isFinite(t)&&Math.floor(t)===t}),Number.EPSILON||(Number.EPSILON=2220446049250313e-31);var d=g(Math.pow(10,-6));function g(t){var e=arguments.length>1&&void 0!==arguments[1]?arguments[1]:6;if(Number.isInteger(t))return t;var n=Math.pow(10,e);return Math.round((+t+Number.EPSILON)*n)/n}function p(t,e){var n=arguments.length>2&&void 0!==arguments[2]?arguments[2]:d;return Math.abs(t-e)<n}var m=Math.PI/180;function b(t){return t}function k(t,e,n){var r=1-n;return 3*n*r*(t*r+e*n)+n*n*n}function w(){var t=arguments.length>0&&void 0!==arguments[0]?arguments[0]:0,e=arguments.length>1&&void 0!==arguments[1]?arguments[1]:0,n=arguments.length>2&&void 0!==arguments[2]?arguments[2]:1,r=arguments.length>3&&void 0!==arguments[3]?arguments[3]:1;return t<0||t>1||n<0||n>1?null:p(t,e)&&p(n,r)?b:function(i){if(i<=0)return t>0?i*e/t:0===e&&n>0?i*r/n:0;if(i>=1)return n<1?1+(i-1)*(r-1)/(n-1):1===n&&t<1?1+(i-1)*(e-1)/(t-1):1;for(var o,u=0,a=1;u<a;){var s=k(t,n,o=(u+a)/2);if(p(i,s))break;s<i?u=o:a=o}return k(e,r,o)}}function x(){return 1}function A(t){return 1===t?1:0}function _(){var t=arguments.length>0&&void 0!==arguments[0]?arguments[0]:1,e=arguments.length>1&&void 0!==arguments[1]?arguments[1]:0;if(1===t){if(0===e)return A;if(1===e)return x}var n=1/t;return function(t){return t>=1?1:(t+=e*n)-t%n}}var O=Math.sin,S=Math.cos,E=Math.acos,P=Math.asin,M=Math.tan,j=Math.atan2,B=Math.PI/180,T=180/Math.PI,I=Math.sqrt,R=function(){function t(){var e=arguments.length>0&&void 0!==arguments[0]?arguments[0]:1,n=arguments.length>1&&void 0!==arguments[1]?arguments[1]:0,i=arguments.length>2&&void 0!==arguments[2]?arguments[2]:0,o=arguments.length>3&&void 0!==arguments[3]?arguments[3]:1,u=arguments.length>4&&void 0!==arguments[4]?arguments[4]:0,a=arguments.length>5&&void 0!==arguments[5]?arguments[5]:0;r(this,t),this.m=[e,n,i,o,u,a],this.i=null,this.w=null,this.s=null}return o(t,[{key:"determinant",get:function(){var t=this.m;return t[0]*t[3]-t[1]*t[2]}},{key:"isIdentity",get:function(){if(null===this.i){var t=this.m;this.i=1===t[0]&&0===t[1]&&0===t[2]&&1===t[3]&&0===t[4]&&0===t[5]}return this.i}},{key:"point",value:function(t,e){var n=this.m;return{x:n[0]*t+n[2]*e+n[4],y:n[1]*t+n[3]*e+n[5]}}},{key:"translateSelf",value:function(){var t=arguments.length>0&&void 0!==arguments[0]?arguments[0]:0,e=arguments.length>1&&void 0!==arguments[1]?arguments[1]:0;if(!t&&!e)return this;var n=this.m;return n[4]+=n[0]*t+n[2]*e,n[5]+=n[1]*t+n[3]*e,this.w=this.s=this.i=null,this}},{key:"rotateSelf",value:function(){var t=arguments.length>0&&void 0!==arguments[0]?arguments[0]:0;if(t%=360){var e=O(t*=B),n=S(t),r=this.m,i=r[0],o=r[1];r[0]=i*n+r[2]*e,r[1]=o*n+r[3]*e,r[2]=r[2]*n-i*e,r[3]=r[3]*n-o*e,this.w=this.s=this.i=null}return this}},{key:"scaleSelf",value:function(){var t=arguments.length>0&&void 0!==arguments[0]?arguments[0]:1,e=arguments.length>1&&void 0!==arguments[1]?arguments[1]:1;if(1!==t||1!==e){var n=this.m;n[0]*=t,n[1]*=t,n[2]*=e,n[3]*=e,this.w=this.s=this.i=null}return this}},{key:"skewSelf",value:function(t,e){if(e%=360,(t%=360)||e){var n=this.m,r=n[0],i=n[1],o=n[2],u=n[3];t&&(t=M(t*B),n[2]+=r*t,n[3]+=i*t),e&&(e=M(e*B),n[0]+=o*e,n[1]+=u*e),this.w=this.s=this.i=null}return this}},{key:"resetSelf",value:function(){var t=arguments.length>0&&void 0!==arguments[0]?arguments[0]:1,e=arguments.length>1&&void 0!==arguments[1]?arguments[1]:0,n=arguments.length>2&&void 0!==arguments[2]?arguments[2]:0,r=arguments.length>3&&void 0!==arguments[3]?arguments[3]:1,i=arguments.length>4&&void 0!==arguments[4]?arguments[4]:0,o=arguments.length>5&&void 0!==arguments[5]?arguments[5]:0,u=this.m;return u[0]=t,u[1]=e,u[2]=n,u[3]=r,u[4]=i,u[5]=o,this.w=this.s=this.i=null,this}},{key:"recomposeSelf",value:function(){var t=arguments.length>0&&void 0!==arguments[0]?arguments[0]:null,e=arguments.length>1&&void 0!==arguments[1]?arguments[1]:null,n=arguments.length>2&&void 0!==arguments[2]?arguments[2]:null,r=arguments.length>3&&void 0!==arguments[3]?arguments[3]:null,i=arguments.length>4&&void 0!==arguments[4]?arguments[4]:null;return this.isIdentity||this.resetSelf(),t&&(t.x||t.y)&&this.translateSelf(t.x,t.y),e&&this.rotateSelf(e),n&&(n.x&&this.skewSelf(n.x,0),n.y&&this.skewSelf(0,n.y)),!r||1===r.x&&1===r.y||this.scaleSelf(r.x,r.y),i&&(i.x||i.y)&&this.translateSelf(i.x,i.y),this}},{key:"decompose",value:function(){var t=arguments.length>0&&void 0!==arguments[0]?arguments[0]:0,e=arguments.length>1&&void 0!==arguments[1]?arguments[1]:0,n=this.m,r=n[0]*n[0]+n[1]*n[1],i=[[n[0],n[1]],[n[2],n[3]]],o=I(r);if(0===o)return{origin:{x:g(n[4]),y:g(n[5])},translate:{x:g(t),y:g(e)},scale:{x:0,y:0},skew:{x:0,y:0},rotate:0};i[0][0]/=o,i[0][1]/=o;var u=n[0]*n[3]-n[1]*n[2]<0;u&&(o=-o);var a=i[0][0]*i[1][0]+i[0][1]*i[1][1];i[1][0]-=i[0][0]*a,i[1][1]-=i[0][1]*a;var s=I(i[1][0]*i[1][0]+i[1][1]*i[1][1]);if(0===s)return{origin:{x:g(n[4]),y:g(n[5])},translate:{x:g(t),y:g(e)},scale:{x:g(o),y:0},skew:{x:0,y:0},rotate:0};i[1][0]/=s,i[1][1]/=s,a/=s;var l=0;return i[1][1]<0?(l=E(i[1][1])*T,i[0][1]<0&&(l=360-l)):l=P(i[0][1])*T,u&&(l=-l),a=j(a,I(i[0][0]*i[0][0]+i[0][1]*i[0][1]))*T,u&&(a=-a),{origin:{x:g(n[4]),y:g(n[5])},translate:{x:g(t),y:g(e)},scale:{x:g(o),y:g(s)},skew:{x:g(a),y:0},rotate:g(l)}}},{key:"clone",value:function(){var t=this.m;return new this.constructor(t[0],t[1],t[2],t[3],t[4],t[5])}},{key:"toString",value:function(){var t=arguments.length>0&&void 0!==arguments[0]?arguments[0]:" ";if(null===this.s){var e=this.m.map((function(t){return g(t)}));1===e[0]&&0===e[1]&&0===e[2]&&1===e[3]?this.s="translate("+e[4]+t+e[5]+")":this.s="matrix("+e.join(t)+")"}return this.s}}],[{key:"create",value:function(t){return t?Array.isArray(t)?f(this,v(t)):t instanceof this?t.clone():(new this).recomposeSelf(t.origin,t.rotate,t.skew,t.scale,t.translate):new this}}]),t}();function N(t,e,n){return t>=.5?n:e}function F(t,e,n){return 0===t||e===n?e:t*(n-e)+e}function C(t,e,n){var r=F(t,e,n);return r<=0?0:r}function L(t,e,n){var r=F(t,e,n);return r<=0?0:r>=1?1:r}function D(t,e,n){return 0===t?e:1===t?n:{x:F(t,e.x,n.x),y:F(t,e.y,n.y)}}function q(t,e,n){return 0===t?e:1===t?n:{x:C(t,e.x,n.x),y:C(t,e.y,n.y)}}function V(t,e,n){var r=function(t,e,n){return Math.round(F(t,e,n))}(t,e,n);return r<=0?0:r>=255?255:r}function z(t,e,n){return 0===t?e:1===t?n:{r:V(t,e.r,n.r),g:V(t,e.g,n.g),b:V(t,e.b,n.b),a:F(t,null==e.a?1:e.a,null==n.a?1:n.a)}}function Y(t,e,n){var r=e.length;if(r!==n.length)return N(t,e,n);for(var i=new Array(r),o=0;o<r;o++)i[o]=F(t,e[o],n[o]);return i}function G(t,e){for(var n=[],r=0;r<t;r++)n.push(e);return n}function U(t,e){if(--e<=0)return t;var n=(t=Object.assign([],t)).length;do{for(var r=0;r<n;r++)t.push(t[r])}while(--e>0);return t}var $,W=function(){function t(e){r(this,t),this.list=e,this.length=e.length}return o(t,[{key:"setAttribute",value:function(t,e){for(var n=this.list,r=0;r<this.length;r++)n[r].setAttribute(t,e)}},{key:"removeAttribute",value:function(t){for(var e=this.list,n=0;n<this.length;n++)e[n].removeAttribute(t)}},{key:"style",value:function(t,e){for(var n=this.list,r=0;r<this.length;r++)n[r].style[t]=e}}]),t}(),H=/-./g,Q=function(t,e){return e.toUpperCase()};function X(t){return"function"==typeof t?t:N}function J(t){return t?"function"==typeof t?t:Array.isArray(t)?function(t){var e=arguments.length>1&&void 0!==arguments[1]?arguments[1]:b;if(!Array.isArray(t))return e;switch(t.length){case 1:return _(t[0])||e;case 2:return _(t[0],t[1])||e;case 4:return w(t[0],t[1],t[2],t[3])||e}return e}(t,null):function(t,e){var n=arguments.length>2&&void 0!==arguments[2]?arguments[2]:b;switch(t){case"linear":return b;case"steps":return _(e.steps||1,e.jump||0)||n;case"bezier":case"cubic-bezier":return w(e.x1||0,e.y1||0,e.x2||0,e.y2||0)||n}return n}(t.type,t.value,null):null}function K(t,e,n){var r=arguments.length>3&&void 0!==arguments[3]&&arguments[3],i=e.length-1;if(t<=e[0].t)return r?[0,0,e[0].v]:e[0].v;if(t>=e[i].t)return r?[i,1,e[i].v]:e[i].v;var o,u=e[0],a=null;for(o=1;o<=i;o++){if(!(t>e[o].t)){a=e[o];break}u=e[o]}return null==a?r?[i,1,e[i].v]:e[i].v:u.t===a.t?r?[o,1,a.v]:a.v:(t=(t-u.t)/(a.t-u.t),u.e&&(t=u.e(t)),r?[o,t,n(t,u.v,a.v)]:n(t,u.v,a.v))}function Z(t,e){var n=arguments.length>2&&void 0!==arguments[2]?arguments[2]:null;return t&&t.length?"function"!=typeof e?null:("function"!=typeof n&&(n=null),function(r){var i=K(r,t,e);return null!=i&&n&&(i=n(i)),i}):null}function tt(t,e){return t.t-e.t}function et(t,e,r,i,o){var u,a="@"===r[0],s="#"===r[0],l=$[r],f=N;switch(a?(u=r.substr(1),r=u.replace(H,Q)):s&&(r=r.substr(1)),n(l)){case"function":if(f=l(i,o,K,J,r,a,e,t),s)return f;break;case"string":f=Z(i,X(l));break;case"object":if((f=Z(i,X(l.i),l.f))&&"function"==typeof l.u)return l.u(e,f,r,a,t)}return f?function(t,e,n){if(arguments.length>3&&void 0!==arguments[3]&&arguments[3])return t instanceof W?function(r){return t.style(e,n(r))}:function(r){return t.style[e]=n(r)};if(Array.isArray(e)){var r=e.length;return function(i){var o=n(i);if(null==o)for(var u=0;u<r;u++)t[u].removeAttribute(e);else for(var a=0;a<r;a++)t[a].setAttribute(e,o)}}return function(r){var i=n(r);null==i?t.removeAttribute(e):t.setAttribute(e,i)}}(e,r,f,a):null}function nt(t,e,r,i){if(!i||"object"!==n(i))return null;var o=null,u=null;return Array.isArray(i)?u=function(t){if(!t||!t.length)return null;for(var e=0;e<t.length;e++)t[e].e&&(t[e].e=J(t[e].e));return t.sort(tt)}(i):(u=i.keys,o=i.data||null),u?et(t,e,r,u,o):null}function rt(t,e,n){if(!n)return null;var r=[];for(var i in n)if(n.hasOwnProperty(i)){var o=nt(t,e,i,n[i]);o&&r.push(o)}return r.length?r:null}function it(t,e){if(!e.settings.duration||e.settings.duration<0)return null;var n,r,i,o,u,a=function(t,e){if(!e)return null;var n=[];if(Array.isArray(e))for(var r=e.length,i=0;i<r;i++){var o=e[i];if(2===o.length){var u=null;if("string"==typeof o[0])u=t.getElementById(o[0]);else if(Array.isArray(o[0])){u=[];for(var a=0;a<o[0].length;a++)if("string"==typeof o[0][a]){var s=t.getElementById(o[0][a]);s&&u.push(s)}u=u.length?1===u.length?u[0]:new W(u):null}if(u){var l=rt(t,u,o[1]);l&&(n=n.concat(l))}}}else for(var f in e)if(e.hasOwnProperty(f)){var c=t.getElementById(f);if(c){var h=rt(t,c,e[f]);h&&(n=n.concat(h))}}return n.length?n:null}(t,e.elements);return a?(n=a,r=e.settings,i=r.duration,o=n.length,u=null,function(t,e){var a=r.iterations||1/0,s=(r.alternate&&a%2==0)^r.direction>0?i:0,l=t%i,f=1+(t-l)/i;e*=r.direction,r.alternate&&f%2==0&&(e=-e);var c=!1;if(f>a)l=s,c=!0,-1===r.fill&&(l=r.direction>0?0:i);else if(e<0&&(l=i-l),l===u)return!1;u=l;for(var h=0;h<o;h++)n[h](l);return c}):null}function ot(t,e){if($=e,!t||!t.root||!Array.isArray(t.animations))return null;var n=function(t){for(var e=document.getElementsByTagName("svg"),n=0;n<e.length;n++)if(e[n].id===t.root&&!e[n].svgatorAnimation)return e[n].svgatorAnimation=!0,e[n];return null}(t);if(!n)return null;var r=t.animations.map((function(t){return it(n,t)})).filter((function(t){return!!t}));return r.length?{svg:n,animations:r,animationSettings:t.animationSettings,options:t.options||void 0}:null}function ut(t){return+("0x"+(t.replace(/[^0-9a-fA-F]+/g,"")||27))}function at(t,e,n){return!t||!n||e>t.length?t:t.substring(0,e)+at(t.substring(e+1),n,n)}function st(t){var e=arguments.length>1&&void 0!==arguments[1]?arguments[1]:27;return!t||t%e?t%e:st(t/e,e)}function lt(t,e,n){if(t&&t.length){var r=ut(n),i=ut(e),o=st(r)+5,u=at(t,st(r,5),o);return u=u.replace(/\x7c$/g,"==").replace(/\x2f$/g,"="),u=function(t,e,n){var r=+("0x"+t.substring(0,4));t=t.substring(4);for(var i=e%r+n%27,o=[],u=0;u<t.length;u+=2)if("|"!==t[u]){var a=+("0x"+t[u]+t[u+1])-i;o.push(a)}else{var s=+("0x"+t.substring(u+1,u+1+4))-i;u+=3,o.push(s)}return String.fromCharCode.apply(String,o)}(u=(u=atob(u)).replace(/[\x41-\x5A]/g,""),i,r),u=JSON.parse(u)}}var ft=[{key:"alternate",def:!1},{key:"fill",def:1},{key:"iterations",def:0},{key:"direction",def:1},{key:"speed",def:1},{key:"fps",def:100}],ct=function(){function t(e,n){var i=this,o=arguments.length>2&&void 0!==arguments[2]?arguments[2]:null;r(this,t),this._id=0,this._running=!1,this._rollingBack=!1,this._animations=e,this._settings=n,(!o||o<"2022-05-02")&&delete this._settings.speed,ft.forEach((function(t){i._settings[t.key]=i._settings[t.key]||t.def})),this.duration=n.duration,this.offset=n.offset||0,this.rollbackStartOffset=0}return o(t,[{key:"alternate",get:function(){return this._settings.alternate}},{key:"fill",get:function(){return this._settings.fill}},{key:"iterations",get:function(){return this._settings.iterations}},{key:"direction",get:function(){return this._settings.direction}},{key:"speed",get:function(){return this._settings.speed}},{key:"fps",get:function(){return this._settings.fps}},{key:"maxFiniteDuration",get:function(){return this.iterations>0?this.iterations*this.duration:this.duration}},{key:"_apply",value:function(t){for(var e=arguments.length>1&&void 0!==arguments[1]?arguments[1]:{},n=this._animations,r=n.length,i=0,o=0;o<r;o++)e[o]?i++:(e[o]=n[o](t,1),e[o]&&i++);return i}},{key:"_rollback",value:function(t){var e=this,n=1/0,r=null;this.rollbackStartOffset=t,this._rollingBack=!0,this._running=!0;this._id=window.requestAnimationFrame((function i(o){if(e._rollingBack){null==r&&(r=o);var u=Math.round(t-(o-r)*e.speed);if(u>e.duration&&n!==1/0){var a=!!e.alternate&&u/e.duration%2>1,s=u%e.duration;u=(s+=a?e.duration:0)||e.duration}var l=(e.fps?1e3/e.fps:0)*e.speed,f=Math.max(0,u);f<=n-l&&(e.offset=f,n=f,e._apply(f));var c=e.iterations>0&&-1===e.fill&&u>=e.maxFiniteDuration;(u<=0||e.offset<u||c)&&e.stop(),e._id=window.requestAnimationFrame(i)}}))}},{key:"_start",value:function(){var t=this,e=arguments.length>0&&void 0!==arguments[0]?arguments[0]:0,n=-1/0,r=null,i={};this._running=!0;var o=function o(u){null==r&&(r=u);var a=Math.round((u-r)*t.speed+e),s=(t.fps?1e3/t.fps:0)*t.speed;if(a>=n+s&&!t._rollingBack&&(t.offset=a,n=a,t._apply(a,i)===t._animations.length))return void t.pause(!0);t._id=window.requestAnimationFrame(o)};this._id=window.requestAnimationFrame(o)}},{key:"_pause",value:function(){this._id&&window.cancelAnimationFrame(this._id),this._running=!1}},{key:"play",value:function(){if(!this._running)return this._rollingBack?this._rollback(this.offset):this._start(this.offset)}},{key:"stop",value:function(){this._pause(),this.offset=0,this.rollbackStartOffset=0,this._rollingBack=!1,this._apply(0)}},{key:"reachedToEnd",value:function(){return this.iterations>0&&this.offset>=this.iterations*this.duration}},{key:"restart",value:function(){var t=arguments.length>0&&void 0!==arguments[0]&&arguments[0];this.stop(t),this.play(t)}},{key:"pause",value:function(){this._pause()}},{key:"reverse",value:function(){this.direction=-this.direction}}],[{key:"build",value:function(t,e){delete t.animationSettings,t.options=lt(t.options,t.root,"91c80d77"),t.animations.map((function(e){e.settings=lt(e.s,t.root,"91c80d77"),delete e.s,t.animationSettings||(t.animationSettings=e.settings)}));var n=t.version;if(!(t=ot(t,e)))return null;var r=t.options||{},i=new this(t.animations,t.animationSettings,n);return{el:t.svg,options:r,player:i}}},{key:"push",value:function(t){return this.build(t)}},{key:"init",value:function(){var t=this,e=window.__SVGATOR_PLAYER__&&window.__SVGATOR_PLAYER__["91c80d77"];Array.isArray(e)&&e.splice(0).forEach((function(e){return t.build(e)}))}}]),t}();!function(){for(var t=0,e=["ms","moz","webkit","o"],n=0;n<e.length&&!window.requestAnimationFrame;++n)window.requestAnimationFrame=window[e[n]+"RequestAnimationFrame"],window.cancelAnimationFrame=window[e[n]+"CancelAnimationFrame"]||window[e[n]+"CancelRequestAnimationFrame"];window.requestAnimationFrame||(window.requestAnimationFrame=function(e){var n=Date.now(),r=Math.max(0,16-(n-t)),i=window.setTimeout((function(){e(n+r)}),r);return t=n+r,i},window.cancelAnimationFrame=window.clearTimeout)}();var ht=function(t,e){var n=!1,r=null;return function(i){n&&clearTimeout(n),n=setTimeout((function(){return function(){for(var i=0,o=window.innerHeight,u=0,a=window.innerWidth,s=t.parentNode;s instanceof Element;){var l=window.getComputedStyle(s);if("visible"!==l.overflowY||"visible"!==l.overflowX){var f=s.getBoundingClientRect();"visible"!==l.overflowY&&(i=Math.max(i,f.top),o=Math.min(o,f.bottom)),"visible"!==l.overflowX&&(u=Math.max(u,f.left),a=Math.min(a,f.right))}if(s===s.parentNode)break;s=s.parentNode}n=!1;var c=t.getBoundingClientRect(),h=Math.min(c.height,Math.max(0,i-c.top)),v=Math.min(c.height,Math.max(0,c.bottom-o)),y=Math.min(c.width,Math.max(0,u-c.left)),d=Math.min(c.width,Math.max(0,c.right-a)),g=(c.height-h-v)/c.height,p=(c.width-y-d)/c.width,m=Math.round(g*p*100);null!==r&&r===m||(r=m,e(m))}()}),100)}},vt=function(){function t(e,n,i){r(this,t),n=Math.max(1,n||1),n=Math.min(n,100),this.el=e,this._handlers=[],this.onThresholdChange=i&&i.call?i:function(){},this.thresholdPercent=n||1,this.currentVisibility=null,this.visibilityCalculator=ht(e,this.onVisibilityUpdate.bind(this)),this.bindScrollWatchers(),this.visibilityCalculator()}return o(t,[{key:"bindScrollWatchers",value:function(){for(var t=this.el.parentNode;t&&(this._handlers.push({element:t,event:"scroll",handler:this.visibilityCalculator}),t.addEventListener("scroll",this.visibilityCalculator),t!==t.parentNode&&t!==document);)t=t.parentNode}},{key:"onVisibilityUpdate",value:function(t){var e=this.currentVisibility>=this.thresholdPercent,n=t>=this.thresholdPercent;if(null===this.currentVisibility||e!==n)return this.currentVisibility=t,void this.onThresholdChange(n);this.currentVisibility=t}},{key:"destruct",value:function(){this._handlers.forEach((function(t){t.element.removeEventListener(t.event,t.handler)}))}}]),t}();function yt(t){return g(t)+""}function dt(t){var e=arguments.length>1&&void 0!==arguments[1]?arguments[1]:" ";return t&&t.length?t.map(yt).join(e):""}function gt(t){return yt(t.x)+","+yt(t.y)}function pt(t){if(!t)return"transparent";if(null==t.a||t.a>=1){var e=function(t){return 1===(t=parseInt(t).toString(16)).length?"0"+t:t},n=function(t){return t.charAt(0)===t.charAt(1)},r=e(t.r),i=e(t.g),o=e(t.b);return n(r)&&n(i)&&n(o)&&(r=r.charAt(0),i=i.charAt(0),o=o.charAt(0)),"#"+r+i+o}return"rgba("+t.r+","+t.g+","+t.b+","+t.a+")"}function mt(t){return t?"url(#"+t+")":"none"}var bt={f:null,i:q,u:function(t,e){return function(n){var r=e(n);t.setAttribute("rx",yt(r.x)),t.setAttribute("ry",yt(r.y))}}},kt={f:null,i:function(t,e,n){return 0===t?e:1===t?n:{width:C(t,e.width,n.width),height:C(t,e.height,n.height)}},u:function(t,e){return function(n){var r=e(n);t.setAttribute("width",yt(r.width)),t.setAttribute("height",yt(r.height))}}};Object.freeze({M:2,L:2,Z:0,H:1,V:1,C:6,Q:4,T:2,S:4,A:7});var wt={},xt=null;function At(t){var e=function(){if(xt)return xt;if("object"!==("undefined"==typeof document?"undefined":n(document))||!document.createElementNS)return{};var t=document.createElementNS("http://www.w3.org/2000/svg","svg");return t&&t.style?(t.style.position="absolute",t.style.opacity="0.01",t.style.zIndex="-9999",t.style.left="-9999px",t.style.width="1px",t.style.height="1px",xt={svg:t}):{}}().svg;if(!e)return function(t){return null};var r=document.createElementNS(e.namespaceURI,"path");r.setAttributeNS(null,"d",t),r.setAttributeNS(null,"fill","none"),r.setAttributeNS(null,"stroke","none"),e.appendChild(r);var i=r.getTotalLength();return function(t){var e=r.getPointAtLength(i*t);return{x:e.x,y:e.y}}}function _t(t){return wt[t]?wt[t]:wt[t]=At(t)}function Ot(t,e,n,r){if(!t||!r)return!1;var i=["M",t.x,t.y];if(e&&n&&(i.push("C"),i.push(e.x),i.push(e.y),i.push(n.x),i.push(n.y)),e?!n:n){var o=e||n;i.push("Q"),i.push(o.x),i.push(o.y)}return e||n||i.push("L"),i.push(r.x),i.push(r.y),i.join(" ")}function St(t,e,n,r){var i=arguments.length>4&&void 0!==arguments[4]?arguments[4]:1,o=Ot(t,e,n,r),u=_t(o);try{return u(i)}catch(t){return null}}function Et(t,e,n){return t+(e-t)*n}function Pt(t,e,n){var r=arguments.length>3&&void 0!==arguments[3]&&arguments[3],i={x:Et(t.x,e.x,n),y:Et(t.y,e.y,n)};return r&&(i.a=Mt(t,e)),i}function Mt(t,e){return Math.atan2(e.y-t.y,e.x-t.x)}function jt(t,e,n,r){var i=1-r;return i*i*t+2*i*r*e+r*r*n}function Bt(t,e,n,r){return 2*(1-r)*(e-t)+2*r*(n-e)}function Tt(t,e,n,r){var i=arguments.length>4&&void 0!==arguments[4]&&arguments[4],o=St(t,e,null,n,r);return o||(o={x:jt(t.x,e.x,n.x,r),y:jt(t.y,e.y,n.y,r)}),i&&(o.a=It(t,e,n,r)),o}function It(t,e,n,r){return Math.atan2(Bt(t.y,e.y,n.y,r),Bt(t.x,e.x,n.x,r))}function Rt(t,e,n,r,i){var o=i*i;return i*o*(r-t+3*(e-n))+3*o*(t+n-2*e)+3*i*(e-t)+t}function Nt(t,e,n,r,i){var o=1-i;return 3*(o*o*(e-t)+2*o*i*(n-e)+i*i*(r-n))}function Ft(t,e,n,r,i){var o=arguments.length>5&&void 0!==arguments[5]&&arguments[5],u=St(t,e,n,r,i);return u||(u={x:Rt(t.x,e.x,n.x,r.x,i),y:Rt(t.y,e.y,n.y,r.y,i)}),o&&(u.a=Ct(t,e,n,r,i)),u}function Ct(t,e,n,r,i){return Math.atan2(Nt(t.y,e.y,n.y,r.y,i),Nt(t.x,e.x,n.x,r.x,i))}function Lt(t,e,n){var r=arguments.length>3&&void 0!==arguments[3]&&arguments[3];if(qt(e)){if(Vt(n))return Tt(e,n.start,n,t,r)}else if(qt(n)){if(zt(e))return Tt(e,e.end,n,t,r)}else{if(zt(e))return Vt(n)?Ft(e,e.end,n.start,n,t,r):Tt(e,e.end,n,t,r);if(Vt(n))return Tt(e,n.start,n,t,r)}return Pt(e,n,t,r)}function Dt(t,e,n){var r=Lt(t,e,n,!0);return r.a=function(t){return arguments.length>1&&void 0!==arguments[1]&&arguments[1]?t+Math.PI:t}(r.a)/m,r}function qt(t){return!t.type||"corner"===t.type}function Vt(t){return null!=t.start&&!qt(t)}function zt(t){return null!=t.end&&!qt(t)}var Yt=new R;var Gt={f:function(t){return t?t.join(" "):""},i:function(t,e,r){if(0===t)return e;if(1===t)return r;var i=e.length;if(i!==r.length)return N(t,e,r);for(var o,u=new Array(i),a=0;a<i;a++){if((o=n(e[a]))!==n(r[a]))return N(t,e,r);if("number"===o)u[a]=F(t,e[a],r[a]);else{if(e[a]!==r[a])return N(t,e,r);u[a]=e[a]}}return u}},Ut={f:null,i:Y,u:function(t,e){return function(n){var r=e(n);t.setAttribute("x1",yt(r[0])),t.setAttribute("y1",yt(r[1])),t.setAttribute("x2",yt(r[2])),t.setAttribute("y2",yt(r[3]))}}},$t={f:yt,i:F},Wt={f:yt,i:L},Ht={f:function(t){var e=arguments.length>1&&void 0!==arguments[1]?arguments[1]:" ";return t&&t.length>0&&(t=t.map((function(t){return g(t,4)}))),dt(t,e)},i:function(t,e,n){var r,i,o,u=e.length,a=n.length;if(u!==a)if(0===u)e=G(u=a,0);else if(0===a)a=u,n=G(u,0);else{var s=(o=(r=u)*(i=a)/function(t,e){for(var n;e;)n=e,e=t%e,t=n;return t||1}(r,i))<0?-o:o;e=U(e,Math.floor(s/u)),n=U(n,Math.floor(s/a)),u=a=s}for(var l=[],f=0;f<u;f++)l.push(g(C(t,e[f],n[f])));return l}};function Qt(t,e,n){return t.map((function(t){return function(t,e,n){var r=t.v;if(!r||"g"!==r.t||r.s||!r.v||!r.r)return t;var i=n.getElementById(r.r),o=i&&i.querySelectorAll("stop")||[];return r.s=r.v.map((function(t,e){var n=o[e]&&o[e].getAttribute("offset");return{c:t,o:n=g(parseInt(n)/100)}})),delete r.v,t}(t,0,n)}))}var Xt={gt:"gradientTransform",c:{x:"cx",y:"cy"},rd:"r",f:{x:"x1",y:"y1"},to:{x:"x2",y:"y2"}};function Jt(t,e,r,i,o,u,a,s){return Qt(t,0,s),e=function(t,e,n){for(var r,i,o,u=t.length-1,a={},s=0;s<=u;s++)(r=t[s]).e&&(r.e=e(r.e)),r.v&&"g"===(i=r.v).t&&i.r&&(o=n.getElementById(i.r))&&(a[i.r]={e:o,s:o.querySelectorAll("stop")});return a}(t,i,s),function(i){var o=r(i,t,Kt);if(!o)return"none";if("c"===o.t)return pt(o.v);if("g"===o.t){if(!e[o.r])return mt(o.r);var u=e[o.r];return function(t,e){for(var n=t.s,r=n.length;r<e.length;r++){var i=n[n.length-1].cloneNode();i.id=ee(i.id),t.e.appendChild(i),n=t.s=t.e.querySelectorAll("stop")}for(var o=0,u=n.length,a=e.length-1;o<u;o++)n[o].setAttribute("stop-color",pt(e[Math.min(o,a)].c)),n[o].setAttribute("offset",e[Math.min(o,a)].o)}(u,o.s),Object.keys(Xt).forEach((function(t){if(void 0!==o[t])if("object"!==n(Xt[t])){var e,r="gt"===t?(e=o[t],Array.isArray(e)?"matrix("+e.join(" ")+")":""):o[t],i=Xt[t];u.e.setAttribute(i,r)}else Object.keys(Xt[t]).forEach((function(e){if(void 0!==o[t][e]){var n=o[t][e],r=Xt[t][e];u.e.setAttribute(r,n)}}))})),mt(o.r)}return"none"}}function Kt(t,n,r){if(0===t)return n;if(1===t)return r;if(n&&r){var i=n.t;if(i===r.t)switch(n.t){case"c":return{t:i,v:z(t,n.v,r.v)};case"g":if(n.r===r.r){var o={t:i,s:Zt(t,n.s,r.s),r:n.r};return n.gt&&r.gt&&(o.gt=Y(t,n.gt,r.gt)),n.c?(o.c=D(t,n.c,r.c),o.rd=C(t,n.rd,r.rd)):n.f&&(o.f=D(t,n.f,r.f),o.to=D(t,n.to,r.to)),o}}if("c"===n.t&&"g"===r.t||"c"===r.t&&"g"===n.t){var u="c"===n.t?n:r,a="g"===n.t?e({},n):e({},r),s=a.s.map((function(t){return{c:u.v,o:t.o}}));return a.s="c"===n.t?Zt(t,s,a.s):Zt(t,a.s,s),a}}return N(t,n,r)}function Zt(t,e,n){if(e.length===n.length)return e.map((function(e,r){return te(t,e,n[r])}));for(var r=Math.max(e.length,n.length),i=[],o=0;o<r;o++){var u=te(t,e[Math.min(o,e.length-1)],n[Math.min(o,n.length-1)]);i.push(u)}return i}function te(t,e,n){return{o:L(t,e.o,n.o||0),c:z(t,e.c,n.c||{})}}function ee(t){return t.replace(/-fill-([0-9]+)$/,(function(t,e){return"-fill-"+(+e+1)}))}var ne={blur:q,brightness:C,contrast:C,"drop-shadow":function(t,e,n){return 0===t?e:1===t?n:{blur:q(t,e.blur,n.blur),offset:D(t,e.offset,n.offset),color:z(t,e.color,n.color)}},grayscale:C,"hue-rotate":F,invert:C,opacity:C,saturate:C,sepia:C};function re(t,e,n){if(0===t)return e;if(1===t)return n;var r=e.length;if(r!==n.length)return N(t,e,n);for(var i,o=[],u=0;u<r;u++){if(e[u].type!==n[u].type)return e;if(!(i=ne[e[u].type]))return N(t,e,n);o.push({type:e.type,value:i(t,e[u].value,n[u].value)})}return o}var ie={blur:function(t){return t?function(e){t.setAttribute("stdDeviation",gt(e))}:null},brightness:function(t,e,n){return(t=ue(n,e))?function(e){e=yt(e),t.map((function(t){return t.setAttribute("slope",e)}))}:null},contrast:function(t,e,n){return(t=ue(n,e))?function(e){var n=yt((1-e)/2);e=yt(e),t.map((function(t){t.setAttribute("slope",e),t.setAttribute("intercept",n)}))}:null},"drop-shadow":function(t,e,n){var r=n.getElementById(e+"-blur");if(!r)return null;var i=n.getElementById(e+"-offset");if(!i)return null;var o=n.getElementById(e+"-flood");return o?function(t){r.setAttribute("stdDeviation",gt(t.blur)),i.setAttribute("dx",yt(t.offset.x)),i.setAttribute("dy",yt(t.offset.y)),o.setAttribute("flood-color",pt(t.color))}:null},grayscale:function(t){return t?function(e){t.setAttribute("values",dt(function(t){return[.2126+.7874*(t=1-t),.7152-.7152*t,.0722-.0722*t,0,0,.2126-.2126*t,.7152+.2848*t,.0722-.0722*t,0,0,.2126-.2126*t,.7152-.7152*t,.0722+.9278*t,0,0,0,0,0,1,0]}(e)))}:null},"hue-rotate":function(t){return t?function(e){return t.setAttribute("values",yt(e))}:null},invert:function(t,e,n){return(t=ue(n,e))?function(e){e=yt(e)+" "+yt(1-e),t.map((function(t){return t.setAttribute("tableValues",e)}))}:null},opacity:function(t,e,n){return(t=n.getElementById(e+"-A"))?function(e){return t.setAttribute("tableValues","0 "+yt(e))}:null},saturate:function(t){return t?function(e){return t.setAttribute("values",yt(e))}:null},sepia:function(t){return t?function(e){return t.setAttribute("values",dt(function(t){return[.393+.607*(t=1-t),.769-.769*t,.189-.189*t,0,0,.349-.349*t,.686+.314*t,.168-.168*t,0,0,.272-.272*t,.534-.534*t,.131+.869*t,0,0,0,0,0,1,0]}(e)))}:null}};var oe=["R","G","B"];function ue(t,e){var n=oe.map((function(n){return t.getElementById(e+"-"+n)||null}));return-1!==n.indexOf(null)?null:n}var ae={fill:Jt,"fill-opacity":Wt,stroke:Jt,"stroke-opacity":Wt,"stroke-width":$t,"stroke-dashoffset":{f:yt,i:F},"stroke-dasharray":Ht,opacity:Wt,transform:function(t,e,r,i){if(!(t=function(t,e){if(!t||"object"!==n(t))return null;var r=!1;for(var i in t)t.hasOwnProperty(i)&&(t[i]&&t[i].length?(t[i].forEach((function(t){t.e&&(t.e=e(t.e))})),r=!0):delete t[i]);return r?t:null}(t,i)))return null;var o=function(n,i,o){var u=arguments.length>3&&void 0!==arguments[3]?arguments[3]:null;return t[n]?r(i,t[n],o):e&&e[n]?e[n]:u};return e&&e.a&&t.o?function(e){var n=r(e,t.o,Dt);return Yt.recomposeSelf(n,o("r",e,F,0)+n.a,o("k",e,D),o("s",e,D),o("t",e,D)).toString()}:function(t){return Yt.recomposeSelf(o("o",t,Lt,null),o("r",t,F,0),o("k",t,D),o("s",t,D),o("t",t,D)).toString()}},"#filter":function(t,e,n,r,i,o,u,a){if(!e.items||!t||!t.length)return null;var s=function(t,e){var n=(t=t.map((function(t){return t&&ie[t[0]]?(e.getElementById(t[1]),ie[t[0]](e.getElementById(t[1]),t[1],e)):null}))).length;return function(e){for(var r=0;r<n;r++)t[r]&&t[r](e[r].value)}}(e.items,a);return s?(t=function(t,e){return t.map((function(t){return t.e=e(t.e),t}))}(t,r),function(e){s(n(e,t,re))}):null},"#line":Ut,points:{f:dt,i:Y},d:Gt,r:$t,"#size":kt,"#radius":bt,_:function(t,e){if(Array.isArray(t))for(var n=0;n<t.length;n++)this[t[n]]=e;else this[t]=e}},se={currentTime:"offset",duration:"duration",hasEnded:function(){return this.reachedToEnd()},isAlternate:"alternate",isPlaying:"_running",isRollingBack:"_rollingBack",state:function(t,e){return e.isPlaying?e.isRollingBack?"rollback":"playing":e.hasEnded?"ended":"paused"},totalTime:"maxFiniteDuration",iterations:"iterations",direction:"direction",fill:"fill",isReversed:function(t,e){return-1===e.direction},isBackwards:function(t,e){return-1===e.fill},isInfinite:function(t,e){return 0===e.iterations},speed:"speed",fps:"fps"},le={destruct:"destruct",pause:"pause",play:function(t,e){return fe(t,e.hasEnded?"restart":"play",e)},restart:"restart",reverse:function(t,e){return fe(t,"reverse",e,[!0])},seek:"seek",seekBy:"seekBy",seekTo:"seekTo",stop:"stop",toggle:"toggle",togglePlay:"toggle",set:"set"};function fe(t,e,n){var r=arguments.length>3&&void 0!==arguments[3]?arguments[3]:[];return function(){var i,o=Array.prototype.slice.call(arguments);return o.unshift.apply(o,v(r)),(i=t[e]).call.apply(i,[t].concat(v(o))),n}}var ce=function t(e){r(this,t);var n={},i=["on","off"],o={get:function(t,e,r){return se[e]?"function"==typeof se[e]?se[e].call(t,t,r):t[se[e]]:le[e]?"function"==typeof le[e]?le[e].call(t,t,r):fe(t,le[e],r):-1!==i.indexOf(e)?n[e]:"ready"===e?function(t){return t&&t.call(r,r),r}:void 0},set:function(t,e,r){return-1!==i.indexOf(e)&&(n[e]=r)},ownKeys:function(t){return Object.keys(se)},has:function(t,e){return void 0!==se[e]}};if("function"==typeof Proxy)return new Proxy(e,o);var u=Object.keys(se).concat(Object.keys(le)).concat(i),a={};return u.forEach((function(t){var n={enumerable:!1,configurable:!1,get:function(){return o.get(e,t,a)}};-1!==i.indexOf(t)&&(n.set=function(n){return o.set(e,t,n)}),Object.defineProperty(a,t,n)})),a};function he(t){t||(t=this);var e={};this.on=function(t,n){var r=arguments.length>2&&void 0!==arguments[2]&&arguments[2];return"function"==typeof n&&(t.split(/[, ]+/g).forEach((function(t){return e[t]=e[t]||[],r?e[t].unshift(n):e[t].push(n)})),!0)},this.off=function(t,n){for(var r in e)if(e.hasOwnProperty(r)&&r.substr(0,t.length)===t)if(n)for(var i=0;i<e[r].length;i++)e[r][i]===n&&(e[r][i]=null);else e[r]=null},this.trigger=function(){var n,r=Array.prototype.slice.call(arguments),i=r[0],o=r.slice(1);t:for(var u in e)if(e.hasOwnProperty(u)&&e[u]&&(u===i||u.substr(0,i.length+1)===i+"."))for(var a=0;a<(e[u]||[]).length;a++)if(e[u][a]&&!1===(n=e[u][a].apply(t,o)))break t;return n}}var ve=!0,ye=["iterations","speed","fps","direction","fill","alternate"],de=function(t){!function(t,e){if("function"!=typeof e&&null!==e)throw new TypeError("Super expression must either be null or a function");t.prototype=Object.create(e&&e.prototype,{constructor:{value:t,writable:!0,configurable:!0}}),e&&s(t,e)}(u,t);var e,n,i=(e=u,n=l(),function(){var t,r=a(e);if(n){var i=a(this).constructor;t=Reflect.construct(r,arguments,i)}else t=r.apply(this,arguments);return c(this,t)});function u(t,e){var n,o=arguments.length>2&&void 0!==arguments[2]?arguments[2]:null;return r(this,u),(n=i.call(this,t,e,o))._handlers=[],n}return o(u,[{key:"_adjustOffset",value:function(){var t=arguments.length>0&&void 0!==arguments[0]&&arguments[0],e=this.alternate?2*this.duration:this.duration;if(t){if(!this._rollingBack&&0===this.offset)return void(this.offset=e);this._rollingBack&&(this.offset,this.maxFiniteDuration)}!this._rollingBack||this.rollbackStartOffset<=this.duration?0!==this.iterations&&(this.offset=Math.min(this.offset,this.maxFiniteDuration)):(this.offset=this.rollbackStartOffset-(this.rollbackStartOffset-this.offset)%e,this.rollbackStartOffset=0)}},{key:"reverse",value:function(){var t=arguments.length>0&&void 0!==arguments[0]&&arguments[0];if(!this._running)return this._adjustOffset(t),this._rollingBack=!this._rollingBack,t&&this.play(!1),void this.trigger("reverse",this.offset);this.pause(!1,!1),this._adjustOffset(),this._rollingBack=!this._rollingBack,this.play(!1),this.trigger("reverse",this.offset)}},{key:"play",value:function(){var t=arguments.length>0&&void 0!==arguments[0]?arguments[0]:ve,e=h(a(u.prototype),"play",this).call(this);return t===ve&&this.trigger("play",this.offset),e}},{key:"pause",value:function(){var t=arguments.length>0&&void 0!==arguments[0]&&arguments[0],e=arguments.length>1&&void 0!==arguments[1]?arguments[1]:ve,n=h(a(u.prototype),"pause",this).call(this);return e===ve&&this.trigger(t?"end":"pause",this.offset),n}},{key:"restart",value:function(){var t=h(a(u.prototype),"restart",this).call(this,!1);return this.trigger("restart",this.offset),t}},{key:"stop",value:function(){var t=arguments.length>0&&void 0!==arguments[0]?arguments[0]:ve,e=h(a(u.prototype),"stop",this).call(this);return t===ve&&this.trigger("stop",this.offset),e}},{key:"_apply",value:function(t){var e=this,n=arguments.length>2&&void 0!==arguments[2]?arguments[2]:ve,r=h(a(u.prototype),"_apply",this).call(this,t);if(n===ve){var i=function(){return e.trigger("keyframe",t)};window.requestAnimationFrame(i)}return r}},{key:"seekTo",value:function(t){var e,n,r,i=this._running;i&&this.pause(!1,!1),this.offset=this.iterations>0?(e=t,n=0,r=this.maxFiniteDuration,e<n?n:e>r?r:e):Math.max(t,0),this._apply(this.offset),i&&this.play(!1)}},{key:"seek",value:function(t){return this.seekTo(Math.round(t/100*this.maxFiniteDuration))}},{key:"seekBy",value:function(t){return this.seekTo(this.offset+t)}},{key:"toggle",value:function(){return this._running?this.pause():this.reachedToEnd()?this.restart():this.play()}},{key:"set",value:function(t,e){if(ye.includes(t)){var n=this._running;n&&this.pause(!1,!1),this._settings[t]=e,n?this.play(!1):this._apply(this.offset,{},!1)}}},{key:"destruct",value:function(){var t=this;this.stop(),this._handlers.forEach((function(t){t.element?t.element.removeEventListener(t.event,t.handler):t.callback&&t.callback.call&&t.callback.call()}));var e=function(){},n=Object.getOwnPropertyNames(Object.getPrototypeOf(this));n.push.apply(n,v(Object.getOwnPropertyNames(this))),n.forEach((function(n){"function"==typeof t[n]?t[n]=e:delete t[n]}))}}],[{key:"build",value:function(t){var e=h(a(u),"build",this).call(this,t,ae);if(!e)return null;var n=e.el,r=e.options,i=e.player,o=new ce(i),s=new he(o);o.on=s.on,o.off=s.off,i.trigger=s.trigger;var l=n.svgatorPlayer&&n.svgatorPlayer.ready&&n.svgatorPlayer.ready.call&&n.svgatorPlayer.ready.call();n.svgatorPlayer=o,function(t,e,n){if("click"===n.start){var r=function(){switch(n.click){case"freeze":return!t._running&&t.reachedToEnd()?t.restart():t.toggle();case"restart":return t.offset>0?t.restart():t.play();case"reverse":return t._running?t.reverse():t.reachedToEnd()?1===t.fill?t.reverse(!0):t.restart():t.play();case"none":default:if(t._running)return;return t.reachedToEnd()?t.restart():t.play()}};return t._handlers.push({element:e,event:"click",handler:r}),void e.addEventListener("click",r)}if("hover"===n.start){var i=function(){return t.reachedToEnd()?t.restart():t._rollingBack?t.reverse():t.play()};t._handlers.push({element:e,event:"mouseenter",handler:i}),e.addEventListener("mouseenter",i);var o=function(){switch(n.hover){case"freeze":return t.pause();case"reset":return t.stop();case"reverse":if(t.reverse(),t._running)return;return t.play();case"none":default:return}};return t._handlers.push({element:e,event:"mouseleave",handler:o}),void e.addEventListener("mouseleave",o)}if("scroll"===n.start){var u=new vt(e,n.scroll||25,(function(e){e?t.reachedToEnd()?t.restart():t.play():t.pause()}));return void t._handlers.push({callback:function(){return u.destruct()}})}if("programmatic"===n.start)return;t.play()}(i,n,r),function(t,e,n){var r;"function"==typeof Event?r=new Event("ready"):(r=document.createEvent("Event")).initEvent("ready",!0,!0);if(t.dispatchEvent(r),!n||!n.length)return;n.forEach((function(t){return e.ready(t)}))}(n,n.svgatorPlayer,l)}}]),u}(ct);return de.init(),de}));
(function(s,i,o,w,a,b){(a=document.getElementById(i.root)).svgatorPlayer={ready:(function(a){b=[];return function(c){return c?(b.push(c),a.svgatorPlayer):b}})(a)};w[o]=w[o]||{};w[o][s]=w[o][s]||[];w[o][s].push(i);})('91c80d77',{"root":"eo8D9HsOzxY1","version":"2022-05-04","animations":[{"elements":{"eo8D9HsOzxY4":{"transform":{"data":{"t":{"x":-1167.869995,"y":-118.150006}},"keys":{"o":[{"t":0,"v":{"x":1167.869996,"y":118.150006,"type":"corner"},"e":[0.445,0.05,0.55,0.95]},{"t":1500,"v":{"x":1125.812665,"y":132.990671,"type":"corner"},"e":[0.445,0.05,0.55,0.95]},{"t":3000,"v":{"x":1167.869996,"y":118.150006,"type":"corner"}}],"r":[{"t":0,"v":-1.773533,"e":[0.445,0.05,0.55,0.95]},{"t":1500,"v":2.095625,"e":[0.445,0.05,0.55,0.95]},{"t":3000,"v":-1.773533}],"s":[{"t":0,"v":{"x":1,"y":1},"e":[0.445,0.05,0.55,0.95]},{"t":1500,"v":{"x":1.390658,"y":1.249857},"e":[0.445,0.05,0.55,0.95]},{"t":3000,"v":{"x":1,"y":1}}]}}},"eo8D9HsOzxY18":{"transform":{"data":{"t":{"x":-369.687927,"y":-420.02227}},"keys":{"o":[{"t":0,"v":{"x":369.687927,"y":420.02227,"type":"corner"},"e":[0.445,0.05,0.55,0.95]},{"t":1500,"v":{"x":366.138007,"y":486.14003,"type":"corner"},"e":[0.445,0.05,0.55,0.95]},{"t":3000,"v":{"x":369.687927,"y":420.02227,"type":"corner"}}],"r":[{"t":0,"v":0,"e":[0.445,0.05,0.55,0.95]},{"t":1500,"v":-6.664968,"e":[0.445,0.05,0.55,0.95]},{"t":3000,"v":0}]}}},"eo8D9HsOzxY154":{"transform":{"data":{"t":{"x":-723.570526,"y":-223.611038}},"keys":{"o":[{"t":0,"v":{"x":723.570527,"y":223.611039,"type":"corner"},"e":[0.445,0.05,0.55,0.95]},{"t":1500,"v":{"x":673.230131,"y":232.452978,"type":"corner"},"e":[0.445,0.05,0.55,0.95]},{"t":3000,"v":{"x":723.570527,"y":223.611039,"type":"corner"}}],"r":[{"t":0,"v":0,"e":[0.445,0.05,0.55,0.95]},{"t":1500,"v":-16.404807,"e":[0.445,0.05,0.55,0.95]},{"t":3000,"v":0}]}}}},"s":"MDMA1ZDlmNDY4OUDk5OTY4NTk4KOGQ5MzkyNDYE1ZTU4NTk1NDKU0NTA0Njg4OWGQ5Njg5ODc5LODhkOTM5MjQJ2TDVlNTVVNTIA0NjhkOThOOSDk5Njg1OTg4KZDkzOTI5NzQV2NWU1NTUwNDAY4YThkOTA5MJEQ0NjVlNTVKANTA0Njg1SjkVwOTg4OU05NjJkyODU5ODg5NUDY1ZThhODU5PMEU5Nzg5NTAV0Njk3OTQ4OTOg5ODg0NjVlNQTU1MDQ2OGE5INFI5NzQ2NWUS1NTU0NTRhMQD|"}],"options":"MDBAxMDgyMjk3YYTdiNjg3OTdiAMjk0MUEyOTcQzNzY2ODZiRzMI5Szg0"},'__SVGATOR_PLAYER__',window)
]]></script>
</svg>
