<svg xmlns="http://www.w3.org/2000/svg" shape-rendering="geometricPrecision" viewBox="0 0 1130 1100" xmlns:v="https://vecta.io/nano"><style><![CDATA[#A{animation:ej6si0NZczX95_to__to 3500ms linear 1 normal forwards}#B{animation:ej6si0NZczX95_tr__tr 3500ms linear 1 normal forwards}#C{animation:ej6si0NZczX97_to__to 3500ms linear 1 normal forwards}#D{animation:ej6si0NZczX97_tr__tr 3500ms linear 1 normal forwards}#E{animation:ej6si0NZczX99_to__to 3500ms linear 1 normal forwards}#F{animation:ej6si0NZczX99_tr__tr 3500ms linear 1 normal forwards}#G{animation:ej6si0NZczX107_c_o 3500ms linear 1 normal forwards}@keyframes ej6si0NZczX13_to__to{0%{transform:translate(410.675003px,1262.620026px)}14.285714%{transform:translate(410.675003px,1262.620026px);animation-timing-function:cubic-bezier(.445,.05,.55,.95)}62.857143%{transform:translate(392.676125px,1245.485377px);animation-timing-function:cubic-bezier(.445,.05,.55,.95)}to{transform:translate(405.675315px,1257.860401px)}} @keyframes ej6si0NZczX13_tr__tr{0%{transform:rotate(0deg)}14.285714%{transform:rotate(0deg);animation-timing-function:cubic-bezier(.445,.05,.55,.95)}62.857143%{transform:rotate(3.825465deg);animation-timing-function:cubic-bezier(.445,.05,.55,.95)}to{transform:rotate(1.062629deg)}} @keyframes ej6si0NZczX20_to__to{0%{transform:translate(671.505005px,1262.620026px)}14.285714%{transform:translate(671.505005px,1262.620026px);animation-timing-function:cubic-bezier(.445,.05,.55,.95)}62.857143%{transform:translate(683.277154px,1250.614999px);animation-timing-function:cubic-bezier(.445,.05,.55,.95)}to{transform:translate(674.775046px,1259.285296px)}} @keyframes ej6si0NZczX20_tr__tr{0%{transform:rotate(0deg)}14.285714%{transform:rotate(0deg);animation-timing-function:cubic-bezier(.445,.05,.55,.95)}62.857143%{transform:rotate(-3.83424deg);animation-timing-function:cubic-bezier(.445,.05,.55,.95)}to{transform:rotate(-1.065067deg)}} @keyframes ej6si0NZczX86_c_o{0%,85.714286%,to{opacity:1}28.571429%{opacity:1;animation-timing-function:cubic-bezier(.445,.05,.55,.95)}37.142857%{opacity:.6;animation-timing-function:cubic-bezier(.445,.05,.55,.95)}} @keyframes ej6si0NZczX87_c_o{0%,85.714286%,to{opacity:1}28.571429%{opacity:1;animation-timing-function:cubic-bezier(.445,.05,.55,.95)}51.428571%{opacity:.6;animation-timing-function:cubic-bezier(.445,.05,.55,.95)}} @keyframes ej6si0NZczX88_c_o{0%,85.714286%,to{opacity:1}28.571429%{opacity:1;animation-timing-function:cubic-bezier(.445,.05,.55,.95)}62.857143%{opacity:.6;animation-timing-function:cubic-bezier(.445,.05,.55,.95)}} @keyframes ej6si0NZczX89_c_o{0%,85.714286%,to{opacity:1}28.571429%{opacity:1;animation-timing-function:cubic-bezier(.445,.05,.55,.95)}77.142857%{opacity:.6;animation-timing-function:cubic-bezier(.445,.05,.55,.95)}} @keyframes ej6si0NZczX95_to__to{0%,to{transform:translate(541.047246px,453.31839px)}14.285714%{transform:translate(541.047246px,453.31839px);animation-timing-function:cubic-bezier(.445,.05,.55,.95)}57.142857%{transform:translate(541.047246px,426.31839px);animation-timing-function:cubic-bezier(.445,.05,.55,.95)}} @keyframes ej6si0NZczX95_tr__tr{0%,to{transform:rotate(0deg)}14.285714%,57.142857%{transform:rotate(0deg);animation-timing-function:cubic-bezier(.445,.05,.55,.95)}} @keyframes ej6si0NZczX97_to__to{0%,to{transform:translate(238.767975px,506.615555px)}14.285714%{transform:translate(238.767975px,506.615555px);animation-timing-function:cubic-bezier(.445,.05,.55,.95)}57.142857%{transform:translate(205.421651px,428.45416px);animation-timing-function:cubic-bezier(.445,.05,.55,.95)}} @keyframes ej6si0NZczX97_tr__tr{0%,to{transform:rotate(0deg)}14.285714%{transform:rotate(0deg);animation-timing-function:cubic-bezier(.445,.05,.55,.95)}57.142857%{transform:rotate(24.075918deg);animation-timing-function:cubic-bezier(.445,.05,.55,.95)}} @keyframes ej6si0NZczX99_to__to{0%,to{transform:translate(840.196289px,506.615555px)}14.285714%{transform:translate(840.196289px,506.615555px);animation-timing-function:cubic-bezier(.445,.05,.55,.95)}57.142857%{transform:translate(839.412816px,407.477834px);animation-timing-function:cubic-bezier(.445,.05,.55,.95)}} @keyframes ej6si0NZczX99_tr__tr{0%,to{transform:rotate(0deg)}14.285714%{transform:rotate(0deg);animation-timing-function:cubic-bezier(.445,.05,.55,.95)}57.142857%{transform:rotate(-22.998226deg);animation-timing-function:cubic-bezier(.445,.05,.55,.95)}} @keyframes ej6si0NZczX107_c_o{0%,to{opacity:.3}14.285714%{opacity:.3;animation-timing-function:cubic-bezier(.445,.05,.55,.95)}57.142857%{opacity:.7;animation-timing-function:cubic-bezier(.445,.05,.55,.95)}}.B{opacity:.2}.C{fill:#a57c00}.D{fill:#fff}.E{opacity:.4}.F{fill:#f0aa14}]]></style><g transform="translate(38 2)"><g id="A" transform="translate(541 453)"><g id="B"><g transform="translate(-541 -453)"><path d="M381 839c3-2-39-7-39-10l-29-4v-2s-17 1-41-7a164 164 0 0 1-17-7 2568 2568 0 0 0-101-45 55 55 0 0 1-33-59 253 253 0 0 0 147-38l20-6 91 1c-2 14-6 28-11 41l-10 27 14-25c10-18 17-40 19-46v-1h1v-1c17-58-1-103-11-120-29-96 30-88 30-137 0-23-3-45-7-66a149 149 0 0 0 62-23 39 39 0 0 0 6-7l6-11a42 42 0 0 0-10-16h11l-5-13 6-8h123l5 8-5 13h11a41 41 0 0 0-10 16l6 11 6 7 6 4c-10 50-48 76-121 108-74 33-101 93-102 94 41-55 69-70 155-107 66-29 75-72 76-91 12 6 27 10 42 13-4 21 13 21 31 33 43 27 66 49-4 176-10 20-25 62-9 116l1 1v2l1 1c2 8 9 28 18 44l14 25-10-27c-5-13-8-27-11-42h91l21 7a253 253 0 0 0 145 32c6 26-7 53-32 64a14778 14778 0 0 0-71 32h-2c-23-1-46-7-68-14-76-25-134-49-215-23a339 339 0 0 0 1 2c111-33 174 27 267 42l-7 4-6 2a115 115 0 0 1-16 7h-1l-12 4c-18 4-29 3-29 3v2l-1 4c-1 3-33 9-39 10m28-215-6-7 6 7Z" class="C"/><g id="C" transform="translate(239 507)"><g id="D"><g transform="translate(-239 -507)"><path fill="#a47c01" d="m189 687 35-11 45-18 43-26c14-9 23-14 23-30s47-65 47-65 36-65 34-92c10-53 24-49 47-89-7-12-10-23-11-31l-2-5c-27 12-67 17-93 23-27 5-43 28-49 71a112 112 0 0 0 2 10 210 210 0 0 0-4 39l-6 27c-4 15-16 39-16 68 0 0-29 8-43 32s-56 40-96 48l-25-11s-23 2-32-1-7-6-16-7-5 8-5 8-10 0-16 27c0 0-4 0-12-10s-2-20-16-18c0 0-13 1-7 11s19 16 25 27 22 10 35 23 27 0 50 2c-1 2 40-2 40 1m-93-28c-7 0-7-7-6-15s6-15 6-15c5 6 24 10 27 12s7 14-2 15-18 4-25 3Z"/></g></g></g><g id="E" transform="translate(840 507)"><g id="F"><g transform="translate(-840 -507)"><path fill="#a47c01" d="m893 687-36-11-44-18-43-26c-14-9-23-14-23-30s-42-73-42-73-39-6-54-22c-58-79 20 10 37-62 7-11 14-42 15-50 1-2-44-61-43-63 29 2 39 5 65 11 27 5 43 28 49 71a112 112 0 0 1-2 10 210 210 0 0 1 4 39l6 27c3 15 16 39 16 68 0 0 29 8 43 32s56 40 96 48l24-11s24 2 32-1 8-6 17-7 5 8 5 8 10 0 15 27c0 0 5 0 12-10s3-20 17-18c0 0 13 1 6 11s-18 16-24 27-22 10-35 23-27 0-50 2c1 2-41-2-40 1m93-28c7 0 7-7 6-15s-6-15-6-15c-6 6-24 10-27 12s-7 14 2 15 18 4 25 3Z"/></g></g></g><g class="C"><ellipse rx="69.7" ry="39.8" cx="540" cy="55"/><path d="M590 77c-33-4-49-20-49-20s-15 16-48 20-72 32-68 75 19 53 20 68v6s6 98 94 133v1h3c89-35 95-134 95-134v-6c1-15 15-25 20-68s-34-70-67-75Z"/><path d="M529 368v-3c-35-16-62-45-78-83-7-16-12-33-14-51l-1-3v-8c0-4-2-8-5-14-5-11-12-26-15-53-4-45 35-78 75-84 29-4 43-18 43-18l7-7 7 7s14 14 43 18c40 6 80 39 75 84-3 27-10 42-15 53l-5 14v6c0 2-2 27-15 57-17 40-46 69-85 84l-2 1Z"/></g><path d="M590 77c-33-4-49-20-49-20s-15 16-48 20-72 32-68 75 19 53 20 68v6s6 98 94 133v1h3c89-35 95-134 95-134v-6c1-15 15-25 20-68s-34-70-67-75Z" class="D"/><g id="G" opacity=".3" transform="matrix(.92 0 0 .82 44 28)"><path d="M582 228c1-7 10-11 10-17s-34-15-34-15l-15 9s0 7 12 12 10 13 12 18c0 4 2 7 5 11l14-6c-3-3-5-7-4-12Z" class="F"/><g class="B C"><path d="m550 208 7 6c5 2 10 5 12 9s-1 10 6 20l6-2c2-1-5-6-4-13s7-8 8-12c-5 0-19-2-28-11l-7 3Z"/></g><path d="M584 229c0-3 2-6 5-8 2-3 5-6 5-10-1-3-3-6-18-12l-17-5h-1l-17 10v1s0 8 13 14c9 4 10 9 10 13l1 3 5 12 1 1 18-7-2-2c-3-3-4-7-3-11Zm-12 15a27 27 0 0 1-4-12c-1-5-1-11-12-16-9-4-11-9-11-10l14-8 15 4c15 6 16 8 16 9 0 3-2 5-4 8s-5 5-6 9c0 4 1 8 3 11Z" class="C"/><path d="m602 178-36 12-11 11s2 11 25 15 41-18 36-31Z" class="F"/><g class="B C"><path d="m612 187-7-5s-6 11-21 13-18-3-18-3l-2 3c16 7 36 4 48-8Z"/></g><g class="B C"><path d="m614 189-9 7c-12 8-31 10-42 1l-3 5s2 6 23 5c14-1 32-6 31-18Z"/></g><g class="C"><path d="m617 184-15-8-37 12-12 12v1c1 1 2 11 23 16h4c12 2 24-2 32-12 6-6 8-14 6-20Zm-8 19c-7 9-18 13-29 11-18-3-22-10-23-13l10-10 35-11 12 6c2 5 0 12-5 17Z"/><path d="M583 209c-12 0-21-2-25-5l-2 2c2 2 6 3 11 4s10 2 16 1c11 0 31-6 33-12l-3-1c-1 4-17 10-30 11Z"/><path d="M616 181h-3v1c0 4-2 14-22 18-21 4-30-5-30-5l-2 2s4 4 12 6c5 1 12 1 21-1 22-4 23-15 24-20v-1Z"/></g><path d="m518 184 4 22c9 5 35 8 44-13l1-7-14-14Z" class="F"/><path d="m516 183 5 24 9 3c7 2 14 2 20 0 8-3 14-9 17-16l2-9-16-15Zm48 10c-3 6-8 11-15 13-8 3-17 2-25-1l-4-20 32-11 13 12Z" class="C"/><path d="M640 145c6-2 12-6 13-17s-5-24-21-30c-1-10-8-22-22-28s-28 0-32 4c-3-7-12-15-28-15s-26 11-28 15c-3-5-17-13-34-4s-15 22-15 22-20-4-31 12 0 30 0 30-16 4-19 19 1 39 31 41c-4 6-3 17 8 24 14 7 27-1 29-3 4 2 20 6 30-5 7-7 9-18 3-26 7 4 21 5 28-7 2 6 8 15 22 18s26-6 31-13c2 4 13 12 30 3s15-28 14-31c-2-4-5-7-9-9Z" class="F"/><g class="B D"><path d="M563 86c-2 1-5 4-6 7s3 0 4-2 6-6 2-5Z"/></g><g class="B D"><path d="M555 138c1 0 3 2 3 5s-1 6-3 7 1-3 0-6c0-4-3-6 0-6Z"/></g><g class="B D"><path d="m553 136-2-1-1-2h3v3Z"/></g><g class="B D"><path d="m524 113-3 1-2-2 3-1c2 0 2 1 2 2Z"/></g><g class="B D"><path d="M493 157c1-1 4 0 5 2l2 8c0 2-4-1-4-4s-4-4-3-6Z"/></g><g class="B D"><path d="m496 104 3 2 1 7c-1 1-3-1-3-4s-2-4-1-5Z"/></g><g class="B D"><path d="M503 173h-2a2 2 0 0 1 0-3l2 1a2 2 0 0 1 0 2Z"/></g><g class="B D"><path d="M579 173h3a1 1 0 0 1 0 2h-3v-2Z"/></g><g class="B D"><path d="M591 172s-1-3 1-4 2 2 1 4-1 3-3 3 0 0 1-3Z"/></g><g class="B D"><path d="M570 155c-2 0-5 2-2 2l4-1-2-1Z"/></g><g class="B D"><path d="m558 161 3-3c2-2 3-1 4-1l-2 2c-2 0-3 5-4 4l-1-2Z"/></g><g class="B D"><path d="m480 201-2-1s-2 1-1 2v1c3 1 6-2 3-2Z"/></g><g class="B D"><path d="M476 198c-2-1-2-4-4-4-2-1-3 0-3 2s2 4 4 5h1l2-1v-2Z"/></g><g class="B D"><path d="M440 157s0-3 1-2 2 1 1 4 1 4 1 5 0 3-2 1-2-4-1-8Z"/></g><g class="B D"><path d="M514 192c1 1 1 2-2 4s-7 2-8 0 2-2 3-3 5-3 7-1Z"/></g><g class="B D"><path d="m543 194 4-1c1 0 4 0 2 2s-6 2-8 1-1-2 2-2Z"/></g><g class="B D"><path d="M609 135c-4 2-7 6-7 9s5 3 5-1 3-5 3-6 1-3-1-2Z"/></g><g class="B D"><path d="m636 121 3-1c1 1 3 2 2 3h-4c-1 0-3-2-1-2Z"/></g><g class="B D"><path d="m587 90 1-4c1-1 3-1 4 2s2 8-1 9-4-7-4-7Z"/></g><g class="B D"><path d="m592 101-1 2c-1 0-2 0-2-2s1-2 2-2l1 2Z"/></g><g class="B D"><path d="m630 152-2 1-2 1 1-2h3Z"/></g><g class="B C"><path d="M572 210c5 2 10 3 16 2 8-1 14-3 16-6-3 1-22 7-32 4Z"/></g><g class="B C"><path d="M552 179s-8 11-27 7c0 0 4 11 1 18 5 3 26 8 38-11l-12-14Zm2 20c-7 5-15 6-20 3s-3-5-2-9 4-2 8-3l7-2c3-2 6-1 8 2s5 4-1 9Z"/></g><g class="B C"><path d="M495 212c2 2 22 7 28-11-5 9-25 12-28 1 1 5-2 8 0 10Z"/></g><g class="B C"><path d="M494 183v9c3-3 4-6 12-7-4 1-8 0-12-2Z"/></g><g class="B C"><path d="m467 187 3-9 3 5c2 2 4 3 6 7-3-1-8-4-12-3Z"/></g><g class="B C"><path d="M475 189c-4-1-8 1-10 4-4 6-1 16 8 18s15-1 22-9c-2 6-6 13-18 15s-28-11-19-24l9-6Z"/></g><g class="B C"><path d="M513 159c-1 6 3 12 6 16 4 4 9 8 15 8 11 1 16-10 16-10l2-11 3-8s-3 11-9 9-11-9-10-19c-2 3-3 11 3 20l-8-7 2 5c2 3 7 12 2 14-7 3-18-5-22-17Z"/></g><g class="B C"><path d="M427 160c0 9 1 20 13 26s23 6 27-3c3-3 2-9 2-9s-2 10-10 10-12-4-10-9c-2 2-3 4-2 7s-15 4-20-22Z"/></g><g class="B C"><path d="m450 156-2-4v6c2 3 5 3 3 6s-1 7-1 7 2-7 11-9c-4-2-8-3-11-6Z"/></g><g class="B C"><path d="M450 152s4 7 14 7l16 4 3-23s-1 7-8 6c-7-2-9-12-18-13 6 5 9 10 10 12 1 3 3 5 6 6 2 1 2 3 0 5s-9 5-23-4Z"/></g><g class="B C"><path d="M444 108c-5 6-5 17 1 25h10s-16-8-11-25Z"/></g><g class="B C"><path d="m463 120 1-1c4-2 6-5 7-9l3 11s-6-4-11-1Z"/></g><g class="B C"><path d="M472 120s0 4 3 7 5 8 13 8l5-4s-14-3-21-11Z"/></g><g class="B C"><path d="M485 152c-1 11 1 14 4 20s14 14 19 13c-8-5-22-16-23-33Z"/></g><g class="B C"><path d="m500 153-4-1 10-1c4 0 4-4 12-6-4 3-8 8-8 12l-10-4Z"/></g><g class="B C"><path d="m508 161 3 15c3 7 11 11 15 13l-2-5s-13-11-16-23Z"/></g><g class="B C"><path d="M555 166s-2 8 4 16 14 9 18 9 12 0 19-5c-7 3-13 3-12-2-3 4-11 5-15 1s-5-12 5-14h-4c-1 0-15 10-15-5Z"/></g><g class="B C"><path d="M618 180c-6-3-2-8 2-8l8-4c2 1 4 3 4 5 1-3 1-6-1-8v-1l3-7c-6 6-13 2-14-1 0 3-6 7-13 3s-9-11-8-17c-7 17 12 24 12 24l-3 1-1 13c8 8 16 7 20 5s14-4 18-16c-7 12-22 15-27 11Z"/></g><g class="B C"><path d="M626 145s-6-2-7-6c0 3 0 5 2 7 1 3-1 4-1 8 2-3 4-6 8-7l-2-2Z"/></g><g class="B C"><path d="M627 147s11 2 15 0l-2-2-13 1Z"/></g><g class="B C"><path d="M604 114s-8 11-20 12l10 18s2-12 12-16 18-10 14-20c-2 8-5 14-11 14s-7 6-10 5c-5-2 2-6 5-13Z"/></g><g class="B C"><path d="m622 114-2-6c1 1 3 3 5 3 3 1 9 1 12 5-5-2-10-1-14 1l-1-3Z"/></g><g class="B C"><path d="M624 117s-3 3 0 5 6 3 6 7c-4-4-9-5-14-5l8-7Z"/></g><g class="B C"><path d="M650 129c-2 5-3 9-10 13s-18 3-21-3c7 4 25 3 31-10Z"/></g><g class="B C"><path d="M605 93s-3-7-6-10c4 2 7 4 9 8s9 4 13 4l-16 5Z"/></g><g class="B C"><path d="M579 100s-6 7-10 7c5-1 7-2 19 4-6-4-10-9-9-11Z"/></g><g class="B C"><path d="M555 98c-2 6-3 14 4 20 4 0 23 6 23 6s14 1 18-15c-5 10-16 11-27 8-9-2-19-7-18-19Z"/></g><g class="B C"><path d="M548 85c-1-2-2-4-5-5l9 3c3 0 7-2 12 0-3 1-10 3-12 10l-4-8Z"/></g><g class="B C"><path d="m564 141-5-5c4 1 7 3 8 5s6-1 7-5l-3 11c-1 3 5 4 5 4s-7-1-14 1c2-5 2-11 2-11Z"/></g><g class="B C"><path d="M528 96s-3 9-8 12c5-2 8-5 18-2-4-2-8-5-10-10Z"/></g><g class="B C"><path d="M503 99s-4-7-12-8c8 2 13 0 19-4-4 3-7 12-7 12Z"/></g><g class="B C"><path d="M507 97s-7 27 11 31 28-9 29-22c-5 10-11 17-24 16s-17-8-16-25Z"/></g><g class="B C"><path d="M474 108s0 9 7 15 14 6 18 1 5-10 5-10-3 9-15 8-15-14-15-14Z"/></g><g class="B D"><path d="m528 107 6 1s-1 3-4 4-5-1-6-2 1-2 4-3Z"/></g><g opacity=".3" class="D"><path d="M588 133c-8-12-20-20-37-13s-22 17-21 27l2 2s0-11 7-18c5-6 14-8 23-9l7 3h7c6 4 10 10 12 16 3 10 2 16-1 20 4-3 9-16 1-28Z"/></g><g opacity=".3" class="D"><path d="M532 134s-11-10-25-7-25 12-26 30l2 2s-1-10 8-20c4-5 10-8 16-8l6 2c3 1 6 0 7-1 4 1 8 4 10 7l2-5Z"/></g><g class="E D"><path d="m483 170-3-6s-14-5-23-1c0 0-6 3-7 8 3-4 8-6 14-7a22 22 0 0 0 10 1l9 5Z"/></g><g class="E D"><path d="M452 135c-10-2-17 0-23 7s-7 24-7 24l2-1c0-7 2-13 6-18l8-7h4l4-2h5c7 1 13 3 16 7-3-5-5-9-15-10Z"/></g><g class="E D"><path d="m464 120-5 2c3-1 9-1 14 2l-1-3-8-2Z"/></g><g class="E D"><path d="M644 148h-5c3 2 6 4 7 9s0 14-3 19c4-4 8-15 6-20l-5-8Z"/></g><g class="E D"><path d="M625 126s4 1 5 3c-4-1-11-2-20 2s-15 13-14 19c-2-4 0-15 11-21s18-3 18-3Z"/></g><g class="E D"><path d="m631 115 6 1c-6 0-11 1-14 5l1-3c0-2 7-3 7-3Z"/></g><g class="E D"><path d="m604 92-5-9s8 15-1 34c3-2 10-10 6-25Z"/></g><g class="E D"><path d="M500 96s-4-4-9-5c3 2 17 13 12 30 3-3 7-13-3-25Z"/></g><g class="E D"><path d="M632 98c0-17-26-43-54-24-4-12-37-26-56 0-12-11-44-12-50 18-16-4-34 9-36 24l2 3c1-7 5-14 11-18 3-3 8-5 12-5l7 1h6c5 1 14 7 14 14 1-6-1-12-12-20 1-8 6-14 13-17l8-3 8 3c4 1 6 0 7-1l4 2c6 3 13 16 8 28 3-4 7-14 2-26a35 35 0 0 1 24-13c0 1 3 3 7 3h8l8 6c6 9 5 22 5 24 2-2 3-20 3-20 5-4 11-6 17-6 0 2 3 4 7 5h8c7 5 13 12 14 20-7 0-17 0-22 4l2 4c1 1 8-4 20-2l5 3 7 1c9 7 13 18 11 27 3-7 6-26-18-35Z"/></g><g class="B C"><path d="m584 167 4 5s0-8 7-7c6 1 9 9 6 14 3-2 4-6 5-12l-1-2s-11-5-11-12c-3 6-10 14-10 14Z"/></g><g class="B C"><path d="m507 121-4 5 9-1-5-4z"/></g><g class="B C"><path d="m532 134 3-5-9 1 6 4z"/></g><g class="B C"><path d="m551 111-5 11 10-4-5-7z"/></g><g class="C"><path d="M644 145c5-2 10-7 10-17 1-15-6-26-21-32 0-9-8-22-22-28-14-5-27-1-32 3-4-5-11-13-29-14-13 0-23 8-28 14-5-4-18-11-35-3-14 7-16 18-16 22-6-1-21-1-31 13-9 13-4 26-1 30-4 2-15 7-17 20-3 12 0 24 6 31 5 7 13 10 23 11-3 7-1 18 10 24l8 3c10 2 19-3 22-5l13 2c5 0 13-2 19-8s8-15 5-24c4 1 7 2 11 1 5-1 9-4 13-8 2 6 8 14 22 16 13 2 25-4 31-11 4 3 15 10 31 2 18-10 16-30 14-33-1-4-3-7-6-9Zm-10 39c-16 9-26-1-28-3l-2-1-1 2c-4 6-15 13-29 11-14-3-19-11-20-17l-2-3-2 3c-2 5-7 8-12 9-4 1-9 0-13-2l-7-5 5 7c5 8 3 18-3 24-10 10-25 6-28 4l-1-1-1 2c-2 1-14 9-27 2-11-6-11-16-8-22l1-2h-2c-11-1-18-4-23-10-6-7-8-17-6-29 3-14 17-17 17-17l3-1-2-2s-10-13 0-28 28-12 29-11h3l-1-2s-2-13 14-21c17-8 30 0 33 4l2 1 1-2s9-14 26-13c18 0 25 9 26 13l1 3 2-2c3-3 16-10 30-4s21 18 21 27v1h1c18 7 20 21 20 28-1 11-6 15-12 16l-5 2 5 1c4 2 7 5 8 9 1 3 3 20-13 29Z"/><path d="M469 174c0 5-1 9-4 12-4 5-10 6-11 6l-1 3c2 0 9-1 14-6 4-4 5-10 2-15Z"/><path d="M466 186v3c7-2 13 3 13 3-1-3-4-5-7-6h-6Zm29-57c-13 6-19 24-15 37 3 7 7 12 12 16 8 6 16 3 16 3-8 0-19-7-24-20-4-12 2-28 13-34s25-3 33 6l3-2c-9-11-25-13-38-6Z"/><path d="m494 180-2 2c3 3 1 10-1 12 4-1 6-5 6-9l-3-5Zm-35-20c-9 4-9 11-9 11 0-2 4-6 10-8 7-2 15-1 21 3l2-2c-7-5-16-7-24-4Z"/><path d="M448 152s-1 5 5 8l5 2 4 1v-3c-7 0-13-7-14-8Zm-7-19 1 3c1 0 17-4 25 9-1-5-5-10-10-12h-16Zm71 34c-3-9 2-19 6-22-5 2-9 6-10 11-1 4 0 8 1 12 3 7 8 13 14 17l2-2c-6-4-10-10-13-16Z"/><path d="M495 152c4 0 11 3 14 6l2-1c-7-8-16-5-16-5Zm90-27c-6-6-16-12-33-7s-22 15-23 23v12c2 9 10 11 10 11-3-2-8-13-7-23 1-6 5-15 21-20s24 1 29 6c9 9 11 23 7 30-5 13-19 14-19 14s8 3 15-3c3-2 6-5 8-9 3-8 1-24-8-34Z"/><path d="M554 156c-7 8-4 20-4 22l4-2c-1-1-3-12 3-19 3-4 10-6 19-6 0 0-10-4-18 1l-4 4Z"/><path d="M559 136c2 1 4 4 4 8 0 3-1 6-4 7l2 3c3-2 5-6 5-10-1-4-3-7-7-8Zm25 30-2 3c2 0 5 5 4 10 0 0 5-8-2-13Zm20 0c4 6 0 15-1 16l3 1c1-1 5-11 1-18Z"/><path d="M616 166c-8 0-16-5-19-11-5-11 3-22 11-26s18-4 22 0c0 0-1-6-9-6l-15 3c-9 5-18 18-12 30 3 7 9 12 17 13l5 1 8-1c7-3 8-10 8-10-4 5-9 8-16 7Z"/><path d="m629 166-4-1 1 3 4 2 2 4c0 1 1-5-3-8Zm-10-27s0 5 7 8c5 1 10 0 14-1l-1-3c-2 1-15 3-20-4Z"/><path d="M620 154c1-2 5-6 12-7v-3l-7 2c-4 2-5 8-5 8Zm-57-5 1 2 5-4c4-4 5-9 5-11 0 0-3 7-11 13Zm56-31 3 2c4-5 10-5 15-4 0 0-6-5-12-2l-6 4Z"/><path d="M620 108c2 13-8 16-8 16l1 4c4-2 7-5 9-9 3-6-2-11-2-11Zm-21-25c5 8 6 17 3 28-3 10-16 13-20 12v4c5 0 20-3 23-15 2-5 3-10 2-16 0-5-3-10-8-13Z"/><path d="m605 99 2 2c8-5 22-3 24-2l1-3c-3-1-18-3-27 3Zm-29-25c0 1 10 23-7 33 0 0 10-1 12-10 4-11-1-24-1-24Z"/><path d="m580 98-3 1c1 8 11 12 11 12-3-2-7-8-8-13Zm-28 4c0-6 4-17 12-19 0 0-6-2-11 5-3 4-4 9-5 13 0 7 3 16 9 19l2-3c-5-2-7-10-7-15Z"/><path d="M543 80c5 4 7 9 7 15h3l-1-6c-1-7-9-9-9-9Zm-52 11s12 5 14 17c2 13-4 17-10 21-2 1-8 0-13-3-4-2-11-8-9-20-3 5-3 10-1 15l8 8c2 1 5 3 8 3 3 1 6 1 9-1 7-3 14-9 11-24 0-3-1-6-3-8-4-5-8-7-14-8Z"/><path d="M510 87s-8 3-8 14h3c0-9 5-14 5-14Zm-51 35s8-4 15 1l1-3-5-2c-6-2-11 4-11 4Zm14-32-1 4c2 0 17 6 16 17 0 0 6-7-4-15-5-4-10-5-11-6Zm51-18-3 3c5 5 7 11 6 18-1 12-7 15-7 15 6-3 10-9 10-15 1-8-1-15-6-21Z"/><path d="M530 95h-3c1 9 11 11 11 11-2-1-8-7-8-11Zm19 12c0 5-2 10-6 14-6 5-15 7-23 5-7-2-11-5-12-7l-3 1c1 3 6 7 15 9v1c9 1 19-1 25-7 5-4 7-10 7-17Zm-54 95c0 5-2 8-5 11l2 3 3-3c4-6 0-11 0-11Z"/><path d="m604 66 7 2c14 6 22 19 22 28 15 6 22 17 21 32 0 10-5 15-10 17 3 2 5 5 6 9 2 3 4 23-14 33-7 3-13 4-17 4-1 5-3 10-7 14-5 7-13 11-21 12l-2 4c-3 2-5 5-5 8-1 3 0 7 3 10l2 2-18 7-1-1a30 30 0 0 1-6-15c0-4-1-9-10-13l-10-8a43 43 0 0 1-19-2l-2 2c-6 6-14 8-19 8a33 33 0 0 1-13-2c-3 2-12 7-22 5l-8-3c-11-6-13-17-10-24l-5-1c-8-1-14-5-18-10-6-7-9-19-6-31 2-13 12-18 17-20-3-4-8-17 1-30 10-14 25-14 31-13 0-4 2-15 16-22 8-4 16-4 22-3 5 1 9 3 13 6 5-6 15-14 28-14l9 1c11 3 17 9 19 13 5-3 15-7 26-5m1-2c-9-1-18 0-26 4-3-4-9-9-20-11l-9-1c-6-1-13 1-18 4l-10 8-12-5c-8-1-16 0-24 4-14 6-17 16-17 21-7 0-21 1-31 14-9 13-5 24-2 30-5 3-14 8-16 21-3 12 0 25 6 33a33 33 0 0 0 22 11c-1 3 0 7 1 11 2 5 6 10 11 13a29 29 0 0 0 32-2l4 1 8 1a28 28 0 0 0 22-10l4 1 13 1 10 8c8 4 9 7 9 11l1 3 5 13 1 1 2 1 1-1 17-7 2-1-1-2-2-1c-2-3-3-6-2-9 0-3 2-5 4-7l3-3c8-2 15-6 21-12 3-4 5-9 6-14 6 0 12-2 17-5 8-4 13-11 15-20 2-6 1-12 0-15l-5-8c6-3 9-9 9-17 1-15-6-27-21-33-1-9-8-22-24-29l-6-2Z"/></g></g></g></g></g><path d="M54 817h946.4v274.8H54z" class="D"/><path d="M360 981v4a716 716 0 0 1-3 50l-4 14a61 61 0 0 1-8 13 32 32 0 0 1-10 9l-7 3h-1c-5 2-10 3-16 3h-1a182 182 0 0 1-16 1h-16l-27-4c-8-3-15-8-20-16a61 61 0 0 1-10-29l-2-29-1-47v-13a948 948 0 0 1 3-60l4-17 6-12a35 35 0 0 1 20-15c9-2 22-4 39-4h5c17 1 29 3 38 7a38 38 0 0 1 21 23l1 5c2 8 3 18 3 29v13h-51v-4a71 71 0 0 0-2-18c-1-4-6-6-16-6l-10 1-5 5-1 6-1 10a529 529 0 0 0-1 37v12l3 67c2 4 7 6 17 6l10-1 5-4 2-4 1-4a98 98 0 0 0 1-19v-11h-25v-48h74v6l1 12v29zm158-145v165l-1 12v9l-1 3v2l-2 15a53 53 0 0 1-9 19 33 33 0 0 1-19 13 79 79 0 0 1-21 3l-4 1h-19a270 270 0 0 1-33-4l-3-1c-7-2-13-6-17-12l-5-9c-2-3-4-7-4-11a85 85 0 0 1-3-16l-1-24V836h56v169l1 9 1 6 1 1c1 2 3 3 5 3l8 1 8-1c2 0 4-1 5-3l2-7a63 63 0 0 0 1-6V836h54zm165 236v2h-58a62 62 0 0 1-4-16 473 473 0 0 1-7-52v-4l-1-7-1-2a44 44 0 0 0-2-8l-3-3-5-1h-8v93h-55V836h80c12 0 21 1 29 4s14 6 18 11a38 38 0 0 1 8 15l2 5 2 29a234 234 0 0 1-4 42l-2 4c-1 3-4 6-7 9l-9 5v2l4 4 4 6 1 3a76 76 0 0 1 5 14 295 295 0 0 1 8 56 353 353 0 0 0 5 27zm-89-135h15c5 0 9-2 11-6s3-11 3-22c0-10-1-16-4-19s-6-5-11-5h-14v52zm242-101v165a333 333 0 0 1-4 41 53 53 0 0 1-9 19 33 33 0 0 1-19 13 83 83 0 0 1-25 4h-19a262 262 0 0 1-32-3l-1-1-8-2a31 31 0 0 1-12-11l-5-9c-2-3-4-7-4-11-2-5-3-10-3-16v-1l-1-21V836h56v165l1 13c0 2 0 5 2 7 1 2 3 3 5 3l8 1 8-1c2 0 4-1 5-3l2-7 1-13V836h54z" class="F"/></g></svg>