<svg id="esAHKxE2rhp1" xmlns="http://www.w3.org/2000/svg" xmlns:xlink="http://www.w3.org/1999/xlink" viewBox="0 0 1300 1100" shape-rendering="geometricPrecision" text-rendering="geometricPrecision"><g transform="translate(-114-13)"><g id="esAHKxE2rhp3"><g><path d="M733.48,427.37c-10-5.32-13.79-16.16-17.47-26.34-1.46587-4.04919-2.7354-8.13584-3.84074-12.25352c1.25017,9.20156,2.51962,18.40479,4.25243,27.46872c3.78,19.83,7.83,39.62,11.42,59.49.92,5.07.5,10.37,1,15.6c3.0459-9.96853,4.2323-20.41227,3.5-30.81c14.04,2.55,25.67,8.3,33.35,20.49l-14.39,7c0,.06,0,.06,0,.06l-4.2,2.06l4.47-.74c15.71.74,27.32,7.66,34.65,21.74-1.02-3.75-1.62-7.64-3.15-11.19s-4-6.69-6.06-10c4.26-2.41,14.39-2.27,17.17.45c4.52692-4.45159,7.08948-8.26065,11.7046-12.62348c7.15505,7.48898,16.73479,11.48881,25.7379,16.67846-4.35902,4.4116-7.38328,9.67587-9.5522,11.50477c2.21065-1.81666,6.18091-7.44738,11.12467-11.48176c18.26359,8.60303,37.34501,16.13202,59.71664,19.39255c13.85902,4.90984,30.09359,6.10067,31.98839,6.31946c2.45581.28357,4.92908.38718,7.4.31-1.97,1.65-5.14,3.93-7.87,4.11-4.32.28-9.68,1.12-13.15,6.38s-13.72,4.69-22.72,3.15c0,0,8.84,6.44,18.31,4.17c3.39562-.89541,6.36658-2.95986,8.39-5.83c1.58-2.12,4.79-5.04,10.68-5.53.62-.05,1.21-.11,1.78-.19.74-.03,1.48-.07,2.19-.12c6.12-.41,11.14-3.03,16.24-5.81c8.96-4.85,17.94-9.65,28.48-10c1.16-.03,2.31.05,4.8.1l-7.65,4.17c10.7321-1.91967,21.79792-.19856,31.44,4.89c9.84,5.11,17.54,12.14,21.18,23-8.49-13.85-21.35-19.85-37.16-20.8c22.96,6.23,35.96,21.46,39.63,44.46c3.1,19.13-1.95,35.98-17,49.21c2.50667-5.60667,5.01333-11.21667,7.52-16.83l-1.12-.64c-9.47,12.58-22.21,20.38-37.21,25.19c14.91,19.21,20.81823,37.85184,27.05823,60.28184c2.85,10.24,2.73633,25.196,6.25633,35.196c2.24515,6.72624,5.62754,13.01748,10,18.6c5.95,7.21,13.33,13.23,20.16,19.71c4.31,4.13,6.87,8.45,7.43,15s3.57,13.13,6.5,19.21c9.66,20.02,19.74,39.84,29.74,59.68c3.14,6.23,8.66,12.06,9.42,18.51c1.39,11.76,8.53,18.5,16.46,25.31c3.85,3.32,7.41,6.71,5.41,12.32c17.09,6.67,25.52,17.14,18.62,24l1.19-.22c-8.8,9.14-37,10.27-37,10.27-2.68-1.44-6.13-2.3-7.89-4.51-1.92-2.41-2.46-6.03-3.29-9.2-1.1-4.22-1.88-8.51-2.88-12.92-5.58-.94-6.97-5.1-7.88-10s-2.09-9.74-3.21-14.67l12.32-9c-.47.17-7.92,3-9.21,3.57-2.75.87-5.32,1.48-6.75,1.24-2.96932-.75593-5.23373-3.16065-5.81-6.17-2-8.19-3-16.6-5-24.78-2.55-10.59-5.26-21.15-8.55-31.53s-11.21-17.51-19.08-24.51c-4.46-3.98-9.08-7.88-12.86-12.45-2.24-2.68-3.08-6.58-4.4-10-.57911-1.70519-1.06318-3.44119-1.45-5.2l15.76,4.9-2.51-1.62c-4.12-2.2-8.07-4.86-12.4-6.51-7.85-3-15.88-5.7-24-8-21.87-6.18-38.72-19.78-53.81-36-10.36-11.13-14.67456-24.86784-20.47456-39.07784-1.26-3.09-2.32-6.29-3.76-9.29-4.67-9.63-10.87-13.07-21.43-12.07l-5.19.52c13.88-6.72,25.29-8.78,41.76,2.62-4.26-13.92-18.19-19.31-32.09-12.87-10,4.67-18.26,11.75-27,18.28-16.39,12.26-32.24,25.6-49.91,35.73-26.92,15.4-56.61,20.57-88.85,16.4c2.84-1.8,4.79-3,6.69-4.26c2.11748-1.27843,4.14854-2.69483,6.08-4.24c7.19-6.33,15.37-11.91,21.19-19.33c9.15957-11.53908,13.73557-26.05409,12.85-40.76-.83-17.79-2-35.62,3-53.13-4.92,8.98-6.13,18.81-6.92,28.73-1.05,13.06-1.59,26.12-3.25,39.06-1.08,8.1-5.08,15.1-13.08,19.1.69-3.81,1.75-7.36,1.9-10.94.3-7.44-5.6-11.18-12.31-8-1.76.84-3.33,2.05-5.87,3.63.76282.01248,1.52538-.03769,2.28-.15c9.45-3.02,12.63,1.24,11.75,10.45-.59991,4.30096-2.56259,8.29641-5.6,11.4-13.69333,13.89333-27.69333,27.46333-42,40.71-10.35,9.58-18.56085,13.29178-31.43085,19.59178-7.34,3.57-10.13,6.98-12.5,12.57l10.62-8.59l1.53.63c1.33,10.16-.87,19.37-8.37,27-1.25599,1.19668-2.59245,2.30594-4,3.32-4.4341,3.34379-7.55803,8.13405-8.83,13.54-5,19.16-10.58,38.17-15.87,57.26-.96,3.48-1.67,7.05-2.49,10.81-5.85-5.35-5.93-13.5-5.85-15.35c0-.13,0-.25,0-.39-3.04,6.09-2.06,10.64.71,15c1.62,2.58,3.56,4.98,5,7.65c2.56,4.79,1.93,8.44-2.07,12.1-2.87,2.65-6.1,4.94-9,7.59-4.72,4.29-4.96,7.31-1.29,12.43c1.44,2,3.12,3.87,4.34,6c2.95,5.08,2.47,9.51-2.42,13.08-5.41,3.96-11.48,7-16.15,9.77h.42c1.46226.13393,2.93669-.00165,4.35-.4c3.35-.7,8.32-2.52,14.44-7.06c1.96,4.27,4.16,8.52,5.73,13c.83,2.36,1.32,5.68.32,7.68-7.1,13.94-28.89,24.18-44.31,21.24-1.11-.24-2.19-.66-3.36-1c1.17-5.58,2.63-10.91,3.34-16.32.58679-5.18809.814-10.41055.68-15.63-.16485-1.96645-.85565-3.85234-2-5.46-1.82-2.76-2.09-5.2-.27-8.08c3.11-4.93,6.24-9.85,8.92-15c2.46581-4.87574,2.85884-10.54045,1.09-15.71-3.65-11.91-.76-22.03,8.47-30.45c1.6038-1.48468,2.8662-3.2998,3.7-5.32c9.4-22.01,18.12-44.27,23.12-67.77.75-3.47.14-7.4-.51-11-2.19-12.31-.22-24.12,9.28-32c7.9483-6.77002,15.20701-14.3101,21.67-22.51c14.75-18.07,26.69085-31.05178,38.21085-51.44178c3.87313-7.07311,7.28685-14.38824,10.22-21.9l-14.53,16.53-1.12-.54c2.36-12.7,6.62-25.1,5.28-37.7-3.73,14.38-7.61,29.19-11.61,44.7-7.56-5.8-11.62-13.07-15.62-20.67-5.59-10.72-2.06-20.28,2.7-29.85.58-1.16,1.58-2.12,2.12-3.33-4.76,2.55-6.11,4.73-13.11,20.73-2.76-4.82-5.96-8.63-7.21-13-2.93-10.3-4.94-20.84-7.3-31.3-.37-1.68-.59-3.34-.88-5l-1.24.17l4.76,43.83c-3.37-2.32-6.96-4.58-10.31-7.16-4.02-3.11-7.67-6.7-11.81-9.64-2.14-1.52-4.97-2.08-7.05-2.91c6.7,6.1,13.41,12.5,20.48,18.5c2.75406,2.36026,5.94426,4.15751,9.39,5.29c3.5,1.09,5.42,3.14,7.42,6c7.21,10.4,14.53,20.74,22.21,30.74c2.25,2.94,3.2,5.31,1.13,8.4s-4.09,6.22-6.34,9.65c-16.16-11.29-30.72-23.84-49-30.39c2.43829-.20767,6.07544-2.48768,9.30545-3.79573-5.19975-3.38388-11.20558-3.71589-17.58545-1.81427-12.1,3.6-24.12,7.18-37,7.18-3.82-.01-7.61,1.89-12,3.07c2.29-7.53,8.02-12.38,11.94-18.46-6.08558,3.56267-10.00757,7.44792-14.19461,13.12204-5.07,6.72-7.22523,10.93418-12.50523,17.49419-5.17592,7.67693-4.96793,14.78564-5.25793,23.78564-.33,10.22-2.64308,25.86991-3.01308,38.96991-7.25.83-14.51,1.56-21.79,2.14-.86-14.92-1.88-29.82-2.78-44.74-.2-3.37-.37-6.73-.59-10.73l10.24,6.11-8.93-10.28c-.55-.7-2.87371-.19079-3.47371-.82079-7.18041-10.26066-4.38865-27.18035,5.34363-33.79783c20.50066-14.01099,31.53093-31.13315,32.83093-56.13315.19-4.1.26-8.19,1.19-12.1.6-2.57,2.42-4.85,3.8-7.23.2.04.4.1.59.1c1.08,6.41,4.62,25.46,10.28,37.41c0,.05,0,.05,0,.05c3.74,8.68,9.2,16.35,18,22.09c1.09.72,2.26,1.32,3.42,1.93.43.11861.87394.17915,1.32.18-2.0995-1.8993-4.08307-3.92294-5.94-6.06-5.33-6.75-13.03-19.92-17.84-43.36-2.16831-10.56723-1.4805-17.42467.22847-28.00005-4.8823-45.41324,3.80411-58.60441,26.22206-108.78732.72495.836,1.34487,1.53157,1.83947,2.07736.86.94,1.34,1.44,1.34,1.44l-.09.14c7.6,9.64,15.28,20.75,18.8,32.29.62,1.91.92,4,1.62,5.91c1.25,3.4.91,5.38-2.81,7.52-6.79,3.89-7.55,11.07-6.85,18.07.61,6.05,3.42,10.98,9.23,13.91c1.63461.88825,2.88431,2.34802,3.51,4.1c2.27,7.62,6.98,10.54,14.88,9.34c3.06745-.42439,6.18705-.27519,9.2.44c9.04,2.06,12.93-.22,15.36-9.75c7-.36,10.52-5.01,12.6-11.17c2.41471-7.21325,2.94484-14.92415,1.54-22.4-.57-3.4-2.33-5.93-6-6.09-2.85-8.58.34-15.03,6.51-20.71c11.6-10.67,18.78-23.8,19.94-39.67.48-6.57-.13-13.21-.26-19.82h-1.53c-.02,3.71.16,7.44-.08,11.14-.79,12.39-4.79,23.54-12.79,33.25-4.97,6.02-9.5,12.42-14.89,19.54-.58-8.54-1.13-16.44-1.67-24.34h-1.31c-.65,15.34-1.32,30.76-2,46.34c7.25-1.72,9.9.29,10.63,7.34.71,6.85.48,13.58-4.77,18.78-1.56,1.51-4.13,2-6.25,3l-1.43-1.47c1.10642-2.07498,2.10769-4.20434,3-6.38.34275-1.45466.50729-2.94561.49-4.44-1.64.52-4.39.63-4.64,1.52-1.11,3.77-2.57,8.05-1.9,11.77c1.27,6.91-6.11,12.82-12.32,9-1.89-1.17-5.13-1.04-7.47-.42-4.92,1.28-8.74.07-11.51-3.93-1-1.43-1.13-3.63-1.22-5.49-.21-3.9.09-7.8-.21-11.68-.1-1.35-1.33-2.6-2.33-4.42-5.29,4.82,2.4,8.74-1,13.44-1.65-1.14-4.17-2.02-5.26-3.78-3.77-5.96-4.71-12.47-1.77-19.14c1.92-4.34,3.92-5.11,9.09-3.59.00042-8.72901-2.07682-17.33277-6.06-25.1-3.69649-7.41134-7.78907-14.61843-12.26-21.59-4.2678-6.44795-6.24366-14.1436-5.61-21.85.58783-6.70531-.18426-13.46028-2.27-19.86-.86911-2.91638-1.10773-5.98431-.7-9c1.43,1.85,3.52,3.49,4.16,5.58c2.12,6.93,6.73,10.19,13.67,10.78h.11v.00001c.12984.01575.25363.06389.35999.14-.12666-.02725-.24819-.07451-.35998-.13999l7.29999,26.30998l1.26-.29c-1.18-6.45-2.37-12.96-3.53-19.45-.24-1.42-.73-2.93-.48-4.28c1.31-7.04-1.18-11.97-7.11-14.33-1.86.3-3.33,1.04-4.06.58-3.79-2.37-7.46-4.96-11-7.68-1.59-1.22-2.75-3.23-.42-4.62c1.05-.62,3.03.02,4.46.49.85.24,1.45,1.3,2.17,2c.24-.25.5-.5.74-.76-1.92-1.76-3.58-4.02-5.81-5.2-10.64-5.61-10.21-15.91-5.43-22.68c6.11-8.66,7.36-18.47,8.47-28.42.42063-3.84723.30621-7.73418-.34-11.55-.56,3.06-1.11,6.12-1.75,9.62-4.67-2.18-6.61-6-7.48-10-1.61-7.35-2.48-14.86-3.74-22.29-.81-4.86-1.53-9.77-2.69-14.56-1.33-5.53-4.22-10.06-9.93-12.35c4.65-1.24,8.59.83,10.9,5.65c1.99,4.2,3.82,8.47,5.9,12.63c3.04659,6.32229,9.05004,10.7048,16,11.68c6.25.96,10.26,3.44,11.74,9.74.18-5.71-2.46-10.35-7.28-12.35-5.56-2.34-5.1-5.94-4.18-10.34c2.77-13.16,9.99-23.55,20.1-32.94-.25,7.08-.47,13.44-.7,20.44c2-11.41,3.39-22.24,6-32.77c1.47-5.91,4.61-11.56,7.61-17c4.52-8.19,6.35-16.19.45-24.59c8.31,7.48,9.71,16.63,6.77,27.69c1.49-1.43,2.4-2.22,3.23-3.1c9.6-10.13,21.28-9.94,30.84.3c7.37,7.9,12.62,17.03,16.71,26.9c3.57,8.61,9.13,14.63,19.81,15.56-12.84,2.74-21.6-1.73-28-12.73-2.36476-3.77533-5.28411-7.17336-8.66-10.08-1.58-1.44-4.33-1.62-6.76-1.85c5.97,3.79,11.17,8.02,14.45,14.35c4.56,8.76,5.43,18.32,6.31,27.89.02383.72216-.20616,1.42984-.65,2-4.48,5.57-9.33,10.72-16.8,14.13-1.16-5.36-2.23-10.36-3.31-15.36l-.77-.07c-.11,3.95-.82,8.1-.11,11.95.66,3.64.66,6.39-2.34,8.84-.98592.99124-1.55487,2.32237-1.59,3.72.65-.56,1.31-1.06,2-1.56c3.25-2.39,6.22-5.42,9.83-7c8.17-3.6,13.3-10.1,18.17-17.1.7-.99,1.36-2.03,2.12-3.24-.56034,4.67947-1.36814,9.32598-2.42,13.92-1.53,5.88.56,16.53-26.73,31c.29-.05,3-.96,6-2.05v.05l.54-.26c2.21097-.74887,4.34425-1.71002,6.37-2.87-.72038,7.06341-.04075,14.19955,2,21c.67647,2.6618,1.60396,5.25341,2.77,7.74c3.57,7.47,3.92,15.05,2.92,22.95-.1.81-.23,1.61-.49,3.39c5.69-9.3,4.04-17.63.85-26.24-1.98311-5.23404-3.66913-10.57587-5.05-16-2.69-12.58,3.47-18.65,3.47-18.65c6.74-5.86,8.55-13.97,10.09-22.2.76-4,1.32-8.06,2.32-12c.08673-.29955.21462-.58561.38-.85.58688-.91567,1.62338-1.44198,2.70895-1.37556s2.05017.71518,2.52105,1.69556c.04704.10282.08388.20999.11.32c2.19,8.81-.8,16.76-5.09,24.15-3.88,6.65-8.48,12.88-13.38,20.23c2.28221-1.46548,4.4063-3.15833,6.34052-5.05083.47328-1.00623,1.15798-1.91761,2.02779-2.66437c1.8-1.66,3.32-3.62,5.84-6.42c3,6.84,6.71,12.93,8.24,19.54c5.25544,22.90449,14.91841,44.56721,28.45,63.78.63.91,1.07,1.94,1.87,3.41-3.87-2.59-7.12-4.93-10.55-7l-.3-.15c-.77927-.24256-1.62862-.06157-2.24131.4776s-.9002,1.35861-.75869,2.1624c.06667.38.14667.73.24,1.05c3.73,12.21,21.85,21.41,27.67,24.89-.3.5-21.94-2.81-32.7-9.21Zm40.42,58.68c-4.9-12.51-14.67-20-26.27-25.49-4.47-2.12-9.25-3.65-13.55-6.05-2.30885-1.26784-4.10742-3.29609-5.09-5.74-2.71-8.57-4.83-17.33-7.08-25.69c6.56,7,15.75,10.2,25.32,12.7c1.26732.42309,2.28181,1.38631,2.77,2.63c2.14,7.79,6.61,14.16,11.73,20.2c6.74,7.94,12.06,16.54,12.17,27.44ZM593.19,336.25c-7.26-7.8-15.06-15.31-16.2-26.79-.3-3.09.56-6.3.91-9.45.28-2.45.5-4.91.92-7.33.30006-1.11397.70869-2.19582,1.22-3.23c1.13.49,2.88.67,3.3,1.51c2.09,4.25,4.71,8.52,5.54,13.08c1.92,10.58,2.91,21.33,4.31,32.21ZM942.25,930.3c-2.85,5.77-4.05,6.71-9.68,3.9-6.31-3.16-12.1-7.36-18.18-11-1.66-1-3.48-1.41-5.29-2.46s-3.85-2.09-5-3.69c-7.09-9.83-8-20.87-6-32.48c3.28-19.06,6.46-38.13333,9.54-57.22.3289-2.80405.46588-5.62728.41-8.45c1.8,1.12,6.23,3.9,7.8,6.07-2.30227-4.98389-5.81157-9.31466-10.21-12.6l-.16-.11c-2.83877-2.4788-5.87931-4.71655-9.09-6.69-12.3-7.64-26.07-11.42-39.86-15.21-21.56-5.94-42.68-13.08-61.47-25.62-8.04-5.37-15.4-11.65-18.34-21.44-.78679-2.6326-1.15132-5.37327-1.08-8.12.22-7.57,1.26-8.78,8.56-10.5c23.53-5.56,45.42-14.54,64.14-30.26c7.57-6.35,14.89-13,22.77-19c6.24-4.72,13.46-7.79,21.59-6.86c11.17,1.29,17.69,8.47,20,21.56.35,1.91.54,3.91.81,5.91-14.95-8.72-30.68-4.14-40.84,7.66-5.2,6.03-4.98,14.34-4.76,22.17.41,14.01,8.91,23.46,17.91,32.79c7.48,7.79,16.55,13.24,25.82,18.49c1.57409.76475,2.99433,1.81212,4.19,3.09c3.18,3.95,7.12,5.35,12.18,5.35c6.23.07,7.18,5.88,8.5,10.21c2.17151,7.32596,2.01778,15.14505-.44,22.38-3.93,12.03-8.6,23.82-12.6,35.82-2.36,7.17-4.06,14.57-5.82,21.92-.81,3.42-.32,6.29,3.35,8.54c1.57.96,2.32,4.53,2.14,6.82-.33,4.4-1.6,8.74-1.6,13.46c1.59-3.13,3.39-6.18,4.72-9.42c1.08-2.68,2.58-3.81,5.36-3c.56666.14734,1.14082.26418,1.72.35c8.58,1.43,9.63,2.28,11.42,10.74c1.94,9.18,1.76,18.21-2.51,26.9Zm-5.14833-414.3248c-2.70925.44471-5.44551.7053-8.19.78-2.83-.01-5.64-.05-8.46-.15-5.73258-.36496-11.4273-1.21327-16.61708-2.23118c11.56387.21042,23.5943-.58185,35.95509-2.3557-.4163,1.96616-1.19059,3.20817-2.68801,3.95689v-.00001Zm-279.81-233.41c6.26-10.52,20.16-14.19,29.63-.54c1.63,2.34,3.06,4.83,4.58,7.25l1.21-.7c-2.78-4.79-5.08-9.97-8.45-14.31-6.61-8.51-16.56-9.16-24.12-1.66-9.56,9.45-11.46,21.96-13,34.5.50881-.61665.87734-1.33664,1.08-2.11c2.94-7.5,5-15.54,9.07-22.38v-.05Zm33.9,126.77001c.7-4.16,2.22-8.18,3.63-12.98l-14.78,12.12.43.6l9.62-7.25l1.38.88c-.42,1.6-.37,3.76-1.37,4.7-4.02,3.67-6.83,9.38-14.36,7.2-3.25-.94-6.32,4.21-5.7,8.29.61,3.7,1.34,7.35,2,11l.86.19l1.74-8.67c-.75-.37-.54-.6-.29-.7.54528-.20797,1.10304-.38164,1.67-.52c8.01-1.91,13.69-6.04,15.17-14.81v-.05Zm239.9,143.96c0,0,24.78,16.15,16.52,43.94c4.91027,9.16834,8.99311,18.75631,12.2,28.65c1.29333,5.38667,2.60667,10.86333,3.94,16.43.86044,5.20996.98834,10.51463.38,15.76c0,0,7.98-28.25-4.21-61.61c9.71,1.61,18.26-1.25,26.17-7.25s10.94-14.48,11-24l-11.41,10.95c-.39-.29-.77-.59-1.17-.88c5.79-10.49,8.15-20.78-1.21-30.49-4.46-4.6-11.82-6.32-17.35-4.08l3,3.31-27.64,7.45-10.22,1.82Zm-41.93,23.39c-9.79,19.79-2.02,46.92,18.37,56.67-3.46219-3.88379-6.59627-8.04807-9.37-12.45-8.18-13.22-10.09-28.81-9-44.17v-.05Zm-95.99-67.21001c7.13,8.27,17.21,5.8,26.19,7.43-2.05345-1.20899-4.2692-2.11819-6.58-2.7-4.04-1.08-8.24-1.61-12.14-3-7.13-2.52-10.11-8.23-10.67-15.52-2.32,5.44-.3,9.72,3.19,13.8l.01-.01ZM528.858736,748.975761c7.28-.58,14.543912-.9088,21.793912-1.7388-.42,14.81-2.076688,29.532949-2.076688,29.532949l5-4.68l5.36,18.41c0,0,.89-6.56,1.31-9.56c10.76-2.95,12.69-3.39,18.14,7.11c4.77,9.13,6.32,18.98,3.32,29.13-2.22,7.56-7.63,11.47-15.22,12.47-1.18.15-2.65-.74-3.75-1.49-3.19-2.2-6.25-4.58-9.52-7c5.24-2.04,10.14-5.11,12.39-9.69-4.45,2.07-9.54,6.17-14.83,6.42-5.92.29-9.54-5.83-13-10.49l9.37-3.84l3.23-1.33-3.51.41c-3.24.64-6.45,1.66-9.73,1.88-6.11.4-9.94-3.06-9.81-9.06.16-7.66,1.63-15.36,1.3-23-.3-6.87.652776-16.554149.232776-23.484149Z" transform="translate(-.002139-.21938)" fill="#4b4b4b"/></g><g><g id="esAHKxE2rhp48" transform="matrix(.998302 0.058256-.058256 0.998302 31.553238-29.539032)"><path id="esAHKxE2rhp49" d="M423.58001,400.79999l-.07-.13c.50563-.8155.26029-1.88607-.55-2.4l-.57-.4c-.16194-.60793-.39347-1.19514-.69-1.75l-1.3-3.75c16.02068-1.56573,29.87166-4.35519,42.08117-8.57065-12.40368,6.34874-25.25032,12.26929-38.50663,17.71421-.13614-.23516-.26768-.47306-.39454-.71356Zm77.46-39.38l5-4.51-6,3.07c-.95.47-1.95.98-2.95,1.47-2.25,1.11-4.58,2.26-6.78,3.54-2.46,1.45-4.92,2.98-7.28,4.45s-4.79,2.99-7.23,4.4c-12.01,6.97-25.71,9.58-38.94,12.12l-1.54.29c-8.68,1.66-17.74,2.29-26.51,2.89l-2,.14c-9.12.65-16.98-3.22-24.07-11.83-.60542-.85117-1.41298-1.53845-2.35-2l-.29-.13-.83-3.92c-.16-.76-.35-1.63-.56-2.63c22.5.23,42.14-2.24,60-7.52l10.82-3.2-11.18,1.49c-1.29.17-2.58.36-3.87.55-2.72.37-5.54.79-8.32,1-3.82.28667-7.64.59-11.46.91-12.01,1-24.43,2-36.6,2.37-6.52.18-11.35-4.75-16.1-10.25l-4-6.12-1.56-3.31c.8282-.38796,1.73582-.57633,2.65-.55c25.06-1.35,45.89-2.63,65.57-4.08c6.56684-.58867,13.08123-1.66158,19.49-3.21c7.68633-1.76875,15.25988-3.99607,22.68-6.67l8.84-3.13-9.26,1.43c-1.75.28-3.49.51-5.23.75-3.7.51-7.53,1.02-11.24,1.86-26.17,5.91-52.37,7.13-76.78,7.57-19.99.4-35.22-6.17-46.59-20l-.75-.93-1.74-4.34h.38c.62-.04,1.3-.12,2-.2c1.65377-.25523,3.33113-.32233,5-.2c23.29,2.73,48.02,5.19,72.74,5.19c3.92,0,7.83667-.06333,11.75-.19c5.48-.19,11.01-.78,16.36-1.35c2.43-.27,4.87-.53,7.3-.75l1.39-.13c0,0-74.2-3.42-109.11-8.15-8.11876-1.00655-15.77837-4.32098-22.07-9.55-2.52-2.06-4.95-4.32-7.31-6.52-1.1-1-2.19-2-3.3-3l-5-4.54l1.79-1.1h.23c5.39333.91333,10.79333,1.83667,16.2,2.77c35.65,6.14,72.46,12.48,110,11.69l16.22-.95c0,0-28.4-2.49-32-2.78-31.69-2.52-65.62-5.99-98.62-14.27-9.1016-2.11234-17.57306-6.3515-24.72-12.37-2.9-2.46-5.68-5.17-8.37-7.79-1.22-1.17-2.43-2.36-3.66-3.52l-1.52-1.44-1.65-2.49c.51.12.99.24,1.51.35c18.87,4.16,36.1,8.17,52.62,12.48c55.03,14.36,110.24,16.62,110.24,16.62s-30.74-5.72-35.58-6.42c-34.84-5.08-70.57-13.02-109.23-24.26-14-4.11-26.38-12.43-40-27-1-1.14-2.1-2.21-3-3.14l-4.33-5.57-2.62-3.76c8.49,3.48,17.15,7.12,25.49,10.64l7.08,3c30.39,12.79,107.54,34.41,107.54,34.41l27.89,6.8c-5.72-1.84-98.72-31.63-121.87-40.83-16.91-6.74-29.42-18.87-38.22-37.07-.06258-.13972-.11602-.28336-.16-.43l3.12,2.1c3.59,2.42,7.03,4.72,10.48,7c14.74759,9.57251,30.63848,17.25591,47.3,22.87c26.35,9.04,53.58,18.39,81.19,26.11c11.06,3.14,22.61,5.11,33.77,7c7.09,1.23,14.42,2.47,21.54,4c38.92,8.32,70.56,23.46,96.71,46.24c5.50999,4.80728,11.6928,10.86533,16.02754,18.47722-5.97929,5.18524-12.16406,10.25735-18.54641,15.20508-2.27469-4.90594-5.00388-9.58851-8.31113-13.91229-4.63-5.97-10.42-11.58-17.55-14.33c10.94591,6.64677,18.07072,18.12931,22.77602,30.61251-10.95467,8.34079-22.47641,16.31707-34.52647,23.87361.53364-.45963,1.06376-.925,1.59046-1.39613h-.00001Zm-200.069687-9.249708c-8-3.5-18.160323-11.230282-25.550323-15.600282-2.37-1.4-4.73-2.8-7.11-4.17-1.27-.73-3.02623-3.34561-5.8753-5.94723-2.70487-2.18816-5.59496-4.32303-4.43371-5.69112c1.76-2.16,8.96724.99695,11.61725.99695.87319-.01016,11.40983,3.03897,12.24689,3.28777c20.13114,6.11055,30.692299,9.220215,51.494149,12.364195l2.42349.33717l2.588588.407552c3.35029,2.09426,6.262639.664309,9.990619,1.972939l8.498024.881764-4.25,2.57l2.68,5.87l5.192668,8.316712c0,0,3.648864,3.946678,5.642378,6.429559-13.012329,1.956444-45.432236,1.486106-45.432236,1.486106c2.85302,2.80266,2.940018,1.760161,6.444441,3.742756c9.119744-1.271027,45.563311-.742307,45.563311-.742307L377.17,381.71999l.17.21c-12.16,2.4-31.01-2.47-44.52-9.28-11.11-5.54-20.880669-11.071429-22.790669-16.941429l7.680669.111429c.343.06644,40.838357,1.124651,41.183037,1.191231-6.79779-1.86152,4.477826-1.121874-2.216204-4.032764c0,0-40.2477.480402-55.70651-.808175ZM415.82,401.32c-13.2,1.49-25.1.62-36.27-2.51-7.28-2.05-12.51-7.33-17.51-12.72h3.75c5.32.02,10.43.04,15.5.1c6.98,6.73,14.88,10.16,23.57,10.16.8,0,1.62-.03,2.42-.09l2-.14l4.85-.34l1.09,3.15.27.49c.04679.09252.08366.18973.11.29l.08.29-.31.51.45.81ZM216.19,259.55c-28.59-10.6-54.92-28.15-80.48-53.67-.63068-.65766-1.22172-1.35222-1.77-2.08-.15-.2-.3-.39-.46-.58l.09-.17v-.06l1.35.42c1.45149.41365,2.8745.92139,4.26,1.52c5.96,2.76,12.01,5.62,17.85,8.39c11.37,5.37,23.12,10.93,34.86,16c17.85,7.71,36.15,15.19,53.85,22.42c6.55333,2.66667,13.1,5.33333,19.64,8l1.12,1.06c1.18,1.12,2.35,2.26,3.59,3.46c2.77,2.69,5.64,5.48,8.7,8.09c3.027,2.5824,6.29155,4.8726,9.75,6.84l-6.12,3.59.35.31-3.47-1.32c-3-1.15-6.1-2.35-9.19-3.43-6.12-2.14-12.38-4.27-18.38-6.34-11.73-4-23.79-8.17-35.54-12.45ZM112.47,132.76c35.24,23.4,72.65,44.17,109.13,64.17l-3.28-1.34l16.15,23.11-7.93-3.82c-22.43-10.79-45.64-21.95-67-35.64-18.80974-11.97862-34.85508-27.82285-47.07-46.48Zm41.44,70.96c-33.72-18.37-64.3-43.93-93.49-78.14-1.17-1.37-8.85-10.89-8.71-11.17.03-.06,19.66,12.55,24.58,15.94c4.52,3.11333,9.03333,6.23,13.54,9.35c16.41,11.39,33.38,23.14,50.52,34c31.5938,19.98527,64.82633,37.25387,99.34,51.62.86.91,1.86,1.94,2.86,3c4.37742,4.74655,9.07869,9.18386,14.07,13.28l-4.33-1.1l9.67,14.59-1.35-.55c-7.67-3.18-15.6-6.47-23.2-10.08-6.6-3.13-13.34-6.28-19.85-9.33-21.09-9.86-42.9-20.06-63.65-31.41ZM314.48,328.24c-19.17-4.25-38.75437-10.40333-58.17-17.71-10.51-4.82-18.14-10.63-23.81-18.17l77.53,21.35l7.17125,1.70634c.02623-.09182-.05601-.45644-.17594-.91495l2.73469,6.84862l1.45,1.78c2.31638,2.83422,4.86885,5.46698,7.63,7.87-4.94-.86-9.68-1.72-14.36-2.76v-.00001Zm2.54531-13.73862l-1.00592-2.51918.40305.0571c-.04705.18818.35707,1.52233.60287,2.46207v.00001ZM310.71,311.23l-.79-.25c-2.76-.87-5.52-1.72-8.28-2.57-5.56-1.72-11.31-3.49-16.93-5.35-4.64-1.53-9.4-3.06-14-4.53-12.28-3.92-24.98-7.98-37.09-12.87-15.52-6.27-29.34-16.41-40.81-25.52-1.00806-.88833-1.90461-1.89569-2.67-3-.3-.39-.6-.79-.91-1.17l.15-.31l1.29.16c1.30506.10999,2.59526.35462,3.85.73c16.14667,5.46,32.28333,10.93,48.41,16.41c10.88667,3.70667,21.77333,7.4,32.66,11.08c2.47373.93215,5.13077,1.27455,7.76,1l1.42-.18l9.75,8.83l3.24,3c2.43,2.25,4.94,4.59,7.62,6.79c2.99882,2.49406,6.28153,4.62547,9.78,6.35l.85939,2.15221L310.71,311.23Z" fill="#4b4b4b"/><path d="M596.14001,522.99999c-9.02426,6.0911-16.35894,14.36842-21.32,24.06v-.09c0-28.66,24.44-76.51,25.21-78-.45.62-.88,1.24-1.3,1.87-1.73,2.56-3.42,5.13-5,7.67-.57.85-1.05,1.69-1.57,2.53-3.74-4.95-8.63-8.9-13-12.41-1.87-1.51-3.64-2.94-5.07-4.27-10.77-10-22.55-15.2-36-16-.73-.07-1.46-.07-2.17-.07-8.5,0-16.04,3.12-24.14,10-4.29,3.66-8.45,7.42-12.29,11.17-1.48,1.46-2.76,1.67-4.86.81-3.73-1.52-7.64-3.67-9-8.06l2.89-1.61l53.68-30c-1.41.64-47.45,21.75-60,28-1.71688.56723-3.59427.3744-5.16-.53-2.78071-1.89363-5.45167-3.94359-8-6.14-.87-.72-1.77-1.45-2.72-2.21c18.38-5.8,56.44-26.69,57.27-27.41-2.33874.59439-4.63957,1.32906-6.89,2.2-4.14,1.93-8.44,3.94-12.75,5.65-12.19,4.81-25.08,9.73-39.41,15-1.70352.52513-3.53762.43307-5.18-.26-4.08-1.93-7.04-5.23-9.27-10.36c6.41-2.21,13.01-4.05,19.41-5.82c14.22-3.96,28.94-8.05,41.86-16.35l8.42-5.4-9.23,3.86c-1.57.66-3.14,1.37-4.66,2.06-3.23491,1.56732-6.57657,2.90398-10,4-14.95,4.33-30.26,8.36-43.44,11.78-.87512.25596-1.72526.59066-2.54,1-2.13,1-3.83,1.79-6,0l-.28-.23c-4-3.28-7.8-6.39-9-11.86l8.4-2.5c22.44-6.66,45.63-13.55,64.49-29.42l6.75-5.67-7.73,4.23c-2.11333,1.17333-4.22667,2.36-6.34,3.56-4.46,2.51-9.06,5.12-13.71,7.37-15.58,7.54-32.5,12.15-47,15.67-6.25,1.5-10.3-2.6-13.91-6.93-.58968-.75432-1.12608-1.5484-1.60546-2.37644c13.25631-5.44491,26.10294-11.36546,38.50663-17.71421c14.2887-4.93332,26.32927-11.81966,36.96837-20.98323c12.05006-7.55654,15.321109-20.348309,34.52647-23.87361c3.37192,8.94574,5.50131,18.40537,6.90398,26.96749c5.75,29.66,13.86,60,31.43,85v-.05c4.55,6.06,9.89,11.85,16.63,15.47-9.03-6.9-14.83-16.69-19.83-26.69-11.36-23.57-17.93-49.16-23.36-74.67-1.87641-9.66028-4.51897-19.4043-8.68887-28.39771c4.034375-7.712249,7.077095-13.479365,18.54641-15.20508c2.26572,3.97865,4.02654,8.38182,4.92246,13.25278.78391,4.96323,1.215,9.9758,1.29,15c.09,2.28.18,4.66.34,7c1.01575,15.77472,4.13675,31.34274,9.28,46.29c8.55519,24.74411,24.52084,44.84443,31.30053,52.66264c2.87246,44.616-5.20175,81.84578-24.60963,105.29905c5.63438-20.5852,17.45687-37.09722,18.0091-37.87168h.00001ZM590.91,482.91c-8.90891,14.9029-16.14923,30.74173-21.59,47.23-.09934.06433-.207.1148-.32.15-4.14809,1.53729-8.80442-.07065-11.12-3.84c3.83-2.25,10.72-9.64,10.72-9.64l-.74.44c-10.61,6.28-12.18,6.45-17.72.37L561.85,502l4.66-6.15.49-.73c0,0-13,12.49-15.27,15.15-4.68,5.46-6.15,5.85-11.84,2.24l13.76-26.42c0,0-11.61,16.11-13.81,19.57-2.68,4.24-4.48,4.75-9.13,2.75-1.12-.48-2.25-.93-3.35-1.37l-.71-.28l2.62-3.91c1.88-2.8,5.16861-10.08505,4.88-10.07s-.55091.17243-.7.42c-.79.64-1.59,1.42-2.42,2.24-1.97,1.91-4.14,4.07-6.47,4.42s-5.1-.96-7.78-2.23c-.62-.3-1.25-.59-1.89-.88c4.86773-6.9868,8.99022-14.46427,12.3-22.31l-.55.69-.75.94c-.52.64-1.03,1.28-1.52,1.94-.79,1.06-1.56,2.18-2.3,3.25-1.47373,2.25825-3.12566,4.39506-4.94,6.39-2.4,2.48-4.47,3.65-6.59,3.65s-4.31-1.13-6.88-3.58c2.13-2.06,4.29-4.07,6.13-5.81l3.54-3.34-4.48,1.9c-1.13.47-2.29,1.09-3.42,1.69-2.59,1.37-5.3,2.72-7.77,2.72-3.02-.07-6.11-2.16-9.11-4.16l-.38-.24c6.7558-1.87811,12.90266-5.49107,17.83-10.48c4.9902-4.78442,10.24514-9.28484,15.74-13.48c11-8.38,32.14-4.15,40.48,2.68c2.61333,2.15333,5.22,4.31667,7.82,6.49c1.87,1.55,3.73,3.11,5.61,4.66l2.55,2.1c3.8,3.17,8.92,7.36,12.71,10.46Z" fill="#4b4b4b"/></g><g id="esAHKxE2rhp51" transform="matrix(.997381-.072322 0.072322 0.997381-33.061779 60.476222)"><path d="M898.64,362.33c.47864.15837,6.73423,2.27006,19.84567,4.77227c45.721,10.64058,96.33734,15.18576,149.72905,13.08346-.1663,3.87639-2.64992,6.70455-8.05471,9.14427-43.92,5.05-155.08669-7.85216-146.33-5.41s17.64414,4.38858,26.62,5.83c5.53523,1.16679,11.12562,2.05457,16.75,2.66c23.38,2.49,47.39,4.38,70.85,4.66c18.78.38,31.58.14,31.58.14c2.73.3,3.89.37,3.12,3.14-1.09,3.91-4.53,7.49-8.53,9.38-38.34,1.33-126.07-1.67-126.07-1.67c1.91.44,11.15,2.11,15.83,2.52c34.89,4.03,91.59,5.6,103.65,5.5-1.19,8.14-5.83,11.03-14.83,10.66-22.4-.90667-44.79-1.98-67.17-3.22l-39.28-3-7.27-.63.22.09-1.16-.09c26,7,96.86,11.58,112,12-1.7,4.51-4.19,5.51-8.19,7.57-1.17312.60714-2.41093,1.08012-3.69,1.41l-89.76-6.46l81.76,10.44c.53,2.09-.66,3.76-2.74,5.09-3.82,2.43-7.7,4.09-12.12,4.14-.07-.02-33.94-8.61-60.17-10.77s-50.96-.55-83.78,34.74c2.07-2.44,15.09-18.93,10.29-44.23-5.34108-28.13619-33.3572-67.57355-26.07714-95.25791c20.28147,9.70278,42.31417,17.80691,65.78604,24.23113-.9406-.15133-1.87691-.30574-2.8089-.46322h-.00001Zm-65.64.39c8,30.68,26.93,63.03,24.59,89.96-1.42228,16.21544-16.169353,31.999471-26.542243,42.497491-13.11015-2.68653-21.426263-7.206647-24.509963-17.866167C814.788574,469.511584,824.02728,460.84085,828.76,450.08c7.33-16.99,3.54116-37.07525,3.33-29.78s-1.53648,14.51534-3.93,21.41c-1.01-6.57-1.67-13.24-3.5-19.57-2.63348-9.20385-5.93216-18.20421-9.87-26.93-5.7001-12.38743-13.29067-23.81377-22.5-33.87-7.09754-7.70394-8.42209-19.10396-3.28-28.23c3.10483-5.42292,7.02329-10.04318,11.40721-14.17094c10.37249,6.69628,21.38874,12.87925,32.98921,18.53341-2.33166,6.20663-3.21473,14.48177-.40642,25.24753Zm38.89,102.55c19.93-15.51,45.71-22.08,68.24-17.39c18.2,3.82,59.31,13.6,80.31,11-3.28173,3.28542-7.3622,5.65995-11.84,6.89-9.73,2.39-23.9-1.96-24.6-2.18c1.08.58,2.14,1.1,3.14,1.58l-.41-.08.57.16c3.97974,1.87446,8.21053,3.16121,12.56,3.82-1.68487,1.49767-3.58208,2.73777-5.63,3.68-20.63,1.26-44.92-9.86-45.63-10.19c10.73,7.29,34.02,13.89,39.91,15.49l-1.09.54c-6.79115,3.4937-14.54497,4.65009-22.06,3.29-6.4987-1.30484-12.77394-3.5448-18.63-6.65c1.68544,1.84058,3.59734,3.46014,5.69,4.82c10.31,6.83,25.10579,7.68311,24,8.2s-2.18391,1.091-3.23,1.72c-5.07,3.38-11.43,3.38-16.58,7.47-3.5,2.78-9.68,2.17-15.08,2.44l5.09,1.69c-2.88,5.92-8.64,5.9-13.7,7.77c1.11.09,2.2.23,3.31.23c1.27-.01,2.53-.17,3.83-.26-.07287.83176-.17227,1.57322-.31199,2.23311-12.36079,1.77385-24.39122,2.56612-35.95509,2.3557-12.30087-2.41267-21.76501-5.77816-22.17292-5.91882c3.25304,2.17707,7.1482,3.95682,11.25161,5.41054c16.22839,10.56945-46.441901-1.055735-60.255501-18.099315c11.36013-9.27047,28.265011-21.457985,39.273881-30.021215h.00001Zm203.22-84.04c.03474-.45109.05297-.90297.05473-1.35474c11.84093-.5915,23.8127-1.50824,35.89247-2.75616-11.84088,1.98644-23.83874,3.17553-35.9472,4.1109Z" fill="#4b4b4b"/><path id="esAHKxE2rhp53" d="M1246.12,173.92c-.21.37-7.25,12.13-10.72,16.53-12.7,16.1-30.54,25.45-50.43,31.1-38.24,10.88-197.43,55.35-200.16,56.11c2.65-.55,173.03-35.89,233.59-56.25-5.19,9.58-8.83,12.29-17.09,18.08-7.81596,5.45539-16.51797,9.51542-25.72,12-10.5,2.73-124.93,28.02-191,42.26c11.13-1.66,136.59-14.46,214.93-41.29-.71,2.21-13.18,24.01-50.43,31.7-7.22,1.51-125.09,20.49-173.22,28c18.34-1.66,101.46-3.35,198.64-26.66-.68,1.96-9.72,23.94-45.86,29.65-13.32,2.11-26.67,4.09-40.07,5.56-20.18,2.21-40.38,4.49-60.64,5.71-26.14,1.57-80.89,3.35-82.14,4.16c9.51.39,87.56,1.39,120-1.42c21.7-1.85,59.05-2.41,84.26-11.85-.63,2.38-9.29,20.45-37.18,25l-107.83,8.92h8.7c66.97.47,107.55-5,107.55-5-.01,4.17-2.73,8.79-6.91,12-7.23797,5.63058-15.88829,9.15645-25,10.19-6.92.8-13.85,1.44-20.79,2-3.17.12-66.99,2.44-127.9-2.88-5.28-.74-10.57-1.5-15.86-2.21-4.27742-.57896-8.58445-.91284-12.9-1-3.55459-.47115-7.05162-.98342-10.4911-1.53678-24.157339-3.63063-47.630794-11.455026-65.78604-24.23113C837.33792,332.19224,840.88158,326.4446,847,321.6c-.48237.21868-9.39098,4.68563-13.59358,15.87247-14.152357-3.825506-26.817773-10.557732-32.98921-18.53341c4.97742-4.68658,10.55488-8.73829,16.22279-12.60906c17.2-11.78,36.05-20.48,55.36-28.29c24.28-9.82,49.55-16.29,74.86-22.62c22.76-5.68,45.77-10.48,68.35-16.81c18.6-5.22,36.78-11.99,55.08-18.28c18.54-6.36,37.15-12.57,55.47-19.57c28.86-10.91,57.24-22.98,82.06-41.91l4.08-3.08c2.18,6.18.55,11.58-2.45,16.43-6.72,11.06-19.43,19.87-32.91,24.87-20.68,7.66-137.92,51.18-138.36,51.82c70.08-20.41,134.6-37.18,205.68-73.75l2.26-1.22ZM1067.39,375.14c.60269,1.86694.88949,3.53585.82471,5.04573-53.39171,2.1023-104.00805-2.44288-149.72905-13.08346c24.14321,4.60754,71.53257,10.53924,148.90433,8.03773h.00001ZM1467.26,84.33c-30.85,34.84-68.52,60.57-110,81-20.77,10.2-41.7,19.95-62.77,29.43-23.26,10.49-46.83,20.48-70.26,30.69.13-.24.26-.46.39-.71l8.48-15.65-12.16,4.08c7.59771-5.02918,14.34846-11.23312,20-18.38.58-.75,1.25-1.67,1.95-2.67C1267.31,182.63,1393.87,130.86,1492,49c.23,1-16.39,25.86-24.74,35.33ZM1222.3,228.54c19.72-6.94,124.36-44.47,189-77.94-1.19823,1.7704-2.53581,3.44237-4,5-17.93,17.88-37.63,33.56-60.29,45-13.74123,6.91782-27.82993,13.12271-42.21,18.59-29.16,11.11-58.64,21.49-88,32.21-2.18664.79628-4.26589,1.8611-6.19,3.17c0,0,91.63-23.1,145.83-48.24-.46,1.42-3.44,4.47-4.36,5.42-2.13915,2.18018-4.48331,4.14927-7,5.88-20.27,14.02-41.55,26.22-64.81,34.59-9.59,3.45-19.43,6.17-29.13,9.34-16.61,5.41-33.2,10.93-49.79,16.41-5.41933,1.63571-10.6859,3.74033-15.74,6.29l122.17-35c-5.15051,7.08341-12.03835,12.7211-20,16.37-11.11307,5.34667-22.53693,10.02173-34.21,14-20.34,6.69-40.95,12.56-61.51,18.56-7.59,2.26-15.23,4.26-22.88,6.26c8.93-8.19,11.79-16.03,12-16.63l3.64-10.48c13.99-9.16,20.34-19.39,21.42-22.69l4.27-13.13c4.77242-3.47918,8.78434-7.89603,11.79-12.98Zm48.49,56.63c.38.77-1.11,3.18-2.32,3.88-5.31,3.06-10.56,6.25-15.87,9.32l-.33.2-2,1.12-.43.23c-24.13,13.06-80,26.44-100.13,31c4.28-4.78,6.49-9.29,7.16-11.78l1.87-6.94c2.20053-1.29811,4.32102-2.72736,6.35-4.28c14.05-3.34,45.26-10.87,61.67-15.65c21.56-6.27,38.84-13.34,43.32-8.08.2769.29554.51544.6248.71.98Zm-52.75,33.95c.54608,1.15905.47473,2.51468-.19,3.61-2.67,3.15-5.28,6.59-8.6,9-14.82,10.74-31.95,16.12-49.56,19.74-11.48,2.36-23.13,3.86-34.69,5.53c2.09412-3.1968,3.24478-6.91911,3.32-10.74v-.88c6.42147-2.43,12.34528-6.01207,17.48-10.57c20.11-2.49,65.55-15.33,68.64-16.2l.16-.05.4-.07c1.14-.16,2.69-.01,3.04.63Zm146.27-196.98c-22.46,16.34-93.18,51.48-116.92,63.13c2.58-4.08,4.77-7.69,4.77-7.75l11.32-19.05c47.07-26.11,93.98-52.68,138.52-82.68-4.23,8.77-16.36,30.83-37.69,46.35ZM1122.29,360.48c7.5-.68,23.22-2.26,35.5-4.35-5.61,7.03-11.93,12.39-20.26,14.91-8.72196,2.63377-17.55284,4.58268-26.4728,6.0791-12.07977,1.24792-24.05153,2.16466-35.89247,2.75616.00386-.98878-.07118-1.97701-.22473-2.95526c5.33-.47,10.35-.97,15.24-1.53c10.39164-1.16188,20.25909-5.1767,28.51-11.6c1.29935-.99014,2.50447-2.09818,3.6-3.31Zm38.82-52.15l-3.18,1l.58-.39l2.6-.61Z" fill="#4b4b4b"/></g></g></g><g transform="translate(0 0.000001)"><rect width="276.76" height="1090.68" rx="0" ry="0" transform="matrix(0 1-1 0 1303.24 790.25)" fill="#fff"/><path d="M278.62,1048.56v-244.13h73.21c10.97333,0,20.00333,1.45,27.09,4.35c7.00699,2.82725,12.93519,7.80652,16.93,14.22c4.18667,6.56,7.09,15.16,8.71,25.8s2.42667,23.80667,2.42,39.5c.14828,13.5335-.6604,27.06056-2.42,40.48-1.61333,11.07333-4.51667,20.05-8.71,26.93-3.90617,6.63163-9.84179,11.831-16.93,14.83-7.08667,2.97333-16.11667,4.46-27.09,4.46h-22.57v73.53l-50.64.03ZM342.8,924.72c4.72667,0,8.06-2.63333,10-7.9s2.90667-15.20667,2.9-29.82c0-12.9-1.12667-21.39333-3.38-25.48s-5.85667-6.13-10.81-6.13h-12.25v69.34l13.54-.01Zm80.95,123.84v-244.13h108v51.57h-57.4v42.89h56.44v49.34h-56.41v46.12h57.08v54.18l-107.71.03Zm209.62-94.5h-23.54v-49h69c.20667,4.3.36667,10.53333.48,18.7s.17,17.95.17,29.35c0,13.33333-.21667,24.40333-.65,33.21-.28441,7.34385-.98554,14.66563-2.1,21.93-.71635,4.83374-1.90195,9.58619-3.54,14.19-1.36251,3.57924-3.03555,7.0324-5,10.32-1.93469,3.60263-4.50233,6.82742-7.58,9.52-3.21847,2.64997-6.87279,4.72075-10.8,6.12-4.8935,1.75326-9.98581,2.89197-15.16,3.39-6.74991.70515-13.53347,1.03899-20.32,1-15.7,0-27.57667-1.45333-35.63-4.36-7.8964-2.75452-14.5006-8.3227-18.55-15.64-2.23445-3.83244-4.07069-7.88355-5.48-12.09-1.82916-5.93749-3.07177-12.04001-3.71-18.22-.97333-7.74-1.67333-17.74-2.1-30s-.64-28.28-.64-48.06c0-18.90667.21333-34.27667.64-46.11s1.12667-21.5,2.1-29c.6428-6.01886,1.88564-11.95838,3.71-17.73c1.43243-4.14938,3.26786-8.14848,5.48-11.94c4.1513-7.18765,10.81614-12.58435,18.71-15.15c8.16667-2.8,19.99-4.2,35.47-4.2c17.84,0,31.27667,2.31333,40.31,6.94s15.36667,12.42,19,23.38c2.79333,9.03333,4.19,20.96667,4.19,35.8v6.93c0,1.61-.11,3.5-.32,5.64h-47.04c.21694-.67526.32496-1.38076.32-2.09v-2.1c.08277-3.98734-.13451-7.97526-.65-11.93-.42667-2.58-.85667-4.73-1.29-6.45-.86-4.08-5.80333-6.12333-14.83-6.13-4.3,0-7.47.48333-9.51,1.45-2.00978.92932-3.57512,2.60954-4.36,4.68-.42667,1.72-.85667,3.72-1.29,6-.55338,3.41511-.8874,6.86217-1,10.32-.21333,4.63333-.37333,11.03-.48,19.19s-.16,18.80333-.16,31.93c0,14,.05333,25.12667.16,33.38s.26667,14.70333.48,19.35c.22,4.62.49,7.95333.81,10c.26735,1.7981.64472,3.57811,1.13,5.33c1.72,4.73333,6.88,7.09667,15.48,7.09c4.3,0,7.47-.48333,9.51-1.45c2.10076-1.01968,3.8438-2.65117,5-4.68.65857-1.09109,1.25292-2.21967,1.78-3.38.611-1.49337.98875-3.07182,1.12-4.68.22-1.93333.38333-4.35.49-7.25.1-2.91.16-6.83.16-11.78l.03-11.72Zm138.35,94.5l-4.19-56.44h-24.53l-3.87,56.44h-51l26.13-244.13h85.13L824,1048.56h-52.28ZM756.89,855.38h-3.55l-8.06,87.4h20l-8.39-87.4Zm149.63,24.83c.19212-1.44245.29897-2.89497.32-4.35v-6.29c0-7.52-.91333-12.73333-2.74-15.64s-5.86-4.35667-12.1-4.35c-6.24,0-10.21667,1.45-11.93,4.35s-2.57333,8.11333-2.58,15.64c0,7.1.91,12.09,2.74,15s4.78,5.53,8.87,7.9c4.33709,2.58832,8.80285,4.95471,13.38,7.09c4.18667,1.94,8.05667,3.71333,11.61,5.32s6.94,3.16667,10.16,4.68c3.3541,1.58563,6.58626,3.4173,9.67,5.48c3.30704,2.46217,6.38609,5.21658,9.2,8.23c2.8988,3.27933,5.09405,7.11846,6.45,11.28c1.81454,5.55856,3.05436,11.28852,3.7,17.1.95299,8.41533,1.38714,16.88133,1.3,25.35c0,14.62667-1.02,26.77333-3.06,36.44s-5.48,17.40667-10.32,23.22-11.39667,9.95333-19.67,12.42-18.54,3.70333-30.8,3.71c-20.21333,0-35.04667-3.81667-44.5-11.45s-14.19333-21.03-14.22-40.19c0-6.23333.16333-12.52333.49-18.87.16353-5.15341.87078-10.27514,2.11-15.28h42.25c-.43785,1.35646-.65396,2.77469-.64,4.2v4.8c0,9.47333.96667,15.98,2.9,19.52s6.12667,5.31333,12.58,5.32c6.44667,0,10.69333-1.56,12.74-4.68s3.06667-9.84,3.06-20.16c0-6.23333-.96667-10.96333-2.9-14.19-2.44258-3.72818-5.62921-6.91141-9.36-9.35-3.97421-2.63697-8.12011-5.00558-12.41-7.09-4.41333-2.15333-8.82-4.19667-13.22-6.13s-8.64667-4.03-12.74-6.29c-3.97811-2.17012-7.67278-4.82357-11-7.9-6.66667-5.80667-10.69667-13.76-12.09-23.86s-2.09333-23.21667-2.1-39.35c0-11.38667.91333-21.00667,2.74-28.86s5-14.18667,9.52-19c4.50667-4.84,10.63333-8.33333,18.38-10.48s17.64333-3.23667,29.69-3.27c10.96,0,20.15.86,27.57,2.58s13.49333,4.67667,18.22,8.87c4.91562,4.45143,8.45783,10.21403,10.21,16.61c2.04,6.88,3.06333,15.48,3.07,25.8c0,6.66667-.16333,11.93333-.49,15.8-.24877,3.51573-.95126,6.98451-2.09,10.32h-41.97Zm144.8-75.78h50.31v169c-.21333,10.11333-.64333,18.5-1.29,25.16-.48973,5.63117-1.29769,11.23012-2.42,16.77-.74702,3.81485-1.87949,7.54398-3.38,11.13-1.32195,2.93469-2.83867,5.7777-4.54,8.51-2.00089,3.27604-4.56736,6.17093-7.58,8.55-3.25743,2.43518-6.91119,4.28913-10.8,5.48-4.93157,1.52017-10.01554,2.49269-15.16,2.9-5.8.54-12.57.81-20.31.81-15.7,0-27.63333-1.23667-35.8-3.71-7.70276-2.12386-14.28103-7.15346-18.35-14.03-1.73333-2.78667-3.34667-5.63333-4.84-8.54-1.73302-3.54082-3.03242-7.27783-3.87-11.13-1.23035-5.52062-2.03935-11.12676-2.42-16.77-.54-6.66667-.81-15.05333-.81-25.16v-169h51.94v169c0,5.81333.16333,10.33.49,13.55.13486,2.59949.85257,5.13538,2.1,7.42.98735,1.65638,2.62277,2.82402,4.51,3.22c2.55016.48681,5.14437.70467,7.74.65c2.54286.06197,5.08482-.15601,7.58-.65c1.829-.434,3.40078-1.59747,4.35-3.22c1.24743-2.28462,1.96514-4.82051,2.1-7.42.32-3.23333.48-7.75.48-13.55l-.03-168.97ZM1191,880.21c.19212-1.44245.29897-2.89497.32-4.35v-6.29c0-7.52-.91333-12.73333-2.74-15.64s-5.85667-4.35667-12.09-4.35c-6.24,0-10.21667,1.45-11.93,4.35s-2.57333,8.11333-2.58,15.64c0,7.1.91,12.09,2.74,15s4.78,5.53,8.87,7.9c4.33709,2.58832,8.80285,4.95471,13.38,7.09c4.18667,1.94,8.05667,3.71333,11.61,5.32s6.94,3.16667,10.16,4.68c3.3541,1.58563,6.58626,3.4173,9.67,5.48c3.30602,2.45965,6.38197,5.21428,9.19,8.23c2.90676,3.27361,5.10301,7.11449,6.45,11.28c1.82308,5.5568,3.06636,11.28731,3.71,17.1.93294,8.41656,1.34706,16.88256,1.24,25.35c0,14.62667-1.02,26.77333-3.06,36.44s-5.48,17.40667-10.32,23.22-11.39667,9.95333-19.67,12.42-18.54,3.70333-30.8,3.71c-20.21333,0-35.05-3.81667-44.51-11.45s-14.19-21.01667-14.19-40.15c0-6.23333.16333-12.52333.49-18.87.14433-5.16504.83485-10.3003,2.06-15.32h42.25c-.43785,1.35646-.65396,2.77469-.64,4.2v4.8c0,9.47333.96667,15.98,2.9,19.52s6.12667,5.31333,12.58,5.32c6.44667,0,10.69-1.56,12.73-4.68s3.06333-9.84,3.07-20.16c0-6.23333-.96667-10.96333-2.9-14.19-2.44258-3.72818-5.62921-6.91141-9.36-9.35-3.97421-2.63697-8.12011-5.00558-12.41-7.09-4.41333-2.15333-8.82333-4.19667-13.23-6.13s-8.65-4.03-12.73-6.29c-3.97811-2.17012-7.67278-4.82357-11-7.9-6.66667-5.80667-10.69667-13.76-12.09-23.86s-2.09333-23.21667-2.1-39.35c0-11.38667.91333-21.00667,2.74-28.86s5-14.18667,9.52-19c4.50667-4.84,10.63333-8.33333,18.38-10.48s17.63667-3.22333,29.67-3.23c10.96,0,20.15.86,27.57,2.58s13.49333,4.67667,18.22,8.87c4.89728,4.45786,8.42176,10.21983,10.16,16.61c2.04,6.88,3.06333,15.48,3.07,25.8c0,6.66667-.16333,11.93333-.49,15.8-.24877,3.51573-.95126,6.98451-2.09,10.32l-41.82-.04Z" fill="#4b4b4b"/></g></g>
<script><![CDATA[
!function(t,e){"object"==typeof exports&&"undefined"!=typeof module?module.exports=e():"function"==typeof define&&define.amd?define(e):((t="undefined"!=typeof globalThis?globalThis:t||self).__SVGATOR_PLAYER__=t.__SVGATOR_PLAYER__||{},t.__SVGATOR_PLAYER__["91c80d77"]=e())}(this,(function(){"use strict";function t(t,e){var n=Object.keys(t);if(Object.getOwnPropertySymbols){var r=Object.getOwnPropertySymbols(t);e&&(r=r.filter((function(e){return Object.getOwnPropertyDescriptor(t,e).enumerable}))),n.push.apply(n,r)}return n}function e(e){for(var n=1;n<arguments.length;n++){var r=null!=arguments[n]?arguments[n]:{};n%2?t(Object(r),!0).forEach((function(t){u(e,t,r[t])})):Object.getOwnPropertyDescriptors?Object.defineProperties(e,Object.getOwnPropertyDescriptors(r)):t(Object(r)).forEach((function(t){Object.defineProperty(e,t,Object.getOwnPropertyDescriptor(r,t))}))}return e}function n(t){return(n="function"==typeof Symbol&&"symbol"==typeof Symbol.iterator?function(t){return typeof t}:function(t){return t&&"function"==typeof Symbol&&t.constructor===Symbol&&t!==Symbol.prototype?"symbol":typeof t})(t)}function r(t,e){if(!(t instanceof e))throw new TypeError("Cannot call a class as a function")}function i(t,e){for(var n=0;n<e.length;n++){var r=e[n];r.enumerable=r.enumerable||!1,r.configurable=!0,"value"in r&&(r.writable=!0),Object.defineProperty(t,r.key,r)}}function o(t,e,n){return e&&i(t.prototype,e),n&&i(t,n),t}function u(t,e,n){return e in t?Object.defineProperty(t,e,{value:n,enumerable:!0,configurable:!0,writable:!0}):t[e]=n,t}function a(t){return(a=Object.setPrototypeOf?Object.getPrototypeOf:function(t){return t.__proto__||Object.getPrototypeOf(t)})(t)}function s(t,e){return(s=Object.setPrototypeOf||function(t,e){return t.__proto__=e,t})(t,e)}function l(){if("undefined"==typeof Reflect||!Reflect.construct)return!1;if(Reflect.construct.sham)return!1;if("function"==typeof Proxy)return!0;try{return Boolean.prototype.valueOf.call(Reflect.construct(Boolean,[],(function(){}))),!0}catch(t){return!1}}function f(t,e,n){return(f=l()?Reflect.construct:function(t,e,n){var r=[null];r.push.apply(r,e);var i=new(Function.bind.apply(t,r));return n&&s(i,n.prototype),i}).apply(null,arguments)}function c(t,e){if(e&&("object"==typeof e||"function"==typeof e))return e;if(void 0!==e)throw new TypeError("Derived constructors may only return object or undefined");return function(t){if(void 0===t)throw new ReferenceError("this hasn't been initialised - super() hasn't been called");return t}(t)}function h(t,e,n){return(h="undefined"!=typeof Reflect&&Reflect.get?Reflect.get:function(t,e,n){var r=function(t,e){for(;!Object.prototype.hasOwnProperty.call(t,e)&&null!==(t=a(t)););return t}(t,e);if(r){var i=Object.getOwnPropertyDescriptor(r,e);return i.get?i.get.call(n):i.value}})(t,e,n||t)}function v(t){return function(t){if(Array.isArray(t))return y(t)}(t)||function(t){if("undefined"!=typeof Symbol&&null!=t[Symbol.iterator]||null!=t["@@iterator"])return Array.from(t)}(t)||function(t,e){if(!t)return;if("string"==typeof t)return y(t,e);var n=Object.prototype.toString.call(t).slice(8,-1);"Object"===n&&t.constructor&&(n=t.constructor.name);if("Map"===n||"Set"===n)return Array.from(t);if("Arguments"===n||/^(?:Ui|I)nt(?:8|16|32)(?:Clamped)?Array$/.test(n))return y(t,e)}(t)||function(){throw new TypeError("Invalid attempt to spread non-iterable instance.\nIn order to be iterable, non-array objects must have a [Symbol.iterator]() method.")}()}function y(t,e){(null==e||e>t.length)&&(e=t.length);for(var n=0,r=new Array(e);n<e;n++)r[n]=t[n];return r}Number.isInteger||(Number.isInteger=function(t){return"number"==typeof t&&isFinite(t)&&Math.floor(t)===t}),Number.EPSILON||(Number.EPSILON=2220446049250313e-31);var d=g(Math.pow(10,-6));function g(t){var e=arguments.length>1&&void 0!==arguments[1]?arguments[1]:6;if(Number.isInteger(t))return t;var n=Math.pow(10,e);return Math.round((+t+Number.EPSILON)*n)/n}function p(t,e){var n=arguments.length>2&&void 0!==arguments[2]?arguments[2]:d;return Math.abs(t-e)<n}var m=Math.PI/180;function b(t){return t}function k(t,e,n){var r=1-n;return 3*n*r*(t*r+e*n)+n*n*n}function w(){var t=arguments.length>0&&void 0!==arguments[0]?arguments[0]:0,e=arguments.length>1&&void 0!==arguments[1]?arguments[1]:0,n=arguments.length>2&&void 0!==arguments[2]?arguments[2]:1,r=arguments.length>3&&void 0!==arguments[3]?arguments[3]:1;return t<0||t>1||n<0||n>1?null:p(t,e)&&p(n,r)?b:function(i){if(i<=0)return t>0?i*e/t:0===e&&n>0?i*r/n:0;if(i>=1)return n<1?1+(i-1)*(r-1)/(n-1):1===n&&t<1?1+(i-1)*(e-1)/(t-1):1;for(var o,u=0,a=1;u<a;){var s=k(t,n,o=(u+a)/2);if(p(i,s))break;s<i?u=o:a=o}return k(e,r,o)}}function x(){return 1}function A(t){return 1===t?1:0}function _(){var t=arguments.length>0&&void 0!==arguments[0]?arguments[0]:1,e=arguments.length>1&&void 0!==arguments[1]?arguments[1]:0;if(1===t){if(0===e)return A;if(1===e)return x}var n=1/t;return function(t){return t>=1?1:(t+=e*n)-t%n}}var O=Math.sin,S=Math.cos,E=Math.acos,P=Math.asin,M=Math.tan,j=Math.atan2,B=Math.PI/180,T=180/Math.PI,I=Math.sqrt,R=function(){function t(){var e=arguments.length>0&&void 0!==arguments[0]?arguments[0]:1,n=arguments.length>1&&void 0!==arguments[1]?arguments[1]:0,i=arguments.length>2&&void 0!==arguments[2]?arguments[2]:0,o=arguments.length>3&&void 0!==arguments[3]?arguments[3]:1,u=arguments.length>4&&void 0!==arguments[4]?arguments[4]:0,a=arguments.length>5&&void 0!==arguments[5]?arguments[5]:0;r(this,t),this.m=[e,n,i,o,u,a],this.i=null,this.w=null,this.s=null}return o(t,[{key:"determinant",get:function(){var t=this.m;return t[0]*t[3]-t[1]*t[2]}},{key:"isIdentity",get:function(){if(null===this.i){var t=this.m;this.i=1===t[0]&&0===t[1]&&0===t[2]&&1===t[3]&&0===t[4]&&0===t[5]}return this.i}},{key:"point",value:function(t,e){var n=this.m;return{x:n[0]*t+n[2]*e+n[4],y:n[1]*t+n[3]*e+n[5]}}},{key:"translateSelf",value:function(){var t=arguments.length>0&&void 0!==arguments[0]?arguments[0]:0,e=arguments.length>1&&void 0!==arguments[1]?arguments[1]:0;if(!t&&!e)return this;var n=this.m;return n[4]+=n[0]*t+n[2]*e,n[5]+=n[1]*t+n[3]*e,this.w=this.s=this.i=null,this}},{key:"rotateSelf",value:function(){var t=arguments.length>0&&void 0!==arguments[0]?arguments[0]:0;if(t%=360){var e=O(t*=B),n=S(t),r=this.m,i=r[0],o=r[1];r[0]=i*n+r[2]*e,r[1]=o*n+r[3]*e,r[2]=r[2]*n-i*e,r[3]=r[3]*n-o*e,this.w=this.s=this.i=null}return this}},{key:"scaleSelf",value:function(){var t=arguments.length>0&&void 0!==arguments[0]?arguments[0]:1,e=arguments.length>1&&void 0!==arguments[1]?arguments[1]:1;if(1!==t||1!==e){var n=this.m;n[0]*=t,n[1]*=t,n[2]*=e,n[3]*=e,this.w=this.s=this.i=null}return this}},{key:"skewSelf",value:function(t,e){if(e%=360,(t%=360)||e){var n=this.m,r=n[0],i=n[1],o=n[2],u=n[3];t&&(t=M(t*B),n[2]+=r*t,n[3]+=i*t),e&&(e=M(e*B),n[0]+=o*e,n[1]+=u*e),this.w=this.s=this.i=null}return this}},{key:"resetSelf",value:function(){var t=arguments.length>0&&void 0!==arguments[0]?arguments[0]:1,e=arguments.length>1&&void 0!==arguments[1]?arguments[1]:0,n=arguments.length>2&&void 0!==arguments[2]?arguments[2]:0,r=arguments.length>3&&void 0!==arguments[3]?arguments[3]:1,i=arguments.length>4&&void 0!==arguments[4]?arguments[4]:0,o=arguments.length>5&&void 0!==arguments[5]?arguments[5]:0,u=this.m;return u[0]=t,u[1]=e,u[2]=n,u[3]=r,u[4]=i,u[5]=o,this.w=this.s=this.i=null,this}},{key:"recomposeSelf",value:function(){var t=arguments.length>0&&void 0!==arguments[0]?arguments[0]:null,e=arguments.length>1&&void 0!==arguments[1]?arguments[1]:null,n=arguments.length>2&&void 0!==arguments[2]?arguments[2]:null,r=arguments.length>3&&void 0!==arguments[3]?arguments[3]:null,i=arguments.length>4&&void 0!==arguments[4]?arguments[4]:null;return this.isIdentity||this.resetSelf(),t&&(t.x||t.y)&&this.translateSelf(t.x,t.y),e&&this.rotateSelf(e),n&&(n.x&&this.skewSelf(n.x,0),n.y&&this.skewSelf(0,n.y)),!r||1===r.x&&1===r.y||this.scaleSelf(r.x,r.y),i&&(i.x||i.y)&&this.translateSelf(i.x,i.y),this}},{key:"decompose",value:function(){var t=arguments.length>0&&void 0!==arguments[0]?arguments[0]:0,e=arguments.length>1&&void 0!==arguments[1]?arguments[1]:0,n=this.m,r=n[0]*n[0]+n[1]*n[1],i=[[n[0],n[1]],[n[2],n[3]]],o=I(r);if(0===o)return{origin:{x:g(n[4]),y:g(n[5])},translate:{x:g(t),y:g(e)},scale:{x:0,y:0},skew:{x:0,y:0},rotate:0};i[0][0]/=o,i[0][1]/=o;var u=n[0]*n[3]-n[1]*n[2]<0;u&&(o=-o);var a=i[0][0]*i[1][0]+i[0][1]*i[1][1];i[1][0]-=i[0][0]*a,i[1][1]-=i[0][1]*a;var s=I(i[1][0]*i[1][0]+i[1][1]*i[1][1]);if(0===s)return{origin:{x:g(n[4]),y:g(n[5])},translate:{x:g(t),y:g(e)},scale:{x:g(o),y:0},skew:{x:0,y:0},rotate:0};i[1][0]/=s,i[1][1]/=s,a/=s;var l=0;return i[1][1]<0?(l=E(i[1][1])*T,i[0][1]<0&&(l=360-l)):l=P(i[0][1])*T,u&&(l=-l),a=j(a,I(i[0][0]*i[0][0]+i[0][1]*i[0][1]))*T,u&&(a=-a),{origin:{x:g(n[4]),y:g(n[5])},translate:{x:g(t),y:g(e)},scale:{x:g(o),y:g(s)},skew:{x:g(a),y:0},rotate:g(l)}}},{key:"clone",value:function(){var t=this.m;return new this.constructor(t[0],t[1],t[2],t[3],t[4],t[5])}},{key:"toString",value:function(){var t=arguments.length>0&&void 0!==arguments[0]?arguments[0]:" ";if(null===this.s){var e=this.m.map((function(t){return g(t)}));1===e[0]&&0===e[1]&&0===e[2]&&1===e[3]?this.s="translate("+e[4]+t+e[5]+")":this.s="matrix("+e.join(t)+")"}return this.s}}],[{key:"create",value:function(t){return t?Array.isArray(t)?f(this,v(t)):t instanceof this?t.clone():(new this).recomposeSelf(t.origin,t.rotate,t.skew,t.scale,t.translate):new this}}]),t}();function N(t,e,n){return t>=.5?n:e}function F(t,e,n){return 0===t||e===n?e:t*(n-e)+e}function C(t,e,n){var r=F(t,e,n);return r<=0?0:r}function L(t,e,n){var r=F(t,e,n);return r<=0?0:r>=1?1:r}function D(t,e,n){return 0===t?e:1===t?n:{x:F(t,e.x,n.x),y:F(t,e.y,n.y)}}function q(t,e,n){return 0===t?e:1===t?n:{x:C(t,e.x,n.x),y:C(t,e.y,n.y)}}function V(t,e,n){var r=function(t,e,n){return Math.round(F(t,e,n))}(t,e,n);return r<=0?0:r>=255?255:r}function z(t,e,n){return 0===t?e:1===t?n:{r:V(t,e.r,n.r),g:V(t,e.g,n.g),b:V(t,e.b,n.b),a:F(t,null==e.a?1:e.a,null==n.a?1:n.a)}}function Y(t,e,n){var r=e.length;if(r!==n.length)return N(t,e,n);for(var i=new Array(r),o=0;o<r;o++)i[o]=F(t,e[o],n[o]);return i}function G(t,e){for(var n=[],r=0;r<t;r++)n.push(e);return n}function U(t,e){if(--e<=0)return t;var n=(t=Object.assign([],t)).length;do{for(var r=0;r<n;r++)t.push(t[r])}while(--e>0);return t}var $,W=function(){function t(e){r(this,t),this.list=e,this.length=e.length}return o(t,[{key:"setAttribute",value:function(t,e){for(var n=this.list,r=0;r<this.length;r++)n[r].setAttribute(t,e)}},{key:"removeAttribute",value:function(t){for(var e=this.list,n=0;n<this.length;n++)e[n].removeAttribute(t)}},{key:"style",value:function(t,e){for(var n=this.list,r=0;r<this.length;r++)n[r].style[t]=e}}]),t}(),H=/-./g,Q=function(t,e){return e.toUpperCase()};function X(t){return"function"==typeof t?t:N}function J(t){return t?"function"==typeof t?t:Array.isArray(t)?function(t){var e=arguments.length>1&&void 0!==arguments[1]?arguments[1]:b;if(!Array.isArray(t))return e;switch(t.length){case 1:return _(t[0])||e;case 2:return _(t[0],t[1])||e;case 4:return w(t[0],t[1],t[2],t[3])||e}return e}(t,null):function(t,e){var n=arguments.length>2&&void 0!==arguments[2]?arguments[2]:b;switch(t){case"linear":return b;case"steps":return _(e.steps||1,e.jump||0)||n;case"bezier":case"cubic-bezier":return w(e.x1||0,e.y1||0,e.x2||0,e.y2||0)||n}return n}(t.type,t.value,null):null}function K(t,e,n){var r=arguments.length>3&&void 0!==arguments[3]&&arguments[3],i=e.length-1;if(t<=e[0].t)return r?[0,0,e[0].v]:e[0].v;if(t>=e[i].t)return r?[i,1,e[i].v]:e[i].v;var o,u=e[0],a=null;for(o=1;o<=i;o++){if(!(t>e[o].t)){a=e[o];break}u=e[o]}return null==a?r?[i,1,e[i].v]:e[i].v:u.t===a.t?r?[o,1,a.v]:a.v:(t=(t-u.t)/(a.t-u.t),u.e&&(t=u.e(t)),r?[o,t,n(t,u.v,a.v)]:n(t,u.v,a.v))}function Z(t,e){var n=arguments.length>2&&void 0!==arguments[2]?arguments[2]:null;return t&&t.length?"function"!=typeof e?null:("function"!=typeof n&&(n=null),function(r){var i=K(r,t,e);return null!=i&&n&&(i=n(i)),i}):null}function tt(t,e){return t.t-e.t}function et(t,e,r,i,o){var u,a="@"===r[0],s="#"===r[0],l=$[r],f=N;switch(a?(u=r.substr(1),r=u.replace(H,Q)):s&&(r=r.substr(1)),n(l)){case"function":if(f=l(i,o,K,J,r,a,e,t),s)return f;break;case"string":f=Z(i,X(l));break;case"object":if((f=Z(i,X(l.i),l.f))&&"function"==typeof l.u)return l.u(e,f,r,a,t)}return f?function(t,e,n){if(arguments.length>3&&void 0!==arguments[3]&&arguments[3])return t instanceof W?function(r){return t.style(e,n(r))}:function(r){return t.style[e]=n(r)};if(Array.isArray(e)){var r=e.length;return function(i){var o=n(i);if(null==o)for(var u=0;u<r;u++)t[u].removeAttribute(e);else for(var a=0;a<r;a++)t[a].setAttribute(e,o)}}return function(r){var i=n(r);null==i?t.removeAttribute(e):t.setAttribute(e,i)}}(e,r,f,a):null}function nt(t,e,r,i){if(!i||"object"!==n(i))return null;var o=null,u=null;return Array.isArray(i)?u=function(t){if(!t||!t.length)return null;for(var e=0;e<t.length;e++)t[e].e&&(t[e].e=J(t[e].e));return t.sort(tt)}(i):(u=i.keys,o=i.data||null),u?et(t,e,r,u,o):null}function rt(t,e,n){if(!n)return null;var r=[];for(var i in n)if(n.hasOwnProperty(i)){var o=nt(t,e,i,n[i]);o&&r.push(o)}return r.length?r:null}function it(t,e){if(!e.settings.duration||e.settings.duration<0)return null;var n,r,i,o,u,a=function(t,e){if(!e)return null;var n=[];if(Array.isArray(e))for(var r=e.length,i=0;i<r;i++){var o=e[i];if(2===o.length){var u=null;if("string"==typeof o[0])u=t.getElementById(o[0]);else if(Array.isArray(o[0])){u=[];for(var a=0;a<o[0].length;a++)if("string"==typeof o[0][a]){var s=t.getElementById(o[0][a]);s&&u.push(s)}u=u.length?1===u.length?u[0]:new W(u):null}if(u){var l=rt(t,u,o[1]);l&&(n=n.concat(l))}}}else for(var f in e)if(e.hasOwnProperty(f)){var c=t.getElementById(f);if(c){var h=rt(t,c,e[f]);h&&(n=n.concat(h))}}return n.length?n:null}(t,e.elements);return a?(n=a,r=e.settings,i=r.duration,o=n.length,u=null,function(t,e){var a=r.iterations||1/0,s=(r.alternate&&a%2==0)^r.direction>0?i:0,l=t%i,f=1+(t-l)/i;e*=r.direction,r.alternate&&f%2==0&&(e=-e);var c=!1;if(f>a)l=s,c=!0,-1===r.fill&&(l=r.direction>0?0:i);else if(e<0&&(l=i-l),l===u)return!1;u=l;for(var h=0;h<o;h++)n[h](l);return c}):null}function ot(t,e){if($=e,!t||!t.root||!Array.isArray(t.animations))return null;var n=function(t){for(var e=document.getElementsByTagName("svg"),n=0;n<e.length;n++)if(e[n].id===t.root&&!e[n].svgatorAnimation)return e[n].svgatorAnimation=!0,e[n];return null}(t);if(!n)return null;var r=t.animations.map((function(t){return it(n,t)})).filter((function(t){return!!t}));return r.length?{svg:n,animations:r,animationSettings:t.animationSettings,options:t.options||void 0}:null}function ut(t){return+("0x"+(t.replace(/[^0-9a-fA-F]+/g,"")||27))}function at(t,e,n){return!t||!n||e>t.length?t:t.substring(0,e)+at(t.substring(e+1),n,n)}function st(t){var e=arguments.length>1&&void 0!==arguments[1]?arguments[1]:27;return!t||t%e?t%e:st(t/e,e)}function lt(t,e,n){if(t&&t.length){var r=ut(n),i=ut(e),o=st(r)+5,u=at(t,st(r,5),o);return u=u.replace(/\x7c$/g,"==").replace(/\x2f$/g,"="),u=function(t,e,n){var r=+("0x"+t.substring(0,4));t=t.substring(4);for(var i=e%r+n%27,o=[],u=0;u<t.length;u+=2)if("|"!==t[u]){var a=+("0x"+t[u]+t[u+1])-i;o.push(a)}else{var s=+("0x"+t.substring(u+1,u+1+4))-i;u+=3,o.push(s)}return String.fromCharCode.apply(String,o)}(u=(u=atob(u)).replace(/[\x41-\x5A]/g,""),i,r),u=JSON.parse(u)}}var ft=[{key:"alternate",def:!1},{key:"fill",def:1},{key:"iterations",def:0},{key:"direction",def:1},{key:"speed",def:1},{key:"fps",def:100}],ct=function(){function t(e,n){var i=this,o=arguments.length>2&&void 0!==arguments[2]?arguments[2]:null;r(this,t),this._id=0,this._running=!1,this._rollingBack=!1,this._animations=e,this._settings=n,(!o||o<"2022-05-02")&&delete this._settings.speed,ft.forEach((function(t){i._settings[t.key]=i._settings[t.key]||t.def})),this.duration=n.duration,this.offset=n.offset||0,this.rollbackStartOffset=0}return o(t,[{key:"alternate",get:function(){return this._settings.alternate}},{key:"fill",get:function(){return this._settings.fill}},{key:"iterations",get:function(){return this._settings.iterations}},{key:"direction",get:function(){return this._settings.direction}},{key:"speed",get:function(){return this._settings.speed}},{key:"fps",get:function(){return this._settings.fps}},{key:"maxFiniteDuration",get:function(){return this.iterations>0?this.iterations*this.duration:this.duration}},{key:"_apply",value:function(t){for(var e=arguments.length>1&&void 0!==arguments[1]?arguments[1]:{},n=this._animations,r=n.length,i=0,o=0;o<r;o++)e[o]?i++:(e[o]=n[o](t,1),e[o]&&i++);return i}},{key:"_rollback",value:function(t){var e=this,n=1/0,r=null;this.rollbackStartOffset=t,this._rollingBack=!0,this._running=!0;this._id=window.requestAnimationFrame((function i(o){if(e._rollingBack){null==r&&(r=o);var u=Math.round(t-(o-r)*e.speed);if(u>e.duration&&n!==1/0){var a=!!e.alternate&&u/e.duration%2>1,s=u%e.duration;u=(s+=a?e.duration:0)||e.duration}var l=(e.fps?1e3/e.fps:0)*e.speed,f=Math.max(0,u);f<=n-l&&(e.offset=f,n=f,e._apply(f));var c=e.iterations>0&&-1===e.fill&&u>=e.maxFiniteDuration;(u<=0||e.offset<u||c)&&e.stop(),e._id=window.requestAnimationFrame(i)}}))}},{key:"_start",value:function(){var t=this,e=arguments.length>0&&void 0!==arguments[0]?arguments[0]:0,n=-1/0,r=null,i={};this._running=!0;var o=function o(u){null==r&&(r=u);var a=Math.round((u-r)*t.speed+e),s=(t.fps?1e3/t.fps:0)*t.speed;if(a>=n+s&&!t._rollingBack&&(t.offset=a,n=a,t._apply(a,i)===t._animations.length))return void t.pause(!0);t._id=window.requestAnimationFrame(o)};this._id=window.requestAnimationFrame(o)}},{key:"_pause",value:function(){this._id&&window.cancelAnimationFrame(this._id),this._running=!1}},{key:"play",value:function(){if(!this._running)return this._rollingBack?this._rollback(this.offset):this._start(this.offset)}},{key:"stop",value:function(){this._pause(),this.offset=0,this.rollbackStartOffset=0,this._rollingBack=!1,this._apply(0)}},{key:"reachedToEnd",value:function(){return this.iterations>0&&this.offset>=this.iterations*this.duration}},{key:"restart",value:function(){var t=arguments.length>0&&void 0!==arguments[0]&&arguments[0];this.stop(t),this.play(t)}},{key:"pause",value:function(){this._pause()}},{key:"reverse",value:function(){this.direction=-this.direction}}],[{key:"build",value:function(t,e){delete t.animationSettings,t.options=lt(t.options,t.root,"91c80d77"),t.animations.map((function(e){e.settings=lt(e.s,t.root,"91c80d77"),delete e.s,t.animationSettings||(t.animationSettings=e.settings)}));var n=t.version;if(!(t=ot(t,e)))return null;var r=t.options||{},i=new this(t.animations,t.animationSettings,n);return{el:t.svg,options:r,player:i}}},{key:"push",value:function(t){return this.build(t)}},{key:"init",value:function(){var t=this,e=window.__SVGATOR_PLAYER__&&window.__SVGATOR_PLAYER__["91c80d77"];Array.isArray(e)&&e.splice(0).forEach((function(e){return t.build(e)}))}}]),t}();!function(){for(var t=0,e=["ms","moz","webkit","o"],n=0;n<e.length&&!window.requestAnimationFrame;++n)window.requestAnimationFrame=window[e[n]+"RequestAnimationFrame"],window.cancelAnimationFrame=window[e[n]+"CancelAnimationFrame"]||window[e[n]+"CancelRequestAnimationFrame"];window.requestAnimationFrame||(window.requestAnimationFrame=function(e){var n=Date.now(),r=Math.max(0,16-(n-t)),i=window.setTimeout((function(){e(n+r)}),r);return t=n+r,i},window.cancelAnimationFrame=window.clearTimeout)}();var ht=function(t,e){var n=!1,r=null;return function(i){n&&clearTimeout(n),n=setTimeout((function(){return function(){for(var i=0,o=window.innerHeight,u=0,a=window.innerWidth,s=t.parentNode;s instanceof Element;){var l=window.getComputedStyle(s);if("visible"!==l.overflowY||"visible"!==l.overflowX){var f=s.getBoundingClientRect();"visible"!==l.overflowY&&(i=Math.max(i,f.top),o=Math.min(o,f.bottom)),"visible"!==l.overflowX&&(u=Math.max(u,f.left),a=Math.min(a,f.right))}if(s===s.parentNode)break;s=s.parentNode}n=!1;var c=t.getBoundingClientRect(),h=Math.min(c.height,Math.max(0,i-c.top)),v=Math.min(c.height,Math.max(0,c.bottom-o)),y=Math.min(c.width,Math.max(0,u-c.left)),d=Math.min(c.width,Math.max(0,c.right-a)),g=(c.height-h-v)/c.height,p=(c.width-y-d)/c.width,m=Math.round(g*p*100);null!==r&&r===m||(r=m,e(m))}()}),100)}},vt=function(){function t(e,n,i){r(this,t),n=Math.max(1,n||1),n=Math.min(n,100),this.el=e,this._handlers=[],this.onThresholdChange=i&&i.call?i:function(){},this.thresholdPercent=n||1,this.currentVisibility=null,this.visibilityCalculator=ht(e,this.onVisibilityUpdate.bind(this)),this.bindScrollWatchers(),this.visibilityCalculator()}return o(t,[{key:"bindScrollWatchers",value:function(){for(var t=this.el.parentNode;t&&(this._handlers.push({element:t,event:"scroll",handler:this.visibilityCalculator}),t.addEventListener("scroll",this.visibilityCalculator),t!==t.parentNode&&t!==document);)t=t.parentNode}},{key:"onVisibilityUpdate",value:function(t){var e=this.currentVisibility>=this.thresholdPercent,n=t>=this.thresholdPercent;if(null===this.currentVisibility||e!==n)return this.currentVisibility=t,void this.onThresholdChange(n);this.currentVisibility=t}},{key:"destruct",value:function(){this._handlers.forEach((function(t){t.element.removeEventListener(t.event,t.handler)}))}}]),t}();function yt(t){return g(t)+""}function dt(t){var e=arguments.length>1&&void 0!==arguments[1]?arguments[1]:" ";return t&&t.length?t.map(yt).join(e):""}function gt(t){return yt(t.x)+","+yt(t.y)}function pt(t){if(!t)return"transparent";if(null==t.a||t.a>=1){var e=function(t){return 1===(t=parseInt(t).toString(16)).length?"0"+t:t},n=function(t){return t.charAt(0)===t.charAt(1)},r=e(t.r),i=e(t.g),o=e(t.b);return n(r)&&n(i)&&n(o)&&(r=r.charAt(0),i=i.charAt(0),o=o.charAt(0)),"#"+r+i+o}return"rgba("+t.r+","+t.g+","+t.b+","+t.a+")"}function mt(t){return t?"url(#"+t+")":"none"}var bt={f:null,i:q,u:function(t,e){return function(n){var r=e(n);t.setAttribute("rx",yt(r.x)),t.setAttribute("ry",yt(r.y))}}},kt={f:null,i:function(t,e,n){return 0===t?e:1===t?n:{width:C(t,e.width,n.width),height:C(t,e.height,n.height)}},u:function(t,e){return function(n){var r=e(n);t.setAttribute("width",yt(r.width)),t.setAttribute("height",yt(r.height))}}};Object.freeze({M:2,L:2,Z:0,H:1,V:1,C:6,Q:4,T:2,S:4,A:7});var wt={},xt=null;function At(t){var e=function(){if(xt)return xt;if("object"!==("undefined"==typeof document?"undefined":n(document))||!document.createElementNS)return{};var t=document.createElementNS("http://www.w3.org/2000/svg","svg");return t&&t.style?(t.style.position="absolute",t.style.opacity="0.01",t.style.zIndex="-9999",t.style.left="-9999px",t.style.width="1px",t.style.height="1px",xt={svg:t}):{}}().svg;if(!e)return function(t){return null};var r=document.createElementNS(e.namespaceURI,"path");r.setAttributeNS(null,"d",t),r.setAttributeNS(null,"fill","none"),r.setAttributeNS(null,"stroke","none"),e.appendChild(r);var i=r.getTotalLength();return function(t){var e=r.getPointAtLength(i*t);return{x:e.x,y:e.y}}}function _t(t){return wt[t]?wt[t]:wt[t]=At(t)}function Ot(t,e,n,r){if(!t||!r)return!1;var i=["M",t.x,t.y];if(e&&n&&(i.push("C"),i.push(e.x),i.push(e.y),i.push(n.x),i.push(n.y)),e?!n:n){var o=e||n;i.push("Q"),i.push(o.x),i.push(o.y)}return e||n||i.push("L"),i.push(r.x),i.push(r.y),i.join(" ")}function St(t,e,n,r){var i=arguments.length>4&&void 0!==arguments[4]?arguments[4]:1,o=Ot(t,e,n,r),u=_t(o);try{return u(i)}catch(t){return null}}function Et(t,e,n){return t+(e-t)*n}function Pt(t,e,n){var r=arguments.length>3&&void 0!==arguments[3]&&arguments[3],i={x:Et(t.x,e.x,n),y:Et(t.y,e.y,n)};return r&&(i.a=Mt(t,e)),i}function Mt(t,e){return Math.atan2(e.y-t.y,e.x-t.x)}function jt(t,e,n,r){var i=1-r;return i*i*t+2*i*r*e+r*r*n}function Bt(t,e,n,r){return 2*(1-r)*(e-t)+2*r*(n-e)}function Tt(t,e,n,r){var i=arguments.length>4&&void 0!==arguments[4]&&arguments[4],o=St(t,e,null,n,r);return o||(o={x:jt(t.x,e.x,n.x,r),y:jt(t.y,e.y,n.y,r)}),i&&(o.a=It(t,e,n,r)),o}function It(t,e,n,r){return Math.atan2(Bt(t.y,e.y,n.y,r),Bt(t.x,e.x,n.x,r))}function Rt(t,e,n,r,i){var o=i*i;return i*o*(r-t+3*(e-n))+3*o*(t+n-2*e)+3*i*(e-t)+t}function Nt(t,e,n,r,i){var o=1-i;return 3*(o*o*(e-t)+2*o*i*(n-e)+i*i*(r-n))}function Ft(t,e,n,r,i){var o=arguments.length>5&&void 0!==arguments[5]&&arguments[5],u=St(t,e,n,r,i);return u||(u={x:Rt(t.x,e.x,n.x,r.x,i),y:Rt(t.y,e.y,n.y,r.y,i)}),o&&(u.a=Ct(t,e,n,r,i)),u}function Ct(t,e,n,r,i){return Math.atan2(Nt(t.y,e.y,n.y,r.y,i),Nt(t.x,e.x,n.x,r.x,i))}function Lt(t,e,n){var r=arguments.length>3&&void 0!==arguments[3]&&arguments[3];if(qt(e)){if(Vt(n))return Tt(e,n.start,n,t,r)}else if(qt(n)){if(zt(e))return Tt(e,e.end,n,t,r)}else{if(zt(e))return Vt(n)?Ft(e,e.end,n.start,n,t,r):Tt(e,e.end,n,t,r);if(Vt(n))return Tt(e,n.start,n,t,r)}return Pt(e,n,t,r)}function Dt(t,e,n){var r=Lt(t,e,n,!0);return r.a=function(t){return arguments.length>1&&void 0!==arguments[1]&&arguments[1]?t+Math.PI:t}(r.a)/m,r}function qt(t){return!t.type||"corner"===t.type}function Vt(t){return null!=t.start&&!qt(t)}function zt(t){return null!=t.end&&!qt(t)}var Yt=new R;var Gt={f:function(t){return t?t.join(" "):""},i:function(t,e,r){if(0===t)return e;if(1===t)return r;var i=e.length;if(i!==r.length)return N(t,e,r);for(var o,u=new Array(i),a=0;a<i;a++){if((o=n(e[a]))!==n(r[a]))return N(t,e,r);if("number"===o)u[a]=F(t,e[a],r[a]);else{if(e[a]!==r[a])return N(t,e,r);u[a]=e[a]}}return u}},Ut={f:null,i:Y,u:function(t,e){return function(n){var r=e(n);t.setAttribute("x1",yt(r[0])),t.setAttribute("y1",yt(r[1])),t.setAttribute("x2",yt(r[2])),t.setAttribute("y2",yt(r[3]))}}},$t={f:yt,i:F},Wt={f:yt,i:L},Ht={f:function(t){var e=arguments.length>1&&void 0!==arguments[1]?arguments[1]:" ";return t&&t.length>0&&(t=t.map((function(t){return g(t,4)}))),dt(t,e)},i:function(t,e,n){var r,i,o,u=e.length,a=n.length;if(u!==a)if(0===u)e=G(u=a,0);else if(0===a)a=u,n=G(u,0);else{var s=(o=(r=u)*(i=a)/function(t,e){for(var n;e;)n=e,e=t%e,t=n;return t||1}(r,i))<0?-o:o;e=U(e,Math.floor(s/u)),n=U(n,Math.floor(s/a)),u=a=s}for(var l=[],f=0;f<u;f++)l.push(g(C(t,e[f],n[f])));return l}};function Qt(t,e,n){return t.map((function(t){return function(t,e,n){var r=t.v;if(!r||"g"!==r.t||r.s||!r.v||!r.r)return t;var i=n.getElementById(r.r),o=i&&i.querySelectorAll("stop")||[];return r.s=r.v.map((function(t,e){var n=o[e]&&o[e].getAttribute("offset");return{c:t,o:n=g(parseInt(n)/100)}})),delete r.v,t}(t,0,n)}))}var Xt={gt:"gradientTransform",c:{x:"cx",y:"cy"},rd:"r",f:{x:"x1",y:"y1"},to:{x:"x2",y:"y2"}};function Jt(t,e,r,i,o,u,a,s){return Qt(t,0,s),e=function(t,e,n){for(var r,i,o,u=t.length-1,a={},s=0;s<=u;s++)(r=t[s]).e&&(r.e=e(r.e)),r.v&&"g"===(i=r.v).t&&i.r&&(o=n.getElementById(i.r))&&(a[i.r]={e:o,s:o.querySelectorAll("stop")});return a}(t,i,s),function(i){var o=r(i,t,Kt);if(!o)return"none";if("c"===o.t)return pt(o.v);if("g"===o.t){if(!e[o.r])return mt(o.r);var u=e[o.r];return function(t,e){for(var n=t.s,r=n.length;r<e.length;r++){var i=n[n.length-1].cloneNode();i.id=ee(i.id),t.e.appendChild(i),n=t.s=t.e.querySelectorAll("stop")}for(var o=0,u=n.length,a=e.length-1;o<u;o++)n[o].setAttribute("stop-color",pt(e[Math.min(o,a)].c)),n[o].setAttribute("offset",e[Math.min(o,a)].o)}(u,o.s),Object.keys(Xt).forEach((function(t){if(void 0!==o[t])if("object"!==n(Xt[t])){var e,r="gt"===t?(e=o[t],Array.isArray(e)?"matrix("+e.join(" ")+")":""):o[t],i=Xt[t];u.e.setAttribute(i,r)}else Object.keys(Xt[t]).forEach((function(e){if(void 0!==o[t][e]){var n=o[t][e],r=Xt[t][e];u.e.setAttribute(r,n)}}))})),mt(o.r)}return"none"}}function Kt(t,n,r){if(0===t)return n;if(1===t)return r;if(n&&r){var i=n.t;if(i===r.t)switch(n.t){case"c":return{t:i,v:z(t,n.v,r.v)};case"g":if(n.r===r.r){var o={t:i,s:Zt(t,n.s,r.s),r:n.r};return n.gt&&r.gt&&(o.gt=Y(t,n.gt,r.gt)),n.c?(o.c=D(t,n.c,r.c),o.rd=C(t,n.rd,r.rd)):n.f&&(o.f=D(t,n.f,r.f),o.to=D(t,n.to,r.to)),o}}if("c"===n.t&&"g"===r.t||"c"===r.t&&"g"===n.t){var u="c"===n.t?n:r,a="g"===n.t?e({},n):e({},r),s=a.s.map((function(t){return{c:u.v,o:t.o}}));return a.s="c"===n.t?Zt(t,s,a.s):Zt(t,a.s,s),a}}return N(t,n,r)}function Zt(t,e,n){if(e.length===n.length)return e.map((function(e,r){return te(t,e,n[r])}));for(var r=Math.max(e.length,n.length),i=[],o=0;o<r;o++){var u=te(t,e[Math.min(o,e.length-1)],n[Math.min(o,n.length-1)]);i.push(u)}return i}function te(t,e,n){return{o:L(t,e.o,n.o||0),c:z(t,e.c,n.c||{})}}function ee(t){return t.replace(/-fill-([0-9]+)$/,(function(t,e){return"-fill-"+(+e+1)}))}var ne={blur:q,brightness:C,contrast:C,"drop-shadow":function(t,e,n){return 0===t?e:1===t?n:{blur:q(t,e.blur,n.blur),offset:D(t,e.offset,n.offset),color:z(t,e.color,n.color)}},grayscale:C,"hue-rotate":F,invert:C,opacity:C,saturate:C,sepia:C};function re(t,e,n){if(0===t)return e;if(1===t)return n;var r=e.length;if(r!==n.length)return N(t,e,n);for(var i,o=[],u=0;u<r;u++){if(e[u].type!==n[u].type)return e;if(!(i=ne[e[u].type]))return N(t,e,n);o.push({type:e.type,value:i(t,e[u].value,n[u].value)})}return o}var ie={blur:function(t){return t?function(e){t.setAttribute("stdDeviation",gt(e))}:null},brightness:function(t,e,n){return(t=ue(n,e))?function(e){e=yt(e),t.map((function(t){return t.setAttribute("slope",e)}))}:null},contrast:function(t,e,n){return(t=ue(n,e))?function(e){var n=yt((1-e)/2);e=yt(e),t.map((function(t){t.setAttribute("slope",e),t.setAttribute("intercept",n)}))}:null},"drop-shadow":function(t,e,n){var r=n.getElementById(e+"-blur");if(!r)return null;var i=n.getElementById(e+"-offset");if(!i)return null;var o=n.getElementById(e+"-flood");return o?function(t){r.setAttribute("stdDeviation",gt(t.blur)),i.setAttribute("dx",yt(t.offset.x)),i.setAttribute("dy",yt(t.offset.y)),o.setAttribute("flood-color",pt(t.color))}:null},grayscale:function(t){return t?function(e){t.setAttribute("values",dt(function(t){return[.2126+.7874*(t=1-t),.7152-.7152*t,.0722-.0722*t,0,0,.2126-.2126*t,.7152+.2848*t,.0722-.0722*t,0,0,.2126-.2126*t,.7152-.7152*t,.0722+.9278*t,0,0,0,0,0,1,0]}(e)))}:null},"hue-rotate":function(t){return t?function(e){return t.setAttribute("values",yt(e))}:null},invert:function(t,e,n){return(t=ue(n,e))?function(e){e=yt(e)+" "+yt(1-e),t.map((function(t){return t.setAttribute("tableValues",e)}))}:null},opacity:function(t,e,n){return(t=n.getElementById(e+"-A"))?function(e){return t.setAttribute("tableValues","0 "+yt(e))}:null},saturate:function(t){return t?function(e){return t.setAttribute("values",yt(e))}:null},sepia:function(t){return t?function(e){return t.setAttribute("values",dt(function(t){return[.393+.607*(t=1-t),.769-.769*t,.189-.189*t,0,0,.349-.349*t,.686+.314*t,.168-.168*t,0,0,.272-.272*t,.534-.534*t,.131+.869*t,0,0,0,0,0,1,0]}(e)))}:null}};var oe=["R","G","B"];function ue(t,e){var n=oe.map((function(n){return t.getElementById(e+"-"+n)||null}));return-1!==n.indexOf(null)?null:n}var ae={fill:Jt,"fill-opacity":Wt,stroke:Jt,"stroke-opacity":Wt,"stroke-width":$t,"stroke-dashoffset":{f:yt,i:F},"stroke-dasharray":Ht,opacity:Wt,transform:function(t,e,r,i){if(!(t=function(t,e){if(!t||"object"!==n(t))return null;var r=!1;for(var i in t)t.hasOwnProperty(i)&&(t[i]&&t[i].length?(t[i].forEach((function(t){t.e&&(t.e=e(t.e))})),r=!0):delete t[i]);return r?t:null}(t,i)))return null;var o=function(n,i,o){var u=arguments.length>3&&void 0!==arguments[3]?arguments[3]:null;return t[n]?r(i,t[n],o):e&&e[n]?e[n]:u};return e&&e.a&&t.o?function(e){var n=r(e,t.o,Dt);return Yt.recomposeSelf(n,o("r",e,F,0)+n.a,o("k",e,D),o("s",e,D),o("t",e,D)).toString()}:function(t){return Yt.recomposeSelf(o("o",t,Lt,null),o("r",t,F,0),o("k",t,D),o("s",t,D),o("t",t,D)).toString()}},"#filter":function(t,e,n,r,i,o,u,a){if(!e.items||!t||!t.length)return null;var s=function(t,e){var n=(t=t.map((function(t){return t&&ie[t[0]]?(e.getElementById(t[1]),ie[t[0]](e.getElementById(t[1]),t[1],e)):null}))).length;return function(e){for(var r=0;r<n;r++)t[r]&&t[r](e[r].value)}}(e.items,a);return s?(t=function(t,e){return t.map((function(t){return t.e=e(t.e),t}))}(t,r),function(e){s(n(e,t,re))}):null},"#line":Ut,points:{f:dt,i:Y},d:Gt,r:$t,"#size":kt,"#radius":bt,_:function(t,e){if(Array.isArray(t))for(var n=0;n<t.length;n++)this[t[n]]=e;else this[t]=e}},se={currentTime:"offset",duration:"duration",hasEnded:function(){return this.reachedToEnd()},isAlternate:"alternate",isPlaying:"_running",isRollingBack:"_rollingBack",state:function(t,e){return e.isPlaying?e.isRollingBack?"rollback":"playing":e.hasEnded?"ended":"paused"},totalTime:"maxFiniteDuration",iterations:"iterations",direction:"direction",fill:"fill",isReversed:function(t,e){return-1===e.direction},isBackwards:function(t,e){return-1===e.fill},isInfinite:function(t,e){return 0===e.iterations},speed:"speed",fps:"fps"},le={destruct:"destruct",pause:"pause",play:function(t,e){return fe(t,e.hasEnded?"restart":"play",e)},restart:"restart",reverse:function(t,e){return fe(t,"reverse",e,[!0])},seek:"seek",seekBy:"seekBy",seekTo:"seekTo",stop:"stop",toggle:"toggle",togglePlay:"toggle",set:"set"};function fe(t,e,n){var r=arguments.length>3&&void 0!==arguments[3]?arguments[3]:[];return function(){var i,o=Array.prototype.slice.call(arguments);return o.unshift.apply(o,v(r)),(i=t[e]).call.apply(i,[t].concat(v(o))),n}}var ce=function t(e){r(this,t);var n={},i=["on","off"],o={get:function(t,e,r){return se[e]?"function"==typeof se[e]?se[e].call(t,t,r):t[se[e]]:le[e]?"function"==typeof le[e]?le[e].call(t,t,r):fe(t,le[e],r):-1!==i.indexOf(e)?n[e]:"ready"===e?function(t){return t&&t.call(r,r),r}:void 0},set:function(t,e,r){return-1!==i.indexOf(e)&&(n[e]=r)},ownKeys:function(t){return Object.keys(se)},has:function(t,e){return void 0!==se[e]}};if("function"==typeof Proxy)return new Proxy(e,o);var u=Object.keys(se).concat(Object.keys(le)).concat(i),a={};return u.forEach((function(t){var n={enumerable:!1,configurable:!1,get:function(){return o.get(e,t,a)}};-1!==i.indexOf(t)&&(n.set=function(n){return o.set(e,t,n)}),Object.defineProperty(a,t,n)})),a};function he(t){t||(t=this);var e={};this.on=function(t,n){var r=arguments.length>2&&void 0!==arguments[2]&&arguments[2];return"function"==typeof n&&(t.split(/[, ]+/g).forEach((function(t){return e[t]=e[t]||[],r?e[t].unshift(n):e[t].push(n)})),!0)},this.off=function(t,n){for(var r in e)if(e.hasOwnProperty(r)&&r.substr(0,t.length)===t)if(n)for(var i=0;i<e[r].length;i++)e[r][i]===n&&(e[r][i]=null);else e[r]=null},this.trigger=function(){var n,r=Array.prototype.slice.call(arguments),i=r[0],o=r.slice(1);t:for(var u in e)if(e.hasOwnProperty(u)&&e[u]&&(u===i||u.substr(0,i.length+1)===i+"."))for(var a=0;a<(e[u]||[]).length;a++)if(e[u][a]&&!1===(n=e[u][a].apply(t,o)))break t;return n}}var ve=!0,ye=["iterations","speed","fps","direction","fill","alternate"],de=function(t){!function(t,e){if("function"!=typeof e&&null!==e)throw new TypeError("Super expression must either be null or a function");t.prototype=Object.create(e&&e.prototype,{constructor:{value:t,writable:!0,configurable:!0}}),e&&s(t,e)}(u,t);var e,n,i=(e=u,n=l(),function(){var t,r=a(e);if(n){var i=a(this).constructor;t=Reflect.construct(r,arguments,i)}else t=r.apply(this,arguments);return c(this,t)});function u(t,e){var n,o=arguments.length>2&&void 0!==arguments[2]?arguments[2]:null;return r(this,u),(n=i.call(this,t,e,o))._handlers=[],n}return o(u,[{key:"_adjustOffset",value:function(){var t=arguments.length>0&&void 0!==arguments[0]&&arguments[0],e=this.alternate?2*this.duration:this.duration;if(t){if(!this._rollingBack&&0===this.offset)return void(this.offset=e);this._rollingBack&&(this.offset,this.maxFiniteDuration)}!this._rollingBack||this.rollbackStartOffset<=this.duration?0!==this.iterations&&(this.offset=Math.min(this.offset,this.maxFiniteDuration)):(this.offset=this.rollbackStartOffset-(this.rollbackStartOffset-this.offset)%e,this.rollbackStartOffset=0)}},{key:"reverse",value:function(){var t=arguments.length>0&&void 0!==arguments[0]&&arguments[0];if(!this._running)return this._adjustOffset(t),this._rollingBack=!this._rollingBack,t&&this.play(!1),void this.trigger("reverse",this.offset);this.pause(!1,!1),this._adjustOffset(),this._rollingBack=!this._rollingBack,this.play(!1),this.trigger("reverse",this.offset)}},{key:"play",value:function(){var t=arguments.length>0&&void 0!==arguments[0]?arguments[0]:ve,e=h(a(u.prototype),"play",this).call(this);return t===ve&&this.trigger("play",this.offset),e}},{key:"pause",value:function(){var t=arguments.length>0&&void 0!==arguments[0]&&arguments[0],e=arguments.length>1&&void 0!==arguments[1]?arguments[1]:ve,n=h(a(u.prototype),"pause",this).call(this);return e===ve&&this.trigger(t?"end":"pause",this.offset),n}},{key:"restart",value:function(){var t=h(a(u.prototype),"restart",this).call(this,!1);return this.trigger("restart",this.offset),t}},{key:"stop",value:function(){var t=arguments.length>0&&void 0!==arguments[0]?arguments[0]:ve,e=h(a(u.prototype),"stop",this).call(this);return t===ve&&this.trigger("stop",this.offset),e}},{key:"_apply",value:function(t){var e=this,n=arguments.length>2&&void 0!==arguments[2]?arguments[2]:ve,r=h(a(u.prototype),"_apply",this).call(this,t);if(n===ve){var i=function(){return e.trigger("keyframe",t)};window.requestAnimationFrame(i)}return r}},{key:"seekTo",value:function(t){var e,n,r,i=this._running;i&&this.pause(!1,!1),this.offset=this.iterations>0?(e=t,n=0,r=this.maxFiniteDuration,e<n?n:e>r?r:e):Math.max(t,0),this._apply(this.offset),i&&this.play(!1)}},{key:"seek",value:function(t){return this.seekTo(Math.round(t/100*this.maxFiniteDuration))}},{key:"seekBy",value:function(t){return this.seekTo(this.offset+t)}},{key:"toggle",value:function(){return this._running?this.pause():this.reachedToEnd()?this.restart():this.play()}},{key:"set",value:function(t,e){if(ye.includes(t)){var n=this._running;n&&this.pause(!1,!1),this._settings[t]=e,n?this.play(!1):this._apply(this.offset,{},!1)}}},{key:"destruct",value:function(){var t=this;this.stop(),this._handlers.forEach((function(t){t.element?t.element.removeEventListener(t.event,t.handler):t.callback&&t.callback.call&&t.callback.call()}));var e=function(){},n=Object.getOwnPropertyNames(Object.getPrototypeOf(this));n.push.apply(n,v(Object.getOwnPropertyNames(this))),n.forEach((function(n){"function"==typeof t[n]?t[n]=e:delete t[n]}))}}],[{key:"build",value:function(t){var e=h(a(u),"build",this).call(this,t,ae);if(!e)return null;var n=e.el,r=e.options,i=e.player,o=new ce(i),s=new he(o);o.on=s.on,o.off=s.off,i.trigger=s.trigger;var l=n.svgatorPlayer&&n.svgatorPlayer.ready&&n.svgatorPlayer.ready.call&&n.svgatorPlayer.ready.call();n.svgatorPlayer=o,function(t,e,n){if("click"===n.start){var r=function(){switch(n.click){case"freeze":return!t._running&&t.reachedToEnd()?t.restart():t.toggle();case"restart":return t.offset>0?t.restart():t.play();case"reverse":return t._running?t.reverse():t.reachedToEnd()?1===t.fill?t.reverse(!0):t.restart():t.play();case"none":default:if(t._running)return;return t.reachedToEnd()?t.restart():t.play()}};return t._handlers.push({element:e,event:"click",handler:r}),void e.addEventListener("click",r)}if("hover"===n.start){var i=function(){return t.reachedToEnd()?t.restart():t._rollingBack?t.reverse():t.play()};t._handlers.push({element:e,event:"mouseenter",handler:i}),e.addEventListener("mouseenter",i);var o=function(){switch(n.hover){case"freeze":return t.pause();case"reset":return t.stop();case"reverse":if(t.reverse(),t._running)return;return t.play();case"none":default:return}};return t._handlers.push({element:e,event:"mouseleave",handler:o}),void e.addEventListener("mouseleave",o)}if("scroll"===n.start){var u=new vt(e,n.scroll||25,(function(e){e?t.reachedToEnd()?t.restart():t.play():t.pause()}));return void t._handlers.push({callback:function(){return u.destruct()}})}if("programmatic"===n.start)return;t.play()}(i,n,r),function(t,e,n){var r;"function"==typeof Event?r=new Event("ready"):(r=document.createEvent("Event")).initEvent("ready",!0,!0);if(t.dispatchEvent(r),!n||!n.length)return;n.forEach((function(t){return e.ready(t)}))}(n,n.svgatorPlayer,l)}}]),u}(ct);return de.init(),de}));
(function(s,i,o,w,a,b){(a=document.getElementById(i.root)).svgatorPlayer={ready:(function(a){b=[];return function(c){return c?(b.push(c),a.svgatorPlayer):b}})(a)};w[o]=w[o]||{};w[o][s]=w[o][s]||[];w[o][s].push(i);})('91c80d77',{"root":"esAHKxE2rhp1","version":"2022-05-04","animations":[{"elements":{"esAHKxE2rhp3":{"transform":{"data":{"t":{"x":-767.959961,"y":-854.90506}},"keys":{"o":[{"t":0,"v":{"x":767.959961,"y":854.90506,"type":"corner"},"e":[0.445,0.05,0.55,0.95]},{"t":1500,"v":{"x":733.45506,"y":719.736175,"type":"corner"},"e":[0.445,0.05,0.55,0.95]},{"t":3000,"v":{"x":767.959961,"y":854.90506,"type":"corner"}}],"r":[{"t":0,"v":0,"e":[0.445,0.05,0.55,0.95]},{"t":1500,"v":6.866916,"e":[0.445,0.05,0.55,0.95]},{"t":3000,"v":0}]}}},"esAHKxE2rhp48":{"transform":{"data":{"t":{"x":-234.922989,"y":-258.23587}},"keys":{"o":[{"t":0,"v":{"x":251.033358,"y":241.944029,"type":"corner"},"e":[0.445,0.05,0.55,0.95]},{"t":1500,"v":{"x":203.990985,"y":414.612267,"type":"corner"},"e":[0.445,0.05,0.55,0.95]},{"t":3000,"v":{"x":251.033358,"y":241.944029,"type":"corner"}}],"r":[{"t":0,"v":3.339736,"e":[0.445,0.05,0.55,0.95]},{"t":1500,"v":-18.085091,"e":[0.445,0.05,0.55,0.95]},{"t":3000,"v":3.339736}],"s":[{"t":0,"v":{"x":1,"y":1},"e":[0.445,0.05,0.55,0.95]},{"t":1500,"v":{"x":0.997236,"y":0.85},"e":[0.445,0.05,0.55,0.95]},{"t":3000,"v":{"x":1,"y":1}}]}}},"esAHKxE2rhp49":{"transform":{"data":{"t":{"x":-303.658775,"y":-258.21826}},"keys":{"o":[{"t":0,"v":{"x":303.658775,"y":258.21826,"type":"corner"},"e":[0.445,0.05,0.55,0.95]},{"t":1500,"v":{"x":298.246043,"y":308.702358,"type":"corner"},"e":[0.445,0.05,0.55,0.95]},{"t":3000,"v":{"x":303.658775,"y":258.21826,"type":"corner"}}],"r":[{"t":0,"v":0,"e":[0.445,0.05,0.55,0.95]},{"t":1500,"v":-10.662801,"e":[0.445,0.05,0.55,0.95]},{"t":3000,"v":0}]}}},"esAHKxE2rhp51":{"transform":{"data":{"t":{"x":-1283.179382,"y":-213.785003}},"keys":{"o":[{"t":0,"v":{"x":1262.218768,"y":180.89905,"type":"corner"},"e":[0.445,0.05,0.55,0.95]},{"t":1500,"v":{"x":1276.814042,"y":299.876909,"type":"corner"},"e":[0.445,0.05,0.55,0.95]},{"t":3000,"v":{"x":1262.218768,"y":180.89905,"type":"corner"}}],"r":[{"t":0,"v":-4.147377,"e":[0.445,0.05,0.55,0.95]},{"t":1500,"v":5.500002,"e":[0.445,0.05,0.55,0.95]},{"t":3000,"v":-4.147377}],"s":[{"t":0,"v":{"x":1,"y":1},"e":[0.445,0.05,0.55,0.95]},{"t":1500,"v":{"x":0.956109,"y":0.85},"e":[0.445,0.05,0.55,0.95]},{"t":3000,"v":{"x":1,"y":1}}]}}},"esAHKxE2rhp53":{"transform":{"data":{"t":{"x":-1146.208605,"y":-214.842087}},"keys":{"o":[{"t":0,"v":{"x":1146.208605,"y":214.842087,"type":"corner"},"e":[0.445,0.05,0.55,0.95]},{"t":1500,"v":{"x":1154.129975,"y":266.81876,"type":"corner"},"e":[0.445,0.05,0.55,0.95]},{"t":3000,"v":{"x":1146.208605,"y":214.842087,"type":"corner"}}],"r":[{"t":0,"v":0,"e":[0.445,0.05,0.55,0.95]},{"t":1500,"v":8.037072,"e":[0.445,0.05,0.55,0.95]},{"t":3000,"v":0}]}}}},"s":"MDQA1ZGRhODFjMX2Q0ZDFjMGQzVYzhDY2VjZDgTxOTk5MzhmOGKY4ZjhiODFjMB2M4TGQxYzRjXMmQzYzhTY2VGHY2RCODE5OTIkwOGI4MWM4ZWDNPYzRkMWMwRZDNXYzhjZVFWjZGQyODE5OTBkyRjhiODFjNKUtjOGNiY2I4DMTk5OTA4YjgKxYzBjYmQzYzMRkMVhJY2RjMMGQzYzQ4MTk5TYzVjMGNiZDJIZYzQ4YjgxZDBJMY2ZjNGM0YAzM4MTk5TzkwJOGI4MWM1SGNMmZDJLODE5OTMkwOGY4ZmRj"}],"options":"MDAAxMDgyMjk3YTTdiNjg3OTdiKMjlPNDFMMjkV3Mzc2Njg2YjJI5ODQ/"},'__SVGATOR_PLAYER__',window)
]]></script>
</svg>
