<svg xmlns="http://www.w3.org/2000/svg" shape-rendering="geometricPrecision" viewBox="0 0 1100 1020" xmlns:v="https://vecta.io/nano"><style><![CDATA[#A{animation:eZrUgsTvuEo101_to__to 4000ms linear 1 normal forwards}#B{animation:eZrUgsTvuEo101_ts__ts 4000ms linear 1 normal forwards}#C{animation:eZrUgsTvuEo101__fl 4000ms linear 1 normal forwards}@keyframes eZrUgsTvuEo21_to__to{0%{transform:translate(526.15px,1238.24px)}12.5%{transform:translate(526.15px,1238.24px);animation-timing-function:cubic-bezier(.445,.05,.55,.95)}62.5%{transform:translate(502.15076px,1238.24px);animation-timing-function:cubic-bezier(.445,.05,.55,.95)}to{transform:translate(520.15019px,1238.24px)}} @keyframes eZrUgsTvuEo21_tr__tr{0%{transform:rotate(-2.988127deg)}12.5%{transform:rotate(-2.988127deg);animation-timing-function:cubic-bezier(.445,.05,.55,.95)}62.5%{transform:rotate(3.026647deg);animation-timing-function:cubic-bezier(.445,.05,.55,.95)}to{transform:rotate(-1.484433deg)}} @keyframes eZrUgsTvuEo22_to__to{0%{transform:translate(384.600006px,1241.764984px)}12.5%{transform:translate(384.600006px,1241.764984px);animation-timing-function:cubic-bezier(.445,.05,.55,.95)}62.5%{transform:translate(389.329031px,1236.507959px);animation-timing-function:cubic-bezier(.445,.05,.55,.95)}to{transform:translate(385.782262px,1240.450728px)}} @keyframes eZrUgsTvuEo22_tr__tr{0%,to{transform:rotate(0deg)}12.5%,62.5%{transform:rotate(0deg);animation-timing-function:cubic-bezier(.445,.05,.55,.95)}} @keyframes eZrUgsTvuEo28_to__to{0%{transform:translate(650.580002px,1241.764984px)}12.5%{transform:translate(650.580002px,1241.764984px);animation-timing-function:cubic-bezier(.445,.05,.55,.95)}62.5%{transform:translate(655.155222px,1252.538439px);animation-timing-function:cubic-bezier(.445,.05,.55,.95)}to{transform:translate(651.723807px,1244.458348px)}} @keyframes eZrUgsTvuEo28_tr__tr{0%,to{transform:rotate(0deg)}12.5%,62.5%{transform:rotate(0deg);animation-timing-function:cubic-bezier(.445,.05,.55,.95)}} @keyframes eZrUgsTvuEo101_to__to{0%,87.5%,to{transform:translate(517.589984px,520.890015px)}12.5%{transform:translate(517.589984px,520.890015px);animation-timing-function:cubic-bezier(.445,.05,.55,.95)}50%{transform:translate(517.511354px,492.027946px);animation-timing-function:cubic-bezier(.445,.05,.55,.95)}} @keyframes eZrUgsTvuEo101_ts__ts{0%,87.5%,to{transform:scale(1,1)}12.5%{transform:scale(1,1);animation-timing-function:cubic-bezier(.445,.05,.55,.95)}50%{transform:scale(.920684,1);animation-timing-function:cubic-bezier(.445,.05,.55,.95)}} @keyframes eZrUgsTvuEo101__fl{0%,72.5%,to{filter:contrast(100%)}25%{filter:contrast(100%);animation-timing-function:cubic-bezier(.445,.05,.55,.95)}37.5%{filter:contrast(185%);animation-timing-function:cubic-bezier(.445,.05,.55,.95)}62.5%{filter:contrast(180%);animation-timing-function:cubic-bezier(.445,.05,.55,.95)}} @keyframes eZrUgsTvuEo218_c_o{0%,87.5%,to{opacity:0}12.5%,37.5%,62.5%{opacity:0;animation-timing-function:cubic-bezier(.445,.05,.55,.95)}50%{opacity:1;animation-timing-function:cubic-bezier(.445,.05,.55,.95)}}.B{fill:gray}.C{fill:#666}.D{fill:#999}.E{fill:#b3b3b3}.F{fill:#4b4b4b}.G{fill:#969696}.H{fill:#bebebe}]]></style><g transform="translate(18)"><g id="A" transform="translate(518 521)"><g id="B"><g id="C" filter="contrast(100%)" transform="translate(-518 -521)"><path d="m49 848 88-178a127 127 0 0 0-15-185s160-187 171-215l3-11h443l3 11c11 28 171 215 171 215a127 127 0 0 0-15 185l152 230" class="F"/><path d="M990 774h-68l-58-59c-60-62-59-164 1-224l-30-33c-47-53-136-153-167-196h71l3 11c6 14 49 68 90 118l81 97a127 127 0 0 0-15 185Z" class="B"/><path d="M1012 803c-32 5-19 26-54 27l-86-125a159 159 0 0 1 41-217 127 127 0 0 0-15 185Z" class="C"/><path d="m913 488-4-23S750 315 677 148l5 147Z" class="G"/><path d="m45 774 52 13 74-72c60-62 59-164-1-224l30-33c47-53 136-153 167-196h-71l-3 11c-6 14-48 68-90 118l-81 97a127 127 0 0 1 15 185Z" class="B"/><path d="m14 810 45 24 104-129c48-72 29-168-41-217a127 127 0 0 1 15 185Z" class="C"/><path d="m122 488 4-23s159-150 232-317l-5 147Z" class="G"/><path d="M514 154v17l-9 4a454 454 0 0 0-9 4l-4 2-5 2-7 4h-1l-3 2-5 3-4 2-8 5-6 3-6 4-9 6-3 3-3 1-3 3-3 2-3 2-1 1-3 2-3 3-4 3-3 2-3 3-3 3-7 6-2 2-3 3-3 2a577 577 0 0 0-11 10 189 189 0 0 1 6-17l1-2v-2l3-6 1-1 1-2a76 76 0 0 1 4-9l1-1 1-2 2-4 1-1 3-4 1-1 2-3 1-2 2-2 15-17 1-1h1l1-1 4-3 1-1 3-2 1-1 4-3 2-1 1-1a114 114 0 0 1 7-4h1l2-1 1-1 2-1 5-2 2-1 2-1 4-1h1l2-1 2-1 5-1h1l1-1h2l11-2h4l2-1h16Zm0 0v17l9 4a427 427 0 0 1 9 4l4 2 4 2 8 4h1l3 2 5 3 4 2 8 5 6 3a459 459 0 0 1 15 10l3 3 2 1 3 3 4 2 3 2v1l4 2 3 3 3 3 4 2 3 3 3 3 7 6 2 2 3 3 3 2 6 6 4 5 1 1-1-2-3-12-2-5-1-2-1-2-2-6-1-1-1-2a113 113 0 0 0-5-10l-1-2a182 182 0 0 0-7-10l-2-3-1-2-2-2-16-17-1-1-1-1-4-3-2-1-2-2-1-1a133 133 0 0 0-6-4l-1-1-6-3-1-1h-2l-1-1-2-1-1-1a107 107 0 0 0-9-4h-1a122 122 0 0 0-4-1l-2-1-2-1-5-1h-1l-2-1h-2l-10-2h-4l-2-1h-16Z" class="C"/><path fill="#fff" d="m762 421-41-79-18-38-21-47-78-106-5-1-85-29-85 29-6 1-77 106-22 47-17 38-42 79-10 78 16 13-2-5v-1l-1-1v-1l-1-1v-2a28 28 0 0 1-1-4v-5c-1-7 0-15 1-22l3-11v-1l2-6v-2c5-19 12-38 20-56l1-3 3-7 2-3 7-16 2-3 3-5 5-9 3-5 2-3 1-3 2-3 2-3 2-2 20-29 2-3 3-3 2-3a319 319 0 0 1 8-10l15-16 1-1 4-5 6-6 3-2 3-3 2-2 7-6 3-3 3-3 3-2h1l3-3 3-3 3-2 1-1 3-2 3-2 4-3 2-1 3-3 9-6 6-4 6-3 8-5 4-2 5-3 3-2h1l7-4 5-2 4-2 9-4 9-4 9 4a427 427 0 0 1 9 4l4 2 4 2 8 4h1l3 2 5 3 4 2 8 5 6 3a459 459 0 0 1 15 10l3 3 2 1 4 3 3 2 3 2v1l4 2 3 3 3 3 4 2 3 3 3 3 7 6 2 2 3 3 3 2 6 6 4 5 1 1 15 16 2 3 4 4 2 3 2 3 3 3 2 3 20 29 2 2 2 3 2 3 1 3 2 3 3 5 5 9 3 5 1 3 8 16 1 3 4 7 1 3c8 18 14 37 20 56v2l2 6v1l2 11c2 7 3 15 2 22v5l-1 1v2a28 28 0 0 1-1 4v1l-1 1v1l-2 5h-1l17-13Z"/><path d="M373 294s-118 194-1 223l-14 15-60-5-38-71 60-159Zm281-2s119 196 2 225l14 15 60-5 37-71-60-159Z" class="B"/><path d="M821 462c-10-37-45-56-69-158S626 17 514 17 301 202 276 304s-59 121-69 158 16 48 50 66c9 5 19 9 28 12l4 2h1l2 1h2l1 1h1l2 1h3l1 1 4 1h4l1 1-4-3h-1v-1h-1l-1-1-2-1-1-1-2-1-1-1-2-1-2-2-4-3-1-1-1-1-2-1a82 82 0 0 1-5-5v-1l-3-2-1-1-2-3-1-1-1-3h-1v-1l-1-1-2-5v-1l-1-1v-1l-1-1v-2a28 28 0 0 1-1-4v-5c-1-7 0-15 1-22l3-11v-2l2-5v-2c5-19 12-38 20-56l1-3 3-7 2-3 8-16 1-3 3-5 5-9 3-5 2-3 1-3 2-3 2-3 2-3 20-29 2-3 3-2 2-3a319 319 0 0 1 8-10l15-16 1-1 4-5 6-6 3-2 3-3 2-2 7-6 3-3 3-3 3-2 1-1 3-2 3-3 3-2 1-1 3-2 3-3 4-2 2-1 3-3 9-6 6-4 6-3 8-5 4-3 5-2 3-2h1l7-4 5-2 4-2 9-5 9-4 9 4a427 427 0 0 1 9 5l4 2 4 2 8 4h1l3 2 5 2 4 3 8 5 6 3a459 459 0 0 1 15 10l3 3 2 1 4 2 3 3 3 2v1l4 2 3 3 3 2v1l4 2 3 3 3 3 7 6 2 2 3 3 3 2 6 6 4 5 1 1 15 16 2 3 4 4 2 3 2 3 3 3 2 3 20 29 2 2 2 3 2 3 1 3 2 3 3 5 5 9 3 5 1 3 8 16 1 3 4 7 1 3c8 18 14 37 20 56v2l2 6v1l2 11c2 7 3 15 2 22v5l-1 1v2a28 28 0 0 1-1 4v1l-1 1v1l-2 5h-1v1l-1 1v1l-2 2v1l-3 3-1 1-2 3-1 1a42 42 0 0 1-4 4l-2 1-1 1-1 1a70 70 0 0 1-8 6l-1 1-2 1-1 1-2 1-1 1h-1v1a46 46 0 0 1-2 1l-3 2h1l1-1h3l4-1h1l1-1h2l1-1h3v-1h3l2-1 3-1 29-13c33-18 61-30 50-66Z" class="D"/><path d="M443 687s56 33 6 83l3 25-14 8-44-53 13-52 36-14v3Zm-85-129h-1l-5-3-25-14-9-6-2-1a79 79 0 0 1-31-81v-2s-5 39 18 55 58 20 69 11v-1l1-1v-1l1-3 1-2 2-5 2-4v-2l3-5 1-4 2-6 1-2v-1l1-1v-1l1-1v-2h1l1-3 31 82 20 23 7 9 18 21-1 1-22 27-8 10-9 10-52 64-15 19v-1c-2-24-3-46 11-67l20-32c16-32-3-62-30-78l-1-1-1-1Zm226 126 37 14 13 52-44 53-15-8 4-25c-51-50 6-83 6-83l-1-3Zm-4-98 7-9 20-23 31-82 1 3 1 1v2l1 1v2l1 2 3 6 1 4 2 5 1 2 2 4 2 5v2l1 3 1 1v1l1 1c10 9 45 5 68-11s19-55 19-55v2c7 31-6 63-32 81l-1 1-9 6-25 14-5 3h-1l-1 1-1 1c-28 17-47 46-30 78 5 11 13 21 20 32 13 21 13 43 11 67v1l-15-19-53-64-8-10-9-10-21-27-1-1 18-21Z" class="C"/><path d="M445 690s-44 56 3 103l37-18-19-56Z" class="F"/><path d="M443 687s42 46 5 106l36-20 17-43-7-17-37-22Z" class="E"/><path d="M367 554h-7l-8 1h-1l7 3 1 1 1 1 1 1 2 1 2 1 3 2 1 1 1 1h1l3 3 1 1 2 2 1 2 2 1 2 2 1 1 1 2v1l1 1 2 2v1a57 57 0 0 1 2 3l1 1v1l1 2v1h1a35 35 0 0 1 1 3v1l1 1v3l1 1v1l1 4v5a52 52 0 0 1-7 27l-1 2-2 3a104 104 0 0 1-2 4l-1 1-2 2-1 2-2 4a273 273 0 0 0-13 20v1h-1v1a66 66 0 0 0-2 6l-1 2v2l-1 5-1 1v3l-1 18v17l1 2v2l-1-1-1-2v-1l-1-1v-1l-1-1v-1l-1-4-1-1-1-2v-2l-2-3v-2l-1-2v-1h-1v-2l-1-3v-1l-1-2v-2l-1-4-1-1v-3a31 31 0 0 1 0-3l-1-1v-10l1-12c3-17 14-30 16-47v-16l-1-1v-3l-1-3v-2l-1-2-1-2a61 61 0 0 0-1-3l-1-1-1-1v-2h-1l-1-2-1-2-1-2-1-1a32 32 0 0 0-1-2l-14-13-2-2-32 71-12 24 1 3 3 14 9 43 1 4 5 4 37 25 20-8 6-2 5-21 11-42 19-77s-35-46-37-46Z" class="B"/><path d="M514 296s-73-4-142 23a303 303 0 0 0 65 137l1 1c33 38 75 52 76 52 0 0 43-14 76-52l1-1 2-3c34-41 55-91 63-134-69-27-142-23-142-23Z" class="E"/><path d="M446 298c11 0 23 3 32 10l6 7c3 4 6 8 7 12a23 23 0 0 1-24 31c-8-1-15 5-22 10-14 10-35 11-48 0-6-6-10-14-14-21l-8-15c-3-6-5-14-3-19 1-3 3-5 6-7 19-15 44-9 68-8Z" class="H"/><path fill="#aaa" d="M491 331s-2-16-38-31c0 0 33 2 38 31Z"/><path d="M514 431v17s23 0 30-4c6-4 2-9 1-9l-8-4c-5-2-23 0-23 0Zm0 0v17s-23 0-30-4-2-9-2-9l9-4c5-2 23 0 23 0Z" class="E"/><g><path d="M514 448v9c-7 0-32-1-36-9-4-9 4-13 4-13s-5 5 2 9 30 4 30 4Z" class="D"/><path d="M514 457v8c-34 0-36-17-36-17 4 8 29 9 36 9Z" class="B"/><path d="M514 448v9c7 0 31-1 35-9 4-9-3-13-4-13 1 0 5 5-1 9-7 4-30 4-30 4Z" class="D"/><path d="M514 457v8c34 0 35-17 35-17-4 8-28 9-35 9Z" class="B"/></g><g class="B"><path d="M514 419v12s-18-2-23 0l-9 4c-4 1-9 1-19-1 0 0 11-3 14-10s20-10 26-7l11 2Zm0 0v12s18-2 23 0l8 4c4 1 10 1 20-1 0 0-11-3-15-10s-19-10-26-7l-10 2Z"/></g><path d="M491 502a93 93 0 0 1-33-47c-5-16-9-32-18-46a95 95 0 0 0-10-15c13 13 20 30 26 47 3 11 7 23 13 33a85 85 0 0 0 24 26l-2 2Z" class="D"/><path d="M514 389c-4 1-10-4-10-4l-3-4-6-5-7-3-9-2c9-3 15-2 19-1l7 5 1 2 8 6Z" class="B"/><path d="M514 289v94l-3-2c-2-1-5-2-6-4v-1l-3-3-2-2-2-1-1-1s-2-3 5-13-6-65-7-67 19 0 19 0Z" class="H"/><path fill="#d2d2d2" d="M514 372s-12-1-6-21c0 0 2-5 6-5Z"/><path d="m656 319-3-1-4-2h-1l-4-2-4-1-3-1-3-1h-2l-1-1h-3l-2-1h-2l-1-1-6-1-2-1-3-1h-4l-2-1-5-1h-3l-14-3h-5l-4-1h-3l-2-1h-5l-5-1h-7l-11-1h-56l-11 1h-8l-4 1h-6l-1 1h-4l-4 1h-5l-14 3h-2l-5 1-2 1h-4l-3 1-2 1-6 1-1 1h-2l-3 1h-2l-1 1h-3l-2 1-3 1-4 1-4 2h-1l-4 2-3 1c-1-7-2-15-1-22v-3a440 440 0 0 1 73-71c42-31 70-36 70-36s28 5 70 36a341 341 0 0 1 73 74l-1 22Z" class="C"/><path d="M393 224a2115 2115 0 0 1 29 0l-3 2-3 3-4 3-3 2-3 3-3 3-18 2 2-6 1-1 1-2a76 76 0 0 1 4-9Z" class="D"/><path fill="#ddcbe1" d="m320 554-1-1 1 1Zm-2-211Zm42 216v1l-1-1-1-1 1 1Zm107-365Zm38-19-9 4 9-4Z"/><path fill="#aaa" d="M482 358c-4 2-8 2-13 2l-11 1-4 1-7 5c-3 3-7 5-11 6-12 4-26 4-36-4-3-3-5-7-5-11 1 13 17 18 28 16 8 0 16-3 23-9 2-2 5-5 9-6l8-1c6 0 12-1 17-3l2 3Z"/><path d="M514 638a273 273 0 0 1-91-132l-1-10c-3-32 15-39 16-39 33 38 76 52 76 52v10-10s43-14 76-52c1 0 19 7 16 39a101 101 0 0 1-5 23c-13 41-51 93-87 119Z" class="E"/><path d="M514 638c-96-41-134-152-124-166s31 24 31 24h1l1 10c8 42 51 104 91 132Z" class="B"/><path d="M514 808v109C262 813 237 660 237 657c55-40 48-117 48-117l4 2h1l2 1 3 1h1l2 1h3l1 1h1l2 1h2l3 1h1l2 1 6 4 1 1 2 1 1 1 2 1 1 1 1 1 2 1 2 2 2 2c-4 50-27 97-27 97 14 32 33 57 53 77l3 2 1 2 2 2 2 1 1 2 4 3 3 2 2 2 2 1a275 275 0 0 0 8 7l3 1 3 2v1l2 1 2 2h1l8 5 1 1 4 2 2 1 3 1 4 2 3 2 4 2 2 1h1l2 1 2 1 13 5h1l4 2c35 12 62 13 62 13Z" class="F"/><path d="M333 564c-4 50-27 97-27 97l-69-4c55-40 48-117 48-117l4 2h1l2 1 3 1h1l2 1h3l1 1h1l2 1h2l3 1h1l2 1 6 4 1 1 2 1 1 1 2 1 1 1 1 1 2 1 2 2 2 2Z" class="C"/><path d="m447 688-1 1-1 1c-27 20-60 60 3 103l-14-5-2-1-3-1-2-1-4-2-3-2-4-2-3-1-2-2-4-1-1-1-7-5h-2l-2-2-2-1v-1l-3-2-3-1a264 264 0 0 1-8-7l-2-1-5-4-3-3-2-2-2-1-2-2-1-2-3-2c0-3 0-31 26-61 9-11 22-22 39-32l10-6 9-4 20-26 18 95" class="B"/><path d="M446 486s-4 45 14 72c0 0-16-31-9-68Z" class="C"/><path d="M514 17v5c-4 1-65 9-90 40-25 32-72 66-94 125s-36 69-45 113-24 74-44 111-25 32-32 58 37 55 102 79c0 0-9-1-26-8-9-3-19-7-28-12-34-18-61-30-50-66s45-56 69-158S401 17 514 17Z" class="B"/><path d="M514 389c-4 1-8-1-11-4-1-2-3-4-6-5-4-3-9-6-14-6l-2-1c-5-1-6-7-5-11s4-6 6-9c4-5 7-11 9-17 0 7-3 13-7 19-3 3-6 7-5 12 0 2 2 3 4 3a32 32 0 0 1 22 14c2 3 5 5 9 5Z" class="D"/><path d="M583 690s43 56-3 103l-37-18 19-56Z" class="F"/><path d="M585 687s-42 46-5 106l-36-20-18-43 7-17 38-22Z" class="E"/><path d="m729 633-32-71-2 2-14 13-1 1-1 2-1 2-1 1v1l-1 1-1 1v1h-1l-1 4a54 54 0 0 0-2 5l-1 1v2l-1 1v3l-1 2v17c2 17 13 30 16 46l1 12v11l-1 1v4l-1 1v4l-1 1v2l-1 2v2a70 70 0 0 1-2 6l-1 1v2l-2 4v2l-1 1v1l-1 1-1 4h-1v2l-1 1v1l-1 1v1l-1 2v-5l1-1v-15a111 111 0 0 0-3-28v-1l-1-2v-1l-2-5-1-1c-1 0 0 0 0 0v-1l-1-1-4-8-8-11-2-4-2-2-1-2-1-2-1-2-1-1-2-3-1-2-1-2c-4-8-6-16-6-25v-5a47 47 0 0 1 2-9l1-1v-2l1-2 1-1v-1l1-1v-1l1-1v-1a57 57 0 0 1 5-7v-1l1-1 1-1 2-2 2-2 1-1 2-2 1-1 3-3h1l1-1 1-1 3-2 2-1 1-1h1l1-2h1l1-1 6-3-8-1h-7c-2 0-37 46-37 46l19 77 10 42 6 21 5 2 21 8 37-25 5-4 1-4 9-43 3-14v-3Z" class="B"/><path d="M536 502c17-11 27-29 34-47 4-16 9-32 17-46a95 95 0 0 1 11-15c-13 13-20 30-26 47-4 11-7 23-14 33a84 84 0 0 1-23 26l1 2Z" class="D"/><path d="M514 389c4 1 9-4 9-4l4-4 6-5 6-3 9-2c-9-3-14-2-18-1l-7 5-1 2-8 6Z" class="B"/><path d="M514 289v94l3-2 5-4 1-1 3-3 2-2 2-1 1-1s2-3-5-13 6-65 6-67-18 0-18 0Z" class="H"/><path fill="#d2d2d2" d="M514 372s12-1 6-21c0 0-2-5-6-5Z"/><path d="M635 224a2112 2112 0 0 0-30 0l4 2 3 3 3 3 4 2 3 3 3 3 18 2-3-6v-1l-1-2a113 113 0 0 0-4-9Zm-32 14-19-15H444l-19 15c42-2 84-2 89-2s47 0 89 2Z" class="D"/><path fill="#ddcbe1" d="m707 554 2-1-2 1Zm3-211Zm-42 216v1l1-1 1-1-1 1ZM561 194l8 5-8-5Zm-38-19 9 4-9-4Z"/><path d="M514 638c96-41 133-152 124-166s-32 24-32 24l-1 10c-8 42-51 104-91 132Z" class="B"/><path d="M590 457c-33 38-76 52-76 52s-43-14-76-52c-1 0-19 7-16 39a95 95 0 0 0 4 23c0-2-5-52 25-29 31 22 36 29 63 29s32-7 63-29c29-23 25 27 24 29a110 110 0 0 0 5-23c3-32-16-39-16-39Z" class="C"/><path d="M514 808v109c252-104 276-257 277-260-55-40-49-116-49-116l-3 1h-2l-1 1-3 1h-1l-2 1h-2l-1 1h-2l-3 1h-1l-3 1h-1l-2 1-6 4-1 1-3 1a22 22 0 0 0-1 1l-1 1-1 1-2 1-1 1a98 98 0 0 0-4 4c4 50 27 97 27 97a256 256 0 0 1-56 79l-2 2-1 2-2 1-2 2-3 3-3 2-3 2-1 1-4 3-5 4-2 1-3 2-1 1-2 1-2 2h-1l-7 5-2 1-3 1v1l-2 1-3 1-4 2-4 2-3 2-3 1-2 1-3 1-13 5-4 2c-36 12-62 13-62 13Z" class="F"/><path d="M791 657c-1 3-25 156-277 260-252-104-277-257-277-260 2 3 62 118 210 136l67 55 66-55a283 283 0 0 0 211-136Z" class="E"/><path d="M695 564c4 50 27 97 27 97l69-4c-55-40-49-117-49-117l-3 2h-2l-1 1-3 1h-1l-2 1h-3l-1 1h-1l-3 1h-1l-3 1h-1l-2 1-6 4-1 1-3 1a22 22 0 0 0-1 1l-1 1-1 1-2 1-1 1a98 98 0 0 0-4 4Z" class="C"/><path d="M580 793c-44-5-63 2-66 3-3-1-23-8-66-3 0 0 42-30 33-89h66c-9 59 33 89 33 89Zm1-105 1 1 1 1c26 20 59 60-3 103l13-5 3-1 2-1 3-1 3-2 4-2 4-2 3-1a75 75 0 0 0 5-3l2-1 7-5h1l2-2 2-1 1-1 3-2 2-1a306 306 0 0 0 9-7l1-1 6-4 3-3 2-2 2-1 1-2 2-2 3-2c0-3 0-31-26-61a158 158 0 0 0-58-42l-23-27-14 96" class="B"/><path d="M581 486s5 45-13 72c0 0 16-31 9-68Z" class="C"/><path d="M514 17v5c4 1 65 9 89 40 26 32 73 66 94 125s37 69 46 113 23 74 44 111 25 32 32 58-37 55-102 79c0 0 9-1 25-8 10-3 19-7 29-12 33-18 61-30 50-66s-45-56-69-158S626 17 514 17Z" class="B"/><path fill="#aaa" d="M514 389c4 1 8-1 10-4l6-5c5-3 10-6 15-6l1-1c5-1 7-7 5-11-1-4-3-6-5-9-5-5-7-11-9-17 0 7 3 13 7 19 2 3 5 7 5 12-1 2-2 3-4 3a32 32 0 0 0-22 14c-2 3-6 5-9 5Z"/><path d="M446 844c-175-65-208-185-209-187 0 3 25 156 277 260l-23-56Zm345-187c-1 2-34 122-209 187l-45 17-23 56c252-104 276-257 277-260Z" class="G"/><path d="M582 298c-12 0-23 3-32 10l-6 7-8 12a23 23 0 0 0 25 31c8-1 15 5 21 9 15 10 36 12 49 1 6-6 10-14 14-21l8-15c3-6 4-14 3-19-1-3-4-5-6-7-20-15-44-9-68-8Z" class="H"/><path fill="#aaa" d="M546 358c4 2 8 2 12 2l12 1 3 1 8 5c3 3 7 5 11 6 12 4 26 4 36-4 3-3 5-7 5-11-1 13-17 18-29 16-8 0-16-3-22-9l-9-6-8-1-18-3-1 3Zm-9-27s2-16 37-31c0 0-33 2-37 31Z"/><path d="M542 350c-4-7-6-15-3-22 1-5 4-9 7-13l6-7c9-7 20-10 32-10l32-2-34 2c-12 0-23 3-32 10l-6 7-8 12a23 23 0 0 0 24 31c-7 0-13-3-18-8Zm-57 0c5-7 7-15 4-22-1-5-4-9-7-13l-7-7c-8-7-20-10-31-10l-32-2 34 2c11 0 23 3 32 10l6 7c3 4 6 8 7 13a23 23 0 0 1-23 30c7 0 13-3 17-8Z" class="G"/><path d="M657 303c-45-26-138-25-143-24-5-1-98-2-143 24-1 8 0 15 1 22 69-27 141-23 142-23 0 0 73-4 142 23l1-22Z" class="B"/><path d="M657 297c-45-26-138-25-143-25s-98-1-143 25c-1 7 0 15 1 22 69-27 141-23 142-23 0 0 73-4 142 23l1-22Z" class="D"/><path fill="#787878" d="M514 272Zm11 0Zm11 0Zm11 0Zm11 3Zm11 2Zm11 0Zm11 2Zm11 2Zm11 2Zm12-24-1 26v-46l1 20Zm11 11-1 19v-40h1v21Zm11-10-1 22v10-33l1 1Zm-133 12Zm-11 0Zm-11 0Zm-11 0Zm-11 3Zm-11 2Zm-11 0Zm-11 2Zm-11 2Zm-11 2Zm-11-25v27l-1-26v-20h1v19Zm-11 11v20l-1-19v-21h1v20Zm-11-10v33l-1-10v-22Z"/><path d="M760 503c-3 10-10 20-19 27l-11 9c-12 8-25 15-35 25-14 8-32 36-27 58 2 17 13 30 16 46 5 23-6 50-15 70 2-24 3-47-11-68-34-43-40-84 12-112 45-23 85-53 73-105-13-54-50-118-96-171h-1a444 444 0 0 0-11-13l-10-10-1-1-10-10-1-1-10-9h-1c-29-25-60-44-88-51-29 7-59 26-88 51h-1l-10 9-1 1-10 10-1 1-10 10-1 1-10 12h-1c-46 53-83 117-96 171-13 52 28 82 73 105 51 28 46 69 12 112-14 21-13 44-11 68-10-20-20-47-15-70 3-16 14-29 16-46 4-22-14-50-27-58-11-10-24-17-35-25l-12-9c-8-7-15-17-19-27-5-18 0-35 5-53 17-63 57-136 105-185l4-5 1-1 10-10h1l10-9 1-1 19-16c25-19 53-35 82-48l9-4 9 4a404 404 0 0 1 101 64l1 1 10 9h1l10 10 1 1 4 5c48 49 88 122 105 185 4 18 9 35 4 53Z" class="E"/><path d="M285 453c-13 52 28 82 73 105 51 28 46 69 12 112-14 21-13 44-11 68-1-3-18-47 9-86 28-40 20-73-19-92s-85-54-71-98c11-35 33-139 147-224a470 470 0 0 0-140 215Zm458 0c12 52-28 82-73 105-52 28-47 69-12 112 13 21 13 44 11 68 1-3 17-47-10-86-27-40-19-73 20-92s85-54 71-98c-11-35-33-139-147-224 64 57 123 145 140 215Z" class="G"/></g></g></g><path fill="#fff" d="M968 716v227.2H2.9V716z"/><path d="M7 893V747h41c6 0 11 1 15 3 4 1 7 4 9 8s4 9 5 16a178 178 0 0 1 0 48l-5 16c-2 4-5 7-9 9l-15 2H35v44H7zm36-74c2 0 4-1 5-5l2-17-2-16c-1-2-3-4-6-3h-7v41h8zm94 74l-1-3-1-7-2-11-2-20a131 131 0 0 0-2-13l-2-2-2-1h-4v57H93V747h40l15 2 10 7 5 12 1 18-1 18-2 11-4 5-5 4v1l3 2 2 4 3 10a218 218 0 0 1 4 34l1 9 1 5 1 3v1h-30zm-9-84c3 0 5-1 6-3l2-14-2-12c-2-2-3-3-6-3h-7v32h7zm115 75c-2 4-6 8-10 9l-9 2a93 93 0 0 1-31-2c-4-1-8-5-10-9l-3-7-2-11-1-18v-28a879 879 0 0 1 3-56l3-7 4-6 6-4 9-2 11-1c9 0 15 1 20 3 4 2 7 5 10 9a51 51 0 0 1 5 18l1 18v28a913 913 0 0 1-3 57l-3 7zm-23-24a40 40 0 0 0 1-10 441 441 0 0 0 0-62 56 56 0 0 0-1-10l-2-3-5-1-5 1-2 3-1 4v6l-1 12a1571 1571 0 0 0 2 60l2 2 5 1 5-1 2-2zm45 33V747h58v31h-30v29h30v30h-30v56h-28zm73 0V747h59v31h-31v26h31v29h-31v28h31v32h-59zm114-101l1-2v-4l-2-9c-1-1-3-3-7-3s-5 1-6 3l-2 9 2 9 5 5 7 4 7 3 11 6 5 5 3 7 2 10a136 136 0 0 1-1 37c-1 6-3 11-5 14-3 4-7 6-11 8l-17 2c-11 0-20-2-25-7s-8-13-8-24a239 239 0 0 1 2-21h23v6l1 12c1 3 4 3 7 3 4 0 6-1 7-3l2-12-2-9-5-5-7-4-7-4-7-4-6-5c-4-3-6-8-7-14a192 192 0 0 1 1-41c1-4 2-8 5-11s6-6 10-7c5-1 11-2 16-1 6-1 11 0 16 1l10 5 5 10c2 5 2 11 2 16a130 130 0 0 1-1 16l-24-1zm80 0l1-2v-4l-2-9c-1-1-3-3-7-3-3 0-5 1-6 3l-2 9 2 9 5 5 7 4 7 3 11 6 5 5 3 7 2 10a136 136 0 0 1-1 37c-1 6-3 11-5 14-3 4-7 6-11 8l-17 2c-11 0-20-2-25-7s-8-13-8-24a239 239 0 0 1 2-21h23v6l1 12c1 3 4 3 7 3 4 0 6-1 7-3l2-12-2-9-5-5-7-4-7-4-7-4-6-5c-4-3-6-8-7-14a194 194 0 0 1 1-41c0-4 2-8 5-11s6-6 10-7c5-1 11-2 16-1 6-1 11 0 16 1l10 5 5 10c2 5 2 11 2 16a131 131 0 0 1-1 16l-24-1zm42 101V747h29v146h-29zm111-9c-2 4-6 8-10 9l-9 2a94 94 0 0 1-30-2c-5-1-8-5-11-9l-3-7-2-11-1-18v-28a879 879 0 0 1 3-56l3-8 4-5 6-4 9-2 11-1c9 0 15 1 20 3 4 2 8 5 10 9a50 50 0 0 1 5 18l1 18v28a888 888 0 0 1-3 57l-3 7zm-23-24a45 45 0 0 0 1-10 406 406 0 0 0 1-50 424 424 0 0 0-2-22l-2-3-5-1-5 1-2 3v4l-1 6v12a1676 1676 0 0 0 1 60l2 2 5 1 5-1 2-2zm103 33l-32-78h-1v78h-25V747h27l19 51h1v-51h26v146h-15zm74 0l-3-33h-13l-2 33h-28l14-146h47l14 146h-29zm-8-115h-2l-5 52h11l-4-52zm50 115V747h28v114h29v32h-57z" class="F"/></g></svg>