<svg id="eUxDHydgQuM1" xmlns="http://www.w3.org/2000/svg" xmlns:xlink="http://www.w3.org/1999/xlink" viewBox="0 0 1200 1280" shape-rendering="geometricPrecision" text-rendering="geometricPrecision"><g transform="translate(0 80.000001)"><g id="eUxDHydgQuM3"><g id="eUxDHydgQuM4"><g id="eUxDHydgQuM5"><g><path d="M662.58,779.48l-.28-.21c-1.48-1.11-3.15-2.37-4.85-3.56-8.42-5.87-15.93-9.15-23.66-10.32h-.31c-3.72-.54-6,.28-8.32,3-13.24,15.51-26.86,31.15-40,46.28l-.41.47q-6.9,7.9-13.78,15.82l-3,3.44-.23.27c31.64,13.2,58.78,15.15,85.25,6.14-4.73-17.64-7.17-36.08,3.52-53.28" fill="#a57c00"/></g><path d="M712.51,792.66c-9,5.14-17.7,5.67-27.36,1.75-4.291744-1.866028-8.460193-4.003695-12.48-6.4-1.66-.94-8.32-7.58-10.09-8.53l-.28-.21c-1.48-1.11-8.315739,15.129219-9.24,18.67-4.09,14.15.73,27.58,4.75,39c.43703,1.310686,1.31301,2.430386,2.48,3.17c16.65,8,32.66,10.38,49,7.07c3.304563-.675393,6.519455-1.732481,9.58-3.15c15.52-7.19,31.17-14.45,46.75-21.69c20.199977-7.925502,37.075226-15.56219,51.042855-22.821964c12.847737-6.677702,23.712677-9.885547,26.522677-15.695547c14.240352-10.304373,8.800755-1.917524,12.353385-12.376768-2.234764-16.173783-2.101616-17.313105-5.088916-20.052917C823.31755,726.508186,839.00932,737.565541,816.14,737c-20.269999,11.51355-18.591261,9.205006-18.591261,9.205006s-74.7174,40.594248-85.038739,46.454994Z" fill="#a57c00"/></g><path d="M850.450001,779.27c.626979-1.259581,18.771716-17.963005,19.209999-19.3c19.040329-21.639335,5.0629-51.55646-8.179999-61.569999-1.87-3.13-36.950001-34.415001-38.840001-37.555001-62.200001-101.870001-142.14-41.415-110.35,0-3.829999,1.655,74.85963,69.3118,71.62,69.765l10,9.47c1.85,1.77,2.79,1.72,4.33,1c3.412855-1.780379,7.024721-3.149934,10.76-4.08l30.64755,28.39" fill="#a57c00"/></g><g id="eUxDHydgQuM10"><g id="eUxDHydgQuM11"><g id="eUxDHydgQuM12"><path d="M884.4,825.98c-10-8.58-14.76-20.1-17.84-29.35q-4.11-12.25-22.07-10.6l-28.11,98.74l2.65-.16c3.298594-.105803,6.587853-.409684,9.85-.91c14.34-2.51,27.11-9.94,38-22.09c5.195943-6.026595,10.063014-12.329084,14.58-18.88c2.21-3.09,4.49-6.28,6.84-9.38l.35-.46c.61-.82,1.26-1.67,1.94-2.49" fill="#a57c00"/></g><path d="M910.802952,751.392804c-.17,2-5.892952,13.037196-7.372952,13.607196-9.49,3.86-18.86,7.52-27.59,10.88-5.11,2-5.32,2.06-4.93,7.1c1.28,16.64,3.6,32.63,13.49,43-10-8.58,5.51,5.24,6.19,4.42c9.61-7.5,47.246643-38.124108,56.516643-45.264108c0,0,53.723433-113.708396,54.015516-119.722553-20.96496-45.791753-45.011326,5.113329-53.011326-10.626671-1.302205,4.446664-41.741386,90.234579-37.307881,96.606136Z" fill="#a57c00"/></g><path d="M869.91,513.73355c2.04419,12.40968,1.89527,25.08179-.44,37.44-1-.42-2-.82-3-1.23-20.77921-8.12763-43.12142-11.47367-65.37-9.79l-6,.59c-3.5.32-8.23,1.3-11.78,1.84c3.53-.15,8.36-.66,11.86-.59h5.92c25.05973.82999,50.29946,7.81985,71.29933,21.61956-.02975.01126-.65187.40019.20067.33044.88557-.07245,1.77702-.00154,2.64.21c42.07,14.07,84.68,28.47,122.28,41.16c9.49,3.2,14.84,9.8,15.9,19.61q-3.91,48.636452-34.58,24.95l-24.31-1.79c-.77-.04-1.53-.12-2.32-.21-1.99252-.21507-3.99603-.31191-6-.29-1.07472.10284-2.10634.47423-3,1.08-.36315.21569-.74071.40614-1.13.57-.27.1-.55.22-.82.31-.79125.39523-1.64298.65548-2.52.77-26.69.62-53.78,1.2-80.06,1.76l-29.86.66c-.54977.03279-1.09729.09622-1.64.19l-.75.11c-5.36.15-10.8.13-16.12,0-25.69-.78-51.69-3.89-75.69-13.25-22.91743-9.17275-41.88827-26.63706-55.4412-47.12296C685.229999,497.35,754.269999,459.72,842.86113,438.39602c13.55374,23.2427,22.7227,48.77898,27.04887,75.33753Zm2.49,49.88c-.00022-.00015-.00045-.00029-.00067-.00044.00115-.00044.00142-.00031.00067.00044Z" transform="translate(.000001 0)" fill="#a57c00"/></g><path d="M223.33931,943.7802c-.42629-1.8588.13707-3.80597,1.49-5.15c8.35333-9.38,16.68667-18.76333,25-28.15l1.69-1.91c12.14-13.64,24.63-27.73,37-41.55c2.16941-2.29153,3.13922-5.46747,2.62-8.58-2.5-21.68-4.88-43.35-7.11-63.68-.07488-.69465-.07488-1.39535,0-2.09l-.11-.19c-.06-3.2-.03-6.41.05-9.55.49622-15.79888,2.93454-31.47667,7.26-46.68.37-1.44,1.25-4.28,1.76-5.69l1.92-5.65l2.22-5.54c1.24-3.24,3.52-7.7,5-10.9l-3.13,5.13c-11.84,19.82-19.47,43.44-22.84,66.9-23.56-25.22-42.31-49.5-57.2-74.22-6.01837-9.66849-11.21653-19.82397-15.54-30.36l-.09-.23c-3.30245-8.25728-5.67377-16.8571-7.07-25.64-.26-1.72-.44-3.46-.6-5.22-.1-1.2-.18-2.41-.28-3.65-.1-1.52-.2-3.01-.34-4.52l-.17-1.7h-.49c-.27-2.71-.46-5.46-.59-8.28.45586-.09352.87967-.3037,1.23-.61.96-.85,1.03-2.09,1.16-4.09.05-.9.22-1.25-.44-1.76-.15-.12-2.27-.05-2.27-.12c1.03986-10.5017,3.00074-20.89167,5.86-31.05c2.34-8.3,3.47-16.84,6.15-25.07.05-.14.09-.28.14-.42.76-2.28,1.57-4.53,2.46-6.76c10.47-26.5,29.47-50.25,53.47-65.7c5.87704-3.75994,12.00002-7.09961,18.32256-9.99877-.63697-.81575-1.27482-1.63063-1.91434-2.44394-6.22-7.92-12.27-16-20.27-22.3-8.52-6.67-17.73-9.44-28.17-4.67-.27548.08345-.56218.12393-.85.12.17345-.29693.38158-.5722.62-.82c1.82-1.45,3.56-3.1,5.5-4.45c9.93-6.92,20.85-9.97,32.85-7.4c6.91,1.48,13.07,5.12,18.91,8.83s11.45,7.81,17.1,11.81c4.68022,3.31123,9.29678,6.72705,14.23918,9.61874.23753-.04563.47506-.09097.7126-.13602c3.86155-.74526,7.7222-1.4237,11.57054-2.05132-5.38378-2.96952-9.68155-7.41376-12.47232-13.90139-.35474-.68558-.89537-1.25741-1.56-1.65-4.78268-3.10094-8.97481-7.02894-12.38-11.6-2.89497-3.87158-4.96434-8.29624-6.08-13c7.49,9.6,17.5,14.15,29.36,15c11.17.81,27.09-4.08,31.81-9.66-37.01-8.45-49.05-36.26-50.23-56.65c1.97683,5.5125,5.56552,10.30323,10.3,13.75c7.93123,5.88206,17.64523,8.85523,27.51,8.42c11.24-.3,22.48-1.28,33.66-2.46c11.87-1.28,23.55-1.43,35.05,2.29.48444.10663.97557.18014,1.47.22-1.94-4.39-2.98-8.6-2.43-12.93c1.48,2.51,2.61,5.28,4.48,7.42c7.34,8.39,16.75,10.47,27.26,8c5.95-1.39,11.88-2.42,18-1.74.47298-.02262.94398-.07607,1.41-.16-13.76-14.59-30.53-22.37-49.86-26.37c14.48-3.42,28.66-5.86,43.25-3.49c14.9,2.42,26.68,10.94,38.38,19.73-3.04-5.17-4.92-10.51-4.17-16.9c5.59,12.12,17,19.05,26.89,16.5-2.20556-1.98297-4.28307-4.1039-6.22-6.35-3.79-4.92-7.35-10.02-10.9-15.12-10-14.34-23.77-20.29-41-18.53-2.35655.34194-4.6932.80927-7,1.4c3.91381-2.60885,8.05768-4.85485,12.38-6.71c9.57-3.92,19.27-4.34,28.9,0c6.26,2.8,11.46,7.13,16.68,11.46c6.29,5.22,12.51,10.56,19.12,15.37c7.64,5.52,16.5,5.13,25.5,4-.23-.21-.27-.32-.34-.32-1.11-.36-2.22-.76-3.35-1.09-9.18-2.67-15.62-8.21-18.52-17.54-.68-2.18-1.52-4.31-2.34-6.45-1.63-4.28-3.76-8.24-7.5-11-1.73852-1.2297-3.59819-2.27849-5.55-3.13-1.27925-.57966-4.32644-2.4578-5.71756-2.27033c6.22538-.84475,12.56281-.16517,18.46756,1.98033c5.45,1.97,10,4.97,16,5.6c9.86,1.03,21-1.64,30-5.64c9.34285-4.0254,17.4194-10.50876,23.37-18.76c1.70979-2.52729,3.80133-4.77401,6.2-6.66c1.71-1.31,3.46-2.59,5.1-4l-2.84.22c-13.56,1.25-26.39-.88-37-10-8.16-7.01-15.74-14.72-23.45-22.24-7.17-7.05-14.23-14.25-23-19.45-9.31-5.51-18.8-7.04-28.53-.92-.26152.11184-.53762.18591-.82.22.13177-.3181.29953-.62007.5-.9c1.61-1.72,3.13-3.54,4.87-5.12c8.94-8.18,19.33-12.66,31.6-11.66c7.09.56,13.62,3.37,19.9,6.28s12.38,6.22,18.51,9.45c7.52,3.96,14.94,8.17,23.23,10.43c5.16,1.4,10.34,2.14,15.58.46c2.91129-.90752,5.58071-2.45927,7.81-4.54-2.69,0-4.88.13-7.07,0-11.16-.62-20.49-4.56-26.49-14.62-.45001-.62625-1.05704-1.12292-1.76-1.44-5.12982-2.36789-9.79359-5.63625-13.77-9.65-3.38655-3.4547-6.01879-7.57502-7.73-12.1c8.67,8.51,19.2,11.71,31.08,11c11.17-.66,26.31-7.6,30.26-13.76-37.8-3.55-53.39-29.55-57.24-49.55c2.67887,5.20603,6.85942,9.4876,12,12.29c8.63747,4.78506,18.65633,6.4584,28.38,4.74c11.06-1.78,22.07-4.21,33-6.87c11.6-2.82,23.17-4.5,35.06-2.32.48286.03019.96714.03019,1.45,0-2.51-4.09-4.1-8.13-4.1-12.5c1.8,2.3,3.28,4.91,5.42,6.77c8.37,7.32,17.97,8.15,28.06,4.32c5.72-2.16,11.46-3.96,17.61-4.09.47128-.07796.93595-.19162,1.39-.34-15.56-12.61-33.22-18.2-52.89-19.61c13.9-5.28,27.64-9.56,42.41-9.13c15.08.45,27.88,7.34,40.64,14.52-3.69-4.72-6.26-9.77-6.35-16.2c7.13,11.28,19.36,16.66,28.81,12.82-2.45091-1.67128-4.78929-3.5019-7-5.48-4.4-4.37-8.59-8.96-12.77-13.55-11.78-12.91-26.22-17-43.06-13-2.28794.64385-4.53812,1.41505-6.74,2.31c3.52907-3.10311,7.33877-5.87167,11.38-8.27c8.97-5.19,18.53-6.86,28.65-3.86c6.52,1.97,12.25,5.58,18,9.19c7,4.35,13.81,8.83,21,12.71c8.31,4.5,17.03,2.94,25.81.64-.11711-.09824-.24072-.18845-.37-.27-1.16-.22-2.31-.47-3.47-.64-9.46-1.49-16.58-6.13-20.67-15-.96-2.09-2.08-4.09-3.16-6.09-2.52-4.67-5.72-8.83-10.72-10.9-3.26-1.35-6.82-1.98-10.06-2.87c6.33-2.05,12.99-1.82,19.69-.21c8.24,1.97,15.51,6.06,22.58,10.55c1.0707.92659,2.6593.92659,3.73,0c4.5337-3.21115,9.82236-5.19224,15.35-5.75c14.14-1.17,27.5.78,38.64,10.65c1.01.88,2.14,1.66,3.14,2.51c5.95091,4.87136,12.97641,6.9965,20.74984,8.64093.21704-.58076.45299-1.16934.70734-1.77327-1.69941-1.86079-3.30963-3.61536-5.15717-5.64766c2.40795.61498,4.70336,1.17744,6.91873,1.73937c1.73341-3.69801,3.95595-8.25699,6.59088-14.80336c4.84588-11.8266,11.68888-22.73209,20.23-32.24c1.93169.3743,3.93352.05188,5.65-.91c3.53-1.88,6.92-3.86,10.53-5.94l2.22-1.29c.14.43.27.85.42,1.27l.06.17c.76252,2.12256,1.3675,4.29846,1.81,6.51c1.53,8.78,6.1,12.72,14,12c.90646-.0172,1.81022.1042,2.68.36.42.07.86.18,1.29.24c23.35,4.09,41.27,12.91,54.77,27.09c3.66,3.85,8.09,7.61,14.48,4.53-.12.87-.34,1.87-.57,2.87-.65,2.78-1.47,6.14.53,9.35-10.52-8.64-23.55-14.89-40.18-20.29-12.25711-4.02644-25.10004-5.97992-38-5.78c0,0,36.03,8.55,51.7,16.64c14.59823,7.75238,28.55866,16.65027,41.75,26.61-.55-.75-8.48-10.97-10-12.44-.52-.54-1.08-1.04-1.63-1.54l.58-2.26c.89-3.3,1.45-6.61,2-9.82.24-1.43.49-2.87.76-4.29.10686-.88568.45252-1.72564,1-2.43c4.15-1.9,8.45-3.63,13-5.45l2.22-.89c-3.51945,18.25311-4.1169,36.94943-1.77,55.39-.17238.50781-.41471.98911-.72,1.43-.34989.55432-.66065,1.13239-.93,1.73-.10629.29696-.22983.58745-.37.87-.75915,1.22838-1.08973,2.67375-.94,4.11.5,2.27,1.15,4.51,1.78,6.69.81999,2.6835,1.48772,5.41118,2,8.17c3.44,19.5,6.83,39.39,10.1,58.63l3,17.5c-4.28-8.13-6.41-16.64-8.48-24.92-5.16-20.67-11.66-44.48-23.6-66-13.75-24.67-30.27-39.67-51.99-47.26-4.1-1.42-16.18-4.77-18-5.32l-1.45-.4c.73.41,24.08,13.64,34.08,20.16c13.69,8.86,24.8,22.03,34.8,41.4c10.72,20.71,16.6,43.48,21.72,63.61c3.19,12.4,7.07,21.38,12.63,29.07c1.84045,2.50201,3.2188,5.31289,4.07,8.3c5.87,21.88,12.24,39.63,24.3,55.24c2.14,2.75,4.5,5.34,6.79,7.84-4.58-1.04-8.68-2.24-12.08-4.45-22.19-14.37-38.27-32.62-47.8-54.21-6.35-14.52-11.39-29.58-16-43.58-20.82-63.18-56.56-73.94-55.08-72.77l.36.3c22.45,19.61,36.5,39.3,44.25,62c1.19333,3.5,2.4,6.99667,3.62,10.49c2.16,6.28,4.36,12.72,6.47,19.06c5.93,17.88,14.99,40.73,32.3,58.93c3.96,4.18,8.15,8.15,12.26,12-14.28649-7.40087-27.3138-17.01273-38.6-28.48-.21-.22-.42-.45-.62-.7l-10.49-11.73-9.21-11.66-4,67.44c-.1,2.28-1.43,4.3-2.1,6.43-1,3.3-2.07,7.96,0,11.05.73,1.06,1.68,2,2.5,3c4.25,5.28,4.78,12.58,4.69,19.07-.17262,6.95365-1.88001,13.78319-5,20-2.29177,4.8733-7.04677,8.11987-12.42,8.48-4.91772.50037-9.88524.12112-14.67-1.12-2.39622-.64967-4.73694-1.48898-7-2.51-2.09-.91-2.7-2.31-3.43-4.45-3.98-11.69-5.49-23.35-6.49-35.58-.3-3.65-1.17-11.99-5.24-13.47-3.1-1.14-4.76,3.31-5.29,5.53-1.43,5.81-.52,12.24,1,17.92c1.82,6.86,3.92,13.66,6.29,20.35l2.17,5.78c-7.94-.27-10.75-1.17-13.87-6.84-.26343-.42736-.58294-.8175-.95-1.16l-.31-.32c-19.9-23.8-31.76-44.13-38.45-65.94-1.32-4.33-2.18-8.77-3.18-13.47-.29-1.41-.57-2.84-.89-4.32l-6.44-1.21-6,6.71c-5.77,6.41-11.73,13.08-17.14,20-12.95449,16.58927-21.64579,32.95169-26.31911,49.68128.01281.00253.02563.00506.03844.0076-.53865,1.88004-1.02645,3.76462-1.46374,5.65458-.42159,1.87982-.79334,3.76506-1.11559,5.65655-.86942,6.20377-1.34704,12.45616-1.43,18.72-.05,1.21-.16,2.45-.16,3.67-.04991-.06014-.09988-.12025-.14989-.18031-.01107.30639-.01793.61232-.01793.917h-.00001c-5.33426-6.42745-11.21634-12.37979-17.58-17.79-7.36185-6.60519-15.27388-12.57015-23.65-17.83l-7.13454-4.92717c-.01998-.01053-.03988-.02101-.05971-.03144l2.26425,2.04861c-.79397-.43827-1.51801-.82858-2.16613-1.17158c14.94579,11.45708,32.8444,31.36586,42.41643,42.5008-.39982-.15194-.79909-.3046-1.19781-.45799c4.78953,5.53918,7.80844,9.25415,7.86751,9.32877c1.18,1.92,2.32,3.85,3.45,5.76.08053.13741.1609.2749.24113.41247-83.5354,25.63478-129.07063,69.31358-145.11054,137.12503c3.06115,1.77772,5.73743,3.40205,7.77376,4.89261c19.64694,14.38132,48.366,23.69443,59.45532,37.96146-31.16423,58.38342-108.13249,87.3737-126.00967,95.35842-21.69,9.67-40.69,13.94-59.69,13.37-.19,3-.39024,5.27213-.37,6s-.00983,1.45627-.09,2.18c-2.82,24.36-7.36,56.36-18.21,87.72-6.36,18.48-13.18,31.55-22.1,42.37-2.06,2.51-3.82,3.25-6.24,2.66-4.4-1.06-5.77,2.25-6.4,3.85l-1.24,3.12c-3.09,7.86-6.31,15.98-10,23.68-4.32,8.98-8.93,17.96-13.39,26.64-2.27,4.52-4.67,9.19-7,13.8-.29466.59167-.66438,1.14288-1.1,1.64-.64724.71454-1.46656,1.25158-2.38,1.56l-.6.39c-13.51399-1.37221-26.86721-4.0241-39.88-7.92-8.46-2.62-16.8-5.98-24.25-10.91L376.3042,944.06548l32.25511-19.73528c-1.35-4.19,3.32001-7.79,5.05001-10.72c2.49681-4.12966,5.42669-7.98142,8.74-11.49c1.61101-1.67043,3.31719-3.24639,5.11-4.72c2.20308-1.77884,4.2597-3.73178,6.15-5.84c10.62-12.46,21.12-25.37,31.27-37.85l.53-.65c1.2575-1.64888,2.02981-3.61602,2.23-5.68c1.58-15.08,3.1-30.99,4.58-47.29.09884-1.85996-.21889-3.71851-.93-5.44-1.25-3.26-2.49-6.6-3.68-9.83-3.2-8.68-6.51-17.64-10.56-26.13-.37-.77-.7-1.53-1-2.28c2.80804-7.14496,5.04505-14.50135,6.69-22l109.17-5.47-107.28-4.3c.03-.15.08-.3.08-.44c8.04-48.61-8-95.36-44.82-128.2-19.0982-17.34188-41.72524-30.24003-65.46186-40.22961-.04303.34083-.08632.6816-.1299,1.02231c28.26045,13.12474,54.67249,30.41307,74.60175,54.5473c18.31537,21.88169,28.84636,49.2257,29.94,77.74.31629,8.86418-.1186,17.73921-1.3,26.53-3.57,25.93-17.65,51.41-29.19,74.47-6.58,13.14667-13.17667,26.28-19.79,39.4l-.11.27c-11.15,22.14-22.65,45.05-33.88,67.62-2.2,4.43-5.09,6.48-9.41,6.63-3.86.13-6.14,2.16-8,4.33-19.84233,22.87962-39.8244,45.78919-58.59983,67.30252l-4.81359,1.9545c-11.55071-1.47409-22.96159-3.89776-34.11658-7.24701-8.46-2.6-16.79-6-24.29-10.77M674.42607,560.96908c-24.41-39-22.14675-56.27887-9.44675-99.48887c1.75773-5.97115,3.70949-11.881,5.85173-17.72026-.22875-.08304-.45766-.16569-.68674-.24793-2.31183,5.79641-4.43476,11.66888-6.36499,17.60819-7.45,23.21-15.14177,46.55158-9.24,72.43.96675,12.00291,10.82775,21.55567,21.93678,29.24655-1.19389-1.00976-1.95791-1.68233-2.05003-1.82768ZM885.73753,125.1275c.47826.27138.95163.55089,1.41991.8384.05087-.2291.10484-.4568.16187-.68356-.52886-.04445-1.05631-.09498-1.58178-.15484Zm-15.93,10.44c-6.22-9-13.22-17.36-22.73-23-4.4-2.63-9.5-4.08-14.28-6-.7329-.17565-1.48757-.24303-2.24-.2c17.31,6,28.84,17.23,33.2,36-5.7-3.35-11.01-6.49-16.32-9.64c9.13,10.32,19,19.61,32.45,24.72-1.36-2.79-2.56-5.32-3.75-7.79c3.87686,3.02269,8.09782,5.5693,12.57199,7.58806.11536-1.13283.1387-2.3408.09627-3.60711-7.65317-4.38635-13.83245-10.57444-18.99826-18.07095Zm-53.62,59.97l10.13-5.94c-17.37.55-32.53-6.65-48.37-11.85l7.63,6.46c-.04.13-.11.24-.11.35-8.92-2.06-17.92-4.14-26.92-6.14-7.88-1.73-15.82-3-23.82-.89-.8.21-1.84-.46-3-.79-.51,1.41-1.38,2.82-3.38.61-.26.82-.43,1.35-.53,1.62c10.32.83,20.77-.4,30.54,4.35-3.82,1.17-7.37,2.25-10.92,3.31c0,.22,0,.44,0,.66c12.44.21,24.49,2.79,36.9,5.79l-4.4-4c.07-.13.13-.28.2-.41.6.19,1.22.31,1.81.54c8.64,3.4,17.25,6.92,25.94,10.21.74543.28884,1.4958.56376,2.25071.82467l7.05986-4.53197c-.33603-.05452-.67288-.11208-1.01057-.17269v-.00001ZM607.58755,245.81748l-19.56-3.2c5.77,3.7,12.7,4.21,19.56,3.2Zm-233.82,189.88c-6.90092,5.37852-14.86732,9.22707-23.37,11.29-8.82267,1.98802-18.01105,1.64337-26.66-1c0,0,6.81,5.37,20,6.76c13.19,1.41,28.88-12.29,30.03-17.05Zm13.53-22.15c10.36-6.67,40.21,3.1,40.21,3.1s-19.4-13.72-36.34-10.52-35.94-.51-35.94-.51s21.71,14.57,32.07,7.9v.03Zm237.34-126.29c4.24-.19,8.49-.37,12.74-.48c1.30845.04378,2.61363.15727,3.91.34c0,.21,0,.4,0,.61-4.21,1.42-7.69,3.71-9.69,7.34c6.11-1.75,12.28-3.89,18.62-5.26c9.75938-1.99958,19.83529-1.86996,29.54.38c1.23715.45767,2.4181,1.05486,3.52,1.78.15-.22.73-.8.73-1.15s-.55-.89-1-1.1c-4.19-2.1-8.41-4.14-12.81-6.73c2.03863-.43189,4.10287-.7325,6.18-.9c6.06-.16,11.42,2.27,16.42,5.27c4.16,2.5,8.17,5.24,12.31,7.92-.02-.1-.03-.3-.14-.39-15.68-15.3-33.93-23.16-56.15-18.95-4.45.85-8.75,2.56-13.11,3.91-11.34,3.5-22.84,5.55-34.67,3.22-3.96-.76-7.76-2.25-11.83-3.06c3.26,1.45,6.47,3.03,9.78,4.35c8.27,3.28,16.92,3.31,25.65,2.9Zm-14.15,33.9c.35.56.67,1.14,1,1.7.63281-.70825,1.34404-1.34232,2.12-1.89c3.83-2.07,7.56-4.49,11.63-5.93c5.91-2.09,12.06-3.57,18.16-5.09c3.85071-1.0664,7.96549-.58927,11.47,1.33.84.48,2.05,1.66,1.92,2.24-.41241,1.05606-1.20906,1.91702-2.23,2.41-1.17.64-2.59.83-3.87,1.48c11.27-.74,21.74,2.64,32.74,6.26l-5.85-6.49c13.42888-.30974,22.93426,6.86811,32.41645,14.11201-.01138-.01678-.02275-.03356-.03412-.05034-3.97986-4.70905-8.59473-8.84247-13.71233-12.28167-24.76-17.1-54.1-17.63-79.5-1.49-1.32.84-2.79,1.4-4.16,2.18-.72975.46061-1.43103.96486-2.1,1.51Zm43.29,12.06c-9.33476-3.45646-19.30205-4.87159-29.23-4.15-.55,0-1.21.21-1.62,0-1.49533-.98575-3.48731-.72611-4.68.61-.26.25-.88.2-1.26.2-.63-1-1.2-1.94-1.88-3-.28216.3389-.54588.69275-.79,1.06-1.17,1.94-2.51,3.26-5.17,3.41-4.23.23-7.88,2.39-11.45,4.6-5.07,3.13-10.2,6.16-15.3,9.24l1,.16c8.25-4.69,16.83-8.41,26.66-8.91c0,.85,0,1.9,0,3.58l-4.2,2.84c10.27-1.89,20.41-4.97,31.61-1.4-5.11.56-9.18,2-12.18,5c7-.6,14.25-1.75,21.38-1.71s14.3,1.23,21,1.87c-.94-1.1-2.26-2.67-3.6-4.26c6.19727,1.05529,12.33643,2.26497,18.50948,3.20087.52703-.85093,1.04971-1.70467,1.56802-2.56117-10.35001-2.45999-20.36473-6.10789-30.3675-9.77969v-.00001Zm94.74-92.99c-10.68-2.34-21.02-.55-31.09,3-5.58479,1.92327-11.02526,4.24249-16.28,6.94-20.89,10.93-42.95,13.13-65.89,9.58-.9-.14-1.81-.25-3.25-.44c13.21,5.07,26.82,3.68,40,6.07l-3.36,2c.05.23.15.45.15.68c3.09-.57,6.23-.78,9.23-1.78c5.67-1.86,11.19-4.21,16.84-6.21c10.81255-3.76118,22.22907-5.48366,33.67-5.08.38076.03593.76296-.05173,1.09-.25-5.00675-2.24658-10.4541-3.34015-15.94-3.2c6.68791-8.87959,25.75409-12.0965,41.82654-7.77814.22169-.22317.44373-.4463.66612-.66938-2.35987-1.39332-4.95288-2.36471-7.66266-2.86249v.00001Zm-23.29-47.65c-17.75-4.36-35.46-8.89-53.84-9.54-4.78925-.09489-9.57364.35805-14.26,1.35-6.12018,1.32085-12.13608,3.08551-18,5.28c1.99101.24757,3.99391.38778,6,.42c7.24-.24,14.46-.72,21.69-.86c3.35-.06,6.67.43,10,.68-.00991.19321-.00991.38679,0,.58l-5.42,3.41c10.16504-1.45034,20.51125-.99594,30.51,1.34c3.37.75,6.65,1.81,10.52,2.81-8.4,2.46-15.52,6.24-22.52,10.34-7.36,4.33-15.47,5.88-23.74,6.33-6.9883.21307-13.98306.0261-20.95-.56-2.51-.16-5-1.26-7.51-1.84-3.11-.68-6.31-1.11-9.38-2-8.54521-2.51908-16.75217-6.06849-24.44-10.57-.4-.23-.84-.4-1.26-.59-.12.2-.23.41-.35.62c5.45,3.05,10.76,6.35,16.35,9.11c14.26,7.04,29.44,9.92,45.26,10.1c7.75.08,15.51.43,23.4.67-6.83396,3.70332-14.19662,6.33405-21.83,7.8c0,.29333,0,.57333,0,.84c3.29.31,6.57.62,9.87.91c0,.3,0,.6,0,.88-8.08,5.16-17.28,6.52-26.69,7.62c1.88.06,3.74.17,5.62.17c14.74-.3,28.05-5.38,40.65-12.55c5.73-3.26,11.24-6.97,16.73-10.65c12.22-8.16,25.24-8.92,38.84-4.36c3.5,1.13,6.87,2.65,10.3,4c.12-.24.25-.46.36-.69l-14.58-8.28c1.53278-.43562,3.10296-.72689,4.69-.87c4.09.11,8.17.55,12.24.64c4.38.1,8.75-.08,13.13-.08c0-.26,0-.52,0-.78-2.16-.35-4.35-.58-6.48-1.07-15-3.5-30.07-6.93-44.91-10.61Zm59.72-37.18c11.94,15.72,40.06,23.06,60.18,19.43-21.77-2.43-42.4-6.55-60.17-19.43h-.01Zm31.9-8.55c-.06.31-.12.62-.2.93l1-.6-1.67-1.91c-.7,2.3-1.2,4-1.7,5.72l.32.17l1.68-4.25.57-.06Zm25.48,7.73c-3.90884-4.12165-7.02425-8.92867-9.19-14.18-3.96-9-9.35-17-17.28-23-4.11448-3.2053-8.85189-5.51781-13.91-6.79-.53-.13-1.08-.21-1.62-.29-.36-.05-.73-.08-1.45-.18c17.33,7.03,27.79,19.29,31.51,37.17-.23.22-.44.45-.65.67l-9.94-9.08c.08,2.23.17,4.85.26,7.23c1.19905,1.23766,2.28972,2.5759,3.26,4c5.54,9.58,13.89,15.77,23.95,19.77c4.07314,1.6159,8.26667,2.93754,12.46447,4.25071c1.2874-.56324,2.56232-1.11378,3.81413-1.6458-.67031-.70114-1.34034-1.40303-2.0086-2.10491.07-.2.13-.43.2-.65c2.17489.11412,4.33915.44727,6.50699.80426.35091-.14178.69854-.28124,1.0426-.41822c1.08.45,1.69.7,1.77.7l1.67.26-2.06-1.49c.22658-.0955.45367-.18976.68124-.28275-.83297-.17568-1.66322-.35901-2.49083-.55329-10.03-2.45-19.14-6.72-26.52-14.19h-.01Zm-8.54-40.65c-4.17-3.77-9.25-4.86-14.6-5.01-1.70255.10357-3.36316.57072-4.87,1.37c7.91,4.39,15.75,8.65,25.33,8.14-2.14-1.63-4.11-2.93-5.85-4.5h-.01Zm221.10959,41.91249l-2.41,1.65c-2.07636-18.37091-.95307-36.96271,3.32-54.95.08957-.42314.24837-.82859.47-1.2c3.42-1.49,6.88-2.88,10.55-4.35l.89-.36c-.13.9-.26,1.7-.36,2.5-1.85,13.88-1.47,28.72,1.16,45.36.07669.73641-.08077,1.47825-.45,2.12-4.31,3.17-8.82,6.25-13.17,9.23Zm30.61-66.38l1.09-.43c-.06975,1.13226-.06975,2.26774,0,3.4.37333,5.12.75667,10.24333,1.15,15.37v.26c.53,6.91,1.08,14.05,1.56,21.08.13635.96653.05085,1.95142-.25,2.88-3.92,2.92-8.05,5.75-12.44,8.75l-2.45,1.68c-2.62-18.13-2.43-33.25.59-47.47l10.75-5.52Zm11.16,37.43l-.23.15-2.22,1.53-.16-7c-.24-11.11-.49-22.59-.62-34c.17269-.69719.58286-1.31245,1.16-1.74c2.64-1.26,5.42-2.34,8.37-3.49l1.13-.44c-.0849,1.11172-.0849,2.22828,0,3.34.37,4.61.78,9.22,1.18,13.83l.1,1.12c.47,5.4,1,11,1.4,16.46.14035.99508.14035,2.00493,0,3-3.25,2.53-6.77,4.92-10.11,7.24Zm29.77-54.05l-.06,4.92c-.11,9.37-.22,18.18-.39,27.15.01008.64255-.13757,1.27777-.43,1.85-3.59,2.65-7.38,5.26-11,7.78l-2.7,1.86-.15-6.09c-.25-9.72-.51-19.77-.69-29.65.01374-.54235.1469-1.07499.39-1.56c4.54-2,9.14-3.86,13.59-5.66l-.3-.86.34.84l1.4-.58Zm5.17,29.85c-.63023-10.70515.262-21.44558,2.65-31.9.30623-.70387.8469-1.27988,1.53-1.63c2.61-1.21,5.36-2.29,8-3.34l.7-.28-.13,3.73c-.28,8.27-.55,16.08-.87,24c.00167.4315-.10127.85698-.3,1.24-3.28,2.4-6.73,4.8-10.39,7.35l-1.19.83Zm31.16-44.54l1.24-.49-.3,3.27c-.64,6.9-1.25,13.42-1.91,19.94-.04156.41304-.20126.80536-.46,1.13-3.57,2.57-7.23,5.09-10.77,7.53l-1.29.89c.72-8.82,1.47-17.92,2.32-26.85.09988-.41673.31876-.79543.63-1.09c3.42-1.5,6.88-2.87,10.54-4.33Zm8.98-3.6c3.25-1.39,6.51-2.69,10-4.06l1-.42-.25,2.37c-.56,5.39-1.09,10.48-1.73,15.61-.20604.51238-.5527.9561-1,1.28-3.36,2.4-6.83,4.78-10.19,7.08l-2,1.36.42-2.81c.93-6.14,2-13.1,3.07-19.76.17176-.26765.40488-.49048.68-.65Zm19.26-7.76c2.42-1.12,4.91-2.09,7.53-3.12l.33-.13-.16,1.06c-.64,4.21-1.24,8.16-1.86,12.1-.0395.27003-.09628.53724-.17.8-3,2.14-6.07,4.26-9.32,6.51l.2-1.34c.76-5.07,1.48-9.86,2.31-14.59.2211-.54784.62351-1.0032,1.14-1.29Zm33.86-13.72c2.76709-1.42766,5.6634-2.58954,8.65-3.47.42229-.01284.84316.05504,1.24.2.00436.50405-.12319,1.00048-.37,1.44-3.45,2.62-7,5.06-11.07,7.89l-1,.7c.25352-1.46391.58735-2.91276,1-4.34.24561-.95122.78868-1.7991,1.55-2.42Zm-18.86,8.37c.10664-.38583.32183-.73292.62-1c3-1.33,6.15-2.57,9.45-3.89l.82-.33c-.26,1.85-.49,3.45-.82,5c0,.27-.11.56-.16.85-.09091.87173-.34177,1.71923-.74,2.5-3.34,2.56-6.87,4.95-10.29,7.26l-1.47,1l.2-.94c.76-3.39,1.54-6.95,2.39-10.45Zm-220,227.01c-4.01915-1.00185-7.01485-4.36259-7.55-8.47-.84488-3.69784.50864-7.55227,3.48-9.91.55,1.41,1.19,2.79,1.82,4.13c2.14,4.62,4.18,9.01,2.25,14.25Zm-73.74,39.53355c-18.29864.34406-35.8912-7.05761-48.44-20.38-3.27335-3.53898-6.11645-7.45286-8.47-11.66-13.91-24.78-13.1-53.89-.81-74.34c4.49048-7.47832,13.40775-17.31504,15.58971-19.68166-1.62854.88369-3.30707,1.72568-5.02591,2.53745-3.20983,2.08847-5.8717,4.35987-8.4038,6.48421-18.29,15.31-21.98,43.34-17.29,65.39c5.85,27.51,31.09,54.59,60.79,53.72c4.08-.12,8.14-1.97,12.06-2.07Zm29.15-201.27c-3.25117-10.27842-7.84413-20.08301-13.66-29.16-7.23,8.52-14.42,16.98-20.76,26.44-3.36,5.25-6.39,11.18-7.75,17.46-1.71,8.66-1.13,17.46-.46,26.22c1.94,14.71,7.89,28.7,16.19,40.89-6.42-12.87-11.21-26.86-12.21-41.24-.14-9.14-.43-19.25,2.52-27.95c4.64-11.91,13.38-21.66,21.64-31.52c9.03,16.56,14.5,34.99,17.9,53.5.78,3.77,1.48,9.63,2.07,13.48.22,2.22.76,8.13,1,10.22.22,3.22.42,8.76.63,12-.01,3.2.12,8.77.12,12.05.85-6.57,1.54-13.99,1.71-20.66.64324-20.9406-2.38238-41.83226-8.94-61.73Zm20.77,66.42l-.23-.54-1.26-.8c.11.09.65.56,1.49,1.34Zm27.88,200.68142c-3.7-2.51-5.79114-1.62746-9.44,1.93254-1.75795,2.25971-2.47612,3.00619-3.86,5.51249-.43.76-.7763,2.53355-1.0663,2.99355l-.4037,1.91885c-1.17,7.22-.31394,10.63784,4.61236,12.04784.08499.03958.89413.50661.98764.51331c2.20247.14308,4.31796-.88238,5.57-2.7c1.36-2.59,2.5-5.3,3.6-7.93.66-1.54,1.31-2.94604,2-4.43604v-2.54791c0-3.05331,0-3.58-2-7.30463ZM971.48351,221.71549c-1.06293.47019-1.62247,1.64678-1.31637,2.76803c2.36,8.93,4.32,20.3,2.46,29.4-3.62,17.74,7.2,18.95,10.11,22.85c1.34,1.81,1.94,5.71,2.2,9.39.05082.84728.68663,1.54392,1.52576,1.67172s1.6535-.34798,1.95424-1.14172c10.71-27.64-.48-35.78-6-49-2.25711-5.22388-4.93248-10.25691-8-15.05-.62372-.98075-1.8707-1.35822-2.93363-.88803Z" fill="#a57c00"/></g><g transform="translate(0-1)"><rect width="1086.38" height="315.51" rx="0" ry="0" transform="matrix(1 0 0 1.198244 98.07 888.136028)" fill="#fff"/><path d="M231.25,922.62h52v174.64c-.22,10.44667-.66333,19.11333-1.33,26-.51147,5.81854-1.34609,11.60414-2.5,17.33-.77672,3.94134-1.94933,7.79421-3.5,11.5-1.35424,3.04602-2.91452,5.99619-4.67,8.83-2.06536,3.38464-4.71671,6.37461-7.83,8.83-3.36122,2.52581-7.13805,4.44468-11.16,5.67-5.09868,1.56694-10.3531,2.57289-15.67,3-6,.54667-13,.82333-21,.83-16.22,0-28.55333-1.27667-37-3.83s-14.78-7.38667-19-14.5c-1.78-2.88-3.44667-5.82333-5-8.83-1.78778-3.65985-3.13068-7.52069-4-11.5-1.26299-5.70613-2.09533-11.49911-2.49-17.33-.56-6.88-.84-15.54667-.84-26v-174.64h53.66v174.64c0,6,.16667,10.66667.5,14c.13731,2.68733.87905,5.30906,2.17,7.67c1.01685,1.71509,2.708,2.92356,4.66,3.33c2.63553.50518,5.31716.72977,8,.67c2.62675.06705,5.25283-.15766,7.83-.67c1.89479-.44246,3.52297-1.64732,4.5-3.33c1.28745-2.36237,2.02896-4.98329,2.17-7.67.33333-3.33333.5-8,.5-14v-174.64Zm181.3,252.3l-59.66-135.31h-2v135.31h-47.66v-252.3h51.33l35.33,87.66h2v-87.66h48v252.3h-27.34Zm49.99,0v-252.3h53.66v252.3h-53.66Zm206.96-96.65c.66667,8,1,15.55333,1,22.66.10881,11.64658-.61302,23.2861-2.16,34.83-1.45333,9.89333-4.51,18.05667-9.17,24.49s-11.27,11.21333-19.83,14.34c-8.55333,3.1-19.83,4.65333-33.83,4.66-16.66667,0-29.38667-1.5-38.16-4.5-8.35421-2.64121-15.34728-8.43946-19.49-16.16-2.41692-3.96723-4.32206-8.22438-5.67-12.67-1.86558-6.42475-3.14744-13.00478-3.83-19.66-1-8.22-1.72333-18.66333-2.17-31.33s-.67-28.77333-.67-48.32.22333-35.43333.67-47.66s1.17-22.22667,2.17-30c.66338-6.22225,1.94641-12.36271,3.83-18.33c1.47933-4.2867,3.37856-8.41675,5.67-12.33c4.28743-7.43094,11.17283-13.01264,19.33-15.67c8.44-2.88,20.66-4.32333,36.66-4.33c14.20667,0,25.65,1.33333,34.33,4s15.34667,7,20,13c4.66667,6,7.77667,13.72,9.33,23.16c1.69358,11.30562,2.4761,22.72904,2.34,34.16c0,3.12-.06,6.56-.17,10.34s-.28,7.78-.5,12h-49c0-6.66667-.05667-12.22-.17-16.66s-.28-8.10667-.5-11c-.14763-2.2905-.42474-4.57081-.83-6.83-.33-1.67-.62-3.05-.83-4.17-.9-4.22-5.56667-6.33-14-6.33-4.23,0-7.28.5-9.17,1.5-1.89273,1.0074-3.28048,2.75748-3.83,4.83-.7228,1.99603-1.22577,4.06492-1.5,6.17-.33,2.33-.67,5.89-1,10.66s-.56,11.39-.67,19.83-.16,19.45-.16,33c0,14,.05333,25.22.16,33.66s.33,15.10667.67,20c.33,4.89.67,8.55,1,11c.26242,2.15933.76555,4.28253,1.5,6.33.5444,2.08652,2.02008,3.80569,4,4.66c2,.89333,5.55333,1.34,10.66,1.34c6.66667,0,10.66667-1.89,12-5.67.89879-2.26068,1.5688-4.60572,2-7c.47561-2.70067.8094-5.4244,1-8.16.22-3,.39-6.44.5-10.34s.17-8.38.17-13.49l48.32-.01Zm140.65,80.32c-1.99553,3.72225-4.64829,7.05259-7.83,9.83-3.326,2.74481-7.10624,4.88705-11.17,6.33-5.05634,1.80574-10.31601,2.98127-15.66,3.5-6.97648.71662-13.98699,1.05045-21,1-16.22,0-28.49667-1.5-36.83-4.5-8.15597-2.84833-14.9769-8.60126-19.16-16.16-2.30585-3.96523-4.20548-8.15314-5.67-12.5-1.86671-6.02965-3.14928-12.22482-3.83-18.5-1-7.76667-1.72333-17.93-2.17-30.49s-.66667-28.72333-.66-48.49c0-19.78.22-35.89.66-48.33s1.16333-22.53333,2.17-30.28c.66815-6.2215,1.95108-12.36149,3.83-18.33c1.52912-4.37575,3.4259-8.61421,5.67-12.67c2.08662-3.61409,4.72893-6.87733,7.83-9.67c3.28987-2.83803,7.07713-5.0419,11.17-6.5c5.11242-1.81406,10.42934-2.98962,15.83-3.5c7.03058-.70878,14.09391-1.04258,21.16-1c16,0,28.16333,1.55667,36.49,4.67c8.08186,2.8971,14.87444,8.56644,19.17,16c2.2444,4.05079,4.13798,8.28625,5.66,12.66c1.88841,5.96998,3.17482,12.11391,3.84,18.34c1,7.78,1.72,17.89,2.16,30.33s.66333,28.55.67,48.33c0,19.77333-.22333,35.93667-.67,48.49s-1.16667,22.71667-2.16,30.49c-.67843,6.27638-1.96446,12.4721-3.84,18.5-1.46011,4.33099-3.35651,8.50242-5.66,12.45Zm-42.66-41.66c.44-1.55333.88333-3.55333,1.33-6c.55865-3.64268.89262-7.31629,1-11c.22-4.88.38667-11.49.5-19.83s.17-19.28333.17-32.83c0-14-.05667-25.22-.17-33.66s-.28-15.16-.5-20.16c-.10415-3.74031-.43812-7.47067-1-11.17-.45333-2.44-.89667-4.44-1.33-6-.73097-2.02623-2.14548-3.73424-4-4.83-1.78-1-4.78-1.5-9-1.5s-7.28.5-9.16,1.5c-1.89813,1.00335-3.29038,2.75454-3.84,4.83-.75435,1.92768-1.25846,3.94412-1.5,6-.33333,2.45333-.66667,6.17667-1,11.17s-.55333,11.71333-.66,20.16c-.12,8.44667-.17667,19.66667-.17,33.66c0,13.56.05667,24.50333.17,32.83s.33333,14.93667.66,19.83c.34,4.88667.67333,8.55333,1,11c.23914,2.05632.74332,4.07306,1.5,6c.52022,2.04866,1.92857,3.75774,3.84,4.66c1.88.89,4.94,1.34,9.16,1.34s7.22-.45,9-1.34c1.87184-.99513,3.30003-2.65897,4-4.66Zm156.3,57.99c-.66-2-1.28-4.17-1.83-6.5s-1.17-5.88-1.83-10.67-1.56-11.38-2.67-19.83-2.45-20-4-34.66c-.66667-5.76667-1.33333-10.43333-2-14-.44578-2.80702-1.22808-5.55011-2.33-8.17-.61476-1.59501-1.80207-2.90355-3.33-3.67-1.37817-.55882-2.85288-.84085-4.34-.83h-8v98.32h-52.32v-252.29h76.32c11.33333,0,20.66667,1.28,28,3.84c6.86537,2.22938,12.93942,6.39682,17.49,12c4.34,5.44,7.34,12.44,9,21c1.81353,10.28466,2.65058,20.71776,2.5,31.16.12922,10.29339-.3148,20.58598-1.33,30.83-.88667,7.45333-2.27667,13.28667-4.17,17.5-1.48158,3.66874-3.82418,6.92711-6.83,9.5-2.94613,2.29137-6.06548,4.35087-9.33,6.16v2c1.33333,1.12,2.72333,2.34333,4.17,3.67c1.77352,1.89854,3.08429,4.18127,3.83,6.67c1.76667,4,3.6,10.05333,5.5,18.16c2.40609,11.28703,4.24176,22.68816,5.5,34.16c1.33333,10.22,2.33333,18.44,3,24.66s1.27667,11.22,1.83,15c.55,3.78,1,6.67,1.33,8.67.32083,1.92965.82305,3.82472,1.5,5.66v1.67l-55.66-.01Zm-15.66-145.31c4.88,0,8.32333-2.05667,10.33-6.17s3.00667-12.05667,3-23.83c0-10-1.16667-16.66667-3.5-20-2.33-3.34-6.06-5-11.16-5h-13.33v55h14.66Zm195.97,145.31l-59.66-135.31h-2v135.31h-47.66v-252.3h51.32l35.33,87.66h2v-87.66h48v252.3h-27.33Z" transform="translate(-26-14.999999)" fill="#f0aa14"/></g><g id="eUxDHydgQuM77" transform="matrix(.962114 0.272648-.272648 0.962114 187.674496-83.570653)"><path d="M215.61,854c8.89,15.13,12.73,31.27,9,48.47-1.97756,8.41136-4.4485,16.69902-7.4,24.82-5.45,15.78-5.81,31.08,2.81,46c.88,1.53.32,3.9.44,5.88-1.68-1-3.89-1.56-5-3-8.69-11.46-17.18-23.07-26.54-35.73-5.29,22.21,7.41,38,15.95,56.13-10.14-3-17.46-8.3-22.76-15.65s-9.5-15.67-14.54-24.18c-3.49,8.92-4.16,17.72-1.48,26.24c3.46,11,8.21,21.66,12,32.58c4.45,12.76,8.51,25.66,12.72,38.5l-1.77.66c-10.55-15.85-21-31.74-31.66-47.51-14.54-21.53-20.66-45.14-18.45-71c.62962-7.00503.76996-14.04544.42-21.07-.76-13.92-7.35-24.89-18.71-34.2.21,2.69.34,4.44.51,6.2c1.35,13.3,2.61,26.62,4.08,39.91.4,3.52.32,5.93-4.57,4.69-.46-14.69-4.7-28.51-13-40.31C94.18,872.16,79.42,853.79,65.18,835l-6.84-14.67L35.73,772c-.37213-2.02436-.85283-4.02725-1.44-6-8.21-23-14.26-46.53-16.21-70.82-3.1-38.28,5.85-73.09,35.47-99.53c26.27-23.46,57-34.82,91.71-22.29c14.42,5.2,27.16,15.17,40.45,23.34c6.55,4,12.33,9.34,18.94,13.24c8.71,5.12,14.84,3,18.53-6.18c1.58-3.94667,3.31667-7.75333,5.21-11.42c9.3,31.19,0,63.7-22.85,87.7-.37333-5.78-.49333-11.62667-.36-17.54.06-2.37-1.37-6.29-3.05-6.9-13.23-4.81-27-6.75-40.69-2.51-21.43,6.62-31.15,25.7-25.3,49.51c9.34,38,26.88,71.39,57.58,96.57.68.55,1.34,1.11,2,1.67c28,23.76,44.22,54.14,51.27,90c.56,2.81,1.08,5.63,1.62,8.45-9.22-13.67-17.25-27.65-25.53-41.47-1.3-2.17-3.72-3.68-5.62-5.49-.62.53-1.24,1.09-1.85,1.67Zm-79.88-42.54c-3.19-3.84-6.41-7.65-9.62-11.44-2.31-2.73-4.58-5.42-6.84-8.12C101.42,770.83,74,730.49,81,687.86c-6.31,23.9-1,52.38,15,79.69c9.48,16.42,22.11,31,33.26,43.83l1.06,1.23c9.35,10.76,19,21.9,27.27,33.81c9.5012,13.2729,17.10447,27.80627,22.59,43.18-3.31697-13.29765-8.48048-26.06506-15.34-37.93-8.62-14.95-19.55-28.67-29.11-40.21ZM110.44,823c-2-2.30667-4-4.61-6-6.91l-1.69-2-.81-1C71,776.81,52.6,733.93,50.13,692.44c0-1.17-.08-2.37-.14-3.57-.09-1.93-.18-3.92-.18-5.75l.21-9.28.26-3.14c1-21.37,7.63-38.62,19.54-51.27c6.73472-6.99285,14.7768-12.59546,23.67-16.49-26.2,10-42.47,31.3-46.35,61.13-.09,1-.27,2.56-.46,4.14-.24,2-.48,4-.58,5.35-.05.88-.12,2.65-.18,4.47-.08,2.06-.16,4.12-.22,5.12c0,2.13,0,4.47.08,6.72c0,1.56.08,3,.09,4.42c0,.44.17,2.3.31,3.94l-.48.17h.49c.16,1.75.3,3.4.31,3.91c3.69,37.87,20.78,76.55,48.14,108.86c1.3,1.55,2.63,3.1,4,4.63c3.79,4.33,7.75,8.68,11.57,12.89c17.11,18.78,34.79,38.2,43.15,62.92c1.24383,3.78302,2.18676,7.65842,2.82,11.59-.39821-3.99027-1.12739-7.94053-2.18-11.81-7.23-26.56-25.7-47.83-43.56-68.39Zm66.45-17.73c-3.83-5.75-8.18-11.74-12.95-17.8-9.14088-11.46948-18.94074-22.39792-29.35-32.73-.59-.64-1.27-1.35-2-2.09-1.59-1.66-3.35-3.5-4.52-5-21.46-24-28.39-51.27-19.48-76.8c1.82484-5.26773,4.14524-10.35049,6.93-15.18-7.59081,10.66352-12.16792,23.17546-13.25,36.22-2.31,29.53,17.09,54.14,28.87,66.18c13.81,14.49,28.23,30.21,40.18,47c12.71,17.92,21.16,35,25.81,52.1c3.28252,12.26154,3.87607,25.08771,1.74,37.6c1.5926-6.09028,2.46523-12.34637,2.6-18.64.29-22.34-7.76-45.54-24.58-70.86Z" transform="translate(.000001 0)" fill="#a57c00"/></g></g>
<script><![CDATA[
!function(t,e){"object"==typeof exports&&"undefined"!=typeof module?module.exports=e():"function"==typeof define&&define.amd?define(e):((t="undefined"!=typeof globalThis?globalThis:t||self).__SVGATOR_PLAYER__=t.__SVGATOR_PLAYER__||{},t.__SVGATOR_PLAYER__["91c80d77"]=e())}(this,(function(){"use strict";function t(t,e){var n=Object.keys(t);if(Object.getOwnPropertySymbols){var r=Object.getOwnPropertySymbols(t);e&&(r=r.filter((function(e){return Object.getOwnPropertyDescriptor(t,e).enumerable}))),n.push.apply(n,r)}return n}function e(e){for(var n=1;n<arguments.length;n++){var r=null!=arguments[n]?arguments[n]:{};n%2?t(Object(r),!0).forEach((function(t){u(e,t,r[t])})):Object.getOwnPropertyDescriptors?Object.defineProperties(e,Object.getOwnPropertyDescriptors(r)):t(Object(r)).forEach((function(t){Object.defineProperty(e,t,Object.getOwnPropertyDescriptor(r,t))}))}return e}function n(t){return(n="function"==typeof Symbol&&"symbol"==typeof Symbol.iterator?function(t){return typeof t}:function(t){return t&&"function"==typeof Symbol&&t.constructor===Symbol&&t!==Symbol.prototype?"symbol":typeof t})(t)}function r(t,e){if(!(t instanceof e))throw new TypeError("Cannot call a class as a function")}function i(t,e){for(var n=0;n<e.length;n++){var r=e[n];r.enumerable=r.enumerable||!1,r.configurable=!0,"value"in r&&(r.writable=!0),Object.defineProperty(t,r.key,r)}}function o(t,e,n){return e&&i(t.prototype,e),n&&i(t,n),t}function u(t,e,n){return e in t?Object.defineProperty(t,e,{value:n,enumerable:!0,configurable:!0,writable:!0}):t[e]=n,t}function a(t){return(a=Object.setPrototypeOf?Object.getPrototypeOf:function(t){return t.__proto__||Object.getPrototypeOf(t)})(t)}function s(t,e){return(s=Object.setPrototypeOf||function(t,e){return t.__proto__=e,t})(t,e)}function l(){if("undefined"==typeof Reflect||!Reflect.construct)return!1;if(Reflect.construct.sham)return!1;if("function"==typeof Proxy)return!0;try{return Boolean.prototype.valueOf.call(Reflect.construct(Boolean,[],(function(){}))),!0}catch(t){return!1}}function f(t,e,n){return(f=l()?Reflect.construct:function(t,e,n){var r=[null];r.push.apply(r,e);var i=new(Function.bind.apply(t,r));return n&&s(i,n.prototype),i}).apply(null,arguments)}function c(t,e){if(e&&("object"==typeof e||"function"==typeof e))return e;if(void 0!==e)throw new TypeError("Derived constructors may only return object or undefined");return function(t){if(void 0===t)throw new ReferenceError("this hasn't been initialised - super() hasn't been called");return t}(t)}function h(t,e,n){return(h="undefined"!=typeof Reflect&&Reflect.get?Reflect.get:function(t,e,n){var r=function(t,e){for(;!Object.prototype.hasOwnProperty.call(t,e)&&null!==(t=a(t)););return t}(t,e);if(r){var i=Object.getOwnPropertyDescriptor(r,e);return i.get?i.get.call(n):i.value}})(t,e,n||t)}function v(t){return function(t){if(Array.isArray(t))return y(t)}(t)||function(t){if("undefined"!=typeof Symbol&&null!=t[Symbol.iterator]||null!=t["@@iterator"])return Array.from(t)}(t)||function(t,e){if(!t)return;if("string"==typeof t)return y(t,e);var n=Object.prototype.toString.call(t).slice(8,-1);"Object"===n&&t.constructor&&(n=t.constructor.name);if("Map"===n||"Set"===n)return Array.from(t);if("Arguments"===n||/^(?:Ui|I)nt(?:8|16|32)(?:Clamped)?Array$/.test(n))return y(t,e)}(t)||function(){throw new TypeError("Invalid attempt to spread non-iterable instance.\nIn order to be iterable, non-array objects must have a [Symbol.iterator]() method.")}()}function y(t,e){(null==e||e>t.length)&&(e=t.length);for(var n=0,r=new Array(e);n<e;n++)r[n]=t[n];return r}Number.isInteger||(Number.isInteger=function(t){return"number"==typeof t&&isFinite(t)&&Math.floor(t)===t}),Number.EPSILON||(Number.EPSILON=2220446049250313e-31);var d=g(Math.pow(10,-6));function g(t){var e=arguments.length>1&&void 0!==arguments[1]?arguments[1]:6;if(Number.isInteger(t))return t;var n=Math.pow(10,e);return Math.round((+t+Number.EPSILON)*n)/n}function p(t,e){var n=arguments.length>2&&void 0!==arguments[2]?arguments[2]:d;return Math.abs(t-e)<n}var m=Math.PI/180;function b(t){return t}function k(t,e,n){var r=1-n;return 3*n*r*(t*r+e*n)+n*n*n}function w(){var t=arguments.length>0&&void 0!==arguments[0]?arguments[0]:0,e=arguments.length>1&&void 0!==arguments[1]?arguments[1]:0,n=arguments.length>2&&void 0!==arguments[2]?arguments[2]:1,r=arguments.length>3&&void 0!==arguments[3]?arguments[3]:1;return t<0||t>1||n<0||n>1?null:p(t,e)&&p(n,r)?b:function(i){if(i<=0)return t>0?i*e/t:0===e&&n>0?i*r/n:0;if(i>=1)return n<1?1+(i-1)*(r-1)/(n-1):1===n&&t<1?1+(i-1)*(e-1)/(t-1):1;for(var o,u=0,a=1;u<a;){var s=k(t,n,o=(u+a)/2);if(p(i,s))break;s<i?u=o:a=o}return k(e,r,o)}}function x(){return 1}function A(t){return 1===t?1:0}function _(){var t=arguments.length>0&&void 0!==arguments[0]?arguments[0]:1,e=arguments.length>1&&void 0!==arguments[1]?arguments[1]:0;if(1===t){if(0===e)return A;if(1===e)return x}var n=1/t;return function(t){return t>=1?1:(t+=e*n)-t%n}}var O=Math.sin,S=Math.cos,E=Math.acos,P=Math.asin,M=Math.tan,j=Math.atan2,B=Math.PI/180,T=180/Math.PI,I=Math.sqrt,R=function(){function t(){var e=arguments.length>0&&void 0!==arguments[0]?arguments[0]:1,n=arguments.length>1&&void 0!==arguments[1]?arguments[1]:0,i=arguments.length>2&&void 0!==arguments[2]?arguments[2]:0,o=arguments.length>3&&void 0!==arguments[3]?arguments[3]:1,u=arguments.length>4&&void 0!==arguments[4]?arguments[4]:0,a=arguments.length>5&&void 0!==arguments[5]?arguments[5]:0;r(this,t),this.m=[e,n,i,o,u,a],this.i=null,this.w=null,this.s=null}return o(t,[{key:"determinant",get:function(){var t=this.m;return t[0]*t[3]-t[1]*t[2]}},{key:"isIdentity",get:function(){if(null===this.i){var t=this.m;this.i=1===t[0]&&0===t[1]&&0===t[2]&&1===t[3]&&0===t[4]&&0===t[5]}return this.i}},{key:"point",value:function(t,e){var n=this.m;return{x:n[0]*t+n[2]*e+n[4],y:n[1]*t+n[3]*e+n[5]}}},{key:"translateSelf",value:function(){var t=arguments.length>0&&void 0!==arguments[0]?arguments[0]:0,e=arguments.length>1&&void 0!==arguments[1]?arguments[1]:0;if(!t&&!e)return this;var n=this.m;return n[4]+=n[0]*t+n[2]*e,n[5]+=n[1]*t+n[3]*e,this.w=this.s=this.i=null,this}},{key:"rotateSelf",value:function(){var t=arguments.length>0&&void 0!==arguments[0]?arguments[0]:0;if(t%=360){var e=O(t*=B),n=S(t),r=this.m,i=r[0],o=r[1];r[0]=i*n+r[2]*e,r[1]=o*n+r[3]*e,r[2]=r[2]*n-i*e,r[3]=r[3]*n-o*e,this.w=this.s=this.i=null}return this}},{key:"scaleSelf",value:function(){var t=arguments.length>0&&void 0!==arguments[0]?arguments[0]:1,e=arguments.length>1&&void 0!==arguments[1]?arguments[1]:1;if(1!==t||1!==e){var n=this.m;n[0]*=t,n[1]*=t,n[2]*=e,n[3]*=e,this.w=this.s=this.i=null}return this}},{key:"skewSelf",value:function(t,e){if(e%=360,(t%=360)||e){var n=this.m,r=n[0],i=n[1],o=n[2],u=n[3];t&&(t=M(t*B),n[2]+=r*t,n[3]+=i*t),e&&(e=M(e*B),n[0]+=o*e,n[1]+=u*e),this.w=this.s=this.i=null}return this}},{key:"resetSelf",value:function(){var t=arguments.length>0&&void 0!==arguments[0]?arguments[0]:1,e=arguments.length>1&&void 0!==arguments[1]?arguments[1]:0,n=arguments.length>2&&void 0!==arguments[2]?arguments[2]:0,r=arguments.length>3&&void 0!==arguments[3]?arguments[3]:1,i=arguments.length>4&&void 0!==arguments[4]?arguments[4]:0,o=arguments.length>5&&void 0!==arguments[5]?arguments[5]:0,u=this.m;return u[0]=t,u[1]=e,u[2]=n,u[3]=r,u[4]=i,u[5]=o,this.w=this.s=this.i=null,this}},{key:"recomposeSelf",value:function(){var t=arguments.length>0&&void 0!==arguments[0]?arguments[0]:null,e=arguments.length>1&&void 0!==arguments[1]?arguments[1]:null,n=arguments.length>2&&void 0!==arguments[2]?arguments[2]:null,r=arguments.length>3&&void 0!==arguments[3]?arguments[3]:null,i=arguments.length>4&&void 0!==arguments[4]?arguments[4]:null;return this.isIdentity||this.resetSelf(),t&&(t.x||t.y)&&this.translateSelf(t.x,t.y),e&&this.rotateSelf(e),n&&(n.x&&this.skewSelf(n.x,0),n.y&&this.skewSelf(0,n.y)),!r||1===r.x&&1===r.y||this.scaleSelf(r.x,r.y),i&&(i.x||i.y)&&this.translateSelf(i.x,i.y),this}},{key:"decompose",value:function(){var t=arguments.length>0&&void 0!==arguments[0]?arguments[0]:0,e=arguments.length>1&&void 0!==arguments[1]?arguments[1]:0,n=this.m,r=n[0]*n[0]+n[1]*n[1],i=[[n[0],n[1]],[n[2],n[3]]],o=I(r);if(0===o)return{origin:{x:g(n[4]),y:g(n[5])},translate:{x:g(t),y:g(e)},scale:{x:0,y:0},skew:{x:0,y:0},rotate:0};i[0][0]/=o,i[0][1]/=o;var u=n[0]*n[3]-n[1]*n[2]<0;u&&(o=-o);var a=i[0][0]*i[1][0]+i[0][1]*i[1][1];i[1][0]-=i[0][0]*a,i[1][1]-=i[0][1]*a;var s=I(i[1][0]*i[1][0]+i[1][1]*i[1][1]);if(0===s)return{origin:{x:g(n[4]),y:g(n[5])},translate:{x:g(t),y:g(e)},scale:{x:g(o),y:0},skew:{x:0,y:0},rotate:0};i[1][0]/=s,i[1][1]/=s,a/=s;var l=0;return i[1][1]<0?(l=E(i[1][1])*T,i[0][1]<0&&(l=360-l)):l=P(i[0][1])*T,u&&(l=-l),a=j(a,I(i[0][0]*i[0][0]+i[0][1]*i[0][1]))*T,u&&(a=-a),{origin:{x:g(n[4]),y:g(n[5])},translate:{x:g(t),y:g(e)},scale:{x:g(o),y:g(s)},skew:{x:g(a),y:0},rotate:g(l)}}},{key:"clone",value:function(){var t=this.m;return new this.constructor(t[0],t[1],t[2],t[3],t[4],t[5])}},{key:"toString",value:function(){var t=arguments.length>0&&void 0!==arguments[0]?arguments[0]:" ";if(null===this.s){var e=this.m.map((function(t){return g(t)}));1===e[0]&&0===e[1]&&0===e[2]&&1===e[3]?this.s="translate("+e[4]+t+e[5]+")":this.s="matrix("+e.join(t)+")"}return this.s}}],[{key:"create",value:function(t){return t?Array.isArray(t)?f(this,v(t)):t instanceof this?t.clone():(new this).recomposeSelf(t.origin,t.rotate,t.skew,t.scale,t.translate):new this}}]),t}();function N(t,e,n){return t>=.5?n:e}function F(t,e,n){return 0===t||e===n?e:t*(n-e)+e}function C(t,e,n){var r=F(t,e,n);return r<=0?0:r}function L(t,e,n){var r=F(t,e,n);return r<=0?0:r>=1?1:r}function D(t,e,n){return 0===t?e:1===t?n:{x:F(t,e.x,n.x),y:F(t,e.y,n.y)}}function q(t,e,n){return 0===t?e:1===t?n:{x:C(t,e.x,n.x),y:C(t,e.y,n.y)}}function V(t,e,n){var r=function(t,e,n){return Math.round(F(t,e,n))}(t,e,n);return r<=0?0:r>=255?255:r}function z(t,e,n){return 0===t?e:1===t?n:{r:V(t,e.r,n.r),g:V(t,e.g,n.g),b:V(t,e.b,n.b),a:F(t,null==e.a?1:e.a,null==n.a?1:n.a)}}function Y(t,e,n){var r=e.length;if(r!==n.length)return N(t,e,n);for(var i=new Array(r),o=0;o<r;o++)i[o]=F(t,e[o],n[o]);return i}function G(t,e){for(var n=[],r=0;r<t;r++)n.push(e);return n}function U(t,e){if(--e<=0)return t;var n=(t=Object.assign([],t)).length;do{for(var r=0;r<n;r++)t.push(t[r])}while(--e>0);return t}var $,W=function(){function t(e){r(this,t),this.list=e,this.length=e.length}return o(t,[{key:"setAttribute",value:function(t,e){for(var n=this.list,r=0;r<this.length;r++)n[r].setAttribute(t,e)}},{key:"removeAttribute",value:function(t){for(var e=this.list,n=0;n<this.length;n++)e[n].removeAttribute(t)}},{key:"style",value:function(t,e){for(var n=this.list,r=0;r<this.length;r++)n[r].style[t]=e}}]),t}(),H=/-./g,Q=function(t,e){return e.toUpperCase()};function X(t){return"function"==typeof t?t:N}function J(t){return t?"function"==typeof t?t:Array.isArray(t)?function(t){var e=arguments.length>1&&void 0!==arguments[1]?arguments[1]:b;if(!Array.isArray(t))return e;switch(t.length){case 1:return _(t[0])||e;case 2:return _(t[0],t[1])||e;case 4:return w(t[0],t[1],t[2],t[3])||e}return e}(t,null):function(t,e){var n=arguments.length>2&&void 0!==arguments[2]?arguments[2]:b;switch(t){case"linear":return b;case"steps":return _(e.steps||1,e.jump||0)||n;case"bezier":case"cubic-bezier":return w(e.x1||0,e.y1||0,e.x2||0,e.y2||0)||n}return n}(t.type,t.value,null):null}function K(t,e,n){var r=arguments.length>3&&void 0!==arguments[3]&&arguments[3],i=e.length-1;if(t<=e[0].t)return r?[0,0,e[0].v]:e[0].v;if(t>=e[i].t)return r?[i,1,e[i].v]:e[i].v;var o,u=e[0],a=null;for(o=1;o<=i;o++){if(!(t>e[o].t)){a=e[o];break}u=e[o]}return null==a?r?[i,1,e[i].v]:e[i].v:u.t===a.t?r?[o,1,a.v]:a.v:(t=(t-u.t)/(a.t-u.t),u.e&&(t=u.e(t)),r?[o,t,n(t,u.v,a.v)]:n(t,u.v,a.v))}function Z(t,e){var n=arguments.length>2&&void 0!==arguments[2]?arguments[2]:null;return t&&t.length?"function"!=typeof e?null:("function"!=typeof n&&(n=null),function(r){var i=K(r,t,e);return null!=i&&n&&(i=n(i)),i}):null}function tt(t,e){return t.t-e.t}function et(t,e,r,i,o){var u,a="@"===r[0],s="#"===r[0],l=$[r],f=N;switch(a?(u=r.substr(1),r=u.replace(H,Q)):s&&(r=r.substr(1)),n(l)){case"function":if(f=l(i,o,K,J,r,a,e,t),s)return f;break;case"string":f=Z(i,X(l));break;case"object":if((f=Z(i,X(l.i),l.f))&&"function"==typeof l.u)return l.u(e,f,r,a,t)}return f?function(t,e,n){if(arguments.length>3&&void 0!==arguments[3]&&arguments[3])return t instanceof W?function(r){return t.style(e,n(r))}:function(r){return t.style[e]=n(r)};if(Array.isArray(e)){var r=e.length;return function(i){var o=n(i);if(null==o)for(var u=0;u<r;u++)t[u].removeAttribute(e);else for(var a=0;a<r;a++)t[a].setAttribute(e,o)}}return function(r){var i=n(r);null==i?t.removeAttribute(e):t.setAttribute(e,i)}}(e,r,f,a):null}function nt(t,e,r,i){if(!i||"object"!==n(i))return null;var o=null,u=null;return Array.isArray(i)?u=function(t){if(!t||!t.length)return null;for(var e=0;e<t.length;e++)t[e].e&&(t[e].e=J(t[e].e));return t.sort(tt)}(i):(u=i.keys,o=i.data||null),u?et(t,e,r,u,o):null}function rt(t,e,n){if(!n)return null;var r=[];for(var i in n)if(n.hasOwnProperty(i)){var o=nt(t,e,i,n[i]);o&&r.push(o)}return r.length?r:null}function it(t,e){if(!e.settings.duration||e.settings.duration<0)return null;var n,r,i,o,u,a=function(t,e){if(!e)return null;var n=[];if(Array.isArray(e))for(var r=e.length,i=0;i<r;i++){var o=e[i];if(2===o.length){var u=null;if("string"==typeof o[0])u=t.getElementById(o[0]);else if(Array.isArray(o[0])){u=[];for(var a=0;a<o[0].length;a++)if("string"==typeof o[0][a]){var s=t.getElementById(o[0][a]);s&&u.push(s)}u=u.length?1===u.length?u[0]:new W(u):null}if(u){var l=rt(t,u,o[1]);l&&(n=n.concat(l))}}}else for(var f in e)if(e.hasOwnProperty(f)){var c=t.getElementById(f);if(c){var h=rt(t,c,e[f]);h&&(n=n.concat(h))}}return n.length?n:null}(t,e.elements);return a?(n=a,r=e.settings,i=r.duration,o=n.length,u=null,function(t,e){var a=r.iterations||1/0,s=(r.alternate&&a%2==0)^r.direction>0?i:0,l=t%i,f=1+(t-l)/i;e*=r.direction,r.alternate&&f%2==0&&(e=-e);var c=!1;if(f>a)l=s,c=!0,-1===r.fill&&(l=r.direction>0?0:i);else if(e<0&&(l=i-l),l===u)return!1;u=l;for(var h=0;h<o;h++)n[h](l);return c}):null}function ot(t,e){if($=e,!t||!t.root||!Array.isArray(t.animations))return null;var n=function(t){for(var e=document.getElementsByTagName("svg"),n=0;n<e.length;n++)if(e[n].id===t.root&&!e[n].svgatorAnimation)return e[n].svgatorAnimation=!0,e[n];return null}(t);if(!n)return null;var r=t.animations.map((function(t){return it(n,t)})).filter((function(t){return!!t}));return r.length?{svg:n,animations:r,animationSettings:t.animationSettings,options:t.options||void 0}:null}function ut(t){return+("0x"+(t.replace(/[^0-9a-fA-F]+/g,"")||27))}function at(t,e,n){return!t||!n||e>t.length?t:t.substring(0,e)+at(t.substring(e+1),n,n)}function st(t){var e=arguments.length>1&&void 0!==arguments[1]?arguments[1]:27;return!t||t%e?t%e:st(t/e,e)}function lt(t,e,n){if(t&&t.length){var r=ut(n),i=ut(e),o=st(r)+5,u=at(t,st(r,5),o);return u=u.replace(/\x7c$/g,"==").replace(/\x2f$/g,"="),u=function(t,e,n){var r=+("0x"+t.substring(0,4));t=t.substring(4);for(var i=e%r+n%27,o=[],u=0;u<t.length;u+=2)if("|"!==t[u]){var a=+("0x"+t[u]+t[u+1])-i;o.push(a)}else{var s=+("0x"+t.substring(u+1,u+1+4))-i;u+=3,o.push(s)}return String.fromCharCode.apply(String,o)}(u=(u=atob(u)).replace(/[\x41-\x5A]/g,""),i,r),u=JSON.parse(u)}}var ft=[{key:"alternate",def:!1},{key:"fill",def:1},{key:"iterations",def:0},{key:"direction",def:1},{key:"speed",def:1},{key:"fps",def:100}],ct=function(){function t(e,n){var i=this,o=arguments.length>2&&void 0!==arguments[2]?arguments[2]:null;r(this,t),this._id=0,this._running=!1,this._rollingBack=!1,this._animations=e,this._settings=n,(!o||o<"2022-05-02")&&delete this._settings.speed,ft.forEach((function(t){i._settings[t.key]=i._settings[t.key]||t.def})),this.duration=n.duration,this.offset=n.offset||0,this.rollbackStartOffset=0}return o(t,[{key:"alternate",get:function(){return this._settings.alternate}},{key:"fill",get:function(){return this._settings.fill}},{key:"iterations",get:function(){return this._settings.iterations}},{key:"direction",get:function(){return this._settings.direction}},{key:"speed",get:function(){return this._settings.speed}},{key:"fps",get:function(){return this._settings.fps}},{key:"maxFiniteDuration",get:function(){return this.iterations>0?this.iterations*this.duration:this.duration}},{key:"_apply",value:function(t){for(var e=arguments.length>1&&void 0!==arguments[1]?arguments[1]:{},n=this._animations,r=n.length,i=0,o=0;o<r;o++)e[o]?i++:(e[o]=n[o](t,1),e[o]&&i++);return i}},{key:"_rollback",value:function(t){var e=this,n=1/0,r=null;this.rollbackStartOffset=t,this._rollingBack=!0,this._running=!0;this._id=window.requestAnimationFrame((function i(o){if(e._rollingBack){null==r&&(r=o);var u=Math.round(t-(o-r)*e.speed);if(u>e.duration&&n!==1/0){var a=!!e.alternate&&u/e.duration%2>1,s=u%e.duration;u=(s+=a?e.duration:0)||e.duration}var l=(e.fps?1e3/e.fps:0)*e.speed,f=Math.max(0,u);f<=n-l&&(e.offset=f,n=f,e._apply(f));var c=e.iterations>0&&-1===e.fill&&u>=e.maxFiniteDuration;(u<=0||e.offset<u||c)&&e.stop(),e._id=window.requestAnimationFrame(i)}}))}},{key:"_start",value:function(){var t=this,e=arguments.length>0&&void 0!==arguments[0]?arguments[0]:0,n=-1/0,r=null,i={};this._running=!0;var o=function o(u){null==r&&(r=u);var a=Math.round((u-r)*t.speed+e),s=(t.fps?1e3/t.fps:0)*t.speed;if(a>=n+s&&!t._rollingBack&&(t.offset=a,n=a,t._apply(a,i)===t._animations.length))return void t.pause(!0);t._id=window.requestAnimationFrame(o)};this._id=window.requestAnimationFrame(o)}},{key:"_pause",value:function(){this._id&&window.cancelAnimationFrame(this._id),this._running=!1}},{key:"play",value:function(){if(!this._running)return this._rollingBack?this._rollback(this.offset):this._start(this.offset)}},{key:"stop",value:function(){this._pause(),this.offset=0,this.rollbackStartOffset=0,this._rollingBack=!1,this._apply(0)}},{key:"reachedToEnd",value:function(){return this.iterations>0&&this.offset>=this.iterations*this.duration}},{key:"restart",value:function(){var t=arguments.length>0&&void 0!==arguments[0]&&arguments[0];this.stop(t),this.play(t)}},{key:"pause",value:function(){this._pause()}},{key:"reverse",value:function(){this.direction=-this.direction}}],[{key:"build",value:function(t,e){delete t.animationSettings,t.options=lt(t.options,t.root,"91c80d77"),t.animations.map((function(e){e.settings=lt(e.s,t.root,"91c80d77"),delete e.s,t.animationSettings||(t.animationSettings=e.settings)}));var n=t.version;if(!(t=ot(t,e)))return null;var r=t.options||{},i=new this(t.animations,t.animationSettings,n);return{el:t.svg,options:r,player:i}}},{key:"push",value:function(t){return this.build(t)}},{key:"init",value:function(){var t=this,e=window.__SVGATOR_PLAYER__&&window.__SVGATOR_PLAYER__["91c80d77"];Array.isArray(e)&&e.splice(0).forEach((function(e){return t.build(e)}))}}]),t}();!function(){for(var t=0,e=["ms","moz","webkit","o"],n=0;n<e.length&&!window.requestAnimationFrame;++n)window.requestAnimationFrame=window[e[n]+"RequestAnimationFrame"],window.cancelAnimationFrame=window[e[n]+"CancelAnimationFrame"]||window[e[n]+"CancelRequestAnimationFrame"];window.requestAnimationFrame||(window.requestAnimationFrame=function(e){var n=Date.now(),r=Math.max(0,16-(n-t)),i=window.setTimeout((function(){e(n+r)}),r);return t=n+r,i},window.cancelAnimationFrame=window.clearTimeout)}();var ht=function(t,e){var n=!1,r=null;return function(i){n&&clearTimeout(n),n=setTimeout((function(){return function(){for(var i=0,o=window.innerHeight,u=0,a=window.innerWidth,s=t.parentNode;s instanceof Element;){var l=window.getComputedStyle(s);if("visible"!==l.overflowY||"visible"!==l.overflowX){var f=s.getBoundingClientRect();"visible"!==l.overflowY&&(i=Math.max(i,f.top),o=Math.min(o,f.bottom)),"visible"!==l.overflowX&&(u=Math.max(u,f.left),a=Math.min(a,f.right))}if(s===s.parentNode)break;s=s.parentNode}n=!1;var c=t.getBoundingClientRect(),h=Math.min(c.height,Math.max(0,i-c.top)),v=Math.min(c.height,Math.max(0,c.bottom-o)),y=Math.min(c.width,Math.max(0,u-c.left)),d=Math.min(c.width,Math.max(0,c.right-a)),g=(c.height-h-v)/c.height,p=(c.width-y-d)/c.width,m=Math.round(g*p*100);null!==r&&r===m||(r=m,e(m))}()}),100)}},vt=function(){function t(e,n,i){r(this,t),n=Math.max(1,n||1),n=Math.min(n,100),this.el=e,this._handlers=[],this.onThresholdChange=i&&i.call?i:function(){},this.thresholdPercent=n||1,this.currentVisibility=null,this.visibilityCalculator=ht(e,this.onVisibilityUpdate.bind(this)),this.bindScrollWatchers(),this.visibilityCalculator()}return o(t,[{key:"bindScrollWatchers",value:function(){for(var t=this.el.parentNode;t&&(this._handlers.push({element:t,event:"scroll",handler:this.visibilityCalculator}),t.addEventListener("scroll",this.visibilityCalculator),t!==t.parentNode&&t!==document);)t=t.parentNode}},{key:"onVisibilityUpdate",value:function(t){var e=this.currentVisibility>=this.thresholdPercent,n=t>=this.thresholdPercent;if(null===this.currentVisibility||e!==n)return this.currentVisibility=t,void this.onThresholdChange(n);this.currentVisibility=t}},{key:"destruct",value:function(){this._handlers.forEach((function(t){t.element.removeEventListener(t.event,t.handler)}))}}]),t}();function yt(t){return g(t)+""}function dt(t){var e=arguments.length>1&&void 0!==arguments[1]?arguments[1]:" ";return t&&t.length?t.map(yt).join(e):""}function gt(t){return yt(t.x)+","+yt(t.y)}function pt(t){if(!t)return"transparent";if(null==t.a||t.a>=1){var e=function(t){return 1===(t=parseInt(t).toString(16)).length?"0"+t:t},n=function(t){return t.charAt(0)===t.charAt(1)},r=e(t.r),i=e(t.g),o=e(t.b);return n(r)&&n(i)&&n(o)&&(r=r.charAt(0),i=i.charAt(0),o=o.charAt(0)),"#"+r+i+o}return"rgba("+t.r+","+t.g+","+t.b+","+t.a+")"}function mt(t){return t?"url(#"+t+")":"none"}var bt={f:null,i:q,u:function(t,e){return function(n){var r=e(n);t.setAttribute("rx",yt(r.x)),t.setAttribute("ry",yt(r.y))}}},kt={f:null,i:function(t,e,n){return 0===t?e:1===t?n:{width:C(t,e.width,n.width),height:C(t,e.height,n.height)}},u:function(t,e){return function(n){var r=e(n);t.setAttribute("width",yt(r.width)),t.setAttribute("height",yt(r.height))}}};Object.freeze({M:2,L:2,Z:0,H:1,V:1,C:6,Q:4,T:2,S:4,A:7});var wt={},xt=null;function At(t){var e=function(){if(xt)return xt;if("object"!==("undefined"==typeof document?"undefined":n(document))||!document.createElementNS)return{};var t=document.createElementNS("http://www.w3.org/2000/svg","svg");return t&&t.style?(t.style.position="absolute",t.style.opacity="0.01",t.style.zIndex="-9999",t.style.left="-9999px",t.style.width="1px",t.style.height="1px",xt={svg:t}):{}}().svg;if(!e)return function(t){return null};var r=document.createElementNS(e.namespaceURI,"path");r.setAttributeNS(null,"d",t),r.setAttributeNS(null,"fill","none"),r.setAttributeNS(null,"stroke","none"),e.appendChild(r);var i=r.getTotalLength();return function(t){var e=r.getPointAtLength(i*t);return{x:e.x,y:e.y}}}function _t(t){return wt[t]?wt[t]:wt[t]=At(t)}function Ot(t,e,n,r){if(!t||!r)return!1;var i=["M",t.x,t.y];if(e&&n&&(i.push("C"),i.push(e.x),i.push(e.y),i.push(n.x),i.push(n.y)),e?!n:n){var o=e||n;i.push("Q"),i.push(o.x),i.push(o.y)}return e||n||i.push("L"),i.push(r.x),i.push(r.y),i.join(" ")}function St(t,e,n,r){var i=arguments.length>4&&void 0!==arguments[4]?arguments[4]:1,o=Ot(t,e,n,r),u=_t(o);try{return u(i)}catch(t){return null}}function Et(t,e,n){return t+(e-t)*n}function Pt(t,e,n){var r=arguments.length>3&&void 0!==arguments[3]&&arguments[3],i={x:Et(t.x,e.x,n),y:Et(t.y,e.y,n)};return r&&(i.a=Mt(t,e)),i}function Mt(t,e){return Math.atan2(e.y-t.y,e.x-t.x)}function jt(t,e,n,r){var i=1-r;return i*i*t+2*i*r*e+r*r*n}function Bt(t,e,n,r){return 2*(1-r)*(e-t)+2*r*(n-e)}function Tt(t,e,n,r){var i=arguments.length>4&&void 0!==arguments[4]&&arguments[4],o=St(t,e,null,n,r);return o||(o={x:jt(t.x,e.x,n.x,r),y:jt(t.y,e.y,n.y,r)}),i&&(o.a=It(t,e,n,r)),o}function It(t,e,n,r){return Math.atan2(Bt(t.y,e.y,n.y,r),Bt(t.x,e.x,n.x,r))}function Rt(t,e,n,r,i){var o=i*i;return i*o*(r-t+3*(e-n))+3*o*(t+n-2*e)+3*i*(e-t)+t}function Nt(t,e,n,r,i){var o=1-i;return 3*(o*o*(e-t)+2*o*i*(n-e)+i*i*(r-n))}function Ft(t,e,n,r,i){var o=arguments.length>5&&void 0!==arguments[5]&&arguments[5],u=St(t,e,n,r,i);return u||(u={x:Rt(t.x,e.x,n.x,r.x,i),y:Rt(t.y,e.y,n.y,r.y,i)}),o&&(u.a=Ct(t,e,n,r,i)),u}function Ct(t,e,n,r,i){return Math.atan2(Nt(t.y,e.y,n.y,r.y,i),Nt(t.x,e.x,n.x,r.x,i))}function Lt(t,e,n){var r=arguments.length>3&&void 0!==arguments[3]&&arguments[3];if(qt(e)){if(Vt(n))return Tt(e,n.start,n,t,r)}else if(qt(n)){if(zt(e))return Tt(e,e.end,n,t,r)}else{if(zt(e))return Vt(n)?Ft(e,e.end,n.start,n,t,r):Tt(e,e.end,n,t,r);if(Vt(n))return Tt(e,n.start,n,t,r)}return Pt(e,n,t,r)}function Dt(t,e,n){var r=Lt(t,e,n,!0);return r.a=function(t){return arguments.length>1&&void 0!==arguments[1]&&arguments[1]?t+Math.PI:t}(r.a)/m,r}function qt(t){return!t.type||"corner"===t.type}function Vt(t){return null!=t.start&&!qt(t)}function zt(t){return null!=t.end&&!qt(t)}var Yt=new R;var Gt={f:function(t){return t?t.join(" "):""},i:function(t,e,r){if(0===t)return e;if(1===t)return r;var i=e.length;if(i!==r.length)return N(t,e,r);for(var o,u=new Array(i),a=0;a<i;a++){if((o=n(e[a]))!==n(r[a]))return N(t,e,r);if("number"===o)u[a]=F(t,e[a],r[a]);else{if(e[a]!==r[a])return N(t,e,r);u[a]=e[a]}}return u}},Ut={f:null,i:Y,u:function(t,e){return function(n){var r=e(n);t.setAttribute("x1",yt(r[0])),t.setAttribute("y1",yt(r[1])),t.setAttribute("x2",yt(r[2])),t.setAttribute("y2",yt(r[3]))}}},$t={f:yt,i:F},Wt={f:yt,i:L},Ht={f:function(t){var e=arguments.length>1&&void 0!==arguments[1]?arguments[1]:" ";return t&&t.length>0&&(t=t.map((function(t){return g(t,4)}))),dt(t,e)},i:function(t,e,n){var r,i,o,u=e.length,a=n.length;if(u!==a)if(0===u)e=G(u=a,0);else if(0===a)a=u,n=G(u,0);else{var s=(o=(r=u)*(i=a)/function(t,e){for(var n;e;)n=e,e=t%e,t=n;return t||1}(r,i))<0?-o:o;e=U(e,Math.floor(s/u)),n=U(n,Math.floor(s/a)),u=a=s}for(var l=[],f=0;f<u;f++)l.push(g(C(t,e[f],n[f])));return l}};function Qt(t,e,n){return t.map((function(t){return function(t,e,n){var r=t.v;if(!r||"g"!==r.t||r.s||!r.v||!r.r)return t;var i=n.getElementById(r.r),o=i&&i.querySelectorAll("stop")||[];return r.s=r.v.map((function(t,e){var n=o[e]&&o[e].getAttribute("offset");return{c:t,o:n=g(parseInt(n)/100)}})),delete r.v,t}(t,0,n)}))}var Xt={gt:"gradientTransform",c:{x:"cx",y:"cy"},rd:"r",f:{x:"x1",y:"y1"},to:{x:"x2",y:"y2"}};function Jt(t,e,r,i,o,u,a,s){return Qt(t,0,s),e=function(t,e,n){for(var r,i,o,u=t.length-1,a={},s=0;s<=u;s++)(r=t[s]).e&&(r.e=e(r.e)),r.v&&"g"===(i=r.v).t&&i.r&&(o=n.getElementById(i.r))&&(a[i.r]={e:o,s:o.querySelectorAll("stop")});return a}(t,i,s),function(i){var o=r(i,t,Kt);if(!o)return"none";if("c"===o.t)return pt(o.v);if("g"===o.t){if(!e[o.r])return mt(o.r);var u=e[o.r];return function(t,e){for(var n=t.s,r=n.length;r<e.length;r++){var i=n[n.length-1].cloneNode();i.id=ee(i.id),t.e.appendChild(i),n=t.s=t.e.querySelectorAll("stop")}for(var o=0,u=n.length,a=e.length-1;o<u;o++)n[o].setAttribute("stop-color",pt(e[Math.min(o,a)].c)),n[o].setAttribute("offset",e[Math.min(o,a)].o)}(u,o.s),Object.keys(Xt).forEach((function(t){if(void 0!==o[t])if("object"!==n(Xt[t])){var e,r="gt"===t?(e=o[t],Array.isArray(e)?"matrix("+e.join(" ")+")":""):o[t],i=Xt[t];u.e.setAttribute(i,r)}else Object.keys(Xt[t]).forEach((function(e){if(void 0!==o[t][e]){var n=o[t][e],r=Xt[t][e];u.e.setAttribute(r,n)}}))})),mt(o.r)}return"none"}}function Kt(t,n,r){if(0===t)return n;if(1===t)return r;if(n&&r){var i=n.t;if(i===r.t)switch(n.t){case"c":return{t:i,v:z(t,n.v,r.v)};case"g":if(n.r===r.r){var o={t:i,s:Zt(t,n.s,r.s),r:n.r};return n.gt&&r.gt&&(o.gt=Y(t,n.gt,r.gt)),n.c?(o.c=D(t,n.c,r.c),o.rd=C(t,n.rd,r.rd)):n.f&&(o.f=D(t,n.f,r.f),o.to=D(t,n.to,r.to)),o}}if("c"===n.t&&"g"===r.t||"c"===r.t&&"g"===n.t){var u="c"===n.t?n:r,a="g"===n.t?e({},n):e({},r),s=a.s.map((function(t){return{c:u.v,o:t.o}}));return a.s="c"===n.t?Zt(t,s,a.s):Zt(t,a.s,s),a}}return N(t,n,r)}function Zt(t,e,n){if(e.length===n.length)return e.map((function(e,r){return te(t,e,n[r])}));for(var r=Math.max(e.length,n.length),i=[],o=0;o<r;o++){var u=te(t,e[Math.min(o,e.length-1)],n[Math.min(o,n.length-1)]);i.push(u)}return i}function te(t,e,n){return{o:L(t,e.o,n.o||0),c:z(t,e.c,n.c||{})}}function ee(t){return t.replace(/-fill-([0-9]+)$/,(function(t,e){return"-fill-"+(+e+1)}))}var ne={blur:q,brightness:C,contrast:C,"drop-shadow":function(t,e,n){return 0===t?e:1===t?n:{blur:q(t,e.blur,n.blur),offset:D(t,e.offset,n.offset),color:z(t,e.color,n.color)}},grayscale:C,"hue-rotate":F,invert:C,opacity:C,saturate:C,sepia:C};function re(t,e,n){if(0===t)return e;if(1===t)return n;var r=e.length;if(r!==n.length)return N(t,e,n);for(var i,o=[],u=0;u<r;u++){if(e[u].type!==n[u].type)return e;if(!(i=ne[e[u].type]))return N(t,e,n);o.push({type:e.type,value:i(t,e[u].value,n[u].value)})}return o}var ie={blur:function(t){return t?function(e){t.setAttribute("stdDeviation",gt(e))}:null},brightness:function(t,e,n){return(t=ue(n,e))?function(e){e=yt(e),t.map((function(t){return t.setAttribute("slope",e)}))}:null},contrast:function(t,e,n){return(t=ue(n,e))?function(e){var n=yt((1-e)/2);e=yt(e),t.map((function(t){t.setAttribute("slope",e),t.setAttribute("intercept",n)}))}:null},"drop-shadow":function(t,e,n){var r=n.getElementById(e+"-blur");if(!r)return null;var i=n.getElementById(e+"-offset");if(!i)return null;var o=n.getElementById(e+"-flood");return o?function(t){r.setAttribute("stdDeviation",gt(t.blur)),i.setAttribute("dx",yt(t.offset.x)),i.setAttribute("dy",yt(t.offset.y)),o.setAttribute("flood-color",pt(t.color))}:null},grayscale:function(t){return t?function(e){t.setAttribute("values",dt(function(t){return[.2126+.7874*(t=1-t),.7152-.7152*t,.0722-.0722*t,0,0,.2126-.2126*t,.7152+.2848*t,.0722-.0722*t,0,0,.2126-.2126*t,.7152-.7152*t,.0722+.9278*t,0,0,0,0,0,1,0]}(e)))}:null},"hue-rotate":function(t){return t?function(e){return t.setAttribute("values",yt(e))}:null},invert:function(t,e,n){return(t=ue(n,e))?function(e){e=yt(e)+" "+yt(1-e),t.map((function(t){return t.setAttribute("tableValues",e)}))}:null},opacity:function(t,e,n){return(t=n.getElementById(e+"-A"))?function(e){return t.setAttribute("tableValues","0 "+yt(e))}:null},saturate:function(t){return t?function(e){return t.setAttribute("values",yt(e))}:null},sepia:function(t){return t?function(e){return t.setAttribute("values",dt(function(t){return[.393+.607*(t=1-t),.769-.769*t,.189-.189*t,0,0,.349-.349*t,.686+.314*t,.168-.168*t,0,0,.272-.272*t,.534-.534*t,.131+.869*t,0,0,0,0,0,1,0]}(e)))}:null}};var oe=["R","G","B"];function ue(t,e){var n=oe.map((function(n){return t.getElementById(e+"-"+n)||null}));return-1!==n.indexOf(null)?null:n}var ae={fill:Jt,"fill-opacity":Wt,stroke:Jt,"stroke-opacity":Wt,"stroke-width":$t,"stroke-dashoffset":{f:yt,i:F},"stroke-dasharray":Ht,opacity:Wt,transform:function(t,e,r,i){if(!(t=function(t,e){if(!t||"object"!==n(t))return null;var r=!1;for(var i in t)t.hasOwnProperty(i)&&(t[i]&&t[i].length?(t[i].forEach((function(t){t.e&&(t.e=e(t.e))})),r=!0):delete t[i]);return r?t:null}(t,i)))return null;var o=function(n,i,o){var u=arguments.length>3&&void 0!==arguments[3]?arguments[3]:null;return t[n]?r(i,t[n],o):e&&e[n]?e[n]:u};return e&&e.a&&t.o?function(e){var n=r(e,t.o,Dt);return Yt.recomposeSelf(n,o("r",e,F,0)+n.a,o("k",e,D),o("s",e,D),o("t",e,D)).toString()}:function(t){return Yt.recomposeSelf(o("o",t,Lt,null),o("r",t,F,0),o("k",t,D),o("s",t,D),o("t",t,D)).toString()}},"#filter":function(t,e,n,r,i,o,u,a){if(!e.items||!t||!t.length)return null;var s=function(t,e){var n=(t=t.map((function(t){return t&&ie[t[0]]?(e.getElementById(t[1]),ie[t[0]](e.getElementById(t[1]),t[1],e)):null}))).length;return function(e){for(var r=0;r<n;r++)t[r]&&t[r](e[r].value)}}(e.items,a);return s?(t=function(t,e){return t.map((function(t){return t.e=e(t.e),t}))}(t,r),function(e){s(n(e,t,re))}):null},"#line":Ut,points:{f:dt,i:Y},d:Gt,r:$t,"#size":kt,"#radius":bt,_:function(t,e){if(Array.isArray(t))for(var n=0;n<t.length;n++)this[t[n]]=e;else this[t]=e}},se={currentTime:"offset",duration:"duration",hasEnded:function(){return this.reachedToEnd()},isAlternate:"alternate",isPlaying:"_running",isRollingBack:"_rollingBack",state:function(t,e){return e.isPlaying?e.isRollingBack?"rollback":"playing":e.hasEnded?"ended":"paused"},totalTime:"maxFiniteDuration",iterations:"iterations",direction:"direction",fill:"fill",isReversed:function(t,e){return-1===e.direction},isBackwards:function(t,e){return-1===e.fill},isInfinite:function(t,e){return 0===e.iterations},speed:"speed",fps:"fps"},le={destruct:"destruct",pause:"pause",play:function(t,e){return fe(t,e.hasEnded?"restart":"play",e)},restart:"restart",reverse:function(t,e){return fe(t,"reverse",e,[!0])},seek:"seek",seekBy:"seekBy",seekTo:"seekTo",stop:"stop",toggle:"toggle",togglePlay:"toggle",set:"set"};function fe(t,e,n){var r=arguments.length>3&&void 0!==arguments[3]?arguments[3]:[];return function(){var i,o=Array.prototype.slice.call(arguments);return o.unshift.apply(o,v(r)),(i=t[e]).call.apply(i,[t].concat(v(o))),n}}var ce=function t(e){r(this,t);var n={},i=["on","off"],o={get:function(t,e,r){return se[e]?"function"==typeof se[e]?se[e].call(t,t,r):t[se[e]]:le[e]?"function"==typeof le[e]?le[e].call(t,t,r):fe(t,le[e],r):-1!==i.indexOf(e)?n[e]:"ready"===e?function(t){return t&&t.call(r,r),r}:void 0},set:function(t,e,r){return-1!==i.indexOf(e)&&(n[e]=r)},ownKeys:function(t){return Object.keys(se)},has:function(t,e){return void 0!==se[e]}};if("function"==typeof Proxy)return new Proxy(e,o);var u=Object.keys(se).concat(Object.keys(le)).concat(i),a={};return u.forEach((function(t){var n={enumerable:!1,configurable:!1,get:function(){return o.get(e,t,a)}};-1!==i.indexOf(t)&&(n.set=function(n){return o.set(e,t,n)}),Object.defineProperty(a,t,n)})),a};function he(t){t||(t=this);var e={};this.on=function(t,n){var r=arguments.length>2&&void 0!==arguments[2]&&arguments[2];return"function"==typeof n&&(t.split(/[, ]+/g).forEach((function(t){return e[t]=e[t]||[],r?e[t].unshift(n):e[t].push(n)})),!0)},this.off=function(t,n){for(var r in e)if(e.hasOwnProperty(r)&&r.substr(0,t.length)===t)if(n)for(var i=0;i<e[r].length;i++)e[r][i]===n&&(e[r][i]=null);else e[r]=null},this.trigger=function(){var n,r=Array.prototype.slice.call(arguments),i=r[0],o=r.slice(1);t:for(var u in e)if(e.hasOwnProperty(u)&&e[u]&&(u===i||u.substr(0,i.length+1)===i+"."))for(var a=0;a<(e[u]||[]).length;a++)if(e[u][a]&&!1===(n=e[u][a].apply(t,o)))break t;return n}}var ve=!0,ye=["iterations","speed","fps","direction","fill","alternate"],de=function(t){!function(t,e){if("function"!=typeof e&&null!==e)throw new TypeError("Super expression must either be null or a function");t.prototype=Object.create(e&&e.prototype,{constructor:{value:t,writable:!0,configurable:!0}}),e&&s(t,e)}(u,t);var e,n,i=(e=u,n=l(),function(){var t,r=a(e);if(n){var i=a(this).constructor;t=Reflect.construct(r,arguments,i)}else t=r.apply(this,arguments);return c(this,t)});function u(t,e){var n,o=arguments.length>2&&void 0!==arguments[2]?arguments[2]:null;return r(this,u),(n=i.call(this,t,e,o))._handlers=[],n}return o(u,[{key:"_adjustOffset",value:function(){var t=arguments.length>0&&void 0!==arguments[0]&&arguments[0],e=this.alternate?2*this.duration:this.duration;if(t){if(!this._rollingBack&&0===this.offset)return void(this.offset=e);this._rollingBack&&(this.offset,this.maxFiniteDuration)}!this._rollingBack||this.rollbackStartOffset<=this.duration?0!==this.iterations&&(this.offset=Math.min(this.offset,this.maxFiniteDuration)):(this.offset=this.rollbackStartOffset-(this.rollbackStartOffset-this.offset)%e,this.rollbackStartOffset=0)}},{key:"reverse",value:function(){var t=arguments.length>0&&void 0!==arguments[0]&&arguments[0];if(!this._running)return this._adjustOffset(t),this._rollingBack=!this._rollingBack,t&&this.play(!1),void this.trigger("reverse",this.offset);this.pause(!1,!1),this._adjustOffset(),this._rollingBack=!this._rollingBack,this.play(!1),this.trigger("reverse",this.offset)}},{key:"play",value:function(){var t=arguments.length>0&&void 0!==arguments[0]?arguments[0]:ve,e=h(a(u.prototype),"play",this).call(this);return t===ve&&this.trigger("play",this.offset),e}},{key:"pause",value:function(){var t=arguments.length>0&&void 0!==arguments[0]&&arguments[0],e=arguments.length>1&&void 0!==arguments[1]?arguments[1]:ve,n=h(a(u.prototype),"pause",this).call(this);return e===ve&&this.trigger(t?"end":"pause",this.offset),n}},{key:"restart",value:function(){var t=h(a(u.prototype),"restart",this).call(this,!1);return this.trigger("restart",this.offset),t}},{key:"stop",value:function(){var t=arguments.length>0&&void 0!==arguments[0]?arguments[0]:ve,e=h(a(u.prototype),"stop",this).call(this);return t===ve&&this.trigger("stop",this.offset),e}},{key:"_apply",value:function(t){var e=this,n=arguments.length>2&&void 0!==arguments[2]?arguments[2]:ve,r=h(a(u.prototype),"_apply",this).call(this,t);if(n===ve){var i=function(){return e.trigger("keyframe",t)};window.requestAnimationFrame(i)}return r}},{key:"seekTo",value:function(t){var e,n,r,i=this._running;i&&this.pause(!1,!1),this.offset=this.iterations>0?(e=t,n=0,r=this.maxFiniteDuration,e<n?n:e>r?r:e):Math.max(t,0),this._apply(this.offset),i&&this.play(!1)}},{key:"seek",value:function(t){return this.seekTo(Math.round(t/100*this.maxFiniteDuration))}},{key:"seekBy",value:function(t){return this.seekTo(this.offset+t)}},{key:"toggle",value:function(){return this._running?this.pause():this.reachedToEnd()?this.restart():this.play()}},{key:"set",value:function(t,e){if(ye.includes(t)){var n=this._running;n&&this.pause(!1,!1),this._settings[t]=e,n?this.play(!1):this._apply(this.offset,{},!1)}}},{key:"destruct",value:function(){var t=this;this.stop(),this._handlers.forEach((function(t){t.element?t.element.removeEventListener(t.event,t.handler):t.callback&&t.callback.call&&t.callback.call()}));var e=function(){},n=Object.getOwnPropertyNames(Object.getPrototypeOf(this));n.push.apply(n,v(Object.getOwnPropertyNames(this))),n.forEach((function(n){"function"==typeof t[n]?t[n]=e:delete t[n]}))}}],[{key:"build",value:function(t){var e=h(a(u),"build",this).call(this,t,ae);if(!e)return null;var n=e.el,r=e.options,i=e.player,o=new ce(i),s=new he(o);o.on=s.on,o.off=s.off,i.trigger=s.trigger;var l=n.svgatorPlayer&&n.svgatorPlayer.ready&&n.svgatorPlayer.ready.call&&n.svgatorPlayer.ready.call();n.svgatorPlayer=o,function(t,e,n){if("click"===n.start){var r=function(){switch(n.click){case"freeze":return!t._running&&t.reachedToEnd()?t.restart():t.toggle();case"restart":return t.offset>0?t.restart():t.play();case"reverse":return t._running?t.reverse():t.reachedToEnd()?1===t.fill?t.reverse(!0):t.restart():t.play();case"none":default:if(t._running)return;return t.reachedToEnd()?t.restart():t.play()}};return t._handlers.push({element:e,event:"click",handler:r}),void e.addEventListener("click",r)}if("hover"===n.start){var i=function(){return t.reachedToEnd()?t.restart():t._rollingBack?t.reverse():t.play()};t._handlers.push({element:e,event:"mouseenter",handler:i}),e.addEventListener("mouseenter",i);var o=function(){switch(n.hover){case"freeze":return t.pause();case"reset":return t.stop();case"reverse":if(t.reverse(),t._running)return;return t.play();case"none":default:return}};return t._handlers.push({element:e,event:"mouseleave",handler:o}),void e.addEventListener("mouseleave",o)}if("scroll"===n.start){var u=new vt(e,n.scroll||25,(function(e){e?t.reachedToEnd()?t.restart():t.play():t.pause()}));return void t._handlers.push({callback:function(){return u.destruct()}})}if("programmatic"===n.start)return;t.play()}(i,n,r),function(t,e,n){var r;"function"==typeof Event?r=new Event("ready"):(r=document.createEvent("Event")).initEvent("ready",!0,!0);if(t.dispatchEvent(r),!n||!n.length)return;n.forEach((function(t){return e.ready(t)}))}(n,n.svgatorPlayer,l)}}]),u}(ct);return de.init(),de}));
(function(s,i,o,w,a,b){(a=document.getElementById(i.root)).svgatorPlayer={ready:(function(a){b=[];return function(c){return c?(b.push(c),a.svgatorPlayer):b}})(a)};w[o]=w[o]||{};w[o][s]=w[o][s]||[];w[o][s].push(i);})('91c80d77',{"root":"eUxDHydgQuM1","version":"2022-05-04","animations":[{"elements":{"eUxDHydgQuM3":{"transform":{"data":{"t":{"x":-644.768883,"y":-888.240112}},"keys":{"o":[{"t":0,"v":{"x":644.768883,"y":888.240112,"type":"corner"},"e":[0.445,0.05,0.55,0.95]},{"t":1500,"v":{"x":627.140885,"y":869.944063,"type":"corner"},"e":[0.445,0.05,0.55,0.95]},{"t":3000,"v":{"x":644.768883,"y":888.240112,"type":"corner"},"e":[0.445,0.05,0.55,0.95]}],"r":[{"t":0,"v":0,"e":[0.445,0.05,0.55,0.95]},{"t":1500,"v":-12.832816,"e":[0.445,0.05,0.55,0.95]},{"t":3000,"v":0,"e":[0.445,0.05,0.55,0.95]}]}}},"eUxDHydgQuM4":{"transform":{"data":{"t":{"x":-751.98999,"y":-764.105286}},"keys":{"o":[{"t":0,"v":{"x":751.98999,"y":764.105286,"type":"corner"},"e":[0.445,0.05,0.55,0.95]},{"t":1500,"v":{"x":901.612971,"y":609.495191,"type":"corner"},"e":[0.445,0.05,0.55,0.95]},{"t":3000,"v":{"x":751.98999,"y":764.105286,"type":"corner"}}],"r":[{"t":0,"v":0,"e":[0.445,0.05,0.55,0.95]},{"t":1500,"v":-62.798759,"e":[0.445,0.05,0.55,0.95]},{"t":3000,"v":0}]}}},"eUxDHydgQuM5":{"transform":{"data":{"t":{"x":-721.2435,"y":-783.215698}},"keys":{"o":[{"t":0,"v":{"x":721.2435,"y":783.215698,"type":"corner"},"e":[0.445,0.05,0.55,0.95]},{"t":500,"v":{"x":787.260038,"y":816.799539,"type":"corner"},"e":[0.445,0.05,0.55,0.95]},{"t":1100,"v":{"x":803.430471,"y":829.49653,"type":"corner"},"e":[0.445,0.05,0.55,0.95]},{"t":1600,"v":{"x":795.122169,"y":824.275609,"type":"corner"},"e":[0.445,0.05,0.55,0.95]},{"t":2000,"v":{"x":848.898323,"y":828.01455,"type":"corner"},"e":[0.445,0.05,0.55,0.95]},{"t":3000,"v":{"x":721.2435,"y":783.215698,"type":"corner"}}],"r":[{"t":0,"v":0,"e":[0.445,0.05,0.55,0.95]},{"t":500,"v":-40.314113,"e":[0.445,0.05,0.55,0.95]},{"t":1100,"v":-44.40526,"e":[0.445,0.05,0.55,0.95]},{"t":1600,"v":-42.229301,"e":[0.445,0.05,0.55,0.95]},{"t":2000,"v":-69.952226,"e":[0.445,0.05,0.55,0.95]},{"t":3000,"v":0}]}}},"eUxDHydgQuM10":{"transform":{"data":{"t":{"x":-820.177551,"y":-764.105286}},"keys":{"o":[{"t":0,"v":{"x":820.177551,"y":764.105286,"type":"corner"},"e":[0.445,0.05,0.55,0.95]},{"t":1500,"v":{"x":888.906904,"y":684.108099,"type":"corner"},"e":[0.445,0.05,0.55,0.95]},{"t":3000,"v":{"x":820.177551,"y":764.105286,"type":"corner"}}],"r":[{"t":0,"v":0,"e":[0.445,0.05,0.55,0.95]},{"t":1500,"v":-21.82432,"e":[0.445,0.05,0.55,0.95]},{"t":3000,"v":0}]}}},"eUxDHydgQuM11":{"transform":{"data":{"t":{"x":-876.309998,"y":-815.994996}},"keys":{"o":[{"t":0,"v":{"x":876.309998,"y":815.994996,"type":"corner"},"e":[0.445,0.05,0.55,0.95]},{"t":500,"v":{"x":1028.639281,"y":806.204953,"type":"corner"},"e":[0.445,0.05,0.55,0.95]},{"t":900,"v":{"x":1102.089599,"y":776.395586,"type":"corner"},"e":[0.445,0.05,0.55,0.95]},{"t":1500,"v":{"x":1028.639281,"y":806.204953,"type":"corner"},"e":[0.445,0.05,0.55,0.95]},{"t":1900,"v":{"x":1125.966023,"y":728.744715,"type":"corner"},"e":[0.445,0.05,0.55,0.95]},{"t":2500,"v":{"x":1012.313466,"y":814.308356,"type":"corner"},"e":[0.445,0.05,0.55,0.95]},{"t":3000,"v":{"x":876.309998,"y":815.994996,"type":"corner"}}],"r":[{"t":0,"v":0,"e":[0.445,0.05,0.55,0.95]},{"t":500,"v":-46.959872,"e":[0.445,0.05,0.55,0.95]},{"t":900,"v":-70.154463,"e":[0.445,0.05,0.55,0.95]},{"t":1500,"v":-46.959872,"e":[0.445,0.05,0.55,0.95]},{"t":1900,"v":-87.983082,"e":[0.445,0.05,0.55,0.95]},{"t":2500,"v":-39.99231,"e":[0.445,0.05,0.55,0.95]},{"t":3000,"v":0}]}}},"eUxDHydgQuM12":{"transform":{"data":{"t":{"x":-853.485016,"y":-835.302093}},"keys":{"o":[{"t":0,"v":{"x":853.485016,"y":835.302093,"type":"corner"},"e":[0.445,0.05,0.55,0.95]},{"t":500,"v":{"x":879.30121,"y":821.360203,"type":"corner"},"e":[0.445,0.05,0.55,0.95]},{"t":1500,"v":{"x":853.485016,"y":835.302093,"type":"corner"},"e":[0.445,0.05,0.55,0.95]},{"t":2500,"v":{"x":873.577432,"y":828.644438,"type":"corner"},"e":[0.445,0.05,0.55,0.95]},{"t":3000,"v":{"x":853.485016,"y":835.302093,"type":"corner"}}],"r":[{"t":0,"v":0,"e":[0.445,0.05,0.55,0.95]},{"t":500,"v":-43.165087,"e":[0.445,0.05,0.55,0.95]},{"t":1500,"v":0,"e":[0.445,0.05,0.55,0.95]},{"t":2500,"v":-31.560674,"e":[0.445,0.05,0.55,0.95]},{"t":3000,"v":0}]}}},"eUxDHydgQuM77":{"transform":{"data":{"t":{"x":-133.054525,"y":-811.457336}},"keys":{"o":[{"t":0,"v":{"x":94.445525,"y":733.420702,"type":"corner"},"e":[0.445,0.05,0.55,0.95]},{"t":1500,"v":{"x":82.980576,"y":835.148851,"type":"corner"},"e":[0.445,0.05,0.55,0.95]},{"t":3000,"v":{"x":94.445525,"y":733.420702,"type":"corner"},"e":[0.445,0.05,0.55,0.95]}],"r":[{"t":0,"v":15.821924,"e":[0.445,0.05,0.55,0.95]},{"t":1500,"v":-1.024911,"e":[0.445,0.05,0.55,0.95]},{"t":3000,"v":15.821924,"e":[0.445,0.05,0.55,0.95]}]}}}},"s":"MDWA1ZGJjNjNhNFWI2YjNhMmI1HYWFiMGFmNjMK3Yjc0NzY3MTBcxNmQ2M0VhNVWFhYjNhNkxWKYTRiNWFhYjBLhZk82MzdiNzVI2ZDYzYWFiNWWE2Q2IzYTJiUNWFhYjBHYWZViNDYzN2I3MjSZkNjNhN2FhYHWRhZDYzWDdiWNzI2ZDYzYTJRhZGI1YTZiM2PFmYTJiNWE2NRjM3YlZhN2EyQYWRiNGE2NmQB2M2I0T2IxYTHZhNmE1NjM3YNlU3MjZkNjNhXN2IxYjQ2MzdEiNzI3MTcxYmQU/"}],"options":"MDTAxMDgyMjk3YVTdiNjg3OTdiAVDI5WDQxMjkH3Mzc2Njg2YjDI5ODQ/"},'__SVGATOR_PLAYER__',window)
]]></script>
</svg>
